<?xml version="1.0" encoding="UTF-8"?>
<svg width="1196px" height="1007px" viewBox="0 0 1196 1007" version="1.1" xmlns="http://www.w3.org/2000/svg" xmlns:xlink="http://www.w3.org/1999/xlink">
    <!-- Generator: Sketch 50.2 (55047) - http://www.bohemiancoding.com/sketch -->
    <title>basicauth</title>
    <desc>Created with Sketch.</desc>
    <defs></defs>
    <g id="Page-1" stroke="none" stroke-width="1" fill="none" fill-rule="evenodd">
        <g id="Basic-Auth" transform="translate(-25.000000, -34.000000)">
            <g id="basicauth" transform="translate(25.000000, 34.000000)">
                <g id="Vertical-wavy-line-test" transform="translate(793.000000, 107.000000)" stroke="#000000" stroke-width="10">
                    <path d="M10,0 C10,30 0,45 0,75 C0,105 10,120 10,150 C10,180 0,195 0,225 C0,255 10,270 10,300" id="Shape"></path>
                </g>
                <g id="Vertical-wavy-line-test" transform="translate(793.000000, 407.000000)" stroke="#000000" stroke-width="10">
                    <path d="M10,0 C10,30 0,45 0,75 C0,105 10,120 10,150 C10,180 0,195 0,225 C0,255 10,270 10,300" id="Shape"></path>
                </g>
                <g id="Vertical-wavy-line-test" transform="translate(793.000000, 697.000000)" stroke="#000000" stroke-width="10">
                    <path d="M10,0 C10,30 0,45 0,75 C0,105 10,120 10,150 C10,180 0,195 0,225 C0,255 10,270 10,300" id="Shape"></path>
                </g>
                <g id="Vertical-wavy-line-test" transform="translate(96.000000, 107.000000)" stroke="#000000" stroke-width="10">
                    <path d="M10,0 C10,30 0,45 0,75 C0,105 10,120 10,150 C10,180 0,195 0,225 C0,255 10,270 10,300" id="Shape"></path>
                </g>
                <g id="Vertical-wavy-line-test" transform="translate(96.000000, 407.000000)" stroke="#000000" stroke-width="10">
                    <path d="M10,0 C10,30 0,45 0,75 C0,105 10,120 10,150 C10,180 0,195 0,225 C0,255 10,270 10,300" id="Shape"></path>
                </g>
                <g id="Vertical-wavy-line-test" transform="translate(96.000000, 707.000000)" stroke="#000000" stroke-width="10">
                    <path d="M10,0 C10,30 0,45 0,75 C0,105 10,120 10,150 C10,180 0,195 0,225 C0,255 10,270 10,300" id="Shape"></path>
                </g>
                <g id="200" transform="translate(131.000000, 756.000000)">
                    <g id="LEFT-Arrow-Copy" transform="translate(327.500000, 55.500000) rotate(-180.000000) translate(-327.500000, -55.500000) translate(0.000000, 27.000000)">
                        <path d="M577.481745,23.1144804 C577.709204,23.9547523 578.043542,25.2945975 578.468315,26.6220858 C578.536827,26.8321537 578.978043,27.0492828 579.326083,27.1499036 C579.641238,27.241698 580.367463,27.2346369 580.392127,27.178148 C581.745921,23.9953536 583.9383,20.9043537 583.272365,17.4938385 C583.195632,17.1019471 582.214542,16.718882 581.537645,16.4540904 C580.608625,16.0869128 579.967354,16.3605307 579.383633,16.948368 C577.648914,18.6924616 578.251818,20.7084079 577.481745,23.1144804 M591.663694,24.9274199 C591.299211,25.8577208 591.074492,26.1313388 591.112859,26.3873039 C591.186852,26.9045301 591.156706,27.6035798 591.63903,27.8648408 C592.039139,28.0802045 593.414856,27.9601657 593.845111,27.6706603 C596.188215,26.1048596 598.407999,24.463152 600.583935,22.7984958 C601.263572,22.2777391 600.857982,21.8011144 600.041321,21.3668562 C596.264949,19.357971 593.527216,19.6986695 592.491317,22.3695335 C592.080246,23.4357608 591.792496,24.5214062 591.663694,24.9274199 M623.094182,29.4112234 C622.916051,29.1764415 622.836578,28.828682 622.546088,28.7210001 C620.731894,28.0378379 618.923182,27.3334924 616.993889,26.8162662 C616.462237,26.6732788 615.14681,27.0104467 614.850839,27.3582063 C612.992798,29.5648025 612.729712,32.0044153 612.806445,34.4599155 C612.814667,34.6699835 613.209295,34.9541931 613.532671,35.0583444 C613.883451,35.1677916 614.521982,35.227811 614.768624,35.1007111 C617.40496,33.7343867 620.044035,32.3610012 622.546088,30.8958213 C623.028411,30.613377 622.927013,29.9178579 623.094182,29.4112234 M601.934988,35.6320594 C601.934988,34.4334364 602.187111,33.4996048 600.737401,33.245405 C600.115314,33.1377231 599.076674,33.5507979 598.487473,33.9056186 C592.252896,37.6568321 587.396777,42.4160188 579.158914,44.7020525 C578.046282,45.0092107 577.717425,47.0410445 578.454613,47.7683386 C579.372671,48.6721604 580.666175,48.4532661 581.874723,48.1072718 C586.207412,46.8733432 590.501733,45.5829257 594.842643,44.3613541 C597.827018,43.5246128 599.726166,42.213012 600.293444,40.0752616 C600.72918,38.4406151 601.477329,36.8395089 601.934988,35.6320594 M254.157966,30.0926203 C247.498616,30.2250161 236.120171,30.4880423 224.741725,30.6716311 C202.848084,31.0246865 180.948962,31.2029795 159.063543,31.6937265 C128.866267,32.3715929 98.6826946,33.3018938 68.4909004,34.0644935 C47.9209079,34.5852502 27.3454344,35.0230389 6.77270145,35.4308179 C5.10923416,35.4625928 3.26215517,35.1501388 1.8014829,34.6435043 C0.875202933,34.3222239 0.0585418926,33.3530869 0.0037324268,32.6469761 C-0.0538175123,31.919682 0.560048504,30.8693422 1.43699996,30.4827465 C2.80175565,29.8807871 4.61594897,29.4730081 6.27667578,29.4112234 C22.8921653,28.8233862 39.5076549,28.2143656 56.1341063,27.8224741 C98.1483023,26.8321537 140.165239,25.8418333 182.193137,25.0704073 C210.644731,24.5478853 239.112767,24.3519396 267.575323,24.1030355 C287.284807,23.9282731 306.997031,23.8241218 326.709256,23.8417745 C367.443651,23.8788454 408.197229,23.6140538 448.915181,24.2371966 C482.170824,24.7455963 515.456613,25.4746557 548.61634,27.4888368 C553.406687,27.7783422 558.16963,28.2655586 562.954496,28.5974307 C566.010124,28.8110292 567.788691,27.7730464 567.890088,25.6388265 C568.084662,21.4074576 568.106586,17.1760887 568.265533,12.9447198 C568.30664,11.8272995 568.503954,10.7045833 568.797185,9.60305049 C569.106858,8.43443713 571.921324,7.11577523 573.771144,7.3329043 C575.89227,7.58180836 578.079168,7.84836518 580.035866,8.39913159 C589.257558,11.0011498 598.468289,13.6225862 607.574882,16.3852446 C619.446612,19.9899402 631.230647,23.7199704 643.022904,27.4376437 C644.97138,28.0519601 646.837643,28.8127945 648.599767,29.631883 C650.449587,30.4951034 650.518098,33.3266077 648.753234,34.2339601 C647.39944,34.9294792 645.979875,35.6267636 644.428767,36.1016231 C627.835201,41.199743 611.203269,46.2449046 594.598741,51.3236064 C590.646978,52.5310559 586.804835,53.8903191 582.811965,55.0306881 C580.433235,55.712085 577.887335,56.1798834 575.360618,56.6053151 C572.842123,57.025451 569.641251,55.8427155 569.257584,54.227487 C568.660161,51.734916 568.284716,49.2070393 568.117548,46.6862238 C567.912012,43.5934586 568.13125,40.4883364 567.933936,37.3938058 C567.857203,36.2216619 566.670578,35.2631165 564.697437,35.0954152 C556.889828,34.4334364 549.093182,33.5666854 541.247207,33.2559966 C521.143095,32.461622 501.003357,32.0591388 480.899245,31.2577031 C434.516734,29.4059276 388.079414,29.9107968 341.658537,29.7430955 C314.064712,29.6424747 286.470886,29.9478676 254.157966,30.0926203" id="Fill-61" fill="#000000"></path>
                        <rect id="Rectangle-3" fill="#FFFFFF" x="260" y="8" width="327" height="45"></rect>
                        <rect id="Rectangle-2" fill="#FFFFFF" x="569" y="0" width="86" height="57"></rect>
                        <path d="M605.831203,18.1144804 C605.969782,18.9547523 606.173478,20.2945975 606.432271,21.6220858 C606.474012,21.8321537 606.742824,22.0492828 606.954867,22.1499036 C607.146875,22.241698 607.589329,22.2346369 607.604355,22.178148 C608.429155,18.9953536 609.764864,15.9043537 609.359142,12.4938385 C609.312393,12.1019471 608.714663,11.718882 608.302263,11.4540904 C607.736257,11.0869128 607.345562,11.3605307 606.98993,11.948368 C605.93305,13.6924616 606.30037,15.7084079 605.831203,18.1144804 M614.471566,19.9274199 C614.249505,20.8577208 614.112595,21.1313388 614.135969,21.3873039 C614.18105,21.9045301 614.162684,22.6035798 614.456539,22.8648408 C614.700306,23.0802045 615.538463,22.9601657 615.800596,22.6706603 C617.228134,21.1048596 618.580539,19.463152 619.90623,17.7984958 C620.320299,17.2777391 620.073193,16.8011144 619.575642,16.3668562 C617.274884,14.357971 615.606918,14.6986695 614.975796,17.3695335 C614.725351,18.4357608 614.550039,19.5214062 614.471566,19.9274199 M633.620616,24.4112234 C633.512089,24.1764415 633.46367,23.828682 633.286688,23.7210001 C632.18139,23.0378379 631.07943,22.3334924 629.904007,21.8162662 C629.580098,21.6732788 628.778673,22.0104467 628.598352,22.3582063 C627.466339,24.5648025 627.306054,27.0044153 627.352804,29.4599155 C627.357813,29.6699835 627.59824,29.9541931 627.795257,30.0583444 C628.008971,30.1677916 628.397996,30.227811 628.548263,30.1007111 C630.154452,28.7343867 631.762311,27.3610012 633.286688,25.8958213 C633.580544,25.613377 633.518768,24.9178579 633.620616,24.4112234 M620.72936,30.6320594 C620.72936,29.4334364 620.882966,28.4996048 619.999729,28.245405 C619.620722,28.1377231 618.98793,28.5507979 618.628959,28.9056186 C614.830538,32.6568321 611.871944,37.4160188 606.853019,39.7020525 C606.175147,40.0092107 605.974791,42.0410445 606.423923,42.7683386 C606.983251,43.6721604 607.771319,43.4532661 608.507628,43.1072718 C611.147322,41.8733432 613.763641,40.5829257 616.408343,39.3613541 C618.226576,38.5246128 619.383634,37.213012 619.729248,35.0752616 C619.99472,33.4406151 620.450531,31.8395089 620.72936,30.6320594 M408.845938,25.0926203 C404.788724,25.2250161 397.856398,25.4880423 390.924071,25.6716311 C377.585353,26.0246865 364.243296,26.2029795 350.909587,26.6937265 C332.511874,27.3715929 314.122509,28.3018938 295.728134,29.0644935 C283.19585,29.5852502 270.660227,30.0230389 258.126274,30.4308179 C257.112805,30.4625928 255.987471,30.1501388 255.097555,29.6435043 C254.533218,29.3222239 254.035667,28.3530869 254.002274,27.6469761 C253.967212,26.919682 254.34121,25.8693422 254.875493,25.4827465 C255.706972,24.8807871 256.812271,24.4730081 257.82407,24.4112234 C267.94707,23.8233862 278.070069,23.2143656 288.199748,22.8224741 C313.79693,21.8321537 339.395781,20.8418333 365.001311,20.0704073 C382.335466,19.5478853 399.67964,19.3519396 417.020474,19.1030355 C429.028492,18.9282731 441.03818,18.8241218 453.047868,18.8417745 C477.86533,18.8788454 502.694479,18.6140538 527.501923,19.2371966 C547.76295,19.7455963 568.042343,20.4746557 588.244932,22.4888368 C591.163455,22.7783422 594.065281,23.2655586 596.980465,23.5974307 C598.842108,23.8110292 599.925702,22.7730464 599.987478,20.6388265 C600.106022,16.4074576 600.11938,12.1760887 600.216218,7.94471979 C600.241263,6.82729947 600.361477,5.70458332 600.540128,4.60305049 C600.728796,3.43443713 602.443512,2.11577523 603.570516,2.3329043 C604.862814,2.58180836 606.195183,2.84836518 607.387303,3.39913159 C613.005626,6.00114985 618.617271,8.62258615 624.16547,11.3852446 C631.398331,14.9899402 638.577763,18.7199704 645.762205,22.4376437 C646.949316,23.0519601 648.086337,23.8127945 649.159913,24.631883 C650.286917,25.4951034 650.328658,28.3266077 649.253413,29.2339601 C648.428613,29.9294792 647.563741,30.6267636 646.618728,31.1016231 C636.509085,36.199743 626.376067,41.2449046 616.259746,46.3236064 C613.852131,47.5310559 611.511302,48.8903191 609.078644,50.0306881 C607.6294,50.712085 606.078309,51.1798834 604.538905,51.6053151 C603.00451,52.025451 601.054375,50.8427155 600.820626,49.227487 C600.456646,46.734916 600.227906,44.2070393 600.126058,41.6862238 C600.000835,38.5934586 600.134406,35.4883364 600.014193,32.3938058 C599.967443,31.2216619 599.244491,30.2631165 598.042353,30.0954152 C593.285562,29.4334364 588.535449,28.5666854 583.755282,28.2559966 C571.506836,27.461622 559.236685,27.0591388 546.988239,26.2577031 C518.729659,24.4059276 490.437685,24.9107968 462.15573,24.7430955 C445.34417,24.6424747 428.53261,24.9478676 408.845938,25.0926203" id="Fill-61" fill="#000000"></path>
                    </g>
                    <text id="200-OK" font-family="HanziPenTC-W5, HanziPen TC" font-size="35" font-weight="bold" fill="#4A4A4A">
                        <tspan x="262.3975" y="37">200 OK</tspan>
                    </text>
                </g>
                <g id="Security-Rules" transform="translate(837.000000, 560.000000)">
                    <rect id="Rectangle-4" fill="#FFFFFF" x="214" y="0" width="95" height="172"></rect>
                    <text id="Authentication-Providers" font-family="HanziPenTC-W5, HanziPen TC" font-size="35" font-weight="bold" fill="#4A4A4A">
                        <tspan x="181.3625" y="48">Validate </tspan>
                        <tspan x="127.1475" y="97">requested route </tspan>
                        <tspan x="124.435" y="146">and user against </tspan>
                        <tspan x="139.1" y="195">Security Rules</tspan>
                    </text>
                    <path d="M38.4624857,89.0933014 C35.4804857,88.5813014 32.6484857,89.1213014 29.7884857,89.4613014 C22.8554857,90.2853014 16.5154857,92.8593014 10.3024857,95.8433014 C9.73348571,96.1163014 9.19848571,96.4873014 8.71048571,96.8863014 C8.49948571,97.0593014 8.42648571,97.4173014 8.34148571,97.7053014 C8.32748571,97.7523014 8.57548571,97.9283014 8.72048571,97.9603014 C9.96448571,98.2353014 11.2074857,98.5203014 12.4604857,98.7463014 C14.6604857,99.1453014 16.8734857,99.4773014 19.0694857,99.8943014 C19.8474857,100.041301 20.6074857,100.315301 21.3464857,100.604301 C22.3984857,101.015301 22.9164857,102.088301 22.5024857,102.864301 C22.1154857,103.591301 21.3414857,104.017301 20.5034857,103.820301 C14.4254857,102.388301 8.23348571,101.693301 2.04948571,100.946301 C0.619485711,100.773301 -0.195514289,99.6053014 0.120485711,98.1853014 C1.26548571,93.0393014 2.35548571,87.8743014 4.15048571,82.9043014 C4.47048571,82.0223014 4.95148571,81.1713014 5.50748571,80.4153014 C5.72848571,80.1153014 6.35148571,80.0183014 6.79748571,80.0003014 C7.29648571,79.9813014 8.06248571,80.8653014 8.00348571,81.3223014 C7.90148571,82.1043014 7.79548571,82.8943014 7.58548571,83.6513014 C6.77348571,86.5723014 5.90648571,89.4813014 5.09848571,92.4053014 C5.02948571,92.6543014 5.15348571,93.0823014 5.34348571,93.2413014 C5.51748571,93.3873014 5.97248571,93.3943014 6.18448571,93.2663014 C9.47948571,91.2773014 13.0224857,89.8033014 16.5424857,88.2913014 C22.3374857,85.8053014 28.4394857,84.6753014 34.7134857,84.4203014 C39.8534857,84.2113014 44.9394857,84.7883014 49.9594857,85.8193014 C55.4734857,86.9503014 60.6094857,89.1973014 65.6654857,91.5993014 C74.5024857,95.7973014 81.6274857,102.136301 87.8494857,109.571301 C89.9094857,112.032301 91.5604857,114.781301 93.0664857,117.602301 C94.4184857,120.138301 95.6294857,122.751301 96.8744857,125.344301 C98.5614857,128.858301 99.0264857,132.702301 99.6634857,136.468301 C100.900486,143.792301 100.926486,151.181301 98.9054857,158.349301 C97.0374857,164.978301 94.3074857,171.341301 89.9014857,176.741301 C87.0734857,180.206301 83.6304857,183.109301 80.1924857,185.988301 C73.7574857,191.375301 66.1974857,194.419301 58.1104857,195.864301 C49.2374857,197.450301 40.3394857,196.936301 31.4674857,194.961301 C20.1974857,192.453301 10.7384857,186.803301 2.24148571,179.260301 C1.53148571,178.629301 0.916485711,177.883301 0.310485711,177.148301 C-0.191514289,176.539301 -0.0585142888,175.532301 0.520485711,174.969301 C1.09148571,174.412301 2.14448571,174.188301 2.72548571,174.573301 C3.38648571,175.012301 4.00548571,175.515301 4.63048571,176.005301 C7.39648571,178.175301 10.1084857,180.415301 12.9314857,182.509301 C17.7314857,186.069301 23.0394857,188.567301 28.8334857,190.118301 C32.8574857,191.196301 36.9004857,192.228301 41.0234857,192.649301 C51.9014857,193.761301 62.4124857,192.398301 72.1674857,187.111301 C73.9824857,186.127301 75.7224857,184.937301 77.3054857,183.613301 C80.2444857,181.154301 83.1284857,178.614301 85.8754857,175.943301 C88.3054857,173.578301 89.9034857,170.590301 91.3394857,167.542301 C91.9514857,166.241301 92.3974857,164.862301 93.0354857,163.576301 C96.5814857,156.440301 97.0344857,148.830301 96.3214857,141.104301 C96.0144857,137.775301 95.2354857,134.485301 94.5734857,131.196301 C94.3234857,129.953301 93.9234857,128.705301 93.3734857,127.565301 C91.8464857,124.400301 90.2714857,121.254301 88.5934857,118.166301 C86.2794857,113.909301 82.9834857,110.432301 79.6324857,106.976301 C71.7084857,98.8043014 61.8554857,94.0623014 51.1754857,90.8373014 C47.0374857,89.5893014 42.6774857,89.3873014 38.4624857,89.0933014" id="Fill-57" fill="#000000" transform="translate(50.260903, 138.400213) scale(-1, 1) rotate(180.000000) translate(-50.260903, -138.400213) "></path>
                </g>
                <g id="401" transform="translate(131.000000, 260.000000)">
                    <g id="LEFT-Arrow-Copy" transform="translate(327.500000, 51.500000) rotate(-180.000000) translate(-327.500000, -51.500000) translate(0.000000, 23.000000)">
                        <path d="M577.481745,23.1144804 C577.709204,23.9547523 578.043542,25.2945975 578.468315,26.6220858 C578.536827,26.8321537 578.978043,27.0492828 579.326083,27.1499036 C579.641238,27.241698 580.367463,27.2346369 580.392127,27.178148 C581.745921,23.9953536 583.9383,20.9043537 583.272365,17.4938385 C583.195632,17.1019471 582.214542,16.718882 581.537645,16.4540904 C580.608625,16.0869128 579.967354,16.3605307 579.383633,16.948368 C577.648914,18.6924616 578.251818,20.7084079 577.481745,23.1144804 M591.663694,24.9274199 C591.299211,25.8577208 591.074492,26.1313388 591.112859,26.3873039 C591.186852,26.9045301 591.156706,27.6035798 591.63903,27.8648408 C592.039139,28.0802045 593.414856,27.9601657 593.845111,27.6706603 C596.188215,26.1048596 598.407999,24.463152 600.583935,22.7984958 C601.263572,22.2777391 600.857982,21.8011144 600.041321,21.3668562 C596.264949,19.357971 593.527216,19.6986695 592.491317,22.3695335 C592.080246,23.4357608 591.792496,24.5214062 591.663694,24.9274199 M623.094182,29.4112234 C622.916051,29.1764415 622.836578,28.828682 622.546088,28.7210001 C620.731894,28.0378379 618.923182,27.3334924 616.993889,26.8162662 C616.462237,26.6732788 615.14681,27.0104467 614.850839,27.3582063 C612.992798,29.5648025 612.729712,32.0044153 612.806445,34.4599155 C612.814667,34.6699835 613.209295,34.9541931 613.532671,35.0583444 C613.883451,35.1677916 614.521982,35.227811 614.768624,35.1007111 C617.40496,33.7343867 620.044035,32.3610012 622.546088,30.8958213 C623.028411,30.613377 622.927013,29.9178579 623.094182,29.4112234 M601.934988,35.6320594 C601.934988,34.4334364 602.187111,33.4996048 600.737401,33.245405 C600.115314,33.1377231 599.076674,33.5507979 598.487473,33.9056186 C592.252896,37.6568321 587.396777,42.4160188 579.158914,44.7020525 C578.046282,45.0092107 577.717425,47.0410445 578.454613,47.7683386 C579.372671,48.6721604 580.666175,48.4532661 581.874723,48.1072718 C586.207412,46.8733432 590.501733,45.5829257 594.842643,44.3613541 C597.827018,43.5246128 599.726166,42.213012 600.293444,40.0752616 C600.72918,38.4406151 601.477329,36.8395089 601.934988,35.6320594 M254.157966,30.0926203 C247.498616,30.2250161 236.120171,30.4880423 224.741725,30.6716311 C202.848084,31.0246865 180.948962,31.2029795 159.063543,31.6937265 C128.866267,32.3715929 98.6826946,33.3018938 68.4909004,34.0644935 C47.9209079,34.5852502 27.3454344,35.0230389 6.77270145,35.4308179 C5.10923416,35.4625928 3.26215517,35.1501388 1.8014829,34.6435043 C0.875202933,34.3222239 0.0585418926,33.3530869 0.0037324268,32.6469761 C-0.0538175123,31.919682 0.560048504,30.8693422 1.43699996,30.4827465 C2.80175565,29.8807871 4.61594897,29.4730081 6.27667578,29.4112234 C22.8921653,28.8233862 39.5076549,28.2143656 56.1341063,27.8224741 C98.1483023,26.8321537 140.165239,25.8418333 182.193137,25.0704073 C210.644731,24.5478853 239.112767,24.3519396 267.575323,24.1030355 C287.284807,23.9282731 306.997031,23.8241218 326.709256,23.8417745 C367.443651,23.8788454 408.197229,23.6140538 448.915181,24.2371966 C482.170824,24.7455963 515.456613,25.4746557 548.61634,27.4888368 C553.406687,27.7783422 558.16963,28.2655586 562.954496,28.5974307 C566.010124,28.8110292 567.788691,27.7730464 567.890088,25.6388265 C568.084662,21.4074576 568.106586,17.1760887 568.265533,12.9447198 C568.30664,11.8272995 568.503954,10.7045833 568.797185,9.60305049 C569.106858,8.43443713 571.921324,7.11577523 573.771144,7.3329043 C575.89227,7.58180836 578.079168,7.84836518 580.035866,8.39913159 C589.257558,11.0011498 598.468289,13.6225862 607.574882,16.3852446 C619.446612,19.9899402 631.230647,23.7199704 643.022904,27.4376437 C644.97138,28.0519601 646.837643,28.8127945 648.599767,29.631883 C650.449587,30.4951034 650.518098,33.3266077 648.753234,34.2339601 C647.39944,34.9294792 645.979875,35.6267636 644.428767,36.1016231 C627.835201,41.199743 611.203269,46.2449046 594.598741,51.3236064 C590.646978,52.5310559 586.804835,53.8903191 582.811965,55.0306881 C580.433235,55.712085 577.887335,56.1798834 575.360618,56.6053151 C572.842123,57.025451 569.641251,55.8427155 569.257584,54.227487 C568.660161,51.734916 568.284716,49.2070393 568.117548,46.6862238 C567.912012,43.5934586 568.13125,40.4883364 567.933936,37.3938058 C567.857203,36.2216619 566.670578,35.2631165 564.697437,35.0954152 C556.889828,34.4334364 549.093182,33.5666854 541.247207,33.2559966 C521.143095,32.461622 501.003357,32.0591388 480.899245,31.2577031 C434.516734,29.4059276 388.079414,29.9107968 341.658537,29.7430955 C314.064712,29.6424747 286.470886,29.9478676 254.157966,30.0926203" id="Fill-61" fill="#000000"></path>
                        <rect id="Rectangle-3" fill="#FFFFFF" x="260" y="8" width="327" height="45"></rect>
                        <rect id="Rectangle-2" fill="#FFFFFF" x="569" y="0" width="86" height="57"></rect>
                        <path d="M605.831203,18.1144804 C605.969782,18.9547523 606.173478,20.2945975 606.432271,21.6220858 C606.474012,21.8321537 606.742824,22.0492828 606.954867,22.1499036 C607.146875,22.241698 607.589329,22.2346369 607.604355,22.178148 C608.429155,18.9953536 609.764864,15.9043537 609.359142,12.4938385 C609.312393,12.1019471 608.714663,11.718882 608.302263,11.4540904 C607.736257,11.0869128 607.345562,11.3605307 606.98993,11.948368 C605.93305,13.6924616 606.30037,15.7084079 605.831203,18.1144804 M614.471566,19.9274199 C614.249505,20.8577208 614.112595,21.1313388 614.135969,21.3873039 C614.18105,21.9045301 614.162684,22.6035798 614.456539,22.8648408 C614.700306,23.0802045 615.538463,22.9601657 615.800596,22.6706603 C617.228134,21.1048596 618.580539,19.463152 619.90623,17.7984958 C620.320299,17.2777391 620.073193,16.8011144 619.575642,16.3668562 C617.274884,14.357971 615.606918,14.6986695 614.975796,17.3695335 C614.725351,18.4357608 614.550039,19.5214062 614.471566,19.9274199 M633.620616,24.4112234 C633.512089,24.1764415 633.46367,23.828682 633.286688,23.7210001 C632.18139,23.0378379 631.07943,22.3334924 629.904007,21.8162662 C629.580098,21.6732788 628.778673,22.0104467 628.598352,22.3582063 C627.466339,24.5648025 627.306054,27.0044153 627.352804,29.4599155 C627.357813,29.6699835 627.59824,29.9541931 627.795257,30.0583444 C628.008971,30.1677916 628.397996,30.227811 628.548263,30.1007111 C630.154452,28.7343867 631.762311,27.3610012 633.286688,25.8958213 C633.580544,25.613377 633.518768,24.9178579 633.620616,24.4112234 M620.72936,30.6320594 C620.72936,29.4334364 620.882966,28.4996048 619.999729,28.245405 C619.620722,28.1377231 618.98793,28.5507979 618.628959,28.9056186 C614.830538,32.6568321 611.871944,37.4160188 606.853019,39.7020525 C606.175147,40.0092107 605.974791,42.0410445 606.423923,42.7683386 C606.983251,43.6721604 607.771319,43.4532661 608.507628,43.1072718 C611.147322,41.8733432 613.763641,40.5829257 616.408343,39.3613541 C618.226576,38.5246128 619.383634,37.213012 619.729248,35.0752616 C619.99472,33.4406151 620.450531,31.8395089 620.72936,30.6320594 M408.845938,25.0926203 C404.788724,25.2250161 397.856398,25.4880423 390.924071,25.6716311 C377.585353,26.0246865 364.243296,26.2029795 350.909587,26.6937265 C332.511874,27.3715929 314.122509,28.3018938 295.728134,29.0644935 C283.19585,29.5852502 270.660227,30.0230389 258.126274,30.4308179 C257.112805,30.4625928 255.987471,30.1501388 255.097555,29.6435043 C254.533218,29.3222239 254.035667,28.3530869 254.002274,27.6469761 C253.967212,26.919682 254.34121,25.8693422 254.875493,25.4827465 C255.706972,24.8807871 256.812271,24.4730081 257.82407,24.4112234 C267.94707,23.8233862 278.070069,23.2143656 288.199748,22.8224741 C313.79693,21.8321537 339.395781,20.8418333 365.001311,20.0704073 C382.335466,19.5478853 399.67964,19.3519396 417.020474,19.1030355 C429.028492,18.9282731 441.03818,18.8241218 453.047868,18.8417745 C477.86533,18.8788454 502.694479,18.6140538 527.501923,19.2371966 C547.76295,19.7455963 568.042343,20.4746557 588.244932,22.4888368 C591.163455,22.7783422 594.065281,23.2655586 596.980465,23.5974307 C598.842108,23.8110292 599.925702,22.7730464 599.987478,20.6388265 C600.106022,16.4074576 600.11938,12.1760887 600.216218,7.94471979 C600.241263,6.82729947 600.361477,5.70458332 600.540128,4.60305049 C600.728796,3.43443713 602.443512,2.11577523 603.570516,2.3329043 C604.862814,2.58180836 606.195183,2.84836518 607.387303,3.39913159 C613.005626,6.00114985 618.617271,8.62258615 624.16547,11.3852446 C631.398331,14.9899402 638.577763,18.7199704 645.762205,22.4376437 C646.949316,23.0519601 648.086337,23.8127945 649.159913,24.631883 C650.286917,25.4951034 650.328658,28.3266077 649.253413,29.2339601 C648.428613,29.9294792 647.563741,30.6267636 646.618728,31.1016231 C636.509085,36.199743 626.376067,41.2449046 616.259746,46.3236064 C613.852131,47.5310559 611.511302,48.8903191 609.078644,50.0306881 C607.6294,50.712085 606.078309,51.1798834 604.538905,51.6053151 C603.00451,52.025451 601.054375,50.8427155 600.820626,49.227487 C600.456646,46.734916 600.227906,44.2070393 600.126058,41.6862238 C600.000835,38.5934586 600.134406,35.4883364 600.014193,32.3938058 C599.967443,31.2216619 599.244491,30.2631165 598.042353,30.0954152 C593.285562,29.4334364 588.535449,28.5666854 583.755282,28.2559966 C571.506836,27.461622 559.236685,27.0591388 546.988239,26.2577031 C518.729659,24.4059276 490.437685,24.9107968 462.15573,24.7430955 C445.34417,24.6424747 428.53261,24.9478676 408.845938,25.0926203" id="Fill-61" fill="#000000"></path>
                    </g>
                    <text id="401-Unauthorized" font-family="HanziPenTC-W5, HanziPen TC" font-size="33" font-weight="bold" fill="#4A4A4A">
                        <tspan x="228.5505" y="35">401 Unauthorized</tspan>
                    </text>
                    <text id="Base-64-Encoded" font-family="HanziPenTC-W5, HanziPen TC" font-size="33" font-weight="bold" fill="#4A4A4A">
                        <tspan x="370.8895" y="450">Base 64 Encoded</tspan>
                    </text>
                </g>
                <g id="GET" transform="translate(122.000000, 177.000000)">
                    <g id="LEFT-Arrow" transform="translate(9.000000, 36.000000)">
                        <path d="M577.481745,23.1144804 C577.709204,23.9547523 578.043542,25.2945975 578.468315,26.6220858 C578.536827,26.8321537 578.978043,27.0492828 579.326083,27.1499036 C579.641238,27.241698 580.367463,27.2346369 580.392127,27.178148 C581.745921,23.9953536 583.9383,20.9043537 583.272365,17.4938385 C583.195632,17.1019471 582.214542,16.718882 581.537645,16.4540904 C580.608625,16.0869128 579.967354,16.3605307 579.383633,16.948368 C577.648914,18.6924616 578.251818,20.7084079 577.481745,23.1144804 M591.663694,24.9274199 C591.299211,25.8577208 591.074492,26.1313388 591.112859,26.3873039 C591.186852,26.9045301 591.156706,27.6035798 591.63903,27.8648408 C592.039139,28.0802045 593.414856,27.9601657 593.845111,27.6706603 C596.188215,26.1048596 598.407999,24.463152 600.583935,22.7984958 C601.263572,22.2777391 600.857982,21.8011144 600.041321,21.3668562 C596.264949,19.357971 593.527216,19.6986695 592.491317,22.3695335 C592.080246,23.4357608 591.792496,24.5214062 591.663694,24.9274199 M623.094182,29.4112234 C622.916051,29.1764415 622.836578,28.828682 622.546088,28.7210001 C620.731894,28.0378379 618.923182,27.3334924 616.993889,26.8162662 C616.462237,26.6732788 615.14681,27.0104467 614.850839,27.3582063 C612.992798,29.5648025 612.729712,32.0044153 612.806445,34.4599155 C612.814667,34.6699835 613.209295,34.9541931 613.532671,35.0583444 C613.883451,35.1677916 614.521982,35.227811 614.768624,35.1007111 C617.40496,33.7343867 620.044035,32.3610012 622.546088,30.8958213 C623.028411,30.613377 622.927013,29.9178579 623.094182,29.4112234 M601.934988,35.6320594 C601.934988,34.4334364 602.187111,33.4996048 600.737401,33.245405 C600.115314,33.1377231 599.076674,33.5507979 598.487473,33.9056186 C592.252896,37.6568321 587.396777,42.4160188 579.158914,44.7020525 C578.046282,45.0092107 577.717425,47.0410445 578.454613,47.7683386 C579.372671,48.6721604 580.666175,48.4532661 581.874723,48.1072718 C586.207412,46.8733432 590.501733,45.5829257 594.842643,44.3613541 C597.827018,43.5246128 599.726166,42.213012 600.293444,40.0752616 C600.72918,38.4406151 601.477329,36.8395089 601.934988,35.6320594 M254.157966,30.0926203 C247.498616,30.2250161 236.120171,30.4880423 224.741725,30.6716311 C202.848084,31.0246865 180.948962,31.2029795 159.063543,31.6937265 C128.866267,32.3715929 98.6826946,33.3018938 68.4909004,34.0644935 C47.9209079,34.5852502 27.3454344,35.0230389 6.77270145,35.4308179 C5.10923416,35.4625928 3.26215517,35.1501388 1.8014829,34.6435043 C0.875202933,34.3222239 0.0585418926,33.3530869 0.0037324268,32.6469761 C-0.0538175123,31.919682 0.560048504,30.8693422 1.43699996,30.4827465 C2.80175565,29.8807871 4.61594897,29.4730081 6.27667578,29.4112234 C22.8921653,28.8233862 39.5076549,28.2143656 56.1341063,27.8224741 C98.1483023,26.8321537 140.165239,25.8418333 182.193137,25.0704073 C210.644731,24.5478853 239.112767,24.3519396 267.575323,24.1030355 C287.284807,23.9282731 306.997031,23.8241218 326.709256,23.8417745 C367.443651,23.8788454 408.197229,23.6140538 448.915181,24.2371966 C482.170824,24.7455963 515.456613,25.4746557 548.61634,27.4888368 C553.406687,27.7783422 558.16963,28.2655586 562.954496,28.5974307 C566.010124,28.8110292 567.788691,27.7730464 567.890088,25.6388265 C568.084662,21.4074576 568.106586,17.1760887 568.265533,12.9447198 C568.30664,11.8272995 568.503954,10.7045833 568.797185,9.60305049 C569.106858,8.43443713 571.921324,7.11577523 573.771144,7.3329043 C575.89227,7.58180836 578.079168,7.84836518 580.035866,8.39913159 C589.257558,11.0011498 598.468289,13.6225862 607.574882,16.3852446 C619.446612,19.9899402 631.230647,23.7199704 643.022904,27.4376437 C644.97138,28.0519601 646.837643,28.8127945 648.599767,29.631883 C650.449587,30.4951034 650.518098,33.3266077 648.753234,34.2339601 C647.39944,34.9294792 645.979875,35.6267636 644.428767,36.1016231 C627.835201,41.199743 611.203269,46.2449046 594.598741,51.3236064 C590.646978,52.5310559 586.804835,53.8903191 582.811965,55.0306881 C580.433235,55.712085 577.887335,56.1798834 575.360618,56.6053151 C572.842123,57.025451 569.641251,55.8427155 569.257584,54.227487 C568.660161,51.734916 568.284716,49.2070393 568.117548,46.6862238 C567.912012,43.5934586 568.13125,40.4883364 567.933936,37.3938058 C567.857203,36.2216619 566.670578,35.2631165 564.697437,35.0954152 C556.889828,34.4334364 549.093182,33.5666854 541.247207,33.2559966 C521.143095,32.461622 501.003357,32.0591388 480.899245,31.2577031 C434.516734,29.4059276 388.079414,29.9107968 341.658537,29.7430955 C314.064712,29.6424747 286.470886,29.9478676 254.157966,30.0926203" id="Fill-61" fill="#000000"></path>
                        <rect id="Rectangle-3" fill="#FFFFFF" x="260" y="8" width="327" height="45"></rect>
                        <rect id="Rectangle-2" fill="#FFFFFF" x="569" y="0" width="86" height="57"></rect>
                        <path d="M605.831203,18.1144804 C605.969782,18.9547523 606.173478,20.2945975 606.432271,21.6220858 C606.474012,21.8321537 606.742824,22.0492828 606.954867,22.1499036 C607.146875,22.241698 607.589329,22.2346369 607.604355,22.178148 C608.429155,18.9953536 609.764864,15.9043537 609.359142,12.4938385 C609.312393,12.1019471 608.714663,11.718882 608.302263,11.4540904 C607.736257,11.0869128 607.345562,11.3605307 606.98993,11.948368 C605.93305,13.6924616 606.30037,15.7084079 605.831203,18.1144804 M614.471566,19.9274199 C614.249505,20.8577208 614.112595,21.1313388 614.135969,21.3873039 C614.18105,21.9045301 614.162684,22.6035798 614.456539,22.8648408 C614.700306,23.0802045 615.538463,22.9601657 615.800596,22.6706603 C617.228134,21.1048596 618.580539,19.463152 619.90623,17.7984958 C620.320299,17.2777391 620.073193,16.8011144 619.575642,16.3668562 C617.274884,14.357971 615.606918,14.6986695 614.975796,17.3695335 C614.725351,18.4357608 614.550039,19.5214062 614.471566,19.9274199 M633.620616,24.4112234 C633.512089,24.1764415 633.46367,23.828682 633.286688,23.7210001 C632.18139,23.0378379 631.07943,22.3334924 629.904007,21.8162662 C629.580098,21.6732788 628.778673,22.0104467 628.598352,22.3582063 C627.466339,24.5648025 627.306054,27.0044153 627.352804,29.4599155 C627.357813,29.6699835 627.59824,29.9541931 627.795257,30.0583444 C628.008971,30.1677916 628.397996,30.227811 628.548263,30.1007111 C630.154452,28.7343867 631.762311,27.3610012 633.286688,25.8958213 C633.580544,25.613377 633.518768,24.9178579 633.620616,24.4112234 M620.72936,30.6320594 C620.72936,29.4334364 620.882966,28.4996048 619.999729,28.245405 C619.620722,28.1377231 618.98793,28.5507979 618.628959,28.9056186 C614.830538,32.6568321 611.871944,37.4160188 606.853019,39.7020525 C606.175147,40.0092107 605.974791,42.0410445 606.423923,42.7683386 C606.983251,43.6721604 607.771319,43.4532661 608.507628,43.1072718 C611.147322,41.8733432 613.763641,40.5829257 616.408343,39.3613541 C618.226576,38.5246128 619.383634,37.213012 619.729248,35.0752616 C619.99472,33.4406151 620.450531,31.8395089 620.72936,30.6320594 M408.845938,25.0926203 C404.788724,25.2250161 397.856398,25.4880423 390.924071,25.6716311 C377.585353,26.0246865 364.243296,26.2029795 350.909587,26.6937265 C332.511874,27.3715929 314.122509,28.3018938 295.728134,29.0644935 C283.19585,29.5852502 270.660227,30.0230389 258.126274,30.4308179 C257.112805,30.4625928 255.987471,30.1501388 255.097555,29.6435043 C254.533218,29.3222239 254.035667,28.3530869 254.002274,27.6469761 C253.967212,26.919682 254.34121,25.8693422 254.875493,25.4827465 C255.706972,24.8807871 256.812271,24.4730081 257.82407,24.4112234 C267.94707,23.8233862 278.070069,23.2143656 288.199748,22.8224741 C313.79693,21.8321537 339.395781,20.8418333 365.001311,20.0704073 C382.335466,19.5478853 399.67964,19.3519396 417.020474,19.1030355 C429.028492,18.9282731 441.03818,18.8241218 453.047868,18.8417745 C477.86533,18.8788454 502.694479,18.6140538 527.501923,19.2371966 C547.76295,19.7455963 568.042343,20.4746557 588.244932,22.4888368 C591.163455,22.7783422 594.065281,23.2655586 596.980465,23.5974307 C598.842108,23.8110292 599.925702,22.7730464 599.987478,20.6388265 C600.106022,16.4074576 600.11938,12.1760887 600.216218,7.94471979 C600.241263,6.82729947 600.361477,5.70458332 600.540128,4.60305049 C600.728796,3.43443713 602.443512,2.11577523 603.570516,2.3329043 C604.862814,2.58180836 606.195183,2.84836518 607.387303,3.39913159 C613.005626,6.00114985 618.617271,8.62258615 624.16547,11.3852446 C631.398331,14.9899402 638.577763,18.7199704 645.762205,22.4376437 C646.949316,23.0519601 648.086337,23.8127945 649.159913,24.631883 C650.286917,25.4951034 650.328658,28.3266077 649.253413,29.2339601 C648.428613,29.9294792 647.563741,30.6267636 646.618728,31.1016231 C636.509085,36.199743 626.376067,41.2449046 616.259746,46.3236064 C613.852131,47.5310559 611.511302,48.8903191 609.078644,50.0306881 C607.6294,50.712085 606.078309,51.1798834 604.538905,51.6053151 C603.00451,52.025451 601.054375,50.8427155 600.820626,49.227487 C600.456646,46.734916 600.227906,44.2070393 600.126058,41.6862238 C600.000835,38.5934586 600.134406,35.4883364 600.014193,32.3938058 C599.967443,31.2216619 599.244491,30.2631165 598.042353,30.0954152 C593.285562,29.4334364 588.535449,28.5666854 583.755282,28.2559966 C571.506836,27.461622 559.236685,27.0591388 546.988239,26.2577031 C518.729659,24.4059276 490.437685,24.9107968 462.15573,24.7430955 C445.34417,24.6424747 428.53261,24.9478676 408.845938,25.0926203" id="Fill-61" fill="#000000"></path>
                    </g>
                    <text id="GET-http://micronaut" font-family="HanziPenTC-W5, HanziPen TC" font-size="35" font-weight="bold" fill="#4A4A4A">
                        <tspan x="25.2375" y="37">GET  http://micronaut.example/books</tspan>
                    </text>
                </g>
                <g id="GET" transform="translate(76.000000, 407.000000)">
                    <g id="LEFT-Arrow" transform="translate(55.000000, 36.000000)">
                        <path d="M577.481745,23.1144804 C577.709204,23.9547523 578.043542,25.2945975 578.468315,26.6220858 C578.536827,26.8321537 578.978043,27.0492828 579.326083,27.1499036 C579.641238,27.241698 580.367463,27.2346369 580.392127,27.178148 C581.745921,23.9953536 583.9383,20.9043537 583.272365,17.4938385 C583.195632,17.1019471 582.214542,16.718882 581.537645,16.4540904 C580.608625,16.0869128 579.967354,16.3605307 579.383633,16.948368 C577.648914,18.6924616 578.251818,20.7084079 577.481745,23.1144804 M591.663694,24.9274199 C591.299211,25.8577208 591.074492,26.1313388 591.112859,26.3873039 C591.186852,26.9045301 591.156706,27.6035798 591.63903,27.8648408 C592.039139,28.0802045 593.414856,27.9601657 593.845111,27.6706603 C596.188215,26.1048596 598.407999,24.463152 600.583935,22.7984958 C601.263572,22.2777391 600.857982,21.8011144 600.041321,21.3668562 C596.264949,19.357971 593.527216,19.6986695 592.491317,22.3695335 C592.080246,23.4357608 591.792496,24.5214062 591.663694,24.9274199 M623.094182,29.4112234 C622.916051,29.1764415 622.836578,28.828682 622.546088,28.7210001 C620.731894,28.0378379 618.923182,27.3334924 616.993889,26.8162662 C616.462237,26.6732788 615.14681,27.0104467 614.850839,27.3582063 C612.992798,29.5648025 612.729712,32.0044153 612.806445,34.4599155 C612.814667,34.6699835 613.209295,34.9541931 613.532671,35.0583444 C613.883451,35.1677916 614.521982,35.227811 614.768624,35.1007111 C617.40496,33.7343867 620.044035,32.3610012 622.546088,30.8958213 C623.028411,30.613377 622.927013,29.9178579 623.094182,29.4112234 M601.934988,35.6320594 C601.934988,34.4334364 602.187111,33.4996048 600.737401,33.245405 C600.115314,33.1377231 599.076674,33.5507979 598.487473,33.9056186 C592.252896,37.6568321 587.396777,42.4160188 579.158914,44.7020525 C578.046282,45.0092107 577.717425,47.0410445 578.454613,47.7683386 C579.372671,48.6721604 580.666175,48.4532661 581.874723,48.1072718 C586.207412,46.8733432 590.501733,45.5829257 594.842643,44.3613541 C597.827018,43.5246128 599.726166,42.213012 600.293444,40.0752616 C600.72918,38.4406151 601.477329,36.8395089 601.934988,35.6320594 M254.157966,30.0926203 C247.498616,30.2250161 236.120171,30.4880423 224.741725,30.6716311 C202.848084,31.0246865 180.948962,31.2029795 159.063543,31.6937265 C128.866267,32.3715929 98.6826946,33.3018938 68.4909004,34.0644935 C47.9209079,34.5852502 27.3454344,35.0230389 6.77270145,35.4308179 C5.10923416,35.4625928 3.26215517,35.1501388 1.8014829,34.6435043 C0.875202933,34.3222239 0.0585418926,33.3530869 0.0037324268,32.6469761 C-0.0538175123,31.919682 0.560048504,30.8693422 1.43699996,30.4827465 C2.80175565,29.8807871 4.61594897,29.4730081 6.27667578,29.4112234 C22.8921653,28.8233862 39.5076549,28.2143656 56.1341063,27.8224741 C98.1483023,26.8321537 140.165239,25.8418333 182.193137,25.0704073 C210.644731,24.5478853 239.112767,24.3519396 267.575323,24.1030355 C287.284807,23.9282731 306.997031,23.8241218 326.709256,23.8417745 C367.443651,23.8788454 408.197229,23.6140538 448.915181,24.2371966 C482.170824,24.7455963 515.456613,25.4746557 548.61634,27.4888368 C553.406687,27.7783422 558.16963,28.2655586 562.954496,28.5974307 C566.010124,28.8110292 567.788691,27.7730464 567.890088,25.6388265 C568.084662,21.4074576 568.106586,17.1760887 568.265533,12.9447198 C568.30664,11.8272995 568.503954,10.7045833 568.797185,9.60305049 C569.106858,8.43443713 571.921324,7.11577523 573.771144,7.3329043 C575.89227,7.58180836 578.079168,7.84836518 580.035866,8.39913159 C589.257558,11.0011498 598.468289,13.6225862 607.574882,16.3852446 C619.446612,19.9899402 631.230647,23.7199704 643.022904,27.4376437 C644.97138,28.0519601 646.837643,28.8127945 648.599767,29.631883 C650.449587,30.4951034 650.518098,33.3266077 648.753234,34.2339601 C647.39944,34.9294792 645.979875,35.6267636 644.428767,36.1016231 C627.835201,41.199743 611.203269,46.2449046 594.598741,51.3236064 C590.646978,52.5310559 586.804835,53.8903191 582.811965,55.0306881 C580.433235,55.712085 577.887335,56.1798834 575.360618,56.6053151 C572.842123,57.025451 569.641251,55.8427155 569.257584,54.227487 C568.660161,51.734916 568.284716,49.2070393 568.117548,46.6862238 C567.912012,43.5934586 568.13125,40.4883364 567.933936,37.3938058 C567.857203,36.2216619 566.670578,35.2631165 564.697437,35.0954152 C556.889828,34.4334364 549.093182,33.5666854 541.247207,33.2559966 C521.143095,32.461622 501.003357,32.0591388 480.899245,31.2577031 C434.516734,29.4059276 388.079414,29.9107968 341.658537,29.7430955 C314.064712,29.6424747 286.470886,29.9478676 254.157966,30.0926203" id="Fill-61" fill="#000000"></path>
                        <rect id="Rectangle-3" fill="#FFFFFF" x="260" y="8" width="327" height="45"></rect>
                        <rect id="Rectangle-2" fill="#FFFFFF" x="569" y="0" width="86" height="57"></rect>
                        <path d="M605.831203,18.1144804 C605.969782,18.9547523 606.173478,20.2945975 606.432271,21.6220858 C606.474012,21.8321537 606.742824,22.0492828 606.954867,22.1499036 C607.146875,22.241698 607.589329,22.2346369 607.604355,22.178148 C608.429155,18.9953536 609.764864,15.9043537 609.359142,12.4938385 C609.312393,12.1019471 608.714663,11.718882 608.302263,11.4540904 C607.736257,11.0869128 607.345562,11.3605307 606.98993,11.948368 C605.93305,13.6924616 606.30037,15.7084079 605.831203,18.1144804 M614.471566,19.9274199 C614.249505,20.8577208 614.112595,21.1313388 614.135969,21.3873039 C614.18105,21.9045301 614.162684,22.6035798 614.456539,22.8648408 C614.700306,23.0802045 615.538463,22.9601657 615.800596,22.6706603 C617.228134,21.1048596 618.580539,19.463152 619.90623,17.7984958 C620.320299,17.2777391 620.073193,16.8011144 619.575642,16.3668562 C617.274884,14.357971 615.606918,14.6986695 614.975796,17.3695335 C614.725351,18.4357608 614.550039,19.5214062 614.471566,19.9274199 M633.620616,24.4112234 C633.512089,24.1764415 633.46367,23.828682 633.286688,23.7210001 C632.18139,23.0378379 631.07943,22.3334924 629.904007,21.8162662 C629.580098,21.6732788 628.778673,22.0104467 628.598352,22.3582063 C627.466339,24.5648025 627.306054,27.0044153 627.352804,29.4599155 C627.357813,29.6699835 627.59824,29.9541931 627.795257,30.0583444 C628.008971,30.1677916 628.397996,30.227811 628.548263,30.1007111 C630.154452,28.7343867 631.762311,27.3610012 633.286688,25.8958213 C633.580544,25.613377 633.518768,24.9178579 633.620616,24.4112234 M620.72936,30.6320594 C620.72936,29.4334364 620.882966,28.4996048 619.999729,28.245405 C619.620722,28.1377231 618.98793,28.5507979 618.628959,28.9056186 C614.830538,32.6568321 611.871944,37.4160188 606.853019,39.7020525 C606.175147,40.0092107 605.974791,42.0410445 606.423923,42.7683386 C606.983251,43.6721604 607.771319,43.4532661 608.507628,43.1072718 C611.147322,41.8733432 613.763641,40.5829257 616.408343,39.3613541 C618.226576,38.5246128 619.383634,37.213012 619.729248,35.0752616 C619.99472,33.4406151 620.450531,31.8395089 620.72936,30.6320594 M408.845938,25.0926203 C404.788724,25.2250161 397.856398,25.4880423 390.924071,25.6716311 C377.585353,26.0246865 364.243296,26.2029795 350.909587,26.6937265 C332.511874,27.3715929 314.122509,28.3018938 295.728134,29.0644935 C283.19585,29.5852502 270.660227,30.0230389 258.126274,30.4308179 C257.112805,30.4625928 255.987471,30.1501388 255.097555,29.6435043 C254.533218,29.3222239 254.035667,28.3530869 254.002274,27.6469761 C253.967212,26.919682 254.34121,25.8693422 254.875493,25.4827465 C255.706972,24.8807871 256.812271,24.4730081 257.82407,24.4112234 C267.94707,23.8233862 278.070069,23.2143656 288.199748,22.8224741 C313.79693,21.8321537 339.395781,20.8418333 365.001311,20.0704073 C382.335466,19.5478853 399.67964,19.3519396 417.020474,19.1030355 C429.028492,18.9282731 441.03818,18.8241218 453.047868,18.8417745 C477.86533,18.8788454 502.694479,18.6140538 527.501923,19.2371966 C547.76295,19.7455963 568.042343,20.4746557 588.244932,22.4888368 C591.163455,22.7783422 594.065281,23.2655586 596.980465,23.5974307 C598.842108,23.8110292 599.925702,22.7730464 599.987478,20.6388265 C600.106022,16.4074576 600.11938,12.1760887 600.216218,7.94471979 C600.241263,6.82729947 600.361477,5.70458332 600.540128,4.60305049 C600.728796,3.43443713 602.443512,2.11577523 603.570516,2.3329043 C604.862814,2.58180836 606.195183,2.84836518 607.387303,3.39913159 C613.005626,6.00114985 618.617271,8.62258615 624.16547,11.3852446 C631.398331,14.9899402 638.577763,18.7199704 645.762205,22.4376437 C646.949316,23.0519601 648.086337,23.8127945 649.159913,24.631883 C650.286917,25.4951034 650.328658,28.3266077 649.253413,29.2339601 C648.428613,29.9294792 647.563741,30.6267636 646.618728,31.1016231 C636.509085,36.199743 626.376067,41.2449046 616.259746,46.3236064 C613.852131,47.5310559 611.511302,48.8903191 609.078644,50.0306881 C607.6294,50.712085 606.078309,51.1798834 604.538905,51.6053151 C603.00451,52.025451 601.054375,50.8427155 600.820626,49.227487 C600.456646,46.734916 600.227906,44.2070393 600.126058,41.6862238 C600.000835,38.5934586 600.134406,35.4883364 600.014193,32.3938058 C599.967443,31.2216619 599.244491,30.2631165 598.042353,30.0954152 C593.285562,29.4334364 588.535449,28.5666854 583.755282,28.2559966 C571.506836,27.461622 559.236685,27.0591388 546.988239,26.2577031 C518.729659,24.4059276 490.437685,24.9107968 462.15573,24.7430955 C445.34417,24.6424747 428.53261,24.9478676 408.845938,25.0926203" id="Fill-61" fill="#000000"></path>
                    </g>
                    <text id="GET-http://micronaut" font-family="HanziPenTC-W5, HanziPen TC" font-size="35" font-weight="bold" fill="#4A4A4A">
                        <tspan x="71.2375" y="37">GET  http://micronaut.example/books</tspan>
                    </text>
                    <text id="HTTP-Header-Authoriz" font-family="HanziPenTC-W5, HanziPen TC" font-size="35" font-weight="bold" fill="#4A4A4A">
                        <tspan x="283.18" y="114">HTTP Header </tspan>
                        <tspan x="107.095" y="163">Authorization: Basic john:mypassword</tspan>
                    </text>
                </g>
                <g id="Browser">
                    <text font-family="HanziPenTC-W5, HanziPen TC" font-size="40" font-weight="bold" fill="#4A4A4A">
                        <tspan x="32.24" y="66">Browser</tspan>
                    </text>
                    <path d="M3.99642592,86.78934 C4.06242613,90.76434 3.25042359,94.76134 2.74842202,98.73434 C2.3284207,102.06034 2.56242144,102.58334 5.84843171,102.30834 C12.2964519,101.76934 18.724472,101.00134 25.1574921,100.28834 C35.5015244,99.14134 45.8205567,97.68534 56.1905891,96.85934 C73.8766444,95.45034 91.5796998,94.05734 109.302755,93.34534 C127.263811,92.62534 145.257868,92.57234 163.238924,92.55434 C173.342955,92.54534 183.449987,93.18234 193.554019,93.56334 C195.468025,93.63534 197.378031,93.86934 199.915039,94.08134 C199.915039,92.44334 200.044039,90.94434 199.895039,89.47334 C197.399031,64.80334 196.356027,40.07634 196.929029,15.28534 C197.003029,12.04834 197.27003,8.81434 197.462031,5.58034 C197.548031,4.08834 196.983029,3.55534 195.399024,3.68834 C182.578984,4.77134 169.768944,6.34534 156.925904,6.68434 C134.090833,7.28834 111.232761,7.48834 88.3926898,7.18334 C69.1856298,6.92534 49.9825697,5.87534 30.7955097,4.84334 C21.8764818,4.36334 12.9964541,3.10634 4.10342625,2.15534 C3.44842421,2.08534 2.83142228,1.64334 2.19642029,1.37334 C2.21642035,1.09534 2.23542041,0.817340003 2.25542048,0.538340003 C3.46342425,0.350340003 4.67342804,-0.0126599968 5.8784318,0.000340003172 C20.9264789,0.180340003 35.9775259,0.238340003 51.018573,0.678340003 C68.8386287,1.20034 86.6446844,2.18734 104.46474,2.74134 C121.437793,3.26934 138.419846,3.72434 155.400899,3.78434 C168.046939,3.82834 180.695978,3.19034 193.343018,2.85334 C193.96002,2.83734 194.575022,2.78034 195.194024,2.76634 C197.909032,2.71134 198.759035,3.39234 199.032036,6.20934 C199.309037,9.04834 199.522037,11.90434 199.558037,14.75534 C199.757038,31.73834 199.825038,48.72134 200.089039,65.70234 C200.208039,73.41434 200.675041,81.12034 200.974042,88.83034 C201.005042,89.67734 200.989042,90.52934 200.942042,91.37734 C200.772041,94.41434 200.26704,94.80634 197.27403,95.28034 C174.63096,98.86134 151.788888,99.05434 128.952817,99.44834 C106.029745,99.84534 83.1016733,100.22534 60.1896016,101.00634 C46.7025595,101.46534 33.2425174,102.72734 19.7654752,103.55334 C14.9164601,103.85034 10.0554449,104.01834 5.19642967,104.07734 C1.26441738,104.12134 -0.0265866609,102.90134 0.000413423502,98.99234 C0.104413749,83.40234 0.320414424,67.81234 0.48841495,52.22134 C0.646415444,37.47834 0.786415881,22.73534 0.959416422,7.99334 C0.976416476,6.47834 1.15441703,4.96534 1.25841736,3.45234 C1.60941845,3.46234 1.96041955,3.47234 2.31142065,3.48334 C2.89642248,31.25134 3.5434245,59.01934 3.99642592,86.78934 Z" id="Fill-131" fill="#1A1919"></path>
                </g>
                <g id="Micronaut-App" transform="translate(700.000000, 0.000000)">
                    <text font-family="HanziPenTC-W5, HanziPen TC" font-size="35" font-weight="bold" line-spacing="30" fill="#4A4A4A">
                        <tspan x="24.6625" y="52.135">Micronaut </tspan>
                        <tspan x="68.99" y="82.135">App</tspan>
                    </text>
                    <path d="M3.99642592,86.78934 C4.06242613,90.76434 3.25042359,94.76134 2.74842202,98.73434 C2.3284207,102.06034 2.56242144,102.58334 5.84843171,102.30834 C12.2964519,101.76934 18.724472,101.00134 25.1574921,100.28834 C35.5015244,99.14134 45.8205567,97.68534 56.1905891,96.85934 C73.8766444,95.45034 91.5796998,94.05734 109.302755,93.34534 C127.263811,92.62534 145.257868,92.57234 163.238924,92.55434 C173.342955,92.54534 183.449987,93.18234 193.554019,93.56334 C195.468025,93.63534 197.378031,93.86934 199.915039,94.08134 C199.915039,92.44334 200.044039,90.94434 199.895039,89.47334 C197.399031,64.80334 196.356027,40.07634 196.929029,15.28534 C197.003029,12.04834 197.27003,8.81434 197.462031,5.58034 C197.548031,4.08834 196.983029,3.55534 195.399024,3.68834 C182.578984,4.77134 169.768944,6.34534 156.925904,6.68434 C134.090833,7.28834 111.232761,7.48834 88.3926898,7.18334 C69.1856298,6.92534 49.9825697,5.87534 30.7955097,4.84334 C21.8764818,4.36334 12.9964541,3.10634 4.10342625,2.15534 C3.44842421,2.08534 2.83142228,1.64334 2.19642029,1.37334 C2.21642035,1.09534 2.23542041,0.817340003 2.25542048,0.538340003 C3.46342425,0.350340003 4.67342804,-0.0126599968 5.8784318,0.000340003172 C20.9264789,0.180340003 35.9775259,0.238340003 51.018573,0.678340003 C68.8386287,1.20034 86.6446844,2.18734 104.46474,2.74134 C121.437793,3.26934 138.419846,3.72434 155.400899,3.78434 C168.046939,3.82834 180.695978,3.19034 193.343018,2.85334 C193.96002,2.83734 194.575022,2.78034 195.194024,2.76634 C197.909032,2.71134 198.759035,3.39234 199.032036,6.20934 C199.309037,9.04834 199.522037,11.90434 199.558037,14.75534 C199.757038,31.73834 199.825038,48.72134 200.089039,65.70234 C200.208039,73.41434 200.675041,81.12034 200.974042,88.83034 C201.005042,89.67734 200.989042,90.52934 200.942042,91.37734 C200.772041,94.41434 200.26704,94.80634 197.27403,95.28034 C174.63096,98.86134 151.788888,99.05434 128.952817,99.44834 C106.029745,99.84534 83.1016733,100.22534 60.1896016,101.00634 C46.7025595,101.46534 33.2425174,102.72734 19.7654752,103.55334 C14.9164601,103.85034 10.0554449,104.01834 5.19642967,104.07734 C1.26441738,104.12134 -0.0265866609,102.90134 0.000413423502,98.99234 C0.104413749,83.40234 0.320414424,67.81234 0.48841495,52.22134 C0.646415444,37.47834 0.786415881,22.73534 0.959416422,7.99334 C0.976416476,6.47834 1.15441703,4.96534 1.25841736,3.45234 C1.60941845,3.46234 1.96041955,3.47234 2.31142065,3.48334 C2.89642248,31.25134 3.5434245,59.01934 3.99642592,86.78934 Z" id="Fill-131" fill="#1A1919"></path>
                </g>
                <g id="Browser"></g>
                <g id="Authentication-Providers" transform="translate(829.000000, 380.000000)">
                    <rect id="Rectangle-4" fill="#FFFFFF" x="214" y="0" width="95" height="172"></rect>
                    <text font-family="HanziPenTC-W5, HanziPen TC" font-size="35" font-weight="bold" fill="#4A4A4A">
                        <tspan x="49.7825" y="48">Authenticate against </tspan>
                        <tspan x="97.995" y="97">authentication </tspan>
                        <tspan x="135.27" y="146">providers</tspan>
                    </text>
                    <path d="M38.4624857,89.0933014 C35.4804857,88.5813014 32.6484857,89.1213014 29.7884857,89.4613014 C22.8554857,90.2853014 16.5154857,92.8593014 10.3024857,95.8433014 C9.73348571,96.1163014 9.19848571,96.4873014 8.71048571,96.8863014 C8.49948571,97.0593014 8.42648571,97.4173014 8.34148571,97.7053014 C8.32748571,97.7523014 8.57548571,97.9283014 8.72048571,97.9603014 C9.96448571,98.2353014 11.2074857,98.5203014 12.4604857,98.7463014 C14.6604857,99.1453014 16.8734857,99.4773014 19.0694857,99.8943014 C19.8474857,100.041301 20.6074857,100.315301 21.3464857,100.604301 C22.3984857,101.015301 22.9164857,102.088301 22.5024857,102.864301 C22.1154857,103.591301 21.3414857,104.017301 20.5034857,103.820301 C14.4254857,102.388301 8.23348571,101.693301 2.04948571,100.946301 C0.619485711,100.773301 -0.195514289,99.6053014 0.120485711,98.1853014 C1.26548571,93.0393014 2.35548571,87.8743014 4.15048571,82.9043014 C4.47048571,82.0223014 4.95148571,81.1713014 5.50748571,80.4153014 C5.72848571,80.1153014 6.35148571,80.0183014 6.79748571,80.0003014 C7.29648571,79.9813014 8.06248571,80.8653014 8.00348571,81.3223014 C7.90148571,82.1043014 7.79548571,82.8943014 7.58548571,83.6513014 C6.77348571,86.5723014 5.90648571,89.4813014 5.09848571,92.4053014 C5.02948571,92.6543014 5.15348571,93.0823014 5.34348571,93.2413014 C5.51748571,93.3873014 5.97248571,93.3943014 6.18448571,93.2663014 C9.47948571,91.2773014 13.0224857,89.8033014 16.5424857,88.2913014 C22.3374857,85.8053014 28.4394857,84.6753014 34.7134857,84.4203014 C39.8534857,84.2113014 44.9394857,84.7883014 49.9594857,85.8193014 C55.4734857,86.9503014 60.6094857,89.1973014 65.6654857,91.5993014 C74.5024857,95.7973014 81.6274857,102.136301 87.8494857,109.571301 C89.9094857,112.032301 91.5604857,114.781301 93.0664857,117.602301 C94.4184857,120.138301 95.6294857,122.751301 96.8744857,125.344301 C98.5614857,128.858301 99.0264857,132.702301 99.6634857,136.468301 C100.900486,143.792301 100.926486,151.181301 98.9054857,158.349301 C97.0374857,164.978301 94.3074857,171.341301 89.9014857,176.741301 C87.0734857,180.206301 83.6304857,183.109301 80.1924857,185.988301 C73.7574857,191.375301 66.1974857,194.419301 58.1104857,195.864301 C49.2374857,197.450301 40.3394857,196.936301 31.4674857,194.961301 C20.1974857,192.453301 10.7384857,186.803301 2.24148571,179.260301 C1.53148571,178.629301 0.916485711,177.883301 0.310485711,177.148301 C-0.191514289,176.539301 -0.0585142888,175.532301 0.520485711,174.969301 C1.09148571,174.412301 2.14448571,174.188301 2.72548571,174.573301 C3.38648571,175.012301 4.00548571,175.515301 4.63048571,176.005301 C7.39648571,178.175301 10.1084857,180.415301 12.9314857,182.509301 C17.7314857,186.069301 23.0394857,188.567301 28.8334857,190.118301 C32.8574857,191.196301 36.9004857,192.228301 41.0234857,192.649301 C51.9014857,193.761301 62.4124857,192.398301 72.1674857,187.111301 C73.9824857,186.127301 75.7224857,184.937301 77.3054857,183.613301 C80.2444857,181.154301 83.1284857,178.614301 85.8754857,175.943301 C88.3054857,173.578301 89.9034857,170.590301 91.3394857,167.542301 C91.9514857,166.241301 92.3974857,164.862301 93.0354857,163.576301 C96.5814857,156.440301 97.0344857,148.830301 96.3214857,141.104301 C96.0144857,137.775301 95.2354857,134.485301 94.5734857,131.196301 C94.3234857,129.953301 93.9234857,128.705301 93.3734857,127.565301 C91.8464857,124.400301 90.2714857,121.254301 88.5934857,118.166301 C86.2794857,113.909301 82.9834857,110.432301 79.6324857,106.976301 C71.7084857,98.8043014 61.8554857,94.0623014 51.1754857,90.8373014 C47.0374857,89.5893014 42.6774857,89.3873014 38.4624857,89.0933014" id="Fill-57" fill="#000000" transform="translate(50.260903, 138.400213) scale(-1, 1) rotate(180.000000) translate(-50.260903, -138.400213) "></path>
                </g>
                <path d="M585.04684,632.34429 C585.105479,640.826582 585.1671,649.949499 585.231702,659.071416 C585.236671,659.712043 585.244622,660.35367 585.275433,660.989291 C585.389232,663.365614 585.940338,664.392618 587.151878,664.324551 C587.864491,664.285513 588.575612,664.065298 589.285242,663.896133 C591.414631,663.387636 593.544516,662.876136 595.671917,662.340612 C597.720304,661.823106 599.770678,661.329624 601.812605,660.726034 C604.091076,660.051374 606.353644,659.137481 608.637084,658.55391 C612.812872,657.485866 616.999592,656.595997 621.180349,655.611034 C623.071703,655.165598 624.964051,654.765207 626.829564,653.920381 C628.607616,653.114593 629.291405,654.342794 629.341099,658.156522 C629.37837,661.035336 629.414647,663.91415 629.471298,666.791963 C629.47577,667.039205 629.606962,667.390548 629.721259,667.48464 C629.838536,667.581735 630.055202,667.52468 630.146639,667.357516 C630.966094,665.843036 631.768652,664.290518 632.574689,662.747009 C637.068518,654.142598 641.181691,644.780447 645.671048,636.159019 C647.857585,631.959914 647.69757,632.740677 645.57166,628.581612 C643.120255,623.784923 640.650462,619.027272 638.22937,614.170525 C635.639318,608.974445 633.098464,603.677267 630.528786,598.440148 C630.31063,597.995713 630.046257,597.623349 629.776419,597.313046 C629.710823,597.236972 629.435518,597.523252 629.431046,597.66439 C629.384333,599.255945 629.36048,600.852506 629.351535,602.448066 C629.343087,604.046628 629.373897,605.647193 629.357498,607.245756 C629.345572,608.391876 629.14779,609.42889 628.793471,610.346787 C628.477418,611.166588 628.073405,611.609021 627.562551,611.508923 C627.248982,611.447863 626.943363,611.233654 626.632279,611.105529 C623.128851,609.66512 619.609024,608.441925 616.048449,607.706206 C612.966923,607.068582 609.881919,606.457985 606.813314,605.616163 C602.170899,604.341917 597.540908,602.885493 592.906445,601.492131 C591.258095,600.995646 589.614217,600.430093 587.965369,599.945619 C587.254248,599.737416 586.536667,599.768446 585.83946,600.196865 C585.512473,600.398062 585.292826,600.871525 585.22226,601.522161 C585.137283,602.296918 585.056779,603.0967 585.062742,603.883469 C585.083117,606.602126 585.144737,609.320784 585.185983,612.039441 C585.217291,614.116472 585.346495,616.214523 585.24661,618.26753 C585.030441,622.743905 585.056779,627.221282 585.04684,632.34429 M583.200211,633.084013 C583.136105,624.920033 583.077963,616.756052 583.004913,608.592072 C582.983048,606.178712 583.0233,603.780368 583.350784,601.449089 C583.500859,600.380044 583.687212,599.308997 583.943633,598.332042 C584.461942,596.359114 585.308231,595.241021 586.413425,595.006792 C587.927602,594.68748 589.427367,594.981767 590.921169,595.510284 C593.50327,596.423176 596.081892,597.372104 598.669956,598.200914 C600.394835,598.752453 602.133132,599.132825 603.866459,599.573255 C609.540024,601.015665 615.216074,602.427045 620.887651,603.906491 C622.304428,604.275852 623.707289,604.859423 625.117605,605.328882 C625.508697,605.459009 625.903765,605.554102 626.298832,605.627173 C626.909075,605.737281 627.232583,605.259814 627.249975,604.083664 C627.292712,601.20485 627.300663,598.323033 627.321038,595.442217 C627.328989,594.323123 627.295197,593.196022 627.347873,592.084935 C627.413966,590.704586 627.800585,589.740644 628.45108,589.218133 C628.850123,588.896819 629.258607,588.905828 629.5846,589.411322 C630.022901,590.091987 630.412502,590.905783 630.807073,591.693553 C634.079423,598.235948 637.342332,604.797362 640.620149,611.328747 C643.332945,616.73303 646.063134,622.102278 648.78239,627.493548 C649.121303,628.165205 649.465683,628.834859 649.762853,629.578586 C650.028219,630.241234 650.062508,631.088062 649.907463,631.856813 C649.759871,632.587528 649.55215,633.286211 649.322564,633.92984 C648.575663,636.021885 647.66676,637.820643 646.694745,639.478264 C644.689095,642.902611 642.907564,646.773395 641.07634,650.559095 C637.360222,658.241605 633.550182,665.739935 629.77145,673.300325 C629.327682,674.188193 628.878448,675.364343 628.154903,674.891881 C627.271344,674.316319 627.405021,672.672712 627.396076,671.254325 C627.372223,667.573728 627.361787,663.894131 627.33048,660.214534 C627.323026,659.358697 626.949824,658.745097 626.536369,658.876226 C623.477703,659.84217 620.384251,660.24156 617.328069,661.304599 C614.590426,662.255529 611.820979,662.845105 609.060477,663.513759 C604.644667,664.583805 600.220906,665.537737 595.806587,666.640816 C593.284616,667.270431 590.775566,668.111253 588.258564,668.824951 C587.552909,669.026147 586.837812,669.240357 586.129673,669.218335 C584.698485,669.173291 583.70709,667.558713 583.436754,664.73195 C583.256862,662.856116 583.10132,660.895199 583.175364,659.011358 C583.517259,650.360902 583.108277,641.726461 583.200211,633.084013" id="Fill-31" fill="#000000" transform="translate(616.500000, 632.000000) rotate(91.000000) translate(-616.500000, -632.000000) "></path>
                <path d="M496.5,582.5 L735.5,582.5" id="Line" stroke="#000000" stroke-width="3" stroke-linecap="square"></path>
            </g>
        </g>
    </g>
</svg>