<?xml version="1.0" encoding="UTF-8"?>
<svg width="921px" height="286px" viewBox="0 0 921 286" version="1.1" xmlns="http://www.w3.org/2000/svg" xmlns:xlink="http://www.w3.org/1999/xlink">
    <!-- Generator: Sketch 49.2 (51160) - http://www.bohemiancoding.com/sketch -->
    <title>micronaut-logo-white</title>
    <desc>Created with Sketch.</desc>
    <defs></defs>
    <g id="Page-1" stroke="none" stroke-width="1" fill="none" fill-rule="evenodd">
        <g id="micronaut-logo-white" fill="#FFFFFF">
            <g id="Micronaut_LongLogo_White">
                <polygon id="Shape" fill-rule="nonzero" points="397.478571 165 397.478571 127.778571 397.221429 127.778571 384 165 377.228571 165 364.2 127.778571 363.942857 127.778571 363.942857 165 357 165 357 120 368.057143 120 380.7 155.7 381.042857 155.7 393.428571 120 405 120 405 165"></polygon>
                <polygon id="Shape" fill-rule="nonzero" points="443 165 443 120 451 120 451 165"></polygon>
                <path d="M518.755523,164.368805 C515.939194,165.520312 512.895895,166.074084 509.834842,165.992052 C506.665113,166.040834 503.522243,165.42864 500.624239,164.197937 C497.96901,163.070518 495.613489,161.384068 493.733013,159.26412 C491.831668,157.069053 490.385861,154.546215 489.473388,151.831358 C488.466131,148.815224 487.969213,145.66418 488.001476,142.497688 C487.970984,139.314025 488.483222,136.146936 489.517991,133.121301 C490.488769,130.384301 492.00339,127.853066 493.978332,125.66718 C495.876215,123.575787 498.228075,121.906537 500.869558,120.776081 C503.722699,119.554523 506.821589,118.94929 509.946351,119.003324 C512.874411,118.961947 515.787563,119.410073 518.554808,120.327552 C521.033845,121.123005 523.254716,122.521343 525,124.38567 L520.138229,128.230202 C518.902429,126.922652 517.379021,125.894071 515.677888,125.218652 C513.960565,124.565199 512.128774,124.231733 510.280876,124.23616 C508.12032,124.182492 505.985116,124.691872 504.103305,125.709897 C502.365262,126.687698 500.897006,128.049916 499.821378,129.682581 C498.627813,131.457643 497.760383,133.415309 497.256682,135.470738 C496.664986,137.784191 496.372868,140.158598 496.386916,142.540405 C496.372671,144.908136 496.664819,147.268435 497.256682,149.567356 C497.768857,151.606772 498.635871,153.54906 499.821378,155.312796 C500.95348,156.955281 502.483818,158.310976 504.281718,159.26412 C506.182507,160.273247 508.331441,160.774851 510.503893,160.716499 C512.480026,160.761136 514.435994,160.327718 516.190828,159.456347 C517.726809,158.702954 519.079509,157.647638 520.160531,156.359363 L524.843888,160.097102 C523.168296,161.933685 521.089149,163.392451 518.755523,164.368805 Z" id="Shape" fill-rule="nonzero"></path>
                <path d="M581.989404,165 L572.071523,144.92177 L565.290066,144.92177 L565.290066,165 L558,165 L558,120.000766 L573.17351,120.000766 C575.226391,119.985162 577.27425,120.208048 579.276821,120.66504 C581.058832,121.066154 582.753629,121.792291 584.278146,122.807861 C585.709412,123.774977 586.881595,125.085373 587.690066,126.622082 C588.556253,128.375929 588.978581,130.319672 588.919205,132.279128 C588.959439,133.912807 588.64853,135.535852 588.007947,137.03619 C587.445464,138.337192 586.639502,139.51595 585.634437,140.50756 C584.689573,141.430564 583.601402,142.190638 582.413245,142.757521 C581.33398,143.286191 580.184782,143.654279 579.001325,143.85036 L590,165 L581.989404,165 Z M581.480795,132.49341 C581.526286,131.195045 581.249429,129.905837 580.675497,128.743474 C580.157435,127.803679 579.432296,126.997137 578.556291,126.386371 C577.629102,125.77456 576.592362,125.352331 575.504636,125.143535 C574.360796,124.906885 573.196664,124.784868 572.029139,124.779256 L565.33245,124.779256 L565.33245,140.37899 L572.198675,140.37899 C574.628501,140.470165 577.015415,139.713578 578.95894,138.23617 C580.635356,136.82134 581.567068,134.699649 581.480795,132.49341 Z" id="Shape" fill-rule="nonzero"></path>
                <path d="M662.99826,142.416515 C663.032182,145.673038 662.56993,148.915365 661.627822,152.029049 C660.814591,154.747925 659.474224,157.275131 657.685178,159.462743 C655.957245,161.522989 653.796041,163.165228 651.360079,164.26901 C646.012426,166.576997 639.967306,166.576997 634.619653,164.26901 C632.181122,163.169656 630.019013,161.526728 628.294555,159.462743 C626.505508,157.275131 625.165142,154.747925 624.35191,152.029049 C623.41727,148.914158 622.962141,145.671907 623.002556,142.416515 C622.962071,139.171193 623.40271,135.938103 624.309743,132.825341 C625.100196,130.120702 626.411528,127.601457 628.168053,125.413009 C629.888105,123.36016 632.052665,121.737301 634.493151,120.670825 C637.160196,119.530074 640.031942,118.962712 642.926615,119.004653 C645.823068,118.942133 648.699017,119.510325 651.360079,120.670825 C653.788446,121.758529 655.948631,123.378107 657.685178,125.413009 C659.476987,127.590721 660.817829,130.111559 661.627822,132.825341 C662.566803,135.932412 663.029009,139.167212 662.99826,142.416515 Z M655.176222,142.416515 C655.182356,140.009065 654.920673,137.608583 654.396127,135.260517 C653.942788,133.211373 653.166822,131.249528 652.098008,129.450274 C651.146962,127.868551 649.84819,126.530751 648.302949,125.541176 C646.72642,124.580369 644.913555,124.091562 643.074201,124.131338 C641.201636,124.092128 639.355067,124.580183 637.740035,125.541176 C636.181836,126.528618 634.868869,127.866178 633.902809,129.450274 C632.839224,131.247477 632.076916,133.210815 631.646857,135.260517 C630.66313,139.979126 630.66313,144.853903 631.646857,149.572513 C632.073559,151.62995 632.836005,153.600864 633.902809,155.404117 C634.868869,156.988213 636.181836,158.325773 637.740035,159.313215 C639.355067,160.274208 641.201636,160.762263 643.074201,160.723053 C644.913555,160.762829 646.72642,160.274022 648.302949,159.313215 C649.84819,158.32364 651.146962,156.98584 652.098008,155.404117 C653.170245,153.59894 653.946364,151.629495 654.396127,149.572513 C654.922813,147.224811 655.184523,144.824082 655.176222,142.416515 Z" id="Shape" fill-rule="nonzero"></path>
                <polygon id="Shape" fill-rule="nonzero" points="729.166667 164.978582 704.9375 121.670633 704.791667 121.670633 704.791667 164.978582 703 164.978582 703 120 705.916667 120 730.0625 163.243693 730.229167 163.243693 730.229167 120.021418 732 120.021418 732 165"></polygon>
                <path d="M793.918814,152.142857 L773.251289,152.142857 L768.786082,165 L767,165 L782.181701,120 L785.328608,120 L800,165 L798.171392,165 L793.918814,152.142857 Z M773.676546,150.878571 L793.493557,150.878571 L783.861469,120.878571 L783.542526,120.878571 L773.676546,150.878571 Z" id="Shape" fill-rule="nonzero"></path>
                <path d="M863.235085,154.624265 C862.790202,156.588228 861.919941,158.440084 860.680979,160.059226 C859.43307,161.633984 857.787498,162.876336 855.900217,163.668543 C853.561119,164.615924 851.036865,165.066863 848.499859,164.99056 C845.934126,165.072385 843.380201,164.621467 841.012182,163.668543 C839.121363,162.882035 837.474407,161.638638 836.23142,160.059226 C835.006827,158.437149 834.15144,156.585288 833.720974,154.624265 C833.227999,152.403511 832.986464,150.137998 833.000585,147.867287 L833.000585,120 L834.877962,120 L834.877962,147.279724 C834.875174,149.268319 835.035759,151.25402 835.358221,153.21831 C835.630316,155.088911 836.27516,156.891514 837.257428,158.527364 C838.251456,160.138492 839.676058,161.46444 841.383291,162.36751 C843.589521,163.422026 846.038358,163.920262 848.499859,163.815434 C850.931091,163.922595 853.350543,163.431446 855.529107,162.388494 C857.237034,161.508851 858.674797,160.21361 859.69863,158.632286 C860.709327,157.011129 861.377,155.214056 861.663327,153.344217 C861.971113,151.336311 862.124339,149.309309 862.121756,147.279724 L862.121756,120 L863.999133,120 L863.999133,147.930241 C864.016933,150.182591 863.760507,152.429207 863.235085,154.624265 Z" id="Shape" fill-rule="nonzero"></path>
                <polygon id="Shape" fill-rule="nonzero" points="908.949066 121.264888 908.949066 165 907.050934 165 907.050934 121.264888 895 121.264888 895 120 921 120 921 121.264888"></polygon>
                <path d="M194.074987,145.811122 C196.222377,146.388701 198.506104,145.615285 199.861205,143.85154 C201.216306,142.087795 201.375896,139.681086 200.265555,137.753726 C199.155213,135.826366 196.993619,134.757944 194.788782,135.046694 C192.583945,135.335444 190.770102,136.924497 190.193097,139.072836 C189.808939,140.481557 190.002797,141.985408 190.731633,143.250543 C191.46047,144.515677 192.663979,145.43741 194.074987,145.811122 Z" id="Shape" fill-rule="nonzero"></path>
                <path d="M189.927164,119.810266 C192.075503,119.233082 193.664556,117.418675 193.953306,115.213151 C194.242056,113.007628 193.173634,110.845361 191.246274,109.734674 C189.318914,108.623987 186.912205,108.783627 185.14846,110.139149 C183.384715,111.494672 182.611299,113.77911 183.188878,115.927169 C183.977432,118.85986 186.994091,120.598281 189.927164,119.810266 Z" id="Shape" fill-rule="nonzero"></path>
                <path d="M163.605916,91.6159158 C161.462096,93.7652557 161.465078,97.2450917 163.61258,99.3907536 C165.760081,101.536415 169.239919,101.536415 171.38742,99.3907536 C173.534922,97.2450917 173.537904,93.7652557 171.394084,91.6159158 C170.36223,90.5814056 168.961141,90 167.5,90 C166.038859,90 164.63777,90.5814056 163.605916,91.6159158 Z" id="Shape" fill-rule="nonzero"></path>
                <path d="M142.930143,85.1888782 C140.781162,84.6112994 138.495743,85.3847147 137.139638,87.1484598 C135.783534,88.9122048 135.623826,91.318914 136.734989,93.2462742 C137.846153,95.1736344 140.009348,96.2420564 142.215819,95.9533064 C144.422289,95.6645563 146.237475,94.0755028 146.814907,91.9271642 C147.590904,88.9957198 145.856489,85.9873031 142.930143,85.1888782 Z" id="Shape" fill-rule="nonzero"></path>
                <path d="M115.927164,102.810266 C118.075503,102.233082 119.664556,100.418675 119.953306,98.2131512 C120.242056,96.0076278 119.173634,93.8453611 117.246274,92.734674 C115.318914,91.6239869 112.912205,91.7836268 111.14846,93.1391494 C109.384715,94.4946719 108.611299,96.7791099 109.188878,98.9271686 C109.977432,101.85986 112.994091,103.598281 115.927164,102.810266 Z" id="Shape" fill-rule="nonzero"></path>
                <path d="M91.605916,114.623409 C89.4620955,116.771033 89.465078,120.24809 91.6125797,122.392039 C93.7600814,124.535987 97.2399186,124.535987 99.3874203,122.392039 C101.534922,120.24809 101.537904,116.771033 99.394084,114.623409 C98.3650007,113.584534 96.9628737,113 95.5,113 C94.0371263,113 92.6349993,113.584534 91.605916,114.623409 Z" id="Shape" fill-rule="nonzero"></path>
                <path d="M91.9301426,140.188878 C89.7811617,139.611299 87.4957429,140.384715 86.1396384,142.14846 C84.783534,143.912205 84.6238255,146.318914 85.7349894,148.246274 C86.8461534,150.173634 89.0093484,151.242056 91.2158187,150.953306 C93.422289,150.664556 95.2374751,149.075503 95.814907,146.927164 C96.5909044,143.99572 94.8564886,140.987303 91.9301426,140.188878 Z" id="Shape" fill-rule="nonzero"></path>
                <path d="M97.0728358,166.193097 C94.9244972,166.770102 93.3354437,168.583945 93.0466936,170.788782 C92.7579436,172.993619 93.8263656,175.155213 95.7537258,176.265555 C97.681086,177.375896 100.087795,177.216306 101.85154,175.861205 C103.615285,174.506104 104.388701,172.222377 103.811122,170.074987 C103.43741,168.663979 102.515677,167.46047 101.250543,166.731633 C99.9854083,166.002797 98.4815572,165.808939 97.0728358,166.193097 Z" id="Shape" fill-rule="nonzero"></path>
                <path d="M122.383473,193.379627 C123.959638,191.810365 124.433032,189.447266 123.582673,187.393422 C122.732315,185.339579 120.725891,184 118.5,184 C116.274109,184 114.267685,185.339579 113.417327,187.393422 C112.566968,189.447266 113.040362,191.810365 114.616527,193.379627 C115.641975,194.416429 117.040593,195 118.5,195 C119.959407,195 121.358025,194.416429 122.383473,193.379627 Z" id="Shape" fill-rule="nonzero"></path>
                <path d="M143.079169,200.813596 C145.232337,201.38829 147.519628,200.607685 148.871733,198.836715 C150.223839,197.065745 150.373631,194.654287 149.251084,192.729701 C148.128536,190.805115 145.955422,189.747628 143.747673,190.051615 C141.539925,190.355602 139.733712,191.961007 139.173441,194.117302 C138.425426,197.041413 140.165092,200.024035 143.079169,200.813596 Z" id="Shape" fill-rule="nonzero"></path>
                <path d="M169.072836,183.185093 C166.924497,183.762525 165.335444,185.577711 165.046694,187.784181 C164.757944,189.990652 165.826366,192.153847 167.753726,193.265011 C169.681086,194.376174 172.087795,194.216466 173.85154,192.860362 C175.615285,191.504257 176.388701,189.218838 175.811122,187.069857 C175.012697,184.143511 172.00428,182.409096 169.072836,183.185093 Z" id="Shape" fill-rule="nonzero"></path>
                <path d="M193.394084,171.391492 C195.537904,169.240456 195.534922,165.757873 193.38742,163.610517 C191.239919,161.463161 187.760081,161.463161 185.61258,163.610517 C183.465078,165.757873 183.462096,169.240456 185.605916,171.391492 C187.759726,173.536169 191.240274,173.536169 193.394084,171.391492 Z" id="Shape" fill-rule="nonzero"></path>
                <path d="M224.182916,137.222216 C221.643886,136.541133 218.944632,137.456786 217.343894,139.542178 C215.743157,141.627571 215.556201,144.471987 216.870209,146.748992 C218.184217,149.025996 220.740397,150.287135 223.346726,149.944302 C225.953056,149.60147 228.096221,147.722185 228.7768,145.182816 C229.705965,141.715925 227.649343,138.152068 224.182916,137.222216 Z" id="Shape" fill-rule="nonzero"></path>
                <path d="M214.182816,109.7768 C216.722185,109.096221 218.60147,106.953056 218.944302,104.346726 C219.287135,101.740397 218.025996,99.1842172 215.748992,97.870209 C213.471987,96.5562008 210.627571,96.743157 208.542178,98.3438943 C206.456786,99.9446316 205.541133,102.643886 206.222216,105.182916 C207.152068,108.649343 210.715925,110.705965 214.182816,109.7768 Z" id="Shape" fill-rule="nonzero"></path>
                <path d="M176.902075,78.0943279 C178.760677,79.9542756 181.556827,80.5112693 183.986311,79.5055093 C186.415796,78.4997493 188,76.1293731 188,73.5 C188,70.8706269 186.415796,68.5002507 183.986311,67.4944907 C181.556827,66.4887307 178.760677,67.0457244 176.902075,68.9056721 C174.365975,71.443609 174.365975,75.556391 176.902075,78.0943279 Z" id="Shape" fill-rule="nonzero"></path>
                <path d="M141.817084,68.7777844 C144.356114,69.4588672 147.055368,68.5432144 148.656106,66.4578218 C150.256843,64.3724291 150.443799,61.528013 149.129791,59.2510084 C147.815783,56.9740037 145.259603,55.7128647 142.653274,56.0556976 C140.046944,56.3985305 137.903779,58.2778146 137.2232,60.8171844 C136.294035,64.2840751 138.350657,67.8479317 141.817084,68.7777844 Z" id="Shape" fill-rule="nonzero"></path>
                <path d="M101.817184,67.2185211 C99.2778146,67.8993496 97.3985305,70.0432992 97.0556976,72.6505831 C96.7128647,75.257867 97.9740037,77.8149829 100.251008,79.1294723 C102.528013,80.4439617 105.372429,80.2569371 107.457822,78.6556135 C109.543214,77.05429 110.458867,74.3540468 109.777784,71.8140868 C108.837961,68.35406 105.282425,66.3014887 101.817184,67.2185211 Z" id="Shape" fill-rule="nonzero"></path>
                <path d="M68.902075,108.094328 C70.7606766,109.954276 73.5568266,110.511269 75.9863113,109.505509 C78.415796,108.499749 80,106.129373 80,103.5 C80,100.870627 78.415796,98.5002507 75.9863113,97.4944907 C73.5568266,96.4887307 70.7606766,97.0457244 68.902075,98.9056721 C66.365975,101.443609 66.365975,105.556391 68.902075,108.094328 Z" id="Shape" fill-rule="nonzero"></path>
                <path d="M60.8140868,147.777784 C63.3540468,148.458867 66.05429,147.543214 67.6556135,145.457822 C69.2569371,143.372429 69.4439617,140.528013 68.1294723,138.251008 C66.8149829,135.974004 64.257867,134.712865 61.6505831,135.055698 C59.0432992,135.39853 56.8993496,137.277815 56.2185211,139.817184 C55.3014887,143.282425 57.35406,146.837961 60.8140868,147.777784 Z" id="Shape" fill-rule="nonzero"></path>
                <path d="M71.8171844,176.2232 C69.2778146,176.903779 67.3985305,179.046944 67.0556976,181.653274 C66.7128647,184.259603 67.9740037,186.815783 70.2510084,188.129791 C72.528013,189.443799 75.3724291,189.256843 77.4578218,187.656106 C79.5432144,186.055368 80.4588672,183.356114 79.7777844,180.817084 C78.8479317,177.350657 75.2840751,175.294035 71.8171844,176.2232 Z" id="Shape" fill-rule="nonzero"></path>
                <path d="M108.087322,206.894951 C105.546336,204.363746 101.435322,204.369031 98.9008524,206.906761 C96.3663825,209.444492 96.3663825,213.555508 98.9008524,216.093239 C101.435322,218.630969 105.546336,218.636254 108.087322,216.105049 C109.311735,214.88535 110,213.228251 110,211.5 C110,209.771749 109.311735,208.11465 108.087322,206.894951 Z" id="Shape" fill-rule="nonzero"></path>
                <path d="M144.182916,216.222216 C141.643886,215.541133 138.944632,216.456786 137.343894,218.542178 C135.743157,220.627571 135.556201,223.471987 136.870209,225.748992 C138.184217,228.025996 140.740397,229.287135 143.346726,228.944302 C145.953056,228.60147 148.096221,226.722185 148.7768,224.182816 C149.705965,220.715925 147.649343,217.152068 144.182916,216.222216 Z" id="Shape" fill-rule="nonzero"></path>
                <path d="M183.202143,217.776213 C186.662682,216.836643 188.70848,213.270618 187.773663,209.80761 C186.838846,206.344602 183.276742,204.293511 179.813823,205.224263 C176.350903,206.155015 174.296034,209.715816 175.222033,213.181194 C176.161411,216.651341 179.730762,218.706605 183.202143,217.776213 Z" id="Shape" fill-rule="nonzero"></path>
                <path d="M217.105366,177.905672 C215.245518,176.045724 212.447493,175.488731 210.01638,176.494491 C207.585266,177.500251 206,179.870627 206,182.5 C206,185.129373 207.585266,187.499749 210.01638,188.505509 C212.447493,189.511269 215.245518,188.954276 217.105366,187.094328 C219.631545,184.551594 219.631545,180.448406 217.105366,177.905672 Z" id="Shape" fill-rule="nonzero"></path>
                <path d="M248.219376,162.687589 C251.545578,163.614604 255.101992,162.436925 257.217695,159.707866 C259.333397,156.978807 259.587812,153.240873 257.861407,150.25027 C256.135002,147.259667 252.770965,145.610891 249.349834,146.078593 C245.928703,146.546295 243.130558,149.037501 242.270061,152.381759 C241.116761,156.863973 243.76136,161.445138 248.219376,162.687589 Z" id="Shape" fill-rule="nonzero"></path>
                <path d="M248.728517,97.3762082 C247.865427,94.0312212 245.063805,91.5413993 241.640815,91.0773171 C238.217825,90.6132348 234.854476,92.2672221 233.132027,95.2616668 C231.409577,98.2561116 231.67071,101.995265 233.792656,104.721187 C235.914602,107.447109 239.475196,108.617473 242.800448,107.68204 C247.249884,106.430361 249.883396,101.852053 248.728517,97.3762082 Z" id="Shape" fill-rule="nonzero"></path>
                <path d="M213.570214,50.5501873 C211.15283,48.0840396 207.483599,47.3255547 204.286499,48.6311048 C201.089399,49.9366549 199,53.0467024 199,56.5 C199,59.9532976 201.089399,63.0633451 204.286499,64.3688952 C207.483599,65.6744453 211.15283,64.9159604 213.570214,62.4498127 C216.809929,59.1447469 216.809929,53.8552531 213.570214,50.5501873 Z" id="Shape" fill-rule="nonzero"></path>
                <path d="M152.120421,43.6593734 C155.441613,44.6284635 159.018731,43.4875158 161.165612,40.7743448 C163.312492,38.0611738 163.600619,34.3173266 161.894176,31.3075601 C160.187733,28.2977936 156.827325,26.6228553 153.396965,27.0722694 C149.966606,27.5216836 147.150992,30.0057476 146.277335,33.3535352 C145.115904,37.8040494 147.705264,42.371075 152.120421,43.6593734 Z" id="Shape" fill-rule="nonzero"></path>
                <path d="M101.618241,50.7299391 C104.962499,49.8694421 107.453705,47.0712969 107.921407,43.6501658 C108.389109,40.2290347 106.740333,36.864998 103.74973,35.1385928 C100.759127,33.4121876 97.0211927,33.6666027 94.2921339,35.7823054 C91.5630751,37.8980081 90.3853964,41.4544218 91.3124107,44.7806243 C92.5548617,49.2386396 97.1360269,51.883239 101.618241,50.7299391 Z" id="Shape" fill-rule="nonzero"></path>
                <path d="M61.5361091,72.5608143 C59.1285201,70.0885069 55.4682039,69.3245261 52.2772251,70.6283011 C49.0862463,71.9320761 47,75.0439962 47,78.5 C47,81.9560038 49.0862463,85.0679239 52.2772251,86.3716989 C55.4682039,87.6754739 59.1285201,86.9114931 61.5361091,84.4391857 C63.1131612,82.8675587 64,80.7298423 64,78.5 C64,76.2701577 63.1131612,74.1324413 61.5361091,72.5608143 Z" id="Shape" fill-rule="nonzero"></path>
                <path d="M37.7806243,123.312411 C34.4544218,122.385396 30.8980081,123.563075 28.7823054,126.292134 C26.6666027,129.021193 26.4121876,132.759127 28.1385928,135.74973 C29.864998,138.740333 33.2290347,140.389109 36.6501658,139.921407 C40.0712969,139.453705 42.8694421,136.962499 43.7299391,133.618241 C44.883239,129.136027 42.2386396,124.554862 37.7806243,123.312411 Z" id="Shape" fill-rule="nonzero"></path>
                <path d="M40.3817586,177.270061 C37.0375007,178.130558 34.5462949,180.928703 34.078593,184.349834 C33.6108911,187.770965 35.2596667,191.135002 38.2502699,192.861407 C41.2408731,194.587812 44.9788073,194.333397 47.7078661,192.217695 C50.4369249,190.101992 51.6146036,186.545578 50.6875893,183.219376 C49.4451383,178.76136 44.8639731,176.116761 40.3817586,177.270061 Z" id="Shape" fill-rule="nonzero"></path>
                <path d="M84.5702142,223.550187 C82.1528298,221.08404 78.4835985,220.325555 75.2864988,221.631105 C72.0893991,222.936655 70,226.046702 70,229.5 C70,232.953298 72.0893991,236.063345 75.2864988,237.368895 C78.4835985,238.674445 82.1528298,237.91596 84.5702142,235.449813 C87.8099286,232.144747 87.8099286,226.855253 84.5702142,223.550187 Z" id="Shape" fill-rule="nonzero"></path>
                <path d="M133.780624,242.312411 C130.454422,241.385396 126.898008,242.563075 124.782305,245.292134 C122.666603,248.021193 122.412188,251.759127 124.138593,254.74973 C125.864998,257.740333 129.229035,259.389109 132.650166,258.921407 C136.071297,258.453705 138.869442,255.962499 139.729939,252.618241 C140.883239,248.136027 138.23864,243.554862 133.780624,242.312411 Z" id="Shape" fill-rule="nonzero"></path>
                <path d="M184.376208,233.271483 C181.031221,234.134573 178.541399,236.936195 178.077317,240.359185 C177.613235,243.782175 179.267222,247.145524 182.261667,248.867973 C185.256112,250.590423 188.995265,250.32929 191.721187,248.207344 C194.447109,246.085398 195.617473,242.524804 194.68204,239.199552 C193.430361,234.750116 188.852053,232.116604 184.376208,233.271483 Z" id="Shape" fill-rule="nonzero"></path>
                <path d="M235.449813,213.570214 C237.91596,211.15283 238.674445,207.483599 237.368895,204.286499 C236.063345,201.089399 232.953298,199 229.5,199 C226.046702,199 222.936655,201.089399 221.631105,204.286499 C220.325555,207.483599 221.08404,211.15283 223.550187,213.570214 C226.855253,216.809929 232.144747,216.809929 235.449813,213.570214 Z" id="Shape" fill-rule="nonzero"></path>
                <path d="M278.566234,169.337023 C273.232162,167.921451 267.759706,171.094682 266.33931,176.426867 C264.918914,181.759052 268.087759,187.233606 273.419354,188.658478 C278.750948,190.08335 284.228931,186.919667 285.658626,181.589968 C286.346788,179.024599 285.985719,176.290869 284.655104,173.992074 C283.324488,171.693279 281.133707,170.018387 278.566234,169.337023 Z" id="Shape" fill-rule="nonzero"></path>
                <path d="M278.569655,117.659406 C282.479817,116.619926 285.378115,113.327057 285.912194,109.317262 C286.446272,105.307467 284.510867,101.371046 281.009046,99.3447468 C277.507225,97.3184473 273.12917,97.6016375 269.917695,100.06218 C266.706221,102.522722 265.294285,106.675662 266.340701,110.583225 C267.02073,113.144829 268.692343,115.330604 270.986637,116.658178 C273.280932,117.985752 276.009309,118.345995 278.569655,117.659406 Z" id="Shape" fill-rule="nonzero"></path>
                <path d="M231.940312,54.0824295 C235.848865,57.9784321 242.174667,57.9716505 246.074857,54.0672765 C249.975048,50.1629025 249.975048,43.8370975 246.074857,39.9327235 C242.174667,36.0283495 235.848865,36.0215679 231.940312,39.9175705 C230.057988,41.7938504 229,44.3422623 229,47 C229,49.6577377 230.057988,52.2061496 231.940312,54.0824295 Z" id="Shape" fill-rule="nonzero"></path>
                <path d="M175.41352,19.6575659 C180.746542,21.0848232 186.227238,17.9202679 187.65659,12.5884144 C189.085942,7.25656099 185.922972,1.775398 180.590979,0.344302099 C175.258986,-1.08679381 169.776013,2.0738155 168.342822,7.40463865 C167.653919,9.96704843 168.012024,12.6981802 169.338257,14.9964303 C170.66449,17.2946804 172.850053,18.9715146 175.41352,19.6575659 Z" id="Shape" fill-rule="nonzero"></path>
                <path d="M110.615584,19.6517175 C115.940054,18.2082628 119.089196,12.724265 117.652558,7.39734786 C116.21592,2.07043071 110.736525,-1.08593255 105.408473,0.344237445 C100.08042,1.77440744 96.9176135,7.25053365 98.3409636,12.5810175 C99.0267555,15.1493265 100.706929,17.3387887 103.010189,18.6655637 C105.313449,19.9923387 108.050173,20.3471961 110.615584,19.6517175 Z" id="Shape" fill-rule="nonzero"></path>
                <path d="M39.9249662,54.0668921 C42.7840628,56.9291146 47.0861211,57.786704 50.8242425,56.2395972 C54.562364,54.6924904 57,51.0455248 57,47 C57,42.9544752 54.562364,39.3075096 50.8242425,37.7604028 C47.0861211,36.213296 42.7840628,37.0708854 39.9249662,39.9331079 C36.0250113,43.8373267 36.0250113,50.1626733 39.9249662,54.0668921 Z" id="Shape" fill-rule="nonzero"></path>
                <path d="M12.5832248,98.3407006 C8.67566221,97.2942845 4.52272226,98.7062206 2.06217988,101.917695 C-0.3983625,105.12917 -0.68155268,109.507225 1.34474678,113.009046 C3.37104624,116.510867 7.30746675,118.446272 11.317262,117.912194 C15.3270573,117.378115 18.6199265,114.479817 19.6594063,110.569655 C20.345995,108.009309 19.9857519,105.280932 18.6581777,102.986637 C17.3306035,100.692343 15.1448294,99.0207303 12.5832248,98.3407006 Z" id="Shape" fill-rule="nonzero"></path>
                <path d="M7.40463865,169.347658 C2.0738155,170.780497 -1.08679381,176.262121 0.344302099,181.592802 C1.775398,186.923483 7.25656099,190.085675 12.5884144,188.656675 C17.9202679,187.227674 21.0848232,181.748326 19.6575659,176.416617 C18.9766447,173.850575 17.3007338,171.66182 15.0009447,170.335026 C12.7011556,169.008231 9.96725649,168.652879 7.40463865,169.347658 Z" id="Shape" fill-rule="nonzero"></path>
                <path d="M54.0705521,233.928416 C50.1651586,230.023593 43.833774,230.023901 39.9287603,233.929104 C36.0237466,237.834308 36.0237466,244.165692 39.9287603,248.070896 C43.833774,251.976099 50.1651586,251.976407 54.0705521,248.071584 C55.9462314,246.196178 57,243.652418 57,241 C57,238.347582 55.9462314,235.803822 54.0705521,233.928416 Z" id="Shape" fill-rule="nonzero"></path>
                <path d="M110.566234,266.337023 C105.232162,264.921451 99.759706,268.094682 98.33931,273.426867 C96.9189141,278.759052 100.087759,284.233606 105.419354,285.658478 C110.750948,287.08335 116.228931,283.919667 117.658626,278.589968 C118.346788,276.024599 117.985719,273.290869 116.655104,270.992074 C115.324488,268.693279 113.133707,267.018387 110.566234,266.337023 Z" id="Shape" fill-rule="nonzero"></path>
                <path d="M175.404639,266.342822 C170.073815,267.776013 166.913206,273.258986 168.344302,278.590979 C169.775398,283.922972 175.256561,287.085942 180.588414,285.65659 C185.920268,284.227238 189.084823,278.746542 187.657566,273.41352 C186.971515,270.850053 185.29468,268.66449 182.99643,267.338257 C180.69818,266.012024 177.967048,265.653919 175.404639,266.342822 Z" id="Shape" fill-rule="nonzero"></path>
                <path d="M246.051956,233.917571 C242.145175,230.021568 235.82224,230.02835 231.923817,233.932724 C228.025394,237.837098 228.025394,244.162902 231.923817,248.067276 C235.82224,251.97165 242.145175,251.978432 246.051956,248.082429 C247.938784,246.209006 249,243.659524 249,241 C249,238.340476 247.938784,235.790994 246.051956,233.917571 Z" id="Shape" fill-rule="nonzero"></path>
                <path d="M172,148.294118 C169.72778,150.604278 167.623873,152.871658 165.351653,154.989305 C163.642809,156.581724 161.82925,158.053938 159.923572,159.395722 C157.240223,161.252985 153.820913,161.622303 150.813654,160.379679 C148.486001,159.611086 146.805165,157.543731 146.500644,155.074866 C143.218549,157.770053 140.188922,160.914439 135.644483,161.106952 C135.265779,162.882353 134.887076,164.721925 134.508373,166.561497 C134.294672,167.355434 134.133018,168.162912 134.024474,168.97861 C134.024474,170.15508 133.393302,170.625668 132.257192,170.860963 C129.458995,171.438503 123.420781,173 123,173 C126.345213,156.935829 129.669386,140.914439 133.014599,125.064171 L143.155432,125.064171 C142.629455,127.652406 137.916702,150.475936 137.874624,150.73262 C137.601116,153.449198 139.305281,155.010695 141.914126,154.262032 C143.40093,153.671215 144.813433,152.902908 146.121941,151.973262 C146.332331,151.84492 146.395449,151.438503 146.458566,151.139037 C148.246887,142.582888 149.99313,134.13369 151.760412,125.641711 C151.811461,125.421822 151.881875,125.207052 151.970803,125 L162.069558,125 C161.522542,127.631016 158.093173,144.42246 156.893946,150.283422 C156.851428,150.753018 156.851428,151.225592 156.893946,151.695187 C156.803174,152.944451 157.674329,154.053909 158.892658,154.240642 C160.018243,154.597454 161.239436,154.457776 162.258909,153.855615 C163.355818,153.213663 164.410044,152.499111 165.41477,151.716578 C166.504995,150.899416 167.531913,149.998373 168.486475,149.02139 C169.45272,148.172509 170.784224,147.896898 172,148.294118 Z" id="Shape"></path>
            </g>
        </g>
    </g>
</svg>