<?xml version="1.0" encoding="UTF-8" standalone="yes"?><svg xmlns="http://www.w3.org/2000/svg" xmlns:xlink="http://www.w3.org/1999/xlink" width="1356px" height="1285px" viewBox="0 0 1356 1285" version="1.1" style="zoom: 1;"><!-- Generator: Sketch 51.3 (57544) - http://www.bohemiancoding.com/sketch --><title>multitenancy</title><desc>Created with Sketch.</desc><defs><polygon id="path-1" points="85.5 0 171 54 171 162 85.5 216 7.46069873e-14 162 1.95399252e-14 54"></polygon><polygon id="path-3" points="85.5 0 171 54 171 162 85.5 216 7.46069873e-14 162 1.95399252e-14 54"></polygon></defs><g id="multitenancy" stroke="none" stroke-width="1" fill="none" fill-rule="evenodd"><g id="tokenpropagation" transform="translate(59.000000, 42.000000)"><g id="watson-arrows" transform="translate(540.000000, 270.000000)"><g id="Group" transform="translate(57.000000, 312.000000)"><g id="2nd-request" transform="translate(45.500000, 59.000000) rotate(-34.000000) translate(-45.500000, -59.000000) translate(44.000000, -10.000000)"></g><path id="Line" d="M1,1.5 L-3.5,10.5 L5.5,10.5 L1,1.5 Z M1.5,140 L1.5,10 L1.5,9.5 L0.5,9.5 L0.5,10 L0.5,140 L0.5,140.5 L1.5,140.5 L1.5,140 Z" fill="#417505" fill-rule="nonzero"></path><path d="M1.5,6.65218597 L1.5,138.954963" id="Line-2" stroke="#417505" stroke-width="3" fill="#417505" stroke-linecap="square"></path></g><g id="Group-Copy-3" transform="translate(135.152468, 687.015473) scale(-1, -1) rotate(138.000000) translate(-135.152468, -687.015473) translate(88.152468, 608.015473)"><g id="2nd-request" transform="translate(48.660858, 66.137805) rotate(-34.000000) translate(-48.660858, -66.137805) translate(47.160858, -12.573704)"></g><path id="Line" d="M1.11426403,1.80886693 L-3.38573597,10.8088669 L5.61426403,10.8088669 L1.11426403,1.80886693 Z M1.61426403,156.871816 L1.61426403,10.3088669 L1.61426403,9.80886693 L0.614264034,9.80886693 L0.614264034,10.3088669 L0.614264034,156.871816 L0.614264034,157.371816 L1.61426403,157.371816 L1.61426403,156.871816 Z" fill="#417505" fill-rule="nonzero"></path><path d="M0.044018222,7.20371054 L2.89584429,157.744083" id="Line-2" stroke="#417505" stroke-width="3" fill="#417505" stroke-linecap="square"></path></g><g id="Group-Copy-2" transform="translate(49.185513, 49.446644) scale(1, -1) rotate(138.000000) translate(-49.185513, -49.446644) translate(17.185513, 12.946644)"><g id="2nd-request" transform="translate(43.160858, 32.169985) rotate(-34.000000) translate(-43.160858, -32.169985) translate(41.857827, -2.837685)"></g><path id="Line" d="M0.0035828507,-0.077873853 L-4.26598265,9.03370178 L4.73110406,8.80472392 L0.0035828507,-0.077873853 Z M2.26540769,69.1420701 L0.719063862,8.38252813 L0.70634287,7.88268998 L-0.293333431,7.90813197 L-0.280612439,8.40797012 L1.26573139,69.1675121 L1.27845239,69.6673503 L2.27812869,69.6419083 L2.26540769,69.1420701 Z" fill="#417505" fill-rule="nonzero"></path><path d="M0.928047629,5.95850275 L3.40539149,72.9127214" id="Line-2" stroke="#417505" stroke-width="3" fill="#417505" stroke-linecap="square"></path></g><text id="GET-/books---H-“tena" transform="translate(140.000000, 378.500000) scale(-1, -1) rotate(90.000000) translate(-140.000000, -378.500000)" font-family="CourierNewPS-BoldMT, Courier New" font-size="20" font-weight="bold" fill="#417505"><tspan x="1.5" y="372.5">GET /books</tspan><tspan x="1.5" y="395.5">- H “tenantId:watson”</tspan></text><text id="watson.micronaut.exa" font-family="CourierNewPS-BoldMT, Courier New" font-size="20" font-weight="bold" fill="#417505"><tspan x="23" y="805">watson.micronaut.example</tspan></text></g><ellipse id="Oval" stroke="#979797" fill-rule="nonzero" cx="544" cy="418.5" rx="544" ry="418.5"></ellipse><g id="sherlock-arrows" transform="translate(203.000000, 269.000000)"><g id="Group" transform="translate(264.000000, 313.000000)"><g id="2nd-request" transform="translate(45.500000, 59.000000) rotate(-34.000000) translate(-45.500000, -59.000000) translate(44.000000, -10.000000)"></g><path id="Line" d="M1,1.5 L-3.5,10.5 L5.5,10.5 L1,1.5 Z M1.5,140 L1.5,10 L1.5,9.5 L0.5,9.5 L0.5,10 L0.5,140 L0.5,140.5 L1.5,140.5 L1.5,140 Z" fill="#4A90E2" fill-rule="nonzero"></path><path d="M1.5,6.65218597 L1.5,138.954963" id="Line-2" stroke="#4A90E2" stroke-width="3" stroke-linecap="square"></path></g><g id="Group-Copy-2" transform="translate(209.869544, 691.842219) scale(1, -1) rotate(138.000000) translate(-209.869544, -691.842219) translate(160.369544, 606.342219)"><g id="2nd-request" transform="translate(49.660858, 71.375229) rotate(-34.000000) translate(-49.660858, -71.375229) translate(48.160858, -13.571308)"></g><path id="Line" d="M2.11426403,1.99016559 L-2.38573597,10.9901656 L6.61426403,10.9901656 L2.11426403,1.99016559 Z M2.61426403,169.296615 L2.61426403,10.4901656 L2.61426403,9.99016559 L1.61426403,9.99016559 L1.61426403,10.4901656 L1.61426403,169.296615 L1.61426403,169.796615 L2.61426403,169.796615 L2.61426403,169.296615 Z" fill="#4A90E2" fill-rule="nonzero"></path><path d="M1.04401822,7.77274778 L3.89584429,170.237977" id="Line-2" stroke="#4A90E2" stroke-width="3" stroke-linecap="square"></path></g><g id="Group-Copy-3" transform="translate(289.600576, 52.101630) scale(-1, -1) rotate(138.000000) translate(-289.600576, -52.101630) translate(256.100576, 12.601630)"><g id="2nd-request" transform="translate(43.948119, 33.263918) rotate(-34.000000) translate(-43.948119, -33.263918) translate(42.620671, -5.463708)"></g><path id="Line" d="M1.87104958,1.35881254 L-2.62895042,10.3588125 L6.37104958,10.3588125 L1.87104958,1.35881254 Z M2.37104958,77.9068541 L2.37104958,9.85881254 L2.37104958,9.35881254 L1.37104958,9.35881254 L1.37104958,9.85881254 L1.37104958,77.9068541 L1.37104958,78.4068541 L2.37104958,78.4068541 L2.37104958,77.9068541 Z" fill="#4A90E2" fill-rule="nonzero"></path><path d="M2.19787141,9.77911374 L2.19787141,78.4015267" id="Line-2" stroke="#4A90E2" stroke-width="3" stroke-linecap="square"></path></g><text id="GET-/books---H-“tena" transform="translate(217.000000, 379.500000) scale(-1, -1) rotate(90.000000) translate(-217.000000, -379.500000)" font-family="CourierNewPS-BoldMT, Courier New" font-size="20" font-weight="bold" fill="#4A90E2"><tspan x="78.5" y="373.5">GET /books</tspan><tspan x="78.5" y="396.5">- H “tenantId:sherlock”</tspan></text><text id="sherlock.micronaut.e" font-family="CourierNewPS-BoldMT, Courier New" font-size="20" font-weight="bold" fill="#4A90E2"><tspan x="0" y="806">sherlock.micronaut.example</tspan></text></g><g id="Gateway" transform="translate(463.000000, 739.000000)"><g id="Micronaut_StackLogo_WhiteBLK"><mask id="mask-2" fill="white"><use xlink:href="#path-1"></use></mask><use id="Mask" fill="#231F20" xlink:href="#path-1"></use><g mask="url(#mask-2)"><g transform="translate(46.000000, 112.000000)"><rect id="Rectangle-path" fill="#231F20" fill-rule="nonzero" x="0" y="0" width="79.9967811" height="75.4400024"></rect><polygon id="Shape" fill="#FFFFFF" fill-rule="nonzero" points="12.7901725 65.3138276 12.7901725 61.12352 12.7603365 61.12352 11.2262662 65.3138276 10.4430698 65.3138276 8.92889027 61.12352 8.89905422 61.12352 8.89905422 65.3138276 8.10093986 65.3138276 8.10093986 60.2507402 9.38140371 60.2507402 10.8359112 64.2698672 10.8756926 64.2698672 12.3277137 60.2507402 13.670336 60.2507402 13.670336 65.3138276"></polygon><polygon id="Shape" fill="#FFFFFF" fill-rule="nonzero" points="18.2271147 65.3138276 18.2271147 60.2507402 19.2397322 60.2507402 19.2397322 65.3138276"></polygon><path d="M26.6591152,65.6266188 C26.35097,65.764239 26.0173641,65.8299068 25.6819727,65.818962 C25.335091,65.8239545 24.991161,65.7523463 24.6730732,65.608903 C24.3827335,65.474419 24.1248955,65.2747247 23.9182306,65.0242811 C23.7102092,64.763468 23.5526246,64.4635857 23.454088,64.1410211 C23.3415847,63.7841007 23.2862951,63.4104931 23.2904166,63.0350481 C23.2872509,62.6578199 23.3433555,62.2825715 23.4565308,61.9240133 C23.5620065,61.6000577 23.7280213,61.3007891 23.9451021,61.0432842 C24.151488,60.7942428 24.4084026,60.5954817 24.6975017,60.4611931 C25.0100256,60.3164473 25.3494679,60.2447315 25.6917442,60.2511341 C26.0123882,60.2474479 26.3312855,60.3005144 26.6346866,60.4080456 C26.9057942,60.5032326 27.1488474,60.66878 27.340672,60.8889035 L26.8081294,61.3469839 C26.6732043,61.1915339 26.5062146,61.0695664 26.3195582,60.9901367 C26.131779,60.9115349 25.9309071,60.8719776 25.728387,60.8737185 C25.4920703,60.8677123 25.2584841,60.9271198 25.0517159,61.045815 C24.8620516,61.161367 24.7007033,61.320731 24.5802446,61.5114879 C24.4529321,61.7225006 24.3612356,61.9544346 24.3090876,62.197343 C24.2442752,62.4714707 24.2122775,62.752821 24.2138162,63.0350481 C24.2121046,63.315616 24.2441077,63.5953138 24.3090876,63.8676914 C24.3657256,64.1115865 24.4624044,64.343582 24.5949018,64.5535466 C24.7194839,64.7483234 24.8869357,64.9096619 25.083473,65.0242811 C25.2921093,65.1427114 25.5271928,65.2020711 25.7650298,65.1963776 C25.9816883,65.2007773 26.1959247,65.1485533 26.3879582,65.0445277 C26.5567409,64.9561095 26.7050732,64.8309254 26.8227865,64.6775573 L27.3357863,65.1204527 C27.1501174,65.3400624 26.9187452,65.5131343 26.6591152,65.6266188 Z" id="Shape" fill="#FFFFFF" fill-rule="nonzero"></path><path d="M33.5411926,65.3114178 L32.4420094,63.0534037 L31.6904312,63.0534037 L31.6904312,65.3114178 L30.8848332,65.3114178 L30.8848332,60.2507402 L32.5641409,60.2507673 C32.79175,60.2497817 33.0187145,60.2756566 33.2405613,60.327882 C33.4393083,60.371311 33.6282037,60.4530889 33.7971989,60.5688654 C33.9550935,60.6777792 34.084208,60.825159 34.1729881,60.9978157 C34.2695113,61.1940835 34.3171213,61.4118369 34.3115603,61.631602 C34.3153212,61.8162865 34.2800663,61.9996171 34.2082183,62.1689948 C34.1452631,62.3142427 34.0559976,62.4459027 33.9451659,62.556978 C33.8409307,62.6620164 33.7202551,62.7483629 33.5881662,62.8124204 C33.4688717,62.8700508 33.3424267,62.9105937 33.2123771,62.9329121 L34.4289944,65.3138276 L33.5411926,65.3114178 Z M33.4848242,61.6557003 C33.4913065,61.5087845 33.4605562,61.3626539 33.3955743,61.2315696 C33.3382274,61.1258285 33.2578483,61.0351094 33.1607061,60.9664879 C33.0579472,60.897683 32.9430469,60.8501988 32.8224959,60.8267176 C32.6956679,60.8007719 32.566636,60.7878557 32.437312,60.7881602 L31.6951285,60.788155 L31.6951285,62.5521584 L32.4561015,62.5521584 C32.725603,62.5640189 32.9906566,62.4787667 33.2053311,62.311175 C33.3944352,62.1504477 33.4981202,61.9072831 33.4848242,61.6557003 Z" id="Shape" fill="#FFFFFF" fill-rule="nonzero"></path><path d="M43.0359588,63.0281197 C43.0398062,63.4131836 42.9871458,63.7965599 42.8798436,64.1646655 C42.7881137,64.4872476 42.6353308,64.7869024 42.4307121,65.0455518 C42.2332988,65.2896813 41.9872959,65.4849966 41.7101804,65.6176217 C41.1003269,65.8876412 40.4130266,65.8876412 39.8031731,65.6176217 C39.5257316,65.4855758 39.2796164,65.2901714 39.0826414,65.0455518 C38.8780227,64.7869024 38.7252398,64.4872476 38.63351,64.1646655 C38.5270209,63.7964254 38.4751711,63.413052 38.4797965,63.0281197 C38.4748556,62.6435303 38.5250584,62.2603602 38.6287064,61.8915738 C38.7180179,61.5702525 38.8683706,61.2714175 39.0706325,61.0132188 C39.2657665,60.7684272 39.5125136,60.5751216 39.7911642,60.4487428 C40.0950249,60.3137058 40.4221352,60.2464798 40.7518732,60.2513027 C41.0818328,60.2438153 41.409466,60.3111488 41.7125822,60.4487428 C41.989324,60.5785875 42.235381,60.7713525 42.4331139,61.0132188 C42.6376703,61.2709618 42.7904648,61.5697781 42.8822453,61.8915738 C42.9887344,62.2598139 43.0405841,62.6431874 43.0359588,63.0281197 Z M42.1449012,63.0281197 C42.1468982,62.742767 42.1170718,62.4581554 42.0560356,62.18014 C42.0048004,61.9363893 41.9163878,61.7030118 41.7942424,61.4890999 C41.6865206,61.3018381 41.5384031,61.1439992 41.3619234,61.0284065 C41.1837549,60.9129548 40.9777881,60.8540726 40.7686856,60.8588105 C40.5542053,60.8533643 40.3426616,60.9121742 40.1586354,61.0284065 C39.9806875,61.1437488 39.8309538,61.3015566 39.7215128,61.4890999 C39.5999866,61.7027838 39.5131315,61.9363354 39.4645232,62.18014 C39.3524607,62.7392912 39.3524607,63.3169481 39.4645232,63.8760993 C39.5131315,64.1199039 39.5999866,64.3534555 39.7215128,64.5671395 C39.8309538,64.7546828 39.9806875,64.9124906 40.1586354,65.0278329 C40.3426616,65.1440652 40.5542053,65.202875 40.7686856,65.1974288 C40.9777881,65.2021668 41.1837549,65.1432846 41.3619234,65.0278329 C41.5384031,64.9122402 41.6865206,64.7544012 41.7942424,64.5671395 C41.9163878,64.3532275 42.0048004,64.11985 42.0560356,63.8760993 C42.1169409,63.5980604 42.1467656,63.3134652 42.1449012,63.0281197 Z" id="Shape" fill="#FFFFFF" fill-rule="nonzero"></path><polygon id="Shape" fill="#FFFFFF" fill-rule="nonzero" points="50.7909142 65.3138276 47.8298083 60.4363867 47.8119857 60.4363867 47.8119857 65.3138276 47.5930217 65.3138276 47.5930217 60.2507402 47.9494747 60.2507402 50.9003962 65.1209481 50.920765 65.1209481 50.920765 60.2507402 51.1371829 60.2507402 51.1371829 65.3138276"></polygon><path d="M57.9906197,63.8672312 L55.4538564,63.8672312 L54.9057902,65.3138276 L54.6813441,65.3138276 L56.544769,60.2507402 L56.9310252,60.2507402 L58.731814,65.3138276 L58.5099777,65.3138276 L57.9906197,63.8672312 Z M55.5060531,63.7225716 L57.938423,63.7225716 L56.756166,60.34718 L56.7170184,60.34718 L55.5060531,63.7225716 Z" id="Shape" fill="#FFFFFF" fill-rule="nonzero"></path><path d="M65.7325922,64.1498915 C65.682207,64.3712615 65.5826873,64.580035 65.4405947,64.762447 C65.2987808,64.9390815 65.1115006,65.0785713 64.8965309,65.167676 C64.3470908,65.3625448 63.7414042,65.3625448 63.1919641,65.167676 C62.976707,65.0779355 62.7887719,64.9385971 62.6454046,64.762447 C62.5059207,64.5791801 62.4081959,64.3706066 62.3583985,64.1498915 C62.3020636,63.9013535 62.2744493,63.6477807 62.2760402,63.3936211 L62.2760402,60.2554522 L62.4906708,60.2554522 L62.4906708,63.3182296 C62.4902371,63.5414993 62.5085967,63.7644486 62.5455764,63.9849727 C62.5768576,64.1956934 62.650558,64.3988183 62.7627027,64.5833923 C62.8766939,64.7634126 63.0395303,64.9114392 63.2343911,65.0121812 C63.7497259,65.2257562 64.3362734,65.2257562 64.8516082,65.0121812 C65.0464304,64.9117953 65.2105927,64.7657486 65.3282879,64.5881043 C65.445705,64.406931 65.5221766,64.2047981 65.5529014,63.9943967 C65.5881797,63.7689724 65.6056977,63.5413884 65.6053112,63.3135177 L65.6053112,60.2507402 L65.8199419,60.2507402 L65.8199419,63.3889091 C65.8228315,63.6449394 65.7935097,63.9003882 65.7325922,64.1498915 Z" id="Shape" fill="#FFFFFF" fill-rule="nonzero"></path><polygon id="Shape" fill="#FFFFFF" fill-rule="nonzero" points="71.497843 60.3953998 71.497843 65.3138276 71.2760643 65.3138276 71.2760643 60.3953998 69.8706063 60.3953998 69.8706063 60.2507402 72.9084587 60.2507402 72.9084587 60.3953998"></polygon><path d="M48.1558772,32.3776641 C48.4524219,32.457466 48.7678032,32.3505949 48.9548689,32.1069154 C49.1419346,31.8632358 49.1638175,31.5307728 49.0103072,31.2646484 C48.8567969,30.998524 48.5581477,30.8511867 48.2537047,30.8913819 C47.9492618,30.9315771 47.6990255,31.151383 47.6197522,31.4482415 C47.5666121,31.6426658 47.5933711,31.85028 47.6940703,32.0248514 C47.7947695,32.1994229 47.9610477,32.3264567 48.1558772,32.3776641 Z" id="Shape" fill="#FFFFFF" fill-rule="nonzero"></path><path d="M47.0296134,28.3278498 C47.3264719,28.248508 47.5462778,27.9980552 47.586473,27.6933489 C47.6266682,27.3886426 47.4793309,27.089735 47.2132065,26.9360919 C46.9470821,26.7824488 46.6146191,26.8043506 46.3709395,26.9915782 C46.1272599,27.1788057 46.0203889,27.4944598 46.1001907,27.791261 C46.2100321,28.1951292 46.625041,28.4347286 47.0296134,28.3278498 Z" id="Shape" fill="#FFFFFF" fill-rule="nonzero"></path><path d="M43.258121,24.0195166 C42.9619905,24.3162697 42.9623268,24.7968452 43.2588726,25.0931834 C43.5554183,25.3895216 44.0359939,25.3895216 44.3325396,25.0931834 C44.6290854,24.7968452 44.6294218,24.3162697 44.3332912,24.0195166 C44.1908187,23.8767446 43.9974046,23.7965108 43.7957061,23.7965108 C43.5940076,23.7965108 43.4005936,23.8767446 43.258121,24.0195166 Z" id="Shape" fill="#FFFFFF" fill-rule="nonzero"></path><path d="M40.4464357,22.8094353 C40.0413529,22.7020738 39.6258307,22.9429904 39.5178933,23.3477972 C39.4099559,23.752604 39.6503963,24.1683116 40.0551909,24.2767541 C40.4599856,24.3851966 40.8761498,24.1453901 40.9851681,23.7408729 C41.0932875,23.3349992 40.8522461,22.9182524 40.4464357,22.8094353 Z" id="Shape" fill="#FFFFFF" fill-rule="nonzero"></path><path d="M36.3971298,25.7958197 C36.6939884,25.7165037 36.9137942,25.4661325 36.9539894,25.1615254 C36.9941846,24.8569183 36.8468474,24.5581082 36.5807229,24.4045151 C36.3145985,24.2509221 35.9821355,24.2728167 35.7384559,24.4599832 C35.4947764,24.6471498 35.3879053,24.9627011 35.4677072,25.2594057 C35.5765111,25.6639404 35.9923853,25.9039612 36.3971298,25.7958197 Z" id="Shape" fill="#FFFFFF" fill-rule="nonzero"></path><path d="M32.6267571,27.564144 C32.4092419,27.7809658 32.3439873,28.1073486 32.4614448,28.3909842 C32.5789022,28.6746199 32.8559184,28.8595982 33.1632225,28.8595982 C33.4705267,28.8595982 33.7475429,28.6746199 33.8650003,28.3909842 C33.9824578,28.1073486 33.9172032,27.7809658 33.699688,27.564144 C33.5578886,27.4211322 33.3647364,27.340672 33.1632225,27.340672 C32.9617087,27.340672 32.7685565,27.4211322 32.6267571,27.564144 Z" id="Shape" fill="#FFFFFF" fill-rule="nonzero"></path><path d="M32.3477281,31.4172373 C32.0510235,31.3374354 31.7354722,31.4443064 31.5483056,31.687986 C31.361139,31.9316656 31.3392444,32.2641286 31.4928375,32.530253 C31.6464305,32.7963774 31.9452407,32.9437147 32.2498478,32.9035195 C32.5544549,32.8633243 32.8048261,32.6435184 32.8841421,32.3466599 C32.9922836,31.9419154 32.7522628,31.5260412 32.3477281,31.4172373 Z" id="Shape" fill="#FFFFFF" fill-rule="nonzero"></path><path d="M33.4734764,34.9612292 C33.1766179,35.0405452 32.9568121,35.2909164 32.9166169,35.5955235 C32.8764217,35.9001306 33.0237589,36.1989408 33.2898833,36.3525338 C33.5560078,36.5061269 33.8884708,36.4842323 34.1321503,36.2970657 C34.3758299,36.1098991 34.482701,35.7943479 34.4028991,35.4976433 C34.2940952,35.0931086 33.878221,34.8530878 33.4734764,34.9612292 Z" id="Shape" fill="#FFFFFF" fill-rule="nonzero"></path><path d="M37.2438491,39.2693984 C37.4613644,39.0524446 37.526619,38.7258632 37.4091615,38.4420548 C37.2917041,38.1582465 37.0146878,37.9731556 36.7073837,37.9731556 C36.4000796,37.9731556 36.1230634,38.1582465 36.0056059,38.4420548 C35.8881485,38.7258632 35.9534031,39.0524446 36.1709183,39.2693984 C36.3130092,39.4119509 36.5060523,39.4920818 36.7073837,39.4920818 C36.9087152,39.4920818 37.1017582,39.4119509 37.2438491,39.2693984 Z" id="Shape" fill="#FFFFFF" fill-rule="nonzero"></path><path d="M40.0544219,40.478604 C40.3511265,40.5584058 40.6666778,40.4515348 40.8538444,40.2078552 C41.041011,39.9641757 41.0629056,39.6317126 40.9093125,39.3655882 C40.7557195,39.0994638 40.4569093,38.9521266 40.1523022,38.9923218 C39.8476951,39.032517 39.5973239,39.2523228 39.5180079,39.5491813 C39.4098664,39.9539259 39.6498872,40.3698001 40.0544219,40.478604 Z" id="Shape" fill="#FFFFFF" fill-rule="nonzero"></path><path d="M44.1054031,37.492921 C43.808468,37.5724989 43.5888008,37.8232252 43.5489746,38.1280237 C43.5091483,38.4328222 43.6570197,38.7315644 43.9235404,38.8847533 C44.1900612,39.0379422 44.522654,39.0153576 44.7660153,38.8275455 C45.0093767,38.6397334 45.1154979,38.323744 45.0348259,38.0271278 C44.9250457,37.6234861 44.5094788,37.3846296 44.1054031,37.492921 Z" id="Shape" fill="#FFFFFF" fill-rule="nonzero"></path><path d="M47.8763327,36.2323275 C48.0938479,36.0152429 48.1591025,35.6884646 48.0416451,35.4044851 C47.9241877,35.1205057 47.6471714,34.9353031 47.3398673,34.9353031 C47.0325632,34.9353031 46.7555469,35.1205057 46.6380895,35.4044851 C46.5206321,35.6884646 46.5858867,36.0152429 46.8034019,36.2323275 C47.0998579,36.5281966 47.5798767,36.5281966 47.8763327,36.2323275 Z" id="Shape" fill="#FFFFFF" fill-rule="nonzero"></path><path d="M52.4048915,30.9177015 C51.8654305,30.7773457 51.313976,31.0993834 51.1712029,31.6381494 C51.0284299,32.1769154 51.3480478,32.729732 51.8862375,32.8748852 C52.4244271,33.0200385 52.9787276,32.7029233 53.126293,32.1654498 C53.1980005,31.9042712 53.1620523,31.6252535 53.0264847,31.3907736 C52.8909171,31.1562936 52.6670359,30.9859057 52.4048915,30.9177015 Z" id="Shape" fill="#FFFFFF" fill-rule="nonzero"></path><path d="M50.8988732,26.7982384 C51.4363467,26.6506731 51.7534619,26.0963726 51.6083087,25.5581829 C51.4631554,25.0199933 50.9103388,24.7003753 50.3715728,24.8431484 C49.8328068,24.9859215 49.5107691,25.537376 49.651125,26.076837 C49.7193291,26.3389814 49.889717,26.5628626 50.124197,26.6984302 C50.358677,26.8339977 50.6376946,26.869946 50.8988732,26.7982384 Z" id="Shape" fill="#FFFFFF" fill-rule="nonzero"></path><path d="M45.8698787,21.986457 C46.2669092,22.3774538 46.9052397,22.3741955 47.298258,21.979166 C47.6912762,21.5841365 47.6912762,20.9457977 47.298258,20.5507683 C46.9052397,20.1557388 46.2669092,20.1524805 45.8698787,20.5434772 C45.6766128,20.7338061 45.5677867,20.9937166 45.5677867,21.2649671 C45.5677867,21.5362176 45.6766128,21.7961281 45.8698787,21.986457 Z" id="Shape" fill="#FFFFFF" fill-rule="nonzero"></path><path d="M40.2502598,20.7259606 C40.7894211,20.8658559 41.3403382,20.5440206 41.483203,20.0056987 C41.6260678,19.4673767 41.307218,18.91477 40.7696227,18.7689742 C40.2320274,18.6231784 39.6776154,18.9389567 39.5288581,19.4756806 C39.456374,19.7372069 39.4919382,20.0168816 39.6275706,20.2519496 C39.763203,20.4870177 39.9875459,20.6577946 40.2502598,20.7259606 Z" id="Shape" fill="#FFFFFF" fill-rule="nonzero"></path><path d="M34.1561389,20.2898207 C33.6189036,20.4402016 33.3045628,20.99692 33.4532472,21.5346882 C33.6019317,22.0724564 34.1575976,22.3885724 34.6957612,22.2415492 C35.2339248,22.0945261 35.5517351,21.5397815 35.4064109,21.0010953 C35.3360413,20.7402503 35.1643524,20.5183517 34.9295429,20.3847696 C34.6947335,20.2511875 34.4162813,20.2170026 34.1561389,20.2898207 Z" id="Shape" fill="#FFFFFF" fill-rule="nonzero"></path><path d="M29.1604073,26.54197 C29.5570746,26.9340023 30.1960623,26.9314988 30.5896457,26.5363705 C30.9832291,26.1412421 30.9832291,25.5022495 30.5896457,25.1071211 C30.1960623,24.7119928 29.5570746,24.7094893 29.1604073,25.1015217 C28.9679248,25.2917549 28.8595982,25.5511203 28.8595982,25.8217458 C28.8595982,26.0923713 28.9679248,26.3517367 29.1604073,26.54197 Z" id="Shape" fill="#FFFFFF" fill-rule="nonzero"></path><path d="M28.09885,32.8773704 C28.6380113,33.0172657 29.1889284,32.6954304 29.3317932,32.1571085 C29.474658,31.6187865 29.1558082,31.0661798 28.6182129,30.920384 C28.0806176,30.7745882 27.5262056,31.0903665 27.3774483,31.6270904 C27.3049642,31.8886167 27.3405284,32.1682914 27.4761608,32.4033594 C27.6117932,32.6384274 27.8361361,32.8092044 28.09885,32.8773704 Z" id="Shape" fill="#FFFFFF" fill-rule="nonzero"></path><path d="M29.6042166,36.996663 C29.0667431,37.1442283 28.7496279,37.6985288 28.8947812,38.2367185 C29.0399344,38.7749081 29.592751,39.0945261 30.1315171,38.951753 C30.6702831,38.8089799 30.9923207,38.2575254 30.8519649,37.7180644 C30.7837607,37.45592 30.6133728,37.2320388 30.3788928,37.0964712 C30.1444129,36.9609037 29.8653952,36.9249554 29.6042166,36.996663 Z" id="Shape" fill="#FFFFFF" fill-rule="nonzero"></path><path d="M35.1395198,41.3021356 C34.7424894,40.9111389 34.1041589,40.9143972 33.7111406,41.3094267 C33.3181224,41.7044561 33.3181224,42.3427949 33.7111406,42.7378244 C34.1041589,43.1328539 34.7424894,43.1361122 35.1395198,42.7451154 C35.3327858,42.5547865 35.4416119,42.294876 35.4416119,42.0236255 C35.4416119,41.752375 35.3327858,41.4924645 35.1395198,41.3021356 Z" id="Shape" fill="#FFFFFF" fill-rule="nonzero"></path><path d="M40.7597904,42.5628026 C40.2203295,42.4224467 39.668875,42.7444844 39.5261019,43.2832504 C39.3833288,43.8220164 39.7029468,44.3748331 40.2411364,44.5199863 C40.7793261,44.6651395 41.3336266,44.3480244 41.4811919,43.8105508 C41.5528995,43.5493722 41.5169512,43.2703546 41.3813836,43.0358746 C41.2458161,42.8013947 41.0219348,42.6310068 40.7597904,42.5628026 Z" id="Shape" fill="#FFFFFF" fill-rule="nonzero"></path><path d="M46.342712,42.9999485 C46.8803169,42.8519812 47.1970785,42.2971031 47.051205,41.7588661 C46.9053315,41.2206292 46.3517472,40.9016901 45.8130163,41.0455028 C45.2742854,41.1893156 44.9532507,41.7417318 45.0949658,42.2810788 C45.1637222,42.5427559 45.3343387,42.7660254 45.5687538,42.9010801 C45.803169,43.0361347 46.0818801,43.0717384 46.342712,42.9999485 Z" id="Shape" fill="#FFFFFF" fill-rule="nonzero"></path><path d="M51.3413996,37.2516657 C50.9443691,36.860669 50.3060386,36.8639273 49.9130203,37.2589567 C49.5200021,37.6539862 49.5200021,38.292325 49.9130203,38.6873545 C50.3060386,39.0823839 50.9443691,39.0856422 51.3413996,38.6946455 C51.5346656,38.5043166 51.6434916,38.2444061 51.6434916,37.9731556 C51.6434916,37.7019051 51.5346656,37.4419946 51.3413996,37.2516657 Z" id="Shape" fill="#FFFFFF" fill-rule="nonzero"></path><path d="M56.1235627,34.8915472 C56.6182231,35.0249875 57.1445531,34.8471376 57.4568472,34.4410226 C57.7691412,34.0349076 57.8058118,33.4806177 57.54974,33.0369107 C57.2936682,32.5932038 56.795354,32.3475833 56.2874244,32.4147119 C55.7794948,32.4818405 55.3621186,32.8484796 55.2301387,33.3434719 C55.051854,34.0173042 55.4508724,34.708701 56.1235627,34.8915472 Z" id="Shape" fill="#FFFFFF" fill-rule="nonzero"></path><path d="M56.1565488,25.2379873 C55.9740597,24.5638784 55.2798603,24.165003 54.6054093,24.3467282 C53.9309583,24.5284534 53.5312506,25.2220731 53.7122908,25.8965724 C53.893331,26.5710716 54.5866717,26.9714372 55.2615117,26.791161 C55.9375136,26.6091779 56.3381439,25.9139572 56.1565488,25.2379873 Z" id="Shape" fill="#FFFFFF" fill-rule="nonzero"></path><path d="M50.7677793,18.0920441 C50.4057336,17.7297675 49.8609811,17.6212299 49.3876418,17.8170627 C48.9143025,18.0128955 48.6056392,18.4745134 48.6056392,18.9865778 C48.6056392,19.4986422 48.9143025,19.9602601 49.3876418,20.1560929 C49.8609811,20.3519257 50.4057336,20.2433881 50.7677793,19.8811115 C51.2603174,19.3863675 51.2603174,18.5867881 50.7677793,18.0920441 Z" id="Shape" fill="#FFFFFF" fill-rule="nonzero"></path><path d="M41.9493042,17.1711296 C42.6243654,17.3518449 43.318154,16.9512825 43.4990848,16.2763559 C43.6800156,15.6014293 43.2796028,14.9076112 42.6046453,14.7265092 C41.9296878,14.5454073 41.2356698,14.9455722 41.0543522,15.620395 C40.967214,15.9447039 41.0125678,16.2903453 41.1804259,16.5812028 C41.3482841,16.8720603 41.6248807,17.0842808 41.9493042,17.1711296 Z" id="Shape" fill="#FFFFFF" fill-rule="nonzero"></path><path d="M33.9972548,18.1833902 C34.6719513,18.0025055 35.072462,17.3092 34.8920601,16.6344345 C34.7116581,15.959669 34.018583,15.558683 33.343619,15.7385674 C32.668655,15.9184518 32.2671168,16.6111628 32.4465182,17.286195 C32.5322619,17.6113582 32.7441597,17.8889008 33.0352517,18.0573152 C33.3263437,18.2257296 33.6725892,18.2711067 33.9972548,18.1833902 Z" id="Shape" fill="#FFFFFF" fill-rule="nonzero"></path><path d="M27.9816604,21.1293661 C27.4875354,20.6350744 26.6864283,20.6350913 26.192324,21.1294038 C25.6982197,21.6237163 25.6982197,22.4251442 26.192324,22.9194567 C26.6864283,23.4137692 27.4875354,23.4137861 27.9816604,22.9194943 C28.2195601,22.6824324 28.3532895,22.3603469 28.3532895,22.0244302 C28.3532895,21.6885136 28.2195601,21.3664281 27.9816604,21.1293661 Z" id="Shape" fill="#FFFFFF" fill-rule="nonzero"></path><path d="M24.3772916,28.9029658 C23.7021665,28.7222506 23.0083123,29.122813 22.8273644,29.7977395 C22.6464165,30.4726661 23.0468672,31.1664843 23.7218886,31.3475862 C24.3969099,31.5286881 25.0909936,31.1285233 25.2723283,30.4537005 C25.4523673,29.7785207 25.0520775,29.0849812 24.3772916,28.9029658 Z" id="Shape" fill="#FFFFFF" fill-rule="nonzero"></path><path d="M25.240261,37.0044254 C24.5654382,37.1857033 24.1652734,37.8795698 24.3463753,38.5543801 C24.5274772,39.2291903 25.2212954,39.6295157 25.896222,39.4486244 C26.5711486,39.2677331 26.9717109,38.5740959 26.7909957,37.899182 C26.7047232,37.5744691 26.4926064,37.2975139 26.2015761,37.1295927 C25.9105458,36.9616714 25.5645935,36.916627 25.240261,37.0044254 Z" id="Shape" fill="#FFFFFF" fill-rule="nonzero"></path><path d="M31.5258216,43.9132595 C31.0316966,43.4189678 30.2305894,43.4189846 29.7364852,43.9132972 C29.2423809,44.4076097 29.2423809,45.2090375 29.7364852,45.70335 C30.2305894,46.1976625 31.0316966,46.1976794 31.5258216,45.7033877 C31.7637213,45.4663258 31.8974507,45.1442402 31.8974507,44.8083236 C31.8974507,44.472407 31.7637213,44.1503214 31.5258216,43.9132595 Z" id="Shape" fill="#FFFFFF" fill-rule="nonzero"></path><path d="M38.5552184,46.6239962 C38.0608608,46.4908722 37.5349992,46.6687214 37.2229011,47.074593 C36.9108029,47.4804647 36.8739489,48.0344054 37.1295281,48.4780515 C37.3851074,48.9216976 37.8827729,49.1676545 38.3904082,49.1012053 C38.8980436,49.0347561 39.3156489,48.6689908 39.4484486,48.1745061 C39.6296771,47.4996955 39.2298556,46.8056671 38.5552184,46.6239962 Z" id="Shape" fill="#FFFFFF" fill-rule="nonzero"></path><path d="M46.5052282,45.1048222 C45.8304054,45.2861397 45.4302405,45.9801577 45.6113425,46.6551152 C45.7924444,47.3300728 46.4862626,47.7304855 47.1611891,47.5495547 C47.8361157,47.368624 48.2366781,46.6748354 48.0559628,45.9997742 C47.969114,45.6753506 47.7568935,45.398754 47.466036,45.2308959 C47.1751785,45.0630377 46.8295372,45.0176839 46.5052282,45.1048222 Z" id="Shape" fill="#FFFFFF" fill-rule="nonzero"></path><path d="M54.3106363,42.1600299 C54.804928,41.6655103 54.8049111,40.8637635 54.3105986,40.3692647 C53.8162861,39.8747659 53.0148583,39.8747659 52.5205458,40.3692647 C52.0262332,40.8637635 52.0262164,41.6655103 52.5205081,42.1600299 C53.0153846,42.6532357 53.8157598,42.6532357 54.3106363,42.1600299 Z" id="Shape" fill="#FFFFFF" fill-rule="nonzero"></path><path d="M60.6435166,35.4936011 C59.8333063,35.2768212 59.0007338,35.757763 58.7838481,36.5678526 C58.5669623,37.3779422 59.0478816,38.2104596 59.8580493,38.4273981 C60.6682171,38.6443366 61.5008837,38.1635578 61.7179281,37.3535107 C61.8221838,36.9644107 61.7675498,36.5498354 61.5660495,36.201019 C61.3645492,35.8522026 61.0326948,35.5977296 60.6435166,35.4936011 Z" id="Shape" fill="#FFFFFF" fill-rule="nonzero"></path><path d="M60.646054,27.7917587 C61.4553673,27.5737337 61.9348186,26.7417429 61.7172375,25.932936 C61.4996565,25.1241292 60.6673424,24.6444345 59.8576926,24.8612087 C59.0480429,25.0779829 58.5673046,25.909232 58.7836336,26.7183741 C58.884722,27.1096104 59.1390408,27.4437863 59.4893429,27.6456789 C59.8396451,27.8475715 60.2564928,27.9002148 60.646054,27.7917587 Z" id="Shape" fill="#FFFFFF" fill-rule="nonzero"></path><path d="M54.1141131,18.2890434 C54.7074375,18.881812 55.6689096,18.8815117 56.2618636,18.2883725 C56.8548175,17.6952333 56.8548175,16.7337611 56.2618636,16.1406219 C55.6689096,15.5474827 54.7074375,15.5471824 54.1141131,16.139951 C53.8289513,16.4248458 53.6687266,16.8114063 53.6687266,17.2144972 C53.6687266,17.6175881 53.8289513,18.0041486 54.1141131,18.2890434 Z" id="Shape" fill="#FFFFFF" fill-rule="nonzero"></path><path d="M45.1748886,13.6183468 C45.9851504,13.8351267 46.8177759,13.3541849 47.0346755,12.5440953 C47.2515751,11.7340057 46.7706252,10.9014883 45.9604059,10.6845498 C45.1501865,10.4676113 44.3174668,10.9483901 44.1004086,11.7584372 C43.8847744,12.5685125 44.3653139,13.4003196 45.1748886,13.6183468 Z" id="Shape" fill="#FFFFFF" fill-rule="nonzero"></path><path d="M35.3282757,13.6157635 C36.1383228,13.3989251 36.6191016,12.5670487 36.4021631,11.7576499 C36.1852246,10.9482512 35.3527072,10.4677883 34.5426176,10.6844683 C33.732528,10.9011482 33.2515862,11.7329305 33.4683661,12.5423717 C33.5694944,12.9330451 33.8234273,13.2667641 34.1731454,13.4685936 C34.5228635,13.670423 34.9390585,13.7234485 35.3282757,13.6157635 Z" id="Shape" fill="#FFFFFF" fill-rule="nonzero"></path><path d="M24.7464342,18.2872385 C25.1805611,18.7223799 25.8341598,18.8529873 26.4021844,18.6181039 C26.970209,18.3832205 27.340672,17.8291541 27.340672,17.2144972 C27.340672,16.5998403 26.970209,16.0457739 26.4021844,15.8108905 C25.8341598,15.5760071 25.1805611,15.7066145 24.7464342,16.1417559 C24.154948,16.7346243 24.154948,17.6943702 24.7464342,18.2872385 Z" id="Shape" fill="#FFFFFF" fill-rule="nonzero"></path><path d="M20.6433115,24.8611175 C19.8338703,24.6443376 19.002088,25.1252794 18.7854081,25.935369 C18.5687282,26.7454586 19.049191,27.577976 19.8585898,27.7949145 C20.6679886,28.011853 21.4998649,27.5310742 21.7167033,26.7210271 C21.8243884,26.3318099 21.7713629,25.9156149 21.5695334,25.5658968 C21.367704,25.2161787 21.033985,24.9622458 20.6433115,24.8611175 Z" id="Shape" fill="#FFFFFF" fill-rule="nonzero"></path><path d="M19.8586524,35.4963593 C19.265206,35.6554752 18.8261734,36.1561424 18.7463428,36.7648231 C18.6665122,37.3735037 18.9616114,37.970279 19.4939903,38.2767813 C20.0263692,38.5832835 20.6911417,38.5391273 21.1782225,38.1649096 C21.6653032,37.7906918 21.8787305,37.1601386 21.7189503,36.5673737 C21.617251,36.1771154 21.3630372,35.8439627 21.0133105,35.6426174 C20.6635838,35.4412721 20.2476067,35.3885811 19.8586524,35.4963593 Z" id="Shape" fill="#FFFFFF" fill-rule="nonzero"></path><path d="M26.8952855,45.505858 C26.3019611,44.9130894 25.340489,44.9133897 24.747535,45.5065289 C24.1545811,46.0996681 24.1545811,47.0611403 24.747535,47.6542795 C25.340489,48.2474187 26.3019611,48.247719 26.8952855,47.6549503 C27.1804473,47.3700556 27.340672,46.9834951 27.340672,46.5804042 C27.340672,46.1773133 27.1804473,45.7907528 26.8952855,45.505858 Z" id="Shape" fill="#FFFFFF" fill-rule="nonzero"></path><path d="M35.3275716,50.176385 C34.5176036,49.960056 33.685506,50.4407943 33.4685105,51.250444 C33.251515,52.0600938 33.7316993,52.8924079 34.5413318,53.1099889 C35.3509643,53.32757 36.1838044,52.8481187 36.4020519,52.0388054 C36.6192872,51.2279163 36.1383972,50.3943791 35.3275716,50.176385 Z" id="Shape" fill="#FFFFFF" fill-rule="nonzero"></path><path d="M45.1619394,50.1773244 C44.3567879,50.4008469 43.8832965,51.2334475 44.1023494,52.0405375 C44.3214022,52.8476275 45.1506955,53.3259628 45.9581613,53.1109674 C46.7656271,52.8959719 47.2478802,52.068425 47.0373584,51.2590636 C46.8175877,50.4422162 45.9781992,49.958058 45.1619394,50.1773244 Z" id="Shape" fill="#FFFFFF" fill-rule="nonzero"></path><path d="M56.2620792,45.505858 C55.6685518,44.9130894 54.7067509,44.9133897 54.1135941,45.5065289 C53.5204374,46.0996681 53.5204374,47.0611403 54.1135941,47.6542795 C54.7067509,48.2474187 55.6685518,48.247719 56.2620792,47.6549503 C56.8547456,47.0610845 56.8547456,46.0997239 56.2620792,45.505858 Z" id="Shape" fill="#FFFFFF" fill-rule="nonzero"></path><path d="M45.061478,32.8027424 C44.7064494,33.1452201 44.3812135,33.4828741 44.0336332,33.7939981 C43.7669277,34.0291675 43.4849747,34.2474826 43.1895094,34.4475998 C42.7736321,34.7210807 42.2448446,34.7753434 41.7793262,34.5923087 C41.4118112,34.4824316 41.1471278,34.1702768 41.1065099,33.7988218 C40.6099665,34.1967711 40.1432157,34.6598395 39.4257105,34.6911931 C39.368608,34.9540808 39.3090228,35.224204 39.2494376,35.4943273 C39.2160453,35.6131036 39.1911586,35.7339833 39.1749561,35.8560994 C39.1625425,36.0273382 39.0756474,36.0972808 38.9018572,36.1334581 C38.4698645,36.2178716 37.5338802,36.4397585 37.4668469,36.4542294 C37.9882174,34.081004 38.5046225,31.7182299 39.0160622,29.365907 L40.6099665,29.365907 C40.5255541,29.7493855 39.7956353,33.1235137 39.7906699,33.1693382 C39.7484637,33.574523 40.0116317,33.8132927 40.4163146,33.6951138 C40.6453029,33.6058576 40.8627732,33.4909193 41.0643037,33.3526361 C41.096579,33.3357534 41.1065099,33.2730462 41.1164408,33.2296336 C41.3911948,31.9722744 41.6651212,30.7157191 41.9382201,29.4599678 C41.9382201,29.4286142 41.9580818,29.3972606 41.9680127,29.365907 L43.5321243,29.365907 C43.447712,29.7542091 42.9164105,32.2383779 42.7326895,33.1042192 C42.718182,33.1732216 42.7123463,33.2436791 42.7153105,33.3140471 C42.7026201,33.4978418 42.8359848,33.6608316 43.0231674,33.6902901 C43.1984407,33.7401002 43.3869107,33.7201427 43.5470206,33.6348184 C43.7183234,33.5409766 43.8840961,33.4379119 44.043564,33.3261062 C44.2117081,33.2052308 44.3702244,33.0722034 44.517763,32.9281568 C44.6650415,32.7988574 44.8700858,32.7515614 45.061478,32.8027424 Z" id="Shape" fill="#FFFFFF" fill-rule="evenodd"></path></g></g></g><text font-family="FiraSans-Bold, Fira Sans" font-size="20" font-weight="bold" fill="#FFFFFF"><tspan x="46" y="82">Gateway</tspan></text></g><g id="Catalogue" transform="translate(464.000000, 357.000000)"><g id="Micronaut_StackLogo_WhiteBLK"><mask id="mask-4" fill="white"><use xlink:href="#path-3"></use></mask><use id="Mask" fill="#231F20" xlink:href="#path-3"></use><g mask="url(#mask-4)"><g transform="translate(46.000000, 100.000000)"><rect id="Rectangle-path" fill="#231F20" fill-rule="nonzero" x="0" y="0" width="79.9967811" height="75.4400024"></rect><polygon id="Shape" fill="#FFFFFF" fill-rule="nonzero" points="12.7901725 65.3138276 12.7901725 61.12352 12.7603365 61.12352 11.2262662 65.3138276 10.4430698 65.3138276 8.92889027 61.12352 8.89905422 61.12352 8.89905422 65.3138276 8.10093986 65.3138276 8.10093986 60.2507402 9.38140371 60.2507402 10.8359112 64.2698672 10.8756926 64.2698672 12.3277137 60.2507402 13.670336 60.2507402 13.670336 65.3138276"></polygon><polygon id="Shape" fill="#FFFFFF" fill-rule="nonzero" points="18.2271147 65.3138276 18.2271147 60.2507402 19.2397322 60.2507402 19.2397322 65.3138276"></polygon><path d="M26.6591152,65.6266188 C26.35097,65.764239 26.0173641,65.8299068 25.6819727,65.818962 C25.335091,65.8239545 24.991161,65.7523463 24.6730732,65.608903 C24.3827335,65.474419 24.1248955,65.2747247 23.9182306,65.0242811 C23.7102092,64.763468 23.5526246,64.4635857 23.454088,64.1410211 C23.3415847,63.7841007 23.2862951,63.4104931 23.2904166,63.0350481 C23.2872509,62.6578199 23.3433555,62.2825715 23.4565308,61.9240133 C23.5620065,61.6000577 23.7280213,61.3007891 23.9451021,61.0432842 C24.151488,60.7942428 24.4084026,60.5954817 24.6975017,60.4611931 C25.0100256,60.3164473 25.3494679,60.2447315 25.6917442,60.2511341 C26.0123882,60.2474479 26.3312855,60.3005144 26.6346866,60.4080456 C26.9057942,60.5032326 27.1488474,60.66878 27.340672,60.8889035 L26.8081294,61.3469839 C26.6732043,61.1915339 26.5062146,61.0695664 26.3195582,60.9901367 C26.131779,60.9115349 25.9309071,60.8719776 25.728387,60.8737185 C25.4920703,60.8677123 25.2584841,60.9271198 25.0517159,61.045815 C24.8620516,61.161367 24.7007033,61.320731 24.5802446,61.5114879 C24.4529321,61.7225006 24.3612356,61.9544346 24.3090876,62.197343 C24.2442752,62.4714707 24.2122775,62.752821 24.2138162,63.0350481 C24.2121046,63.315616 24.2441077,63.5953138 24.3090876,63.8676914 C24.3657256,64.1115865 24.4624044,64.343582 24.5949018,64.5535466 C24.7194839,64.7483234 24.8869357,64.9096619 25.083473,65.0242811 C25.2921093,65.1427114 25.5271928,65.2020711 25.7650298,65.1963776 C25.9816883,65.2007773 26.1959247,65.1485533 26.3879582,65.0445277 C26.5567409,64.9561095 26.7050732,64.8309254 26.8227865,64.6775573 L27.3357863,65.1204527 C27.1501174,65.3400624 26.9187452,65.5131343 26.6591152,65.6266188 Z" id="Shape" fill="#FFFFFF" fill-rule="nonzero"></path><path d="M33.5411926,65.3114178 L32.4420094,63.0534037 L31.6904312,63.0534037 L31.6904312,65.3114178 L30.8848332,65.3114178 L30.8848332,60.2507402 L32.5641409,60.2507673 C32.79175,60.2497817 33.0187145,60.2756566 33.2405613,60.327882 C33.4393083,60.371311 33.6282037,60.4530889 33.7971989,60.5688654 C33.9550935,60.6777792 34.084208,60.825159 34.1729881,60.9978157 C34.2695113,61.1940835 34.3171213,61.4118369 34.3115603,61.631602 C34.3153212,61.8162865 34.2800663,61.9996171 34.2082183,62.1689948 C34.1452631,62.3142427 34.0559976,62.4459027 33.9451659,62.556978 C33.8409307,62.6620164 33.7202551,62.7483629 33.5881662,62.8124204 C33.4688717,62.8700508 33.3424267,62.9105937 33.2123771,62.9329121 L34.4289944,65.3138276 L33.5411926,65.3114178 Z M33.4848242,61.6557003 C33.4913065,61.5087845 33.4605562,61.3626539 33.3955743,61.2315696 C33.3382274,61.1258285 33.2578483,61.0351094 33.1607061,60.9664879 C33.0579472,60.897683 32.9430469,60.8501988 32.8224959,60.8267176 C32.6956679,60.8007719 32.566636,60.7878557 32.437312,60.7881602 L31.6951285,60.788155 L31.6951285,62.5521584 L32.4561015,62.5521584 C32.725603,62.5640189 32.9906566,62.4787667 33.2053311,62.311175 C33.3944352,62.1504477 33.4981202,61.9072831 33.4848242,61.6557003 Z" id="Shape" fill="#FFFFFF" fill-rule="nonzero"></path><path d="M43.0359588,63.0281197 C43.0398062,63.4131836 42.9871458,63.7965599 42.8798436,64.1646655 C42.7881137,64.4872476 42.6353308,64.7869024 42.4307121,65.0455518 C42.2332988,65.2896813 41.9872959,65.4849966 41.7101804,65.6176217 C41.1003269,65.8876412 40.4130266,65.8876412 39.8031731,65.6176217 C39.5257316,65.4855758 39.2796164,65.2901714 39.0826414,65.0455518 C38.8780227,64.7869024 38.7252398,64.4872476 38.63351,64.1646655 C38.5270209,63.7964254 38.4751711,63.413052 38.4797965,63.0281197 C38.4748556,62.6435303 38.5250584,62.2603602 38.6287064,61.8915738 C38.7180179,61.5702525 38.8683706,61.2714175 39.0706325,61.0132188 C39.2657665,60.7684272 39.5125136,60.5751216 39.7911642,60.4487428 C40.0950249,60.3137058 40.4221352,60.2464798 40.7518732,60.2513027 C41.0818328,60.2438153 41.409466,60.3111488 41.7125822,60.4487428 C41.989324,60.5785875 42.235381,60.7713525 42.4331139,61.0132188 C42.6376703,61.2709618 42.7904648,61.5697781 42.8822453,61.8915738 C42.9887344,62.2598139 43.0405841,62.6431874 43.0359588,63.0281197 Z M42.1449012,63.0281197 C42.1468982,62.742767 42.1170718,62.4581554 42.0560356,62.18014 C42.0048004,61.9363893 41.9163878,61.7030118 41.7942424,61.4890999 C41.6865206,61.3018381 41.5384031,61.1439992 41.3619234,61.0284065 C41.1837549,60.9129548 40.9777881,60.8540726 40.7686856,60.8588105 C40.5542053,60.8533643 40.3426616,60.9121742 40.1586354,61.0284065 C39.9806875,61.1437488 39.8309538,61.3015566 39.7215128,61.4890999 C39.5999866,61.7027838 39.5131315,61.9363354 39.4645232,62.18014 C39.3524607,62.7392912 39.3524607,63.3169481 39.4645232,63.8760993 C39.5131315,64.1199039 39.5999866,64.3534555 39.7215128,64.5671395 C39.8309538,64.7546828 39.9806875,64.9124906 40.1586354,65.0278329 C40.3426616,65.1440652 40.5542053,65.202875 40.7686856,65.1974288 C40.9777881,65.2021668 41.1837549,65.1432846 41.3619234,65.0278329 C41.5384031,64.9122402 41.6865206,64.7544012 41.7942424,64.5671395 C41.9163878,64.3532275 42.0048004,64.11985 42.0560356,63.8760993 C42.1169409,63.5980604 42.1467656,63.3134652 42.1449012,63.0281197 Z" id="Shape" fill="#FFFFFF" fill-rule="nonzero"></path><polygon id="Shape" fill="#FFFFFF" fill-rule="nonzero" points="50.7909142 65.3138276 47.8298083 60.4363867 47.8119857 60.4363867 47.8119857 65.3138276 47.5930217 65.3138276 47.5930217 60.2507402 47.9494747 60.2507402 50.9003962 65.1209481 50.920765 65.1209481 50.920765 60.2507402 51.1371829 60.2507402 51.1371829 65.3138276"></polygon><path d="M57.9906197,63.8672312 L55.4538564,63.8672312 L54.9057902,65.3138276 L54.6813441,65.3138276 L56.544769,60.2507402 L56.9310252,60.2507402 L58.731814,65.3138276 L58.5099777,65.3138276 L57.9906197,63.8672312 Z M55.5060531,63.7225716 L57.938423,63.7225716 L56.756166,60.34718 L56.7170184,60.34718 L55.5060531,63.7225716 Z" id="Shape" fill="#FFFFFF" fill-rule="nonzero"></path><path d="M65.7325922,64.1498915 C65.682207,64.3712615 65.5826873,64.580035 65.4405947,64.762447 C65.2987808,64.9390815 65.1115006,65.0785713 64.8965309,65.167676 C64.3470908,65.3625448 63.7414042,65.3625448 63.1919641,65.167676 C62.976707,65.0779355 62.7887719,64.9385971 62.6454046,64.762447 C62.5059207,64.5791801 62.4081959,64.3706066 62.3583985,64.1498915 C62.3020636,63.9013535 62.2744493,63.6477807 62.2760402,63.3936211 L62.2760402,60.2554522 L62.4906708,60.2554522 L62.4906708,63.3182296 C62.4902371,63.5414993 62.5085967,63.7644486 62.5455764,63.9849727 C62.5768576,64.1956934 62.650558,64.3988183 62.7627027,64.5833923 C62.8766939,64.7634126 63.0395303,64.9114392 63.2343911,65.0121812 C63.7497259,65.2257562 64.3362734,65.2257562 64.8516082,65.0121812 C65.0464304,64.9117953 65.2105927,64.7657486 65.3282879,64.5881043 C65.445705,64.406931 65.5221766,64.2047981 65.5529014,63.9943967 C65.5881797,63.7689724 65.6056977,63.5413884 65.6053112,63.3135177 L65.6053112,60.2507402 L65.8199419,60.2507402 L65.8199419,63.3889091 C65.8228315,63.6449394 65.7935097,63.9003882 65.7325922,64.1498915 Z" id="Shape" fill="#FFFFFF" fill-rule="nonzero"></path><polygon id="Shape" fill="#FFFFFF" fill-rule="nonzero" points="71.497843 60.3953998 71.497843 65.3138276 71.2760643 65.3138276 71.2760643 60.3953998 69.8706063 60.3953998 69.8706063 60.2507402 72.9084587 60.2507402 72.9084587 60.3953998"></polygon><path d="M48.1558772,32.3776641 C48.4524219,32.457466 48.7678032,32.3505949 48.9548689,32.1069154 C49.1419346,31.8632358 49.1638175,31.5307728 49.0103072,31.2646484 C48.8567969,30.998524 48.5581477,30.8511867 48.2537047,30.8913819 C47.9492618,30.9315771 47.6990255,31.151383 47.6197522,31.4482415 C47.5666121,31.6426658 47.5933711,31.85028 47.6940703,32.0248514 C47.7947695,32.1994229 47.9610477,32.3264567 48.1558772,32.3776641 Z" id="Shape" fill="#FFFFFF" fill-rule="nonzero"></path><path d="M47.0296134,28.3278498 C47.3264719,28.248508 47.5462778,27.9980552 47.586473,27.6933489 C47.6266682,27.3886426 47.4793309,27.089735 47.2132065,26.9360919 C46.9470821,26.7824488 46.6146191,26.8043506 46.3709395,26.9915782 C46.1272599,27.1788057 46.0203889,27.4944598 46.1001907,27.791261 C46.2100321,28.1951292 46.625041,28.4347286 47.0296134,28.3278498 Z" id="Shape" fill="#FFFFFF" fill-rule="nonzero"></path><path d="M43.258121,24.0195166 C42.9619905,24.3162697 42.9623268,24.7968452 43.2588726,25.0931834 C43.5554183,25.3895216 44.0359939,25.3895216 44.3325396,25.0931834 C44.6290854,24.7968452 44.6294218,24.3162697 44.3332912,24.0195166 C44.1908187,23.8767446 43.9974046,23.7965108 43.7957061,23.7965108 C43.5940076,23.7965108 43.4005936,23.8767446 43.258121,24.0195166 Z" id="Shape" fill="#FFFFFF" fill-rule="nonzero"></path><path d="M40.4464357,22.8094353 C40.0413529,22.7020738 39.6258307,22.9429904 39.5178933,23.3477972 C39.4099559,23.752604 39.6503963,24.1683116 40.0551909,24.2767541 C40.4599856,24.3851966 40.8761498,24.1453901 40.9851681,23.7408729 C41.0932875,23.3349992 40.8522461,22.9182524 40.4464357,22.8094353 Z" id="Shape" fill="#FFFFFF" fill-rule="nonzero"></path><path d="M36.3971298,25.7958197 C36.6939884,25.7165037 36.9137942,25.4661325 36.9539894,25.1615254 C36.9941846,24.8569183 36.8468474,24.5581082 36.5807229,24.4045151 C36.3145985,24.2509221 35.9821355,24.2728167 35.7384559,24.4599832 C35.4947764,24.6471498 35.3879053,24.9627011 35.4677072,25.2594057 C35.5765111,25.6639404 35.9923853,25.9039612 36.3971298,25.7958197 Z" id="Shape" fill="#FFFFFF" fill-rule="nonzero"></path><path d="M32.6267571,27.564144 C32.4092419,27.7809658 32.3439873,28.1073486 32.4614448,28.3909842 C32.5789022,28.6746199 32.8559184,28.8595982 33.1632225,28.8595982 C33.4705267,28.8595982 33.7475429,28.6746199 33.8650003,28.3909842 C33.9824578,28.1073486 33.9172032,27.7809658 33.699688,27.564144 C33.5578886,27.4211322 33.3647364,27.340672 33.1632225,27.340672 C32.9617087,27.340672 32.7685565,27.4211322 32.6267571,27.564144 Z" id="Shape" fill="#FFFFFF" fill-rule="nonzero"></path><path d="M32.3477281,31.4172373 C32.0510235,31.3374354 31.7354722,31.4443064 31.5483056,31.687986 C31.361139,31.9316656 31.3392444,32.2641286 31.4928375,32.530253 C31.6464305,32.7963774 31.9452407,32.9437147 32.2498478,32.9035195 C32.5544549,32.8633243 32.8048261,32.6435184 32.8841421,32.3466599 C32.9922836,31.9419154 32.7522628,31.5260412 32.3477281,31.4172373 Z" id="Shape" fill="#FFFFFF" fill-rule="nonzero"></path><path d="M33.4734764,34.9612292 C33.1766179,35.0405452 32.9568121,35.2909164 32.9166169,35.5955235 C32.8764217,35.9001306 33.0237589,36.1989408 33.2898833,36.3525338 C33.5560078,36.5061269 33.8884708,36.4842323 34.1321503,36.2970657 C34.3758299,36.1098991 34.482701,35.7943479 34.4028991,35.4976433 C34.2940952,35.0931086 33.878221,34.8530878 33.4734764,34.9612292 Z" id="Shape" fill="#FFFFFF" fill-rule="nonzero"></path><path d="M37.2438491,39.2693984 C37.4613644,39.0524446 37.526619,38.7258632 37.4091615,38.4420548 C37.2917041,38.1582465 37.0146878,37.9731556 36.7073837,37.9731556 C36.4000796,37.9731556 36.1230634,38.1582465 36.0056059,38.4420548 C35.8881485,38.7258632 35.9534031,39.0524446 36.1709183,39.2693984 C36.3130092,39.4119509 36.5060523,39.4920818 36.7073837,39.4920818 C36.9087152,39.4920818 37.1017582,39.4119509 37.2438491,39.2693984 Z" id="Shape" fill="#FFFFFF" fill-rule="nonzero"></path><path d="M40.0544219,40.478604 C40.3511265,40.5584058 40.6666778,40.4515348 40.8538444,40.2078552 C41.041011,39.9641757 41.0629056,39.6317126 40.9093125,39.3655882 C40.7557195,39.0994638 40.4569093,38.9521266 40.1523022,38.9923218 C39.8476951,39.032517 39.5973239,39.2523228 39.5180079,39.5491813 C39.4098664,39.9539259 39.6498872,40.3698001 40.0544219,40.478604 Z" id="Shape" fill="#FFFFFF" fill-rule="nonzero"></path><path d="M44.1054031,37.492921 C43.808468,37.5724989 43.5888008,37.8232252 43.5489746,38.1280237 C43.5091483,38.4328222 43.6570197,38.7315644 43.9235404,38.8847533 C44.1900612,39.0379422 44.522654,39.0153576 44.7660153,38.8275455 C45.0093767,38.6397334 45.1154979,38.323744 45.0348259,38.0271278 C44.9250457,37.6234861 44.5094788,37.3846296 44.1054031,37.492921 Z" id="Shape" fill="#FFFFFF" fill-rule="nonzero"></path><path d="M47.8763327,36.2323275 C48.0938479,36.0152429 48.1591025,35.6884646 48.0416451,35.4044851 C47.9241877,35.1205057 47.6471714,34.9353031 47.3398673,34.9353031 C47.0325632,34.9353031 46.7555469,35.1205057 46.6380895,35.4044851 C46.5206321,35.6884646 46.5858867,36.0152429 46.8034019,36.2323275 C47.0998579,36.5281966 47.5798767,36.5281966 47.8763327,36.2323275 Z" id="Shape" fill="#FFFFFF" fill-rule="nonzero"></path><path d="M52.4048915,30.9177015 C51.8654305,30.7773457 51.313976,31.0993834 51.1712029,31.6381494 C51.0284299,32.1769154 51.3480478,32.729732 51.8862375,32.8748852 C52.4244271,33.0200385 52.9787276,32.7029233 53.126293,32.1654498 C53.1980005,31.9042712 53.1620523,31.6252535 53.0264847,31.3907736 C52.8909171,31.1562936 52.6670359,30.9859057 52.4048915,30.9177015 Z" id="Shape" fill="#FFFFFF" fill-rule="nonzero"></path><path d="M50.8988732,26.7982384 C51.4363467,26.6506731 51.7534619,26.0963726 51.6083087,25.5581829 C51.4631554,25.0199933 50.9103388,24.7003753 50.3715728,24.8431484 C49.8328068,24.9859215 49.5107691,25.537376 49.651125,26.076837 C49.7193291,26.3389814 49.889717,26.5628626 50.124197,26.6984302 C50.358677,26.8339977 50.6376946,26.869946 50.8988732,26.7982384 Z" id="Shape" fill="#FFFFFF" fill-rule="nonzero"></path><path d="M45.8698787,21.986457 C46.2669092,22.3774538 46.9052397,22.3741955 47.298258,21.979166 C47.6912762,21.5841365 47.6912762,20.9457977 47.298258,20.5507683 C46.9052397,20.1557388 46.2669092,20.1524805 45.8698787,20.5434772 C45.6766128,20.7338061 45.5677867,20.9937166 45.5677867,21.2649671 C45.5677867,21.5362176 45.6766128,21.7961281 45.8698787,21.986457 Z" id="Shape" fill="#FFFFFF" fill-rule="nonzero"></path><path d="M40.2502598,20.7259606 C40.7894211,20.8658559 41.3403382,20.5440206 41.483203,20.0056987 C41.6260678,19.4673767 41.307218,18.91477 40.7696227,18.7689742 C40.2320274,18.6231784 39.6776154,18.9389567 39.5288581,19.4756806 C39.456374,19.7372069 39.4919382,20.0168816 39.6275706,20.2519496 C39.763203,20.4870177 39.9875459,20.6577946 40.2502598,20.7259606 Z" id="Shape" fill="#FFFFFF" fill-rule="nonzero"></path><path d="M34.1561389,20.2898207 C33.6189036,20.4402016 33.3045628,20.99692 33.4532472,21.5346882 C33.6019317,22.0724564 34.1575976,22.3885724 34.6957612,22.2415492 C35.2339248,22.0945261 35.5517351,21.5397815 35.4064109,21.0010953 C35.3360413,20.7402503 35.1643524,20.5183517 34.9295429,20.3847696 C34.6947335,20.2511875 34.4162813,20.2170026 34.1561389,20.2898207 Z" id="Shape" fill="#FFFFFF" fill-rule="nonzero"></path><path d="M29.1604073,26.54197 C29.5570746,26.9340023 30.1960623,26.9314988 30.5896457,26.5363705 C30.9832291,26.1412421 30.9832291,25.5022495 30.5896457,25.1071211 C30.1960623,24.7119928 29.5570746,24.7094893 29.1604073,25.1015217 C28.9679248,25.2917549 28.8595982,25.5511203 28.8595982,25.8217458 C28.8595982,26.0923713 28.9679248,26.3517367 29.1604073,26.54197 Z" id="Shape" fill="#FFFFFF" fill-rule="nonzero"></path><path d="M28.09885,32.8773704 C28.6380113,33.0172657 29.1889284,32.6954304 29.3317932,32.1571085 C29.474658,31.6187865 29.1558082,31.0661798 28.6182129,30.920384 C28.0806176,30.7745882 27.5262056,31.0903665 27.3774483,31.6270904 C27.3049642,31.8886167 27.3405284,32.1682914 27.4761608,32.4033594 C27.6117932,32.6384274 27.8361361,32.8092044 28.09885,32.8773704 Z" id="Shape" fill="#FFFFFF" fill-rule="nonzero"></path><path d="M29.6042166,36.996663 C29.0667431,37.1442283 28.7496279,37.6985288 28.8947812,38.2367185 C29.0399344,38.7749081 29.592751,39.0945261 30.1315171,38.951753 C30.6702831,38.8089799 30.9923207,38.2575254 30.8519649,37.7180644 C30.7837607,37.45592 30.6133728,37.2320388 30.3788928,37.0964712 C30.1444129,36.9609037 29.8653952,36.9249554 29.6042166,36.996663 Z" id="Shape" fill="#FFFFFF" fill-rule="nonzero"></path><path d="M35.1395198,41.3021356 C34.7424894,40.9111389 34.1041589,40.9143972 33.7111406,41.3094267 C33.3181224,41.7044561 33.3181224,42.3427949 33.7111406,42.7378244 C34.1041589,43.1328539 34.7424894,43.1361122 35.1395198,42.7451154 C35.3327858,42.5547865 35.4416119,42.294876 35.4416119,42.0236255 C35.4416119,41.752375 35.3327858,41.4924645 35.1395198,41.3021356 Z" id="Shape" fill="#FFFFFF" fill-rule="nonzero"></path><path d="M40.7597904,42.5628026 C40.2203295,42.4224467 39.668875,42.7444844 39.5261019,43.2832504 C39.3833288,43.8220164 39.7029468,44.3748331 40.2411364,44.5199863 C40.7793261,44.6651395 41.3336266,44.3480244 41.4811919,43.8105508 C41.5528995,43.5493722 41.5169512,43.2703546 41.3813836,43.0358746 C41.2458161,42.8013947 41.0219348,42.6310068 40.7597904,42.5628026 Z" id="Shape" fill="#FFFFFF" fill-rule="nonzero"></path><path d="M46.342712,42.9999485 C46.8803169,42.8519812 47.1970785,42.2971031 47.051205,41.7588661 C46.9053315,41.2206292 46.3517472,40.9016901 45.8130163,41.0455028 C45.2742854,41.1893156 44.9532507,41.7417318 45.0949658,42.2810788 C45.1637222,42.5427559 45.3343387,42.7660254 45.5687538,42.9010801 C45.803169,43.0361347 46.0818801,43.0717384 46.342712,42.9999485 Z" id="Shape" fill="#FFFFFF" fill-rule="nonzero"></path><path d="M51.3413996,37.2516657 C50.9443691,36.860669 50.3060386,36.8639273 49.9130203,37.2589567 C49.5200021,37.6539862 49.5200021,38.292325 49.9130203,38.6873545 C50.3060386,39.0823839 50.9443691,39.0856422 51.3413996,38.6946455 C51.5346656,38.5043166 51.6434916,38.2444061 51.6434916,37.9731556 C51.6434916,37.7019051 51.5346656,37.4419946 51.3413996,37.2516657 Z" id="Shape" fill="#FFFFFF" fill-rule="nonzero"></path><path d="M56.1235627,34.8915472 C56.6182231,35.0249875 57.1445531,34.8471376 57.4568472,34.4410226 C57.7691412,34.0349076 57.8058118,33.4806177 57.54974,33.0369107 C57.2936682,32.5932038 56.795354,32.3475833 56.2874244,32.4147119 C55.7794948,32.4818405 55.3621186,32.8484796 55.2301387,33.3434719 C55.051854,34.0173042 55.4508724,34.708701 56.1235627,34.8915472 Z" id="Shape" fill="#FFFFFF" fill-rule="nonzero"></path><path d="M56.1565488,25.2379873 C55.9740597,24.5638784 55.2798603,24.165003 54.6054093,24.3467282 C53.9309583,24.5284534 53.5312506,25.2220731 53.7122908,25.8965724 C53.893331,26.5710716 54.5866717,26.9714372 55.2615117,26.791161 C55.9375136,26.6091779 56.3381439,25.9139572 56.1565488,25.2379873 Z" id="Shape" fill="#FFFFFF" fill-rule="nonzero"></path><path d="M50.7677793,18.0920441 C50.4057336,17.7297675 49.8609811,17.6212299 49.3876418,17.8170627 C48.9143025,18.0128955 48.6056392,18.4745134 48.6056392,18.9865778 C48.6056392,19.4986422 48.9143025,19.9602601 49.3876418,20.1560929 C49.8609811,20.3519257 50.4057336,20.2433881 50.7677793,19.8811115 C51.2603174,19.3863675 51.2603174,18.5867881 50.7677793,18.0920441 Z" id="Shape" fill="#FFFFFF" fill-rule="nonzero"></path><path d="M41.9493042,17.1711296 C42.6243654,17.3518449 43.318154,16.9512825 43.4990848,16.2763559 C43.6800156,15.6014293 43.2796028,14.9076112 42.6046453,14.7265092 C41.9296878,14.5454073 41.2356698,14.9455722 41.0543522,15.620395 C40.967214,15.9447039 41.0125678,16.2903453 41.1804259,16.5812028 C41.3482841,16.8720603 41.6248807,17.0842808 41.9493042,17.1711296 Z" id="Shape" fill="#FFFFFF" fill-rule="nonzero"></path><path d="M33.9972548,18.1833902 C34.6719513,18.0025055 35.072462,17.3092 34.8920601,16.6344345 C34.7116581,15.959669 34.018583,15.558683 33.343619,15.7385674 C32.668655,15.9184518 32.2671168,16.6111628 32.4465182,17.286195 C32.5322619,17.6113582 32.7441597,17.8889008 33.0352517,18.0573152 C33.3263437,18.2257296 33.6725892,18.2711067 33.9972548,18.1833902 Z" id="Shape" fill="#FFFFFF" fill-rule="nonzero"></path><path d="M27.9816604,21.1293661 C27.4875354,20.6350744 26.6864283,20.6350913 26.192324,21.1294038 C25.6982197,21.6237163 25.6982197,22.4251442 26.192324,22.9194567 C26.6864283,23.4137692 27.4875354,23.4137861 27.9816604,22.9194943 C28.2195601,22.6824324 28.3532895,22.3603469 28.3532895,22.0244302 C28.3532895,21.6885136 28.2195601,21.3664281 27.9816604,21.1293661 Z" id="Shape" fill="#FFFFFF" fill-rule="nonzero"></path><path d="M24.3772916,28.9029658 C23.7021665,28.7222506 23.0083123,29.122813 22.8273644,29.7977395 C22.6464165,30.4726661 23.0468672,31.1664843 23.7218886,31.3475862 C24.3969099,31.5286881 25.0909936,31.1285233 25.2723283,30.4537005 C25.4523673,29.7785207 25.0520775,29.0849812 24.3772916,28.9029658 Z" id="Shape" fill="#FFFFFF" fill-rule="nonzero"></path><path d="M25.240261,37.0044254 C24.5654382,37.1857033 24.1652734,37.8795698 24.3463753,38.5543801 C24.5274772,39.2291903 25.2212954,39.6295157 25.896222,39.4486244 C26.5711486,39.2677331 26.9717109,38.5740959 26.7909957,37.899182 C26.7047232,37.5744691 26.4926064,37.2975139 26.2015761,37.1295927 C25.9105458,36.9616714 25.5645935,36.916627 25.240261,37.0044254 Z" id="Shape" fill="#FFFFFF" fill-rule="nonzero"></path><path d="M31.5258216,43.9132595 C31.0316966,43.4189678 30.2305894,43.4189846 29.7364852,43.9132972 C29.2423809,44.4076097 29.2423809,45.2090375 29.7364852,45.70335 C30.2305894,46.1976625 31.0316966,46.1976794 31.5258216,45.7033877 C31.7637213,45.4663258 31.8974507,45.1442402 31.8974507,44.8083236 C31.8974507,44.472407 31.7637213,44.1503214 31.5258216,43.9132595 Z" id="Shape" fill="#FFFFFF" fill-rule="nonzero"></path><path d="M38.5552184,46.6239962 C38.0608608,46.4908722 37.5349992,46.6687214 37.2229011,47.074593 C36.9108029,47.4804647 36.8739489,48.0344054 37.1295281,48.4780515 C37.3851074,48.9216976 37.8827729,49.1676545 38.3904082,49.1012053 C38.8980436,49.0347561 39.3156489,48.6689908 39.4484486,48.1745061 C39.6296771,47.4996955 39.2298556,46.8056671 38.5552184,46.6239962 Z" id="Shape" fill="#FFFFFF" fill-rule="nonzero"></path><path d="M46.5052282,45.1048222 C45.8304054,45.2861397 45.4302405,45.9801577 45.6113425,46.6551152 C45.7924444,47.3300728 46.4862626,47.7304855 47.1611891,47.5495547 C47.8361157,47.368624 48.2366781,46.6748354 48.0559628,45.9997742 C47.969114,45.6753506 47.7568935,45.398754 47.466036,45.2308959 C47.1751785,45.0630377 46.8295372,45.0176839 46.5052282,45.1048222 Z" id="Shape" fill="#FFFFFF" fill-rule="nonzero"></path><path d="M54.3106363,42.1600299 C54.804928,41.6655103 54.8049111,40.8637635 54.3105986,40.3692647 C53.8162861,39.8747659 53.0148583,39.8747659 52.5205458,40.3692647 C52.0262332,40.8637635 52.0262164,41.6655103 52.5205081,42.1600299 C53.0153846,42.6532357 53.8157598,42.6532357 54.3106363,42.1600299 Z" id="Shape" fill="#FFFFFF" fill-rule="nonzero"></path><path d="M60.6435166,35.4936011 C59.8333063,35.2768212 59.0007338,35.757763 58.7838481,36.5678526 C58.5669623,37.3779422 59.0478816,38.2104596 59.8580493,38.4273981 C60.6682171,38.6443366 61.5008837,38.1635578 61.7179281,37.3535107 C61.8221838,36.9644107 61.7675498,36.5498354 61.5660495,36.201019 C61.3645492,35.8522026 61.0326948,35.5977296 60.6435166,35.4936011 Z" id="Shape" fill="#FFFFFF" fill-rule="nonzero"></path><path d="M60.646054,27.7917587 C61.4553673,27.5737337 61.9348186,26.7417429 61.7172375,25.932936 C61.4996565,25.1241292 60.6673424,24.6444345 59.8576926,24.8612087 C59.0480429,25.0779829 58.5673046,25.909232 58.7836336,26.7183741 C58.884722,27.1096104 59.1390408,27.4437863 59.4893429,27.6456789 C59.8396451,27.8475715 60.2564928,27.9002148 60.646054,27.7917587 Z" id="Shape" fill="#FFFFFF" fill-rule="nonzero"></path><path d="M54.1141131,18.2890434 C54.7074375,18.881812 55.6689096,18.8815117 56.2618636,18.2883725 C56.8548175,17.6952333 56.8548175,16.7337611 56.2618636,16.1406219 C55.6689096,15.5474827 54.7074375,15.5471824 54.1141131,16.139951 C53.8289513,16.4248458 53.6687266,16.8114063 53.6687266,17.2144972 C53.6687266,17.6175881 53.8289513,18.0041486 54.1141131,18.2890434 Z" id="Shape" fill="#FFFFFF" fill-rule="nonzero"></path><path d="M45.1748886,13.6183468 C45.9851504,13.8351267 46.8177759,13.3541849 47.0346755,12.5440953 C47.2515751,11.7340057 46.7706252,10.9014883 45.9604059,10.6845498 C45.1501865,10.4676113 44.3174668,10.9483901 44.1004086,11.7584372 C43.8847744,12.5685125 44.3653139,13.4003196 45.1748886,13.6183468 Z" id="Shape" fill="#FFFFFF" fill-rule="nonzero"></path><path d="M35.3282757,13.6157635 C36.1383228,13.3989251 36.6191016,12.5670487 36.4021631,11.7576499 C36.1852246,10.9482512 35.3527072,10.4677883 34.5426176,10.6844683 C33.732528,10.9011482 33.2515862,11.7329305 33.4683661,12.5423717 C33.5694944,12.9330451 33.8234273,13.2667641 34.1731454,13.4685936 C34.5228635,13.670423 34.9390585,13.7234485 35.3282757,13.6157635 Z" id="Shape" fill="#FFFFFF" fill-rule="nonzero"></path><path d="M24.7464342,18.2872385 C25.1805611,18.7223799 25.8341598,18.8529873 26.4021844,18.6181039 C26.970209,18.3832205 27.340672,17.8291541 27.340672,17.2144972 C27.340672,16.5998403 26.970209,16.0457739 26.4021844,15.8108905 C25.8341598,15.5760071 25.1805611,15.7066145 24.7464342,16.1417559 C24.154948,16.7346243 24.154948,17.6943702 24.7464342,18.2872385 Z" id="Shape" fill="#FFFFFF" fill-rule="nonzero"></path><path d="M20.6433115,24.8611175 C19.8338703,24.6443376 19.002088,25.1252794 18.7854081,25.935369 C18.5687282,26.7454586 19.049191,27.577976 19.8585898,27.7949145 C20.6679886,28.011853 21.4998649,27.5310742 21.7167033,26.7210271 C21.8243884,26.3318099 21.7713629,25.9156149 21.5695334,25.5658968 C21.367704,25.2161787 21.033985,24.9622458 20.6433115,24.8611175 Z" id="Shape" fill="#FFFFFF" fill-rule="nonzero"></path><path d="M19.8586524,35.4963593 C19.265206,35.6554752 18.8261734,36.1561424 18.7463428,36.7648231 C18.6665122,37.3735037 18.9616114,37.970279 19.4939903,38.2767813 C20.0263692,38.5832835 20.6911417,38.5391273 21.1782225,38.1649096 C21.6653032,37.7906918 21.8787305,37.1601386 21.7189503,36.5673737 C21.617251,36.1771154 21.3630372,35.8439627 21.0133105,35.6426174 C20.6635838,35.4412721 20.2476067,35.3885811 19.8586524,35.4963593 Z" id="Shape" fill="#FFFFFF" fill-rule="nonzero"></path><path d="M26.8952855,45.505858 C26.3019611,44.9130894 25.340489,44.9133897 24.747535,45.5065289 C24.1545811,46.0996681 24.1545811,47.0611403 24.747535,47.6542795 C25.340489,48.2474187 26.3019611,48.247719 26.8952855,47.6549503 C27.1804473,47.3700556 27.340672,46.9834951 27.340672,46.5804042 C27.340672,46.1773133 27.1804473,45.7907528 26.8952855,45.505858 Z" id="Shape" fill="#FFFFFF" fill-rule="nonzero"></path><path d="M35.3275716,50.176385 C34.5176036,49.960056 33.685506,50.4407943 33.4685105,51.250444 C33.251515,52.0600938 33.7316993,52.8924079 34.5413318,53.1099889 C35.3509643,53.32757 36.1838044,52.8481187 36.4020519,52.0388054 C36.6192872,51.2279163 36.1383972,50.3943791 35.3275716,50.176385 Z" id="Shape" fill="#FFFFFF" fill-rule="nonzero"></path><path d="M45.1619394,50.1773244 C44.3567879,50.4008469 43.8832965,51.2334475 44.1023494,52.0405375 C44.3214022,52.8476275 45.1506955,53.3259628 45.9581613,53.1109674 C46.7656271,52.8959719 47.2478802,52.068425 47.0373584,51.2590636 C46.8175877,50.4422162 45.9781992,49.958058 45.1619394,50.1773244 Z" id="Shape" fill="#FFFFFF" fill-rule="nonzero"></path><path d="M56.2620792,45.505858 C55.6685518,44.9130894 54.7067509,44.9133897 54.1135941,45.5065289 C53.5204374,46.0996681 53.5204374,47.0611403 54.1135941,47.6542795 C54.7067509,48.2474187 55.6685518,48.247719 56.2620792,47.6549503 C56.8547456,47.0610845 56.8547456,46.0997239 56.2620792,45.505858 Z" id="Shape" fill="#FFFFFF" fill-rule="nonzero"></path><path d="M45.061478,32.8027424 C44.7064494,33.1452201 44.3812135,33.4828741 44.0336332,33.7939981 C43.7669277,34.0291675 43.4849747,34.2474826 43.1895094,34.4475998 C42.7736321,34.7210807 42.2448446,34.7753434 41.7793262,34.5923087 C41.4118112,34.4824316 41.1471278,34.1702768 41.1065099,33.7988218 C40.6099665,34.1967711 40.1432157,34.6598395 39.4257105,34.6911931 C39.368608,34.9540808 39.3090228,35.224204 39.2494376,35.4943273 C39.2160453,35.6131036 39.1911586,35.7339833 39.1749561,35.8560994 C39.1625425,36.0273382 39.0756474,36.0972808 38.9018572,36.1334581 C38.4698645,36.2178716 37.5338802,36.4397585 37.4668469,36.4542294 C37.9882174,34.081004 38.5046225,31.7182299 39.0160622,29.365907 L40.6099665,29.365907 C40.5255541,29.7493855 39.7956353,33.1235137 39.7906699,33.1693382 C39.7484637,33.574523 40.0116317,33.8132927 40.4163146,33.6951138 C40.6453029,33.6058576 40.8627732,33.4909193 41.0643037,33.3526361 C41.096579,33.3357534 41.1065099,33.2730462 41.1164408,33.2296336 C41.3911948,31.9722744 41.6651212,30.7157191 41.9382201,29.4599678 C41.9382201,29.4286142 41.9580818,29.3972606 41.9680127,29.365907 L43.5321243,29.365907 C43.447712,29.7542091 42.9164105,32.2383779 42.7326895,33.1042192 C42.718182,33.1732216 42.7123463,33.2436791 42.7153105,33.3140471 C42.7026201,33.4978418 42.8359848,33.6608316 43.0231674,33.6902901 C43.1984407,33.7401002 43.3869107,33.7201427 43.5470206,33.6348184 C43.7183234,33.5409766 43.8840961,33.4379119 44.043564,33.3261062 C44.2117081,33.2052308 44.3702244,33.0722034 44.517763,32.9281568 C44.6650415,32.7988574 44.8700858,32.7515614 45.061478,32.8027424 Z" id="Shape" fill="#FFFFFF" fill-rule="evenodd"></path></g></g></g><text font-family="FiraSans-Bold, Fira Sans" font-size="20" font-weight="bold" fill="#FFFFFF"><tspan x="39" y="83">Catalogue</tspan></text></g></g><g id="Group-2" transform="translate(362.000000, 99.000000)" fill="#000000"><g id="7358642c7add8cf4a806f2fa36d7cf73" transform="translate(0.000000, 29.000000)" fill-rule="nonzero"><path d="M171.980383,36.2761224 C171.980383,16.247449 133.492245,0 86.0196168,0 C39.6847628,0 2.00091241,15.4990816 0.23540146,34.8778571 L0,34.8778571 L0,157.787347 L0.196167883,157.787347 C1.53010949,177.323673 39.3905109,193 86.0196168,193 C132.648723,193 170.509124,177.323673 171.843066,157.787347 L172,157.787347 L172,36.2761224 L171.980383,36.2761224 Z M163.309763,156.763265 C163.290146,172.085102 128.666515,184.511939 85.9411496,184.511939 C43.8435219,184.511939 9.69069343,172.459286 8.67062044,157.432857 L8.67062044,128.876735 C22.5789234,141.008163 51.9256387,149.397755 86,149.397755 C120.054745,149.397755 149.381843,141.008163 163.290146,128.916122 L163.309763,156.763265 Z M163.309763,113.16102 C163.290146,128.482857 128.666515,140.909694 85.9411496,140.909694 C43.8435219,140.909694 9.69069343,128.857041 8.67062044,113.830612 L8.67062044,90.4736735 C22.5789234,102.605102 51.9256387,110.994694 86,110.994694 C120.054745,110.994694 149.381843,102.624796 163.290146,90.5130612 L163.309763,113.16102 Z M163.309763,74.7382653 C163.290146,90.060102 128.666515,102.486939 85.9411496,102.486939 C43.8435219,102.486939 9.69069343,90.4342857 8.67062044,75.4078571 L8.67062044,52.0509184 C22.5789234,64.1823469 51.9256387,72.5719388 86,72.5719388 C120.054745,72.5719388 149.381843,64.1823469 163.290146,52.0903061 L163.309763,74.7382653 Z M163.309763,36.3155102 C163.290146,51.6373469 128.666515,64.0641837 85.9411496,64.0641837 C43.8435219,64.0641837 9.69069343,52.0115306 8.67062044,36.985102 L8.67062044,35.6459184 C9.69069343,20.6391837 43.8631387,8.56683673 85.9411496,8.56683673 C128.666515,8.56683673 163.309763,20.9936735 163.309763,36.3155102 Z" id="Shape"></path></g><text id="sherlock-DB" font-family="CourierNewPS-BoldMT, Courier New" font-size="20" font-weight="bold"><tspan x="20" y="17">sherlock DB</tspan></text><g id="7358642c7add8cf4a806f2fa36d7cf73" transform="translate(301.000000, 29.000000)" fill-rule="nonzero"><path d="M171.980383,36.2761224 C171.980383,16.247449 133.492245,0 86.0196168,0 C39.6847628,0 2.00091241,15.4990816 0.23540146,34.8778571 L0,34.8778571 L0,157.787347 L0.196167883,157.787347 C1.53010949,177.323673 39.3905109,193 86.0196168,193 C132.648723,193 170.509124,177.323673 171.843066,157.787347 L172,157.787347 L172,36.2761224 L171.980383,36.2761224 Z M163.309763,156.763265 C163.290146,172.085102 128.666515,184.511939 85.9411496,184.511939 C43.8435219,184.511939 9.69069343,172.459286 8.67062044,157.432857 L8.67062044,128.876735 C22.5789234,141.008163 51.9256387,149.397755 86,149.397755 C120.054745,149.397755 149.381843,141.008163 163.290146,128.916122 L163.309763,156.763265 Z M163.309763,113.16102 C163.290146,128.482857 128.666515,140.909694 85.9411496,140.909694 C43.8435219,140.909694 9.69069343,128.857041 8.67062044,113.830612 L8.67062044,90.4736735 C22.5789234,102.605102 51.9256387,110.994694 86,110.994694 C120.054745,110.994694 149.381843,102.624796 163.290146,90.5130612 L163.309763,113.16102 Z M163.309763,74.7382653 C163.290146,90.060102 128.666515,102.486939 85.9411496,102.486939 C43.8435219,102.486939 9.69069343,90.4342857 8.67062044,75.4078571 L8.67062044,52.0509184 C22.5789234,64.1823469 51.9256387,72.5719388 86,72.5719388 C120.054745,72.5719388 149.381843,64.1823469 163.290146,52.0903061 L163.309763,74.7382653 Z M163.309763,36.3155102 C163.290146,51.6373469 128.666515,64.0641837 85.9411496,64.0641837 C43.8435219,64.0641837 9.69069343,52.0115306 8.67062044,36.985102 L8.67062044,35.6459184 C9.69069343,20.6391837 43.8631387,8.56683673 85.9411496,8.56683673 C128.666515,8.56683673 163.309763,20.9936735 163.309763,36.3155102 Z" id="Shape"></path></g><text id="watson-DB" font-family="CourierNewPS-BoldMT, Courier New" font-size="20" font-weight="bold"><tspan x="333" y="17">watson DB</tspan></text></g></g></svg>