<?xml version="1.0" encoding="UTF-8"?>
<svg width="901px" height="407px" viewBox="0 0 901 407" version="1.1" xmlns="http://www.w3.org/2000/svg" xmlns:xlink="http://www.w3.org/1999/xlink">
    <!-- Generator: Sketch 50.2 (55047) - http://www.bohemiancoding.com/sketch -->
    <title>Group</title>
    <desc>Created with Sketch.</desc>
    <defs></defs>
    <g id="Page-1" stroke="none" stroke-width="1" fill="none" fill-rule="evenodd">
        <g id="Micronaut---Secured-by-default" transform="translate(-137.000000, -159.000000)">
            <g id="Group" transform="translate(137.000000, 159.000000)">
                <g id="GET" transform="translate(122.000000, 177.000000)">
                    <g id="LEFT-Arrow" transform="translate(9.000000, 36.000000)">
                        <path d="M577.481745,23.1144804 C577.709204,23.9547523 578.043542,25.2945975 578.468315,26.6220858 C578.536827,26.8321537 578.978043,27.0492828 579.326083,27.1499036 C579.641238,27.241698 580.367463,27.2346369 580.392127,27.178148 C581.745921,23.9953536 583.9383,20.9043537 583.272365,17.4938385 C583.195632,17.1019471 582.214542,16.718882 581.537645,16.4540904 C580.608625,16.0869128 579.967354,16.3605307 579.383633,16.948368 C577.648914,18.6924616 578.251818,20.7084079 577.481745,23.1144804 M591.663694,24.9274199 C591.299211,25.8577208 591.074492,26.1313388 591.112859,26.3873039 C591.186852,26.9045301 591.156706,27.6035798 591.63903,27.8648408 C592.039139,28.0802045 593.414856,27.9601657 593.845111,27.6706603 C596.188215,26.1048596 598.407999,24.463152 600.583935,22.7984958 C601.263572,22.2777391 600.857982,21.8011144 600.041321,21.3668562 C596.264949,19.357971 593.527216,19.6986695 592.491317,22.3695335 C592.080246,23.4357608 591.792496,24.5214062 591.663694,24.9274199 M623.094182,29.4112234 C622.916051,29.1764415 622.836578,28.828682 622.546088,28.7210001 C620.731894,28.0378379 618.923182,27.3334924 616.993889,26.8162662 C616.462237,26.6732788 615.14681,27.0104467 614.850839,27.3582063 C612.992798,29.5648025 612.729712,32.0044153 612.806445,34.4599155 C612.814667,34.6699835 613.209295,34.9541931 613.532671,35.0583444 C613.883451,35.1677916 614.521982,35.227811 614.768624,35.1007111 C617.40496,33.7343867 620.044035,32.3610012 622.546088,30.8958213 C623.028411,30.613377 622.927013,29.9178579 623.094182,29.4112234 M601.934988,35.6320594 C601.934988,34.4334364 602.187111,33.4996048 600.737401,33.245405 C600.115314,33.1377231 599.076674,33.5507979 598.487473,33.9056186 C592.252896,37.6568321 587.396777,42.4160188 579.158914,44.7020525 C578.046282,45.0092107 577.717425,47.0410445 578.454613,47.7683386 C579.372671,48.6721604 580.666175,48.4532661 581.874723,48.1072718 C586.207412,46.8733432 590.501733,45.5829257 594.842643,44.3613541 C597.827018,43.5246128 599.726166,42.213012 600.293444,40.0752616 C600.72918,38.4406151 601.477329,36.8395089 601.934988,35.6320594 M254.157966,30.0926203 C247.498616,30.2250161 236.120171,30.4880423 224.741725,30.6716311 C202.848084,31.0246865 180.948962,31.2029795 159.063543,31.6937265 C128.866267,32.3715929 98.6826946,33.3018938 68.4909004,34.0644935 C47.9209079,34.5852502 27.3454344,35.0230389 6.77270145,35.4308179 C5.10923416,35.4625928 3.26215517,35.1501388 1.8014829,34.6435043 C0.875202933,34.3222239 0.0585418926,33.3530869 0.0037324268,32.6469761 C-0.0538175123,31.919682 0.560048504,30.8693422 1.43699996,30.4827465 C2.80175565,29.8807871 4.61594897,29.4730081 6.27667578,29.4112234 C22.8921653,28.8233862 39.5076549,28.2143656 56.1341063,27.8224741 C98.1483023,26.8321537 140.165239,25.8418333 182.193137,25.0704073 C210.644731,24.5478853 239.112767,24.3519396 267.575323,24.1030355 C287.284807,23.9282731 306.997031,23.8241218 326.709256,23.8417745 C367.443651,23.8788454 408.197229,23.6140538 448.915181,24.2371966 C482.170824,24.7455963 515.456613,25.4746557 548.61634,27.4888368 C553.406687,27.7783422 558.16963,28.2655586 562.954496,28.5974307 C566.010124,28.8110292 567.788691,27.7730464 567.890088,25.6388265 C568.084662,21.4074576 568.106586,17.1760887 568.265533,12.9447198 C568.30664,11.8272995 568.503954,10.7045833 568.797185,9.60305049 C569.106858,8.43443713 571.921324,7.11577523 573.771144,7.3329043 C575.89227,7.58180836 578.079168,7.84836518 580.035866,8.39913159 C589.257558,11.0011498 598.468289,13.6225862 607.574882,16.3852446 C619.446612,19.9899402 631.230647,23.7199704 643.022904,27.4376437 C644.97138,28.0519601 646.837643,28.8127945 648.599767,29.631883 C650.449587,30.4951034 650.518098,33.3266077 648.753234,34.2339601 C647.39944,34.9294792 645.979875,35.6267636 644.428767,36.1016231 C627.835201,41.199743 611.203269,46.2449046 594.598741,51.3236064 C590.646978,52.5310559 586.804835,53.8903191 582.811965,55.0306881 C580.433235,55.712085 577.887335,56.1798834 575.360618,56.6053151 C572.842123,57.025451 569.641251,55.8427155 569.257584,54.227487 C568.660161,51.734916 568.284716,49.2070393 568.117548,46.6862238 C567.912012,43.5934586 568.13125,40.4883364 567.933936,37.3938058 C567.857203,36.2216619 566.670578,35.2631165 564.697437,35.0954152 C556.889828,34.4334364 549.093182,33.5666854 541.247207,33.2559966 C521.143095,32.461622 501.003357,32.0591388 480.899245,31.2577031 C434.516734,29.4059276 388.079414,29.9107968 341.658537,29.7430955 C314.064712,29.6424747 286.470886,29.9478676 254.157966,30.0926203" id="Fill-61" fill="#000000"></path>
                        <rect id="Rectangle-3" fill="#FFFFFF" x="260" y="8" width="327" height="45"></rect>
                        <rect id="Rectangle-2" fill="#FFFFFF" x="569" y="0" width="86" height="57"></rect>
                        <path d="M605.831203,18.1144804 C605.969782,18.9547523 606.173478,20.2945975 606.432271,21.6220858 C606.474012,21.8321537 606.742824,22.0492828 606.954867,22.1499036 C607.146875,22.241698 607.589329,22.2346369 607.604355,22.178148 C608.429155,18.9953536 609.764864,15.9043537 609.359142,12.4938385 C609.312393,12.1019471 608.714663,11.718882 608.302263,11.4540904 C607.736257,11.0869128 607.345562,11.3605307 606.98993,11.948368 C605.93305,13.6924616 606.30037,15.7084079 605.831203,18.1144804 M614.471566,19.9274199 C614.249505,20.8577208 614.112595,21.1313388 614.135969,21.3873039 C614.18105,21.9045301 614.162684,22.6035798 614.456539,22.8648408 C614.700306,23.0802045 615.538463,22.9601657 615.800596,22.6706603 C617.228134,21.1048596 618.580539,19.463152 619.90623,17.7984958 C620.320299,17.2777391 620.073193,16.8011144 619.575642,16.3668562 C617.274884,14.357971 615.606918,14.6986695 614.975796,17.3695335 C614.725351,18.4357608 614.550039,19.5214062 614.471566,19.9274199 M633.620616,24.4112234 C633.512089,24.1764415 633.46367,23.828682 633.286688,23.7210001 C632.18139,23.0378379 631.07943,22.3334924 629.904007,21.8162662 C629.580098,21.6732788 628.778673,22.0104467 628.598352,22.3582063 C627.466339,24.5648025 627.306054,27.0044153 627.352804,29.4599155 C627.357813,29.6699835 627.59824,29.9541931 627.795257,30.0583444 C628.008971,30.1677916 628.397996,30.227811 628.548263,30.1007111 C630.154452,28.7343867 631.762311,27.3610012 633.286688,25.8958213 C633.580544,25.613377 633.518768,24.9178579 633.620616,24.4112234 M620.72936,30.6320594 C620.72936,29.4334364 620.882966,28.4996048 619.999729,28.245405 C619.620722,28.1377231 618.98793,28.5507979 618.628959,28.9056186 C614.830538,32.6568321 611.871944,37.4160188 606.853019,39.7020525 C606.175147,40.0092107 605.974791,42.0410445 606.423923,42.7683386 C606.983251,43.6721604 607.771319,43.4532661 608.507628,43.1072718 C611.147322,41.8733432 613.763641,40.5829257 616.408343,39.3613541 C618.226576,38.5246128 619.383634,37.213012 619.729248,35.0752616 C619.99472,33.4406151 620.450531,31.8395089 620.72936,30.6320594 M408.845938,25.0926203 C404.788724,25.2250161 397.856398,25.4880423 390.924071,25.6716311 C377.585353,26.0246865 364.243296,26.2029795 350.909587,26.6937265 C332.511874,27.3715929 314.122509,28.3018938 295.728134,29.0644935 C283.19585,29.5852502 270.660227,30.0230389 258.126274,30.4308179 C257.112805,30.4625928 255.987471,30.1501388 255.097555,29.6435043 C254.533218,29.3222239 254.035667,28.3530869 254.002274,27.6469761 C253.967212,26.919682 254.34121,25.8693422 254.875493,25.4827465 C255.706972,24.8807871 256.812271,24.4730081 257.82407,24.4112234 C267.94707,23.8233862 278.070069,23.2143656 288.199748,22.8224741 C313.79693,21.8321537 339.395781,20.8418333 365.001311,20.0704073 C382.335466,19.5478853 399.67964,19.3519396 417.020474,19.1030355 C429.028492,18.9282731 441.03818,18.8241218 453.047868,18.8417745 C477.86533,18.8788454 502.694479,18.6140538 527.501923,19.2371966 C547.76295,19.7455963 568.042343,20.4746557 588.244932,22.4888368 C591.163455,22.7783422 594.065281,23.2655586 596.980465,23.5974307 C598.842108,23.8110292 599.925702,22.7730464 599.987478,20.6388265 C600.106022,16.4074576 600.11938,12.1760887 600.216218,7.94471979 C600.241263,6.82729947 600.361477,5.70458332 600.540128,4.60305049 C600.728796,3.43443713 602.443512,2.11577523 603.570516,2.3329043 C604.862814,2.58180836 606.195183,2.84836518 607.387303,3.39913159 C613.005626,6.00114985 618.617271,8.62258615 624.16547,11.3852446 C631.398331,14.9899402 638.577763,18.7199704 645.762205,22.4376437 C646.949316,23.0519601 648.086337,23.8127945 649.159913,24.631883 C650.286917,25.4951034 650.328658,28.3266077 649.253413,29.2339601 C648.428613,29.9294792 647.563741,30.6267636 646.618728,31.1016231 C636.509085,36.199743 626.376067,41.2449046 616.259746,46.3236064 C613.852131,47.5310559 611.511302,48.8903191 609.078644,50.0306881 C607.6294,50.712085 606.078309,51.1798834 604.538905,51.6053151 C603.00451,52.025451 601.054375,50.8427155 600.820626,49.227487 C600.456646,46.734916 600.227906,44.2070393 600.126058,41.6862238 C600.000835,38.5934586 600.134406,35.4883364 600.014193,32.3938058 C599.967443,31.2216619 599.244491,30.2631165 598.042353,30.0954152 C593.285562,29.4334364 588.535449,28.5666854 583.755282,28.2559966 C571.506836,27.461622 559.236685,27.0591388 546.988239,26.2577031 C518.729659,24.4059276 490.437685,24.9107968 462.15573,24.7430955 C445.34417,24.6424747 428.53261,24.9478676 408.845938,25.0926203" id="Fill-61" fill="#000000"></path>
                    </g>
                    <text id="GET-http://micronaut" font-family="HanziPenTC-W5, HanziPen TC" font-size="35" font-weight="bold" fill="#4A4A4A">
                        <tspan x="25.2375" y="37">GET  http://micronaut.example/books</tspan>
                    </text>
                </g>
                <g id="401" transform="translate(131.000000, 306.000000)">
                    <g id="LEFT-Arrow-Copy" transform="translate(327.500000, 55.500000) rotate(-180.000000) translate(-327.500000, -55.500000) translate(0.000000, 27.000000)">
                        <path d="M577.481745,23.1144804 C577.709204,23.9547523 578.043542,25.2945975 578.468315,26.6220858 C578.536827,26.8321537 578.978043,27.0492828 579.326083,27.1499036 C579.641238,27.241698 580.367463,27.2346369 580.392127,27.178148 C581.745921,23.9953536 583.9383,20.9043537 583.272365,17.4938385 C583.195632,17.1019471 582.214542,16.718882 581.537645,16.4540904 C580.608625,16.0869128 579.967354,16.3605307 579.383633,16.948368 C577.648914,18.6924616 578.251818,20.7084079 577.481745,23.1144804 M591.663694,24.9274199 C591.299211,25.8577208 591.074492,26.1313388 591.112859,26.3873039 C591.186852,26.9045301 591.156706,27.6035798 591.63903,27.8648408 C592.039139,28.0802045 593.414856,27.9601657 593.845111,27.6706603 C596.188215,26.1048596 598.407999,24.463152 600.583935,22.7984958 C601.263572,22.2777391 600.857982,21.8011144 600.041321,21.3668562 C596.264949,19.357971 593.527216,19.6986695 592.491317,22.3695335 C592.080246,23.4357608 591.792496,24.5214062 591.663694,24.9274199 M623.094182,29.4112234 C622.916051,29.1764415 622.836578,28.828682 622.546088,28.7210001 C620.731894,28.0378379 618.923182,27.3334924 616.993889,26.8162662 C616.462237,26.6732788 615.14681,27.0104467 614.850839,27.3582063 C612.992798,29.5648025 612.729712,32.0044153 612.806445,34.4599155 C612.814667,34.6699835 613.209295,34.9541931 613.532671,35.0583444 C613.883451,35.1677916 614.521982,35.227811 614.768624,35.1007111 C617.40496,33.7343867 620.044035,32.3610012 622.546088,30.8958213 C623.028411,30.613377 622.927013,29.9178579 623.094182,29.4112234 M601.934988,35.6320594 C601.934988,34.4334364 602.187111,33.4996048 600.737401,33.245405 C600.115314,33.1377231 599.076674,33.5507979 598.487473,33.9056186 C592.252896,37.6568321 587.396777,42.4160188 579.158914,44.7020525 C578.046282,45.0092107 577.717425,47.0410445 578.454613,47.7683386 C579.372671,48.6721604 580.666175,48.4532661 581.874723,48.1072718 C586.207412,46.8733432 590.501733,45.5829257 594.842643,44.3613541 C597.827018,43.5246128 599.726166,42.213012 600.293444,40.0752616 C600.72918,38.4406151 601.477329,36.8395089 601.934988,35.6320594 M254.157966,30.0926203 C247.498616,30.2250161 236.120171,30.4880423 224.741725,30.6716311 C202.848084,31.0246865 180.948962,31.2029795 159.063543,31.6937265 C128.866267,32.3715929 98.6826946,33.3018938 68.4909004,34.0644935 C47.9209079,34.5852502 27.3454344,35.0230389 6.77270145,35.4308179 C5.10923416,35.4625928 3.26215517,35.1501388 1.8014829,34.6435043 C0.875202933,34.3222239 0.0585418926,33.3530869 0.0037324268,32.6469761 C-0.0538175123,31.919682 0.560048504,30.8693422 1.43699996,30.4827465 C2.80175565,29.8807871 4.61594897,29.4730081 6.27667578,29.4112234 C22.8921653,28.8233862 39.5076549,28.2143656 56.1341063,27.8224741 C98.1483023,26.8321537 140.165239,25.8418333 182.193137,25.0704073 C210.644731,24.5478853 239.112767,24.3519396 267.575323,24.1030355 C287.284807,23.9282731 306.997031,23.8241218 326.709256,23.8417745 C367.443651,23.8788454 408.197229,23.6140538 448.915181,24.2371966 C482.170824,24.7455963 515.456613,25.4746557 548.61634,27.4888368 C553.406687,27.7783422 558.16963,28.2655586 562.954496,28.5974307 C566.010124,28.8110292 567.788691,27.7730464 567.890088,25.6388265 C568.084662,21.4074576 568.106586,17.1760887 568.265533,12.9447198 C568.30664,11.8272995 568.503954,10.7045833 568.797185,9.60305049 C569.106858,8.43443713 571.921324,7.11577523 573.771144,7.3329043 C575.89227,7.58180836 578.079168,7.84836518 580.035866,8.39913159 C589.257558,11.0011498 598.468289,13.6225862 607.574882,16.3852446 C619.446612,19.9899402 631.230647,23.7199704 643.022904,27.4376437 C644.97138,28.0519601 646.837643,28.8127945 648.599767,29.631883 C650.449587,30.4951034 650.518098,33.3266077 648.753234,34.2339601 C647.39944,34.9294792 645.979875,35.6267636 644.428767,36.1016231 C627.835201,41.199743 611.203269,46.2449046 594.598741,51.3236064 C590.646978,52.5310559 586.804835,53.8903191 582.811965,55.0306881 C580.433235,55.712085 577.887335,56.1798834 575.360618,56.6053151 C572.842123,57.025451 569.641251,55.8427155 569.257584,54.227487 C568.660161,51.734916 568.284716,49.2070393 568.117548,46.6862238 C567.912012,43.5934586 568.13125,40.4883364 567.933936,37.3938058 C567.857203,36.2216619 566.670578,35.2631165 564.697437,35.0954152 C556.889828,34.4334364 549.093182,33.5666854 541.247207,33.2559966 C521.143095,32.461622 501.003357,32.0591388 480.899245,31.2577031 C434.516734,29.4059276 388.079414,29.9107968 341.658537,29.7430955 C314.064712,29.6424747 286.470886,29.9478676 254.157966,30.0926203" id="Fill-61" fill="#000000"></path>
                        <rect id="Rectangle-3" fill="#FFFFFF" x="260" y="8" width="327" height="45"></rect>
                        <rect id="Rectangle-2" fill="#FFFFFF" x="569" y="0" width="86" height="57"></rect>
                        <path d="M605.831203,18.1144804 C605.969782,18.9547523 606.173478,20.2945975 606.432271,21.6220858 C606.474012,21.8321537 606.742824,22.0492828 606.954867,22.1499036 C607.146875,22.241698 607.589329,22.2346369 607.604355,22.178148 C608.429155,18.9953536 609.764864,15.9043537 609.359142,12.4938385 C609.312393,12.1019471 608.714663,11.718882 608.302263,11.4540904 C607.736257,11.0869128 607.345562,11.3605307 606.98993,11.948368 C605.93305,13.6924616 606.30037,15.7084079 605.831203,18.1144804 M614.471566,19.9274199 C614.249505,20.8577208 614.112595,21.1313388 614.135969,21.3873039 C614.18105,21.9045301 614.162684,22.6035798 614.456539,22.8648408 C614.700306,23.0802045 615.538463,22.9601657 615.800596,22.6706603 C617.228134,21.1048596 618.580539,19.463152 619.90623,17.7984958 C620.320299,17.2777391 620.073193,16.8011144 619.575642,16.3668562 C617.274884,14.357971 615.606918,14.6986695 614.975796,17.3695335 C614.725351,18.4357608 614.550039,19.5214062 614.471566,19.9274199 M633.620616,24.4112234 C633.512089,24.1764415 633.46367,23.828682 633.286688,23.7210001 C632.18139,23.0378379 631.07943,22.3334924 629.904007,21.8162662 C629.580098,21.6732788 628.778673,22.0104467 628.598352,22.3582063 C627.466339,24.5648025 627.306054,27.0044153 627.352804,29.4599155 C627.357813,29.6699835 627.59824,29.9541931 627.795257,30.0583444 C628.008971,30.1677916 628.397996,30.227811 628.548263,30.1007111 C630.154452,28.7343867 631.762311,27.3610012 633.286688,25.8958213 C633.580544,25.613377 633.518768,24.9178579 633.620616,24.4112234 M620.72936,30.6320594 C620.72936,29.4334364 620.882966,28.4996048 619.999729,28.245405 C619.620722,28.1377231 618.98793,28.5507979 618.628959,28.9056186 C614.830538,32.6568321 611.871944,37.4160188 606.853019,39.7020525 C606.175147,40.0092107 605.974791,42.0410445 606.423923,42.7683386 C606.983251,43.6721604 607.771319,43.4532661 608.507628,43.1072718 C611.147322,41.8733432 613.763641,40.5829257 616.408343,39.3613541 C618.226576,38.5246128 619.383634,37.213012 619.729248,35.0752616 C619.99472,33.4406151 620.450531,31.8395089 620.72936,30.6320594 M408.845938,25.0926203 C404.788724,25.2250161 397.856398,25.4880423 390.924071,25.6716311 C377.585353,26.0246865 364.243296,26.2029795 350.909587,26.6937265 C332.511874,27.3715929 314.122509,28.3018938 295.728134,29.0644935 C283.19585,29.5852502 270.660227,30.0230389 258.126274,30.4308179 C257.112805,30.4625928 255.987471,30.1501388 255.097555,29.6435043 C254.533218,29.3222239 254.035667,28.3530869 254.002274,27.6469761 C253.967212,26.919682 254.34121,25.8693422 254.875493,25.4827465 C255.706972,24.8807871 256.812271,24.4730081 257.82407,24.4112234 C267.94707,23.8233862 278.070069,23.2143656 288.199748,22.8224741 C313.79693,21.8321537 339.395781,20.8418333 365.001311,20.0704073 C382.335466,19.5478853 399.67964,19.3519396 417.020474,19.1030355 C429.028492,18.9282731 441.03818,18.8241218 453.047868,18.8417745 C477.86533,18.8788454 502.694479,18.6140538 527.501923,19.2371966 C547.76295,19.7455963 568.042343,20.4746557 588.244932,22.4888368 C591.163455,22.7783422 594.065281,23.2655586 596.980465,23.5974307 C598.842108,23.8110292 599.925702,22.7730464 599.987478,20.6388265 C600.106022,16.4074576 600.11938,12.1760887 600.216218,7.94471979 C600.241263,6.82729947 600.361477,5.70458332 600.540128,4.60305049 C600.728796,3.43443713 602.443512,2.11577523 603.570516,2.3329043 C604.862814,2.58180836 606.195183,2.84836518 607.387303,3.39913159 C613.005626,6.00114985 618.617271,8.62258615 624.16547,11.3852446 C631.398331,14.9899402 638.577763,18.7199704 645.762205,22.4376437 C646.949316,23.0519601 648.086337,23.8127945 649.159913,24.631883 C650.286917,25.4951034 650.328658,28.3266077 649.253413,29.2339601 C648.428613,29.9294792 647.563741,30.6267636 646.618728,31.1016231 C636.509085,36.199743 626.376067,41.2449046 616.259746,46.3236064 C613.852131,47.5310559 611.511302,48.8903191 609.078644,50.0306881 C607.6294,50.712085 606.078309,51.1798834 604.538905,51.6053151 C603.00451,52.025451 601.054375,50.8427155 600.820626,49.227487 C600.456646,46.734916 600.227906,44.2070393 600.126058,41.6862238 C600.000835,38.5934586 600.134406,35.4883364 600.014193,32.3938058 C599.967443,31.2216619 599.244491,30.2631165 598.042353,30.0954152 C593.285562,29.4334364 588.535449,28.5666854 583.755282,28.2559966 C571.506836,27.461622 559.236685,27.0591388 546.988239,26.2577031 C518.729659,24.4059276 490.437685,24.9107968 462.15573,24.7430955 C445.34417,24.6424747 428.53261,24.9478676 408.845938,25.0926203" id="Fill-61" fill="#000000"></path>
                    </g>
                    <text id="401-Unauthorized" font-family="HanziPenTC-W5, HanziPen TC" font-size="35" font-weight="bold" fill="#4A4A4A">
                        <tspan x="189.9475" y="37">401 Unauthorized</tspan>
                    </text>
                </g>
                <g id="Browser">
                    <text font-family="HanziPenTC-W5, HanziPen TC" font-size="40" font-weight="bold" fill="#4A4A4A">
                        <tspan x="32.24" y="66">Browser</tspan>
                    </text>
                    <path d="M3.99642592,86.78934 C4.06242613,90.76434 3.25042359,94.76134 2.74842202,98.73434 C2.3284207,102.06034 2.56242144,102.58334 5.84843171,102.30834 C12.2964519,101.76934 18.724472,101.00134 25.1574921,100.28834 C35.5015244,99.14134 45.8205567,97.68534 56.1905891,96.85934 C73.8766444,95.45034 91.5796998,94.05734 109.302755,93.34534 C127.263811,92.62534 145.257868,92.57234 163.238924,92.55434 C173.342955,92.54534 183.449987,93.18234 193.554019,93.56334 C195.468025,93.63534 197.378031,93.86934 199.915039,94.08134 C199.915039,92.44334 200.044039,90.94434 199.895039,89.47334 C197.399031,64.80334 196.356027,40.07634 196.929029,15.28534 C197.003029,12.04834 197.27003,8.81434 197.462031,5.58034 C197.548031,4.08834 196.983029,3.55534 195.399024,3.68834 C182.578984,4.77134 169.768944,6.34534 156.925904,6.68434 C134.090833,7.28834 111.232761,7.48834 88.3926898,7.18334 C69.1856298,6.92534 49.9825697,5.87534 30.7955097,4.84334 C21.8764818,4.36334 12.9964541,3.10634 4.10342625,2.15534 C3.44842421,2.08534 2.83142228,1.64334 2.19642029,1.37334 C2.21642035,1.09534 2.23542041,0.817340003 2.25542048,0.538340003 C3.46342425,0.350340003 4.67342804,-0.0126599968 5.8784318,0.000340003172 C20.9264789,0.180340003 35.9775259,0.238340003 51.018573,0.678340003 C68.8386287,1.20034 86.6446844,2.18734 104.46474,2.74134 C121.437793,3.26934 138.419846,3.72434 155.400899,3.78434 C168.046939,3.82834 180.695978,3.19034 193.343018,2.85334 C193.96002,2.83734 194.575022,2.78034 195.194024,2.76634 C197.909032,2.71134 198.759035,3.39234 199.032036,6.20934 C199.309037,9.04834 199.522037,11.90434 199.558037,14.75534 C199.757038,31.73834 199.825038,48.72134 200.089039,65.70234 C200.208039,73.41434 200.675041,81.12034 200.974042,88.83034 C201.005042,89.67734 200.989042,90.52934 200.942042,91.37734 C200.772041,94.41434 200.26704,94.80634 197.27403,95.28034 C174.63096,98.86134 151.788888,99.05434 128.952817,99.44834 C106.029745,99.84534 83.1016733,100.22534 60.1896016,101.00634 C46.7025595,101.46534 33.2425174,102.72734 19.7654752,103.55334 C14.9164601,103.85034 10.0554449,104.01834 5.19642967,104.07734 C1.26441738,104.12134 -0.0265866609,102.90134 0.000413423502,98.99234 C0.104413749,83.40234 0.320414424,67.81234 0.48841495,52.22134 C0.646415444,37.47834 0.786415881,22.73534 0.959416422,7.99334 C0.976416476,6.47834 1.15441703,4.96534 1.25841736,3.45234 C1.60941845,3.46234 1.96041955,3.47234 2.31142065,3.48334 C2.89642248,31.25134 3.5434245,59.01934 3.99642592,86.78934 Z" id="Fill-131" fill="#1A1919"></path>
                </g>
                <g id="Micronaut-App" transform="translate(700.000000, 0.000000)">
                    <text font-family="HanziPenTC-W5, HanziPen TC" font-size="35" font-weight="bold" line-spacing="30" fill="#4A4A4A">
                        <tspan x="24.6625" y="52.135">Micronaut </tspan>
                        <tspan x="68.99" y="82.135">App</tspan>
                    </text>
                    <path d="M3.99642592,86.78934 C4.06242613,90.76434 3.25042359,94.76134 2.74842202,98.73434 C2.3284207,102.06034 2.56242144,102.58334 5.84843171,102.30834 C12.2964519,101.76934 18.724472,101.00134 25.1574921,100.28834 C35.5015244,99.14134 45.8205567,97.68534 56.1905891,96.85934 C73.8766444,95.45034 91.5796998,94.05734 109.302755,93.34534 C127.263811,92.62534 145.257868,92.57234 163.238924,92.55434 C173.342955,92.54534 183.449987,93.18234 193.554019,93.56334 C195.468025,93.63534 197.378031,93.86934 199.915039,94.08134 C199.915039,92.44334 200.044039,90.94434 199.895039,89.47334 C197.399031,64.80334 196.356027,40.07634 196.929029,15.28534 C197.003029,12.04834 197.27003,8.81434 197.462031,5.58034 C197.548031,4.08834 196.983029,3.55534 195.399024,3.68834 C182.578984,4.77134 169.768944,6.34534 156.925904,6.68434 C134.090833,7.28834 111.232761,7.48834 88.3926898,7.18334 C69.1856298,6.92534 49.9825697,5.87534 30.7955097,4.84334 C21.8764818,4.36334 12.9964541,3.10634 4.10342625,2.15534 C3.44842421,2.08534 2.83142228,1.64334 2.19642029,1.37334 C2.21642035,1.09534 2.23542041,0.817340003 2.25542048,0.538340003 C3.46342425,0.350340003 4.67342804,-0.0126599968 5.8784318,0.000340003172 C20.9264789,0.180340003 35.9775259,0.238340003 51.018573,0.678340003 C68.8386287,1.20034 86.6446844,2.18734 104.46474,2.74134 C121.437793,3.26934 138.419846,3.72434 155.400899,3.78434 C168.046939,3.82834 180.695978,3.19034 193.343018,2.85334 C193.96002,2.83734 194.575022,2.78034 195.194024,2.76634 C197.909032,2.71134 198.759035,3.39234 199.032036,6.20934 C199.309037,9.04834 199.522037,11.90434 199.558037,14.75534 C199.757038,31.73834 199.825038,48.72134 200.089039,65.70234 C200.208039,73.41434 200.675041,81.12034 200.974042,88.83034 C201.005042,89.67734 200.989042,90.52934 200.942042,91.37734 C200.772041,94.41434 200.26704,94.80634 197.27403,95.28034 C174.63096,98.86134 151.788888,99.05434 128.952817,99.44834 C106.029745,99.84534 83.1016733,100.22534 60.1896016,101.00634 C46.7025595,101.46534 33.2425174,102.72734 19.7654752,103.55334 C14.9164601,103.85034 10.0554449,104.01834 5.19642967,104.07734 C1.26441738,104.12134 -0.0265866609,102.90134 0.000413423502,98.99234 C0.104413749,83.40234 0.320414424,67.81234 0.48841495,52.22134 C0.646415444,37.47834 0.786415881,22.73534 0.959416422,7.99334 C0.976416476,6.47834 1.15441703,4.96534 1.25841736,3.45234 C1.60941845,3.46234 1.96041955,3.47234 2.31142065,3.48334 C2.89642248,31.25134 3.5434245,59.01934 3.99642592,86.78934 Z" id="Fill-131" fill="#1A1919"></path>
                </g>
                <g id="Vertical-wavy-line-test" transform="translate(793.000000, 107.000000)" stroke="#000000" stroke-width="10">
                    <path d="M10,0 C10,30 0,45 0,75 C0,105 10,120 10,150 C10,180 0,195 0,225 C0,255 10,270 10,300" id="Shape"></path>
                </g>
                <g id="Vertical-wavy-line-test" transform="translate(96.000000, 107.000000)" stroke="#000000" stroke-width="10">
                    <path d="M10,0 C10,30 0,45 0,75 C0,105 10,120 10,150 C10,180 0,195 0,225 C0,255 10,270 10,300" id="Shape"></path>
                </g>
                <g id="Browser"></g>
            </g>
        </g>
    </g>
</svg>