<?xml version="1.0" encoding="UTF-8"?>
<svg width="901px" height="407px" viewBox="0 0 901 407" version="1.1" xmlns="http://www.w3.org/2000/svg" xmlns:xlink="http://www.w3.org/1999/xlink">
    <!-- Generator: Sketch 50.2 (55047) - http://www.bohemiancoding.com/sketch -->
    <title>secured_by_default</title>
    <desc>Created with Sketch.</desc>
    <defs></defs>
    <g id="Page-1" stroke="none" stroke-width="1" fill="none" fill-rule="evenodd">
        <g id="Micronaut---Secured-by-default" transform="translate(-137.000000, -159.000000)">
            <g id="secured_by_default" transform="translate(137.000000, 159.000000)">
                <g id="GET" transform="translate(122.000000, 177.000000)">
                    <g id="LEFT-Arrow" transform="translate(9.000000, 36.000000)">
                        <path d="M577.481745,23.1144804 C577.709204,23.9547523 578.043542,25.2945975 578.468315,26.6220858 C578.536827,26.8321537 578.978043,27.0492828 579.326083,27.1499036 C579.641238,27.241698 580.367463,27.2346369 580.392127,27.178148 C581.745921,23.9953536 583.9383,20.9043537 583.272365,17.4938385 C583.195632,17.1019471 582.214542,16.718882 581.537645,16.4540904 C580.608625,16.0869128 579.967354,16.3605307 579.383633,16.948368 C577.648914,18.6924616 578.251818,20.7084079 577.481745,23.1144804 M591.663694,24.9274199 C591.299211,25.8577208 591.074492,26.1313388 591.112859,26.3873039 C591.186852,26.9045301 591.156706,27.6035798 591.63903,27.8648408 C592.039139,28.0802045 593.414856,27.9601657 593.845111,27.6706603 C596.188215,26.1048596 598.407999,24.463152 600.583935,22.7984958 C601.263572,22.2777391 600.857982,21.8011144 600.041321,21.3668562 C596.264949,19.357971 593.527216,19.6986695 592.491317,22.3695335 C592.080246,23.4357608 591.792496,24.5214062 591.663694,24.9274199 M623.094182,29.4112234 C622.916051,29.1764415 622.836578,28.828682 622.546088,28.7210001 C620.731894,28.0378379 618.923182,27.3334924 616.993889,26.8162662 C616.462237,26.6732788 615.14681,27.0104467 614.850839,27.3582063 C612.992798,29.5648025 612.729712,32.0044153 612.806445,34.4599155 C612.814667,34.6699835 613.209295,34.9541931 613.532671,35.0583444 C613.883451,35.1677916 614.521982,35.227811 614.768624,35.1007111 C617.40496,33.7343867 620.044035,32.3610012 622.546088,30.8958213 C623.028411,30.613377 622.927013,29.9178579 623.094182,29.4112234 M601.934988,35.6320594 C601.934988,34.4334364 602.187111,33.4996048 600.737401,33.245405 C600.115314,33.1377231 599.076674,33.5507979 598.487473,33.9056186 C592.252896,37.6568321 587.396777,42.4160188 579.158914,44.7020525 C578.046282,45.0092107 577.717425,47.0410445 578.454613,47.7683386 C579.372671,48.6721604 580.666175,48.4532661 581.874723,48.1072718 C586.207412,46.8733432 590.501733,45.5829257 594.842643,44.3613541 C597.827018,43.5246128 599.726166,42.213012 600.293444,40.0752616 C600.72918,38.4406151 601.477329,36.8395089 601.934988,35.6320594 M254.157966,30.0926203 C247.498616,30.2250161 236.120171,30.4880423 224.741725,30.6716311 C202.848084,31.0246865 180.948962,31.2029795 159.063543,31.6937265 C128.866267,32.3715929 98.6826946,33.3018938 68.4909004,34.0644935 C47.9209079,34.5852502 27.3454344,35.0230389 6.77270145,35.4308179 C5.10923416,35.4625928 3.26215517,35.1501388 1.8014829,34.6435043 C0.875202933,34.3222239 0.0585418926,33.3530869 0.0037324268,32.6469761 C-0.0538175123,31.919682 0.560048504,30.8693422 1.43699996,30.4827465 C2.80175565,29.8807871 4.61594897,29.4730081 6.27667578,29.4112234 C22.8921653,28.8233862 39.5076549,28.2143656 56.1341063,27.8224741 C98.1483023,26.8321537 140.165239,25.8418333 182.193137,25.0704073 C210.644731,24.5478853 239.112767,24.3519396 267.575323,24.1030355 C287.284807,23.9282731 306.997031,23.8241218 326.709256,23.8417745 C367.443651,23.8788454 408.197229,23.6140538 448.915181,24.2371966 C482.170824,24.7455963 515.456613,25.4746557 548.61634,27.4888368 C553.406687,27.7783422 558.16963,28.2655586 562.954496,28.5974307 C566.010124,28.8110292 567.788691,27.7730464 567.890088,25.6388265 C568.084662,21.4074576 568.106586,17.1760887 568.265533,12.9447198 C568.30664,11.8272995 568.503954,10.7045833 568.797185,9.60305049 C569.106858,8.43443713 571.921324,7.11577523 573.771144,7.3329043 C575.89227,7.58180836 578.079168,7.84836518 580.035866,8.39913159 C589.257558,11.0011498 598.468289,13.6225862 607.574882,16.3852446 C619.446612,19.9899402 631.230647,23.7199704 643.022904,27.4376437 C644.97138,28.0519601 646.837643,28.8127945 648.599767,29.631883 C650.449587,30.4951034 650.518098,33.3266077 648.753234,34.2339601 C647.39944,34.9294792 645.979875,35.6267636 644.428767,36.1016231 C627.835201,41.199743 611.203269,46.2449046 594.598741,51.3236064 C590.646978,52.5310559 586.804835,53.8903191 582.811965,55.0306881 C580.433235,55.712085 577.887335,56.1798834 575.360618,56.6053151 C572.842123,57.025451 569.641251,55.8427155 569.257584,54.227487 C568.660161,51.734916 568.284716,49.2070393 568.117548,46.6862238 C567.912012,43.5934586 568.13125,40.4883364 567.933936,37.3938058 C567.857203,36.2216619 566.670578,35.2631165 564.697437,35.0954152 C556.889828,34.4334364 549.093182,33.5666854 541.247207,33.2559966 C521.143095,32.461622 501.003357,32.0591388 480.899245,31.2577031 C434.516734,29.4059276 388.079414,29.9107968 341.658537,29.7430955 C314.064712,29.6424747 286.470886,29.9478676 254.157966,30.0926203" id="Fill-61" fill="#000000"></path>
                        <rect id="Rectangle-3" fill="#FFFFFF" x="260" y="8" width="327" height="45"></rect>
                        <rect id="Rectangle-2" fill="#FFFFFF" x="569" y="0" width="86" height="57"></rect>
                        <path d="M605.831203,18.1144804 C605.969782,18.9547523 606.173478,20.2945975 606.432271,21.6220858 C606.474012,21.8321537 606.742824,22.0492828 606.954867,22.1499036 C607.146875,22.241698 607.589329,22.2346369 607.604355,22.178148 C608.429155,18.9953536 609.764864,15.9043537 609.359142,12.4938385 C609.312393,12.1019471 608.714663,11.718882 608.302263,11.4540904 C607.736257,11.0869128 607.345562,11.3605307 606.98993,11.948368 C605.93305,13.6924616 606.30037,15.7084079 605.831203,18.1144804 M614.471566,19.9274199 C614.249505,20.8577208 614.112595,21.1313388 614.135969,21.3873039 C614.18105,21.9045301 614.162684,22.6035798 614.456539,22.8648408 C614.700306,23.0802045 615.538463,22.9601657 615.800596,22.6706603 C617.228134,21.1048596 618.580539,19.463152 619.90623,17.7984958 C620.320299,17.2777391 620.073193,16.8011144 619.575642,16.3668562 C617.274884,14.357971 615.606918,14.6986695 614.975796,17.3695335 C614.725351,18.4357608 614.550039,19.5214062 614.471566,19.9274199 M633.620616,24.4112234 C633.512089,24.1764415 633.46367,23.828682 633.286688,23.7210001 C632.18139,23.0378379 631.07943,22.3334924 629.904007,21.8162662 C629.580098,21.6732788 628.778673,22.0104467 628.598352,22.3582063 C627.466339,24.5648025 627.306054,27.0044153 627.352804,29.4599155 C627.357813,29.6699835 627.59824,29.9541931 627.795257,30.0583444 C628.008971,30.1677916 628.397996,30.227811 628.548263,30.1007111 C630.154452,28.7343867 631.762311,27.3610012 633.286688,25.8958213 C633.580544,25.613377 633.518768,24.9178579 633.620616,24.4112234 M620.72936,30.6320594 C620.72936,29.4334364 620.882966,28.4996048 619.999729,28.245405 C619.620722,28.1377231 618.98793,28.5507979 618.628959,28.9056186 C614.830538,32.6568321 611.871944,37.4160188 606.853019,39.7020525 C606.175147,40.0092107 605.974791,42.0410445 606.423923,42.7683386 C606.983251,43.6721604 607.771319,43.4532661 608.507628,43.1072718 C611.147322,41.8733432 613.763641,40.5829257 616.408343,39.3613541 C618.226576,38.5246128 619.383634,37.213012 619.729248,35.0752616 C619.99472,33.4406151 620.450531,31.8395089 620.72936,30.6320594 M408.845938,25.0926203 C404.788724,25.2250161 397.856398,25.4880423 390.924071,25.6716311 C377.585353,26.0246865 364.243296,26.2029795 350.909587,26.6937265 C332.511874,27.3715929 314.122509,28.3018938 295.728134,29.0644935 C283.19585,29.5852502 270.660227,30.0230389 258.126274,30.4308179 C257.112805,30.4625928 255.987471,30.1501388 255.097555,29.6435043 C254.533218,29.3222239 254.035667,28.3530869 254.002274,27.6469761 C253.967212,26.919682 254.34121,25.8693422 254.875493,25.4827465 C255.706972,24.8807871 256.812271,24.4730081 257.82407,24.4112234 C267.94707,23.8233862 278.070069,23.2143656 288.199748,22.8224741 C313.79693,21.8321537 339.395781,20.8418333 365.001311,20.0704073 C382.335466,19.5478853 399.67964,19.3519396 417.020474,19.1030355 C429.028492,18.9282731 441.03818,18.8241218 453.047868,18.8417745 C477.86533,18.8788454 502.694479,18.6140538 527.501923,19.2371966 C547.76295,19.7455963 568.042343,20.4746557 588.244932,22.4888368 C591.163455,22.7783422 594.065281,23.2655586 596.980465,23.5974307 C598.842108,23.8110292 599.925702,22.7730464 599.987478,20.6388265 C600.106022,16.4074576 600.11938,12.1760887 600.216218,7.94471979 C600.241263,6.82729947 600.361477,5.70458332 600.540128,4.60305049 C600.728796,3.43443713 602.443512,2.11577523 603.570516,2.3329043 C604.862814,2.58180836 606.195183,2.84836518 607.387303,3.39913159 C613.005626,6.00114985 618.617271,8.62258615 624.16547,11.3852446 C631.398331,14.9899402 638.577763,18.7199704 645.762205,22.4376437 C646.949316,23.0519601 648.086337,23.8127945 649.159913,24.631883 C650.286917,25.4951034 650.328658,28.3266077 649.253413,29.2339601 C648.428613,29.9294792 647.563741,30.6267636 646.618728,31.1016231 C636.509085,36.199743 626.376067,41.2449046 616.259746,46.3236064 C613.852131,47.5310559 611.511302,48.8903191 609.078644,50.0306881 C607.6294,50.712085 606.078309,51.1798834 604.538905,51.6053151 C603.00451,52.025451 601.054375,50.8427155 600.820626,49.227487 C600.456646,46.734916 600.227906,44.2070393 600.126058,41.6862238 C600.000835,38.5934586 600.134406,35.4883364 600.014193,32.3938058 C599.967443,31.2216619 599.244491,30.2631165 598.042353,30.0954152 C593.285562,29.4334364 588.535449,28.5666854 583.755282,28.2559966 C571.506836,27.461622 559.236685,27.0591388 546.988239,26.2577031 C518.729659,24.4059276 490.437685,24.9107968 462.15573,24.7430955 C445.34417,24.6424747 428.53261,24.9478676 408.845938,25.0926203" id="Fill-61" fill="#000000"></path>
                    </g>
                    <path d="M47.4275,25.415 C47.4275,26.64 45.8175,27.305 42.6325,27.445 C42.8425,27.865 42.9825,28.39 42.9825,29.02 C42.9825,31.4 43.3325,33.43 44.0325,35.11 C44.3825,35.985 44.5925,36.475 44.5925,36.615 C44.5925,37.035 44.4525,37.42 44.1725,37.77 C43.9275,38.085 43.6475,38.26 43.2975,38.26 C42.2825,38.26 41.5825,37.315 41.1625,35.425 C39.4475,37.315 37.4875,38.295 35.2475,38.295 C32.7275,38.295 30.7325,37.35 29.1925,35.46 C27.7225,33.675 27.0225,31.47 27.0225,28.88 C27.0225,24.26 28.6325,19.99 31.8525,16.14 C35.0725,12.29 38.7475,10.365 42.8775,10.365 C43.8575,10.365 44.3825,10.89 44.3825,11.87 C44.3825,12.78 43.8575,13.305 42.8775,13.375 C39.3775,13.725 36.3325,15.405 33.7425,18.45 C31.1175,21.495 29.8225,24.855 29.8225,28.495 C29.8225,30.595 30.3475,32.275 31.4675,33.535 C32.5175,34.795 33.8475,35.425 35.4575,35.425 C36.5075,35.425 37.5225,34.97 38.5025,34.025 C39.5525,32.975 40.1125,31.645 40.1125,29.965 C40.1125,29.825 40.0775,29.545 40.0775,29.125 C40.0075,28.705 40.0075,28.425 40.0075,28.285 C40.0075,28.005 40.1125,27.725 40.3575,27.445 C38.3275,27.34 37.3125,26.78 37.3125,25.73 C37.3125,25.345 37.4525,24.995 37.7675,24.715 C38.0475,24.435 38.3975,24.26 38.8175,24.26 C39.9375,24.47 40.7775,24.575 41.3375,24.575 C41.9675,24.575 43.1225,24.435 44.8025,24.155 C45.5725,24.05 45.9575,23.98 46.0275,23.98 C46.9375,23.98 47.4275,24.47 47.4275,25.415 Z M65.7675,31.785 C65.7675,32.275 65.4875,32.94 64.9275,33.745 C63.3525,36.195 61.0075,37.385 57.9275,37.385 C55.4775,37.385 53.5175,36.58 52.1175,34.935 C50.6475,33.325 49.9475,31.225 49.9475,28.635 C49.9475,27.305 50.4025,25.415 51.3825,23 C52.2225,20.795 53.2025,18.905 54.2525,17.33 C53.0275,17.96 52.3275,18.24 52.1875,18.24 C51.2075,18.24 50.7525,17.75 50.7525,16.77 C50.7525,16.105 51.4875,15.405 52.9925,14.67 C56.5625,12.92 59.7825,12.045 62.6525,12.045 C63.5625,12.045 64.3675,12.255 65.0675,12.675 C65.5225,12.955 65.7675,13.41 65.7675,14.04 C65.7675,14.88 65.2775,15.3 64.3325,15.3 C64.1575,15.3 63.9125,15.265 63.5625,15.125 C63.2125,15.055 62.9325,14.985 62.7575,14.985 C61.1125,14.985 59.1175,15.37 56.7725,16.14 C57.0175,16.77 57.1575,17.19 57.1575,17.435 C57.1575,17.715 57.0175,18.1 56.7725,18.555 C55.5475,20.76 54.5325,22.79 53.7625,24.61 C56.5625,23.84 59.0125,23.245 61.1125,22.825 C62.7575,22.51 63.8425,22.335 64.3675,22.335 C65.2775,22.335 65.7675,22.825 65.7675,23.805 C65.7675,24.505 65.3475,25.135 64.5075,25.695 C63.6675,26.325 63.0725,26.605 62.7925,26.605 C62.1975,26.605 61.6725,26.36 61.2525,25.87 C57.5775,26.675 54.7425,27.375 52.7825,27.935 C52.7125,28.285 52.7125,28.635 52.7125,28.985 C52.7125,30.665 53.1675,31.995 54.1125,32.975 C55.0925,33.99 56.3525,34.48 57.9625,34.48 C59.1175,34.48 60.0625,34.235 60.8325,33.71 C61.4625,33.29 62.1275,32.555 62.8975,31.47 C63.3175,30.77 63.8425,30.42 64.4375,30.42 C64.7175,30.42 65.0325,30.595 65.3475,30.875 C65.6275,31.19 65.7675,31.505 65.7675,31.785 Z M90.0225,11.695 C90.0225,12.43 89.6725,12.92 89.0425,13.165 L85.9975,14.355 C85.5075,14.32 85.0875,14.18 84.8075,13.935 C84.1075,14.075 82.7775,14.425 80.8175,15.055 C80.3275,20.34 80.1175,24.855 80.1175,28.565 C80.1175,30.21 80.1525,31.785 80.2575,33.255 C80.5375,33.535 80.7125,33.955 80.7125,34.515 L80.7125,36.86 C80.7125,38.225 80.2225,38.925 79.2425,38.925 C78.3675,38.925 77.8775,38.47 77.8075,37.63 C77.4575,34.69 77.3175,31.12 77.3175,26.92 C77.3175,24.82 77.4925,21.075 77.9125,15.65 C73.8525,16.77 71.0525,17.4 69.4775,17.575 C68.6725,17.575 68.2875,17.12 68.2875,16.21 C68.2875,15.37 68.6725,14.88 69.4425,14.67 C77.2125,12.85 82.7775,11.555 86.1375,10.715 C87.3275,10.435 88.2725,10.26 88.9375,10.26 C89.2175,10.295 89.4975,10.47 89.7075,10.75 C89.9175,11.1 90.0225,11.415 90.0225,11.695 Z M128.1025,37.28 C128.0325,37.945 127.8225,38.295 127.4025,38.295 C125.9325,38.295 125.1625,36.65 125.0225,33.29 L124.8475,29.055 C121.6975,31.4 119.6675,33.395 118.7575,35.04 C118.5125,35.6 118.2675,36.16 117.9875,36.685 C117.5675,37.455 117.2525,37.84 116.9725,37.84 C116.4475,37.84 115.9925,37.63 115.6075,37.21 C115.2575,36.755 115.0825,36.265 115.0825,35.775 L115.0825,34.83 C115.0475,34.305 115.0475,33.92 115.0475,33.71 C115.0475,30.35 115.3275,27.06 115.9575,23.84 L117.9875,12.675 C118.1975,11.52 118.5825,10.925 119.1425,10.925 C119.5975,10.925 119.9825,11.17 120.2975,11.66 C120.6475,12.15 120.8225,12.64 120.8225,13.13 C120.8225,13.305 120.7175,13.865 120.5425,14.845 C120.3325,15.86 120.0175,17.365 119.6675,19.395 L118.6175,24.89 C118.4425,25.8 118.1625,27.865 117.7775,31.085 C118.5475,30.14 119.8775,28.915 121.8375,27.41 C123.8675,25.8 125.2325,24.995 125.8625,24.995 C126.3875,24.995 126.8075,25.24 127.1575,25.66 C127.5075,26.15 127.7175,26.675 127.7175,27.235 C127.7175,27.34 127.6475,27.83 127.5775,28.705 C127.5075,29.58 127.5075,30.14 127.5075,30.35 C127.5075,31.82 127.6125,33.36 127.8225,35.005 C127.8925,35.635 127.9975,36.37 128.1025,37.28 Z M143.6775,24.715 C143.6775,25.135 143.5375,25.52 143.2925,25.87 C143.0125,26.22 142.6975,26.395 142.3825,26.395 C141.8925,26.395 141.4375,26.255 141.0875,25.905 C140.8425,25.905 140.2475,25.905 139.2675,25.87 C138.2875,25.87 137.6575,25.835 137.3075,25.835 C136.6775,28.565 136.2925,30.245 136.1525,30.91 C135.7325,32.87 135.5225,34.655 135.4525,36.195 C135.8025,36.475 135.9775,36.86 135.9775,37.42 C135.9775,37.77 135.8025,38.085 135.4875,38.4 C135.1375,38.68 134.8225,38.82 134.4725,38.82 C133.3175,38.82 132.7575,37.84 132.7575,35.95 C132.7575,34.9 132.9675,33.22 133.4225,30.945 L134.4725,25.905 C133.3875,25.905 132.8625,25.415 132.8625,24.4 C132.8625,23.77 133.0725,23.35 133.4925,23.14 C133.7725,23 134.2975,22.895 135.1375,22.895 C136.0475,19.185 136.8175,16.315 137.4475,14.215 C137.6575,13.48 138.0775,13.095 138.7075,13.095 C139.6175,13.095 140.1075,13.62 140.2125,14.67 C140.0025,15.405 139.7225,16.245 139.4075,17.225 C138.9875,18.66 138.5325,20.515 138.0425,22.825 C138.2875,22.825 139.1625,22.86 140.6325,22.895 C142.6625,23 143.6775,23.595 143.6775,24.715 Z M157.4675,24.715 C157.4675,25.135 157.3275,25.52 157.0825,25.87 C156.8025,26.22 156.4875,26.395 156.1725,26.395 C155.6825,26.395 155.2275,26.255 154.8775,25.905 C154.6325,25.905 154.0375,25.905 153.0575,25.87 C152.0775,25.87 151.4475,25.835 151.0975,25.835 C150.4675,28.565 150.0825,30.245 149.9425,30.91 C149.5225,32.87 149.3125,34.655 149.2425,36.195 C149.5925,36.475 149.7675,36.86 149.7675,37.42 C149.7675,37.77 149.5925,38.085 149.2775,38.4 C148.9275,38.68 148.6125,38.82 148.2625,38.82 C147.1075,38.82 146.5475,37.84 146.5475,35.95 C146.5475,34.9 146.7575,33.22 147.2125,30.945 L148.2625,25.905 C147.1775,25.905 146.6525,25.415 146.6525,24.4 C146.6525,23.77 146.8625,23.35 147.2825,23.14 C147.5625,23 148.0875,22.895 148.9275,22.895 C149.8375,19.185 150.6075,16.315 151.2375,14.215 C151.4475,13.48 151.8675,13.095 152.4975,13.095 C153.4075,13.095 153.8975,13.62 154.0025,14.67 C153.7925,15.405 153.5125,16.245 153.1975,17.225 C152.7775,18.66 152.3225,20.515 151.8325,22.825 C152.0775,22.825 152.9525,22.86 154.4225,22.895 C156.4525,23 157.4675,23.595 157.4675,24.715 Z M171.9225,24.89 C171.9225,28.74 169.1225,31.68 163.5575,33.71 C163.6625,35.11 163.7325,36.545 163.7325,38.015 C163.7325,39.625 163.5575,41.27 163.2075,42.88 C162.8925,44.315 162.3675,45.05 161.6325,45.05 C161.2475,45.05 160.8975,44.875 160.6175,44.595 C160.3375,44.28 160.1975,43.93 160.1975,43.545 C160.1975,43.44 160.3025,42.915 160.5475,41.97 C160.7575,40.99 160.8975,39.415 160.8975,37.175 C160.8975,36.055 160.8625,35.215 160.7925,34.655 C159.8125,34.585 159.3575,34.095 159.3575,33.185 C159.3575,32.45 159.8125,31.925 160.7925,31.575 C160.7575,31.4 160.7575,31.12 160.7575,30.77 C160.7575,28.04 161.1775,25.59 162.0175,23.455 C163.2425,20.375 164.9575,18.835 167.1625,18.835 C168.7025,18.835 169.9275,19.465 170.7675,20.69 C171.5375,21.81 171.9225,23.21 171.9225,24.89 Z M169.1225,24.295 C169.1225,23.63 168.9475,23.035 168.6325,22.545 C168.2475,22.055 167.7575,21.775 167.1625,21.775 C166.1825,21.775 165.3075,22.825 164.5725,24.89 C163.9075,26.78 163.5925,28.705 163.5925,30.595 C167.2675,29.265 169.1225,27.165 169.1225,24.295 Z M180.2875,25.485 C180.2875,25.975 180.1475,26.395 179.8675,26.78 C179.5175,27.165 179.1325,27.41 178.7125,27.48 C177.8725,27.34 177.1725,26.85 176.6825,26.01 C176.5425,25.8 176.4725,25.59 176.4725,25.38 C176.4725,24.96 176.6475,24.505 177.0325,23.945 C177.3825,23.385 177.7675,23.105 178.1175,23.105 C178.6425,23.105 179.1325,23.385 179.6225,23.91 C180.0425,24.4 180.2875,24.925 180.2875,25.485 Z M180.1475,36.58 C180.1475,37.665 179.6575,38.225 178.7475,38.225 C178.5375,38.225 178.2575,38.12 177.9425,37.98 C177.0325,37.525 176.5775,36.965 176.5775,36.23 C176.5775,35.74 176.6825,35.215 176.9625,34.655 C177.2425,34.13 177.5575,33.78 177.9425,33.64 C178.1175,33.57 178.3625,33.535 178.6425,33.535 C179.6225,33.535 180.1475,34.55 180.1475,36.58 Z M202.1275,10.995 C202.1275,11.52 201.9525,12.01 201.6025,12.43 C198.9425,15.825 196.0025,20.865 192.8175,27.585 C191.5575,30.385 189.6325,34.585 187.0775,40.255 C186.7275,40.955 186.2375,41.305 185.6075,41.305 C184.6625,41.305 184.2075,40.745 184.2075,39.66 C184.2075,39.135 184.5225,38.4 185.1875,37.42 L189.9125,27.13 C192.7475,20.97 195.4775,16 198.1025,12.185 C198.8025,10.4 199.6775,9.49 200.7275,9.49 C201.6375,9.49 202.1275,10.015 202.1275,10.995 Z M222.1825,10.995 C222.1825,11.52 222.0075,12.01 221.6575,12.43 C218.9975,15.825 216.0575,20.865 212.8725,27.585 C211.6125,30.385 209.6875,34.585 207.1325,40.255 C206.7825,40.955 206.2925,41.305 205.6625,41.305 C204.7175,41.305 204.2625,40.745 204.2625,39.66 C204.2625,39.135 204.5775,38.4 205.2425,37.42 L209.9675,27.13 C212.8025,20.97 215.5325,16 218.1575,12.185 C218.8575,10.4 219.7325,9.49 220.7825,9.49 C221.6925,9.49 222.1825,10.015 222.1825,10.995 Z M249.1325,35.53 C249.1325,36.65 248.5025,37.175 247.2425,37.175 C245.7725,37.175 244.7575,34.76 244.1975,29.93 C242.7625,31.225 241.3275,32.975 239.8575,35.145 C239.1575,36.23 238.4925,36.755 237.8625,36.755 C237.2325,36.755 236.6725,36.335 236.2525,35.495 C235.4125,33.955 234.9225,31.715 234.7125,28.81 C231.5275,30.98 229.4625,33.64 228.5525,36.79 C228.2725,37.77 227.7475,38.26 227.0125,38.26 C225.9275,38.26 225.4025,37.28 225.4025,35.32 C225.4025,34.27 225.6475,32.52 226.2075,30 C226.7325,27.55 227.0125,25.975 227.0125,25.205 C227.0125,24.54 226.8375,23.84 226.4875,23.14 C226.5225,22.58 226.7675,22.125 227.1875,21.775 C227.5725,21.425 227.9925,21.25 228.4475,21.25 C229.4625,21.25 229.9875,22.37 229.9875,24.54 C229.9875,25.45 229.6375,27.375 228.9725,30.385 C233.1025,26.5 235.5875,24.54 236.4975,24.54 C237.0575,24.54 237.4425,24.785 237.6175,25.205 C237.7225,25.485 237.7925,26.115 237.7925,27.025 C237.7925,29.685 237.9675,31.575 238.3525,32.625 C241.6425,28.215 244.1625,25.975 245.9475,25.975 C246.7175,25.975 247.1025,26.395 247.1375,27.235 C247.2775,30.805 247.7675,33.255 248.6075,34.515 C248.9575,35.075 249.1325,35.425 249.1325,35.53 Z M258.7575,12.29 C258.7575,13.69 258.3725,14.39 257.6025,14.39 C257.4975,14.39 257.2875,14.355 257.0075,14.25 C255.9925,13.9 255.5025,12.99 255.5025,11.52 C255.5025,10.785 255.9925,10.26 256.9725,9.91 C258.1625,10.05 258.7575,10.82 258.7575,12.29 Z M257.1475,25.835 L256.5525,28.18 C255.8525,30.91 255.4675,33.29 255.3975,35.39 C255.8525,35.81 256.0975,36.335 256.0975,36.965 C256.0975,37.175 255.9575,37.35 255.7475,37.56 C255.5375,37.77 255.3275,37.875 255.1175,37.875 C253.5075,37.875 252.7375,36.44 252.7375,33.57 C252.7375,32.205 253.1925,29.545 254.1375,25.59 C254.0675,25.17 254.0325,24.89 254.0325,24.75 C254.0325,24.295 254.2775,23.91 254.8375,23.63 C256.3775,23.63 257.1475,24.365 257.1475,25.835 Z M272.4425,33.78 C272.4425,34.48 271.8825,35.215 270.7975,36.055 C269.4675,37.105 268.1025,37.63 266.7725,37.63 C265.3025,37.63 264.0775,37.14 263.0975,36.195 C262.1175,35.215 261.6275,33.99 261.6275,32.45 C261.6275,30.28 262.2925,28.285 263.6575,26.465 C265.3375,24.19 267.2975,23.035 269.5025,23.035 C270.0275,23.035 270.5175,23.21 270.9725,23.525 C271.3925,23.875 271.6025,24.295 271.6025,24.855 C271.6025,25.275 271.3925,25.66 271.0075,26.08 C270.5525,26.5 270.0975,26.675 269.6425,26.675 C268.7675,26.675 268.1375,26.57 267.7175,26.325 C266.7725,26.955 266.0025,27.83 265.3725,28.88 C264.7425,29.93 264.4275,31.015 264.4275,32.1 C264.4275,33.85 265.0925,34.69 266.4925,34.69 C267.3675,34.69 268.1025,34.48 268.6975,34.025 C269.0475,33.675 269.4675,33.325 269.8875,32.975 C270.3775,32.52 270.7975,32.275 271.0775,32.275 C271.4275,32.275 271.7425,32.45 272.0225,32.73 C272.3025,33.08 272.4425,33.43 272.4425,33.78 Z M288.6475,24.995 C288.6475,25.415 288.2975,25.835 287.5975,26.185 C286.8975,26.605 286.2675,26.78 285.7075,26.78 C285.6725,26.78 285.4625,26.71 285.0425,26.57 C282.2075,27.97 280.4575,30.805 279.8275,35.075 C279.6525,36.195 279.5125,36.93 279.4075,37.28 C279.1975,37.91 278.8475,38.225 278.4275,38.225 C278.0075,38.225 277.5875,37.98 277.2375,37.56 C276.8875,37.105 276.7475,36.615 276.7475,36.02 C276.7475,35.915 276.8175,35.46 277.0275,34.62 C277.2025,33.85 277.3075,33.01 277.3075,32.065 C277.3075,31.225 277.2025,30.105 277.0625,28.74 C276.4325,27.865 276.1175,26.64 276.1175,25.1 C276.1175,24.75 276.2225,24.4 276.4325,24.05 C276.6075,23.77 276.8525,23.595 277.1325,23.595 C277.7975,23.595 278.3225,23.98 278.7075,24.68 C278.9875,25.31 279.2325,26.36 279.4425,27.83 C281.5775,24.61 284.0275,23 286.7575,23 C287.2125,23 287.6325,23.21 288.0525,23.63 C288.4375,24.05 288.6475,24.505 288.6475,24.995 Z M301.1075,29.3 C301.1075,31.68 300.5125,33.64 299.3925,35.25 C298.2375,36.86 296.8025,37.63 295.1225,37.63 C293.6525,37.63 292.4275,37.035 291.4475,35.915 C290.4675,34.76 290.0125,33.29 290.0125,31.505 C290.0125,30 290.3275,28.565 291.0275,27.235 C291.7275,25.765 292.7075,24.715 293.8975,24.12 C294.1775,24.015 294.5625,23.805 295.0525,23.525 C295.4725,23.245 295.7875,23.07 296.0675,23.07 C296.1375,23.07 296.4175,23.14 296.9075,23.28 C298.1325,23.7 299.1475,24.47 299.9525,25.555 C300.7225,26.675 301.1075,27.935 301.1075,29.3 Z M298.3425,29.825 C298.3425,28.355 297.9925,27.375 297.3275,26.955 C296.7675,26.955 296.3125,26.85 295.9625,26.64 C294.9825,26.64 294.1775,27.235 293.5475,28.355 C292.9875,29.335 292.7425,30.385 292.7425,31.505 C292.7425,32.345 292.9525,33.08 293.4075,33.71 C293.8275,34.375 294.3875,34.69 295.0875,34.69 C295.9275,34.69 296.6625,34.165 297.3625,33.115 C297.9925,32.1 298.3425,31.015 298.3425,29.825 Z M317.8375,26.955 C317.8375,28.565 317.5575,31.855 316.9975,36.79 C316.9275,37.42 316.6475,37.77 316.1575,37.77 C315.6325,37.77 315.2125,37.56 314.8625,37.14 C314.5125,36.685 314.3375,36.195 314.3375,35.635 C314.3375,35.6 314.4075,34.935 314.5475,33.64 L315.0725,29.16 C312.1675,31.365 310.1375,33.43 308.9475,35.39 C308.7025,35.81 308.4925,36.265 308.2825,36.685 C307.9325,37.245 307.5825,37.56 307.2325,37.56 C305.7625,37.56 305.0625,35.495 305.0625,31.33 C305.0625,28.6 305.4475,25.835 306.2175,23 C306.3575,22.51 306.6025,22.23 307.0225,22.23 C307.5475,22.23 308.0025,22.44 308.3525,22.825 C308.7025,23.28 308.8775,23.77 308.8775,24.33 C308.7025,25.03 308.5275,25.8 308.3525,26.64 C308.0025,28.495 307.8275,30.28 307.8275,32.03 C310.3125,29.02 312.9725,26.71 315.8075,25.135 C316.2975,25.17 316.7525,25.345 317.1725,25.66 C317.5925,26.01 317.8375,26.43 317.8375,26.955 Z M334.1125,28.88 C334.1125,29.02 334.0425,29.265 333.9025,29.65 C333.4125,31.12 333.2025,32.52 333.2025,33.92 C333.2025,34.34 333.2725,34.97 333.4475,35.775 C333.5875,36.615 333.6925,37.035 333.6925,37.14 C333.6925,37.49 333.5175,37.84 333.2375,38.12 C332.9225,38.33 332.5725,38.47 332.2225,38.47 C331.2075,38.47 330.6125,37.105 330.4375,34.445 C328.4775,36.405 326.7275,37.385 325.1525,37.385 C324.1375,37.385 323.2625,36.965 322.5275,36.09 C321.7575,35.25 321.4075,34.305 321.4075,33.22 C321.4075,31.19 322.5975,29.02 325.0125,26.78 C327.3225,24.61 329.4225,23.49 331.3475,23.49 C331.8025,23.49 332.2575,23.7 332.7125,24.05 C333.1325,24.4 333.3775,24.82 333.3775,25.24 C333.3775,25.415 333.3425,25.59 333.3075,25.73 C333.5175,26.36 333.6575,27.06 333.6575,27.865 C333.9375,28.215 334.1125,28.565 334.1125,28.88 Z M330.9275,27.865 C330.9275,27.025 330.7175,26.57 330.2975,26.57 C329.6325,26.57 328.4775,27.375 326.8675,28.915 C325.0825,30.63 324.2075,32.03 324.2075,33.15 C324.2075,34.025 324.5575,34.445 325.2925,34.445 C326.3425,34.445 327.5675,33.675 328.8975,32.065 C330.2275,30.455 330.9275,29.055 330.9275,27.865 Z M352.4175,25.38 C352.4175,25.625 352.3125,25.975 352.1725,26.465 C351.8925,27.2 351.6125,28.565 351.2625,30.56 C350.9475,32.38 350.8075,33.535 350.8075,34.025 C350.8075,34.305 350.8425,34.655 350.9125,35.075 C350.9825,35.53 351.0175,35.81 351.0175,35.915 C351.0175,36.44 350.8775,36.895 350.5975,37.28 C350.3175,37.7 349.9325,37.91 349.4425,37.91 C349.0225,37.91 348.6375,37.77 348.3225,37.56 C347.9725,37.35 347.7975,37.035 347.7975,36.615 C347.7975,36.335 347.8675,36.09 348.0425,35.81 C348.0425,35.215 348.1825,33.78 348.4625,31.47 C345.0325,35.425 342.4075,37.385 340.5525,37.385 C339.7125,37.385 339.0475,37.175 338.5225,36.755 C337.9625,36.3 337.6825,35.67 337.6825,34.83 C337.6825,34.13 337.8925,32.73 338.3825,30.595 C338.8725,28.11 339.1525,26.605 339.1525,26.045 L339.1525,25.66 C339.1175,25.52 339.1175,25.38 339.1175,25.275 C339.1175,24.925 339.2575,24.575 339.5375,24.225 C339.7825,23.875 340.0625,23.7 340.4125,23.7 C341.3575,23.7 341.8475,24.47 341.8475,25.94 C341.8475,26.57 341.6375,27.935 341.2175,29.965 C340.7625,32.065 340.5525,33.36 340.5525,33.92 C340.5525,34.2 340.6925,34.34 340.9725,34.34 C342.6175,34.34 345.6275,31.12 350.0375,24.645 C350.3875,24.155 350.7375,23.91 351.1575,23.91 C351.9975,23.91 352.4175,24.4 352.4175,25.38 Z M367.2925,24.715 C367.2925,25.135 367.1525,25.52 366.9075,25.87 C366.6275,26.22 366.3125,26.395 365.9975,26.395 C365.5075,26.395 365.0525,26.255 364.7025,25.905 C364.4575,25.905 363.8625,25.905 362.8825,25.87 C361.9025,25.87 361.2725,25.835 360.9225,25.835 C360.2925,28.565 359.9075,30.245 359.7675,30.91 C359.3475,32.87 359.1375,34.655 359.0675,36.195 C359.4175,36.475 359.5925,36.86 359.5925,37.42 C359.5925,37.77 359.4175,38.085 359.1025,38.4 C358.7525,38.68 358.4375,38.82 358.0875,38.82 C356.9325,38.82 356.3725,37.84 356.3725,35.95 C356.3725,34.9 356.5825,33.22 357.0375,30.945 L358.0875,25.905 C357.0025,25.905 356.4775,25.415 356.4775,24.4 C356.4775,23.77 356.6875,23.35 357.1075,23.14 C357.3875,23 357.9125,22.895 358.7525,22.895 C359.6625,19.185 360.4325,16.315 361.0625,14.215 C361.2725,13.48 361.6925,13.095 362.3225,13.095 C363.2325,13.095 363.7225,13.62 363.8275,14.67 C363.6175,15.405 363.3375,16.245 363.0225,17.225 C362.6025,18.66 362.1475,20.515 361.6575,22.825 C361.9025,22.825 362.7775,22.86 364.2475,22.895 C366.2775,23 367.2925,23.595 367.2925,24.715 Z M374.3275,36.195 C374.3275,36.37 374.1525,36.965 373.8725,37.945 C373.5925,38.785 373.0675,39.24 372.2975,39.24 C371.7725,39.24 371.2825,38.89 370.8275,38.26 C370.3725,37.63 370.1625,37.105 370.1625,36.72 C370.1625,36.16 370.4075,35.53 370.9325,34.9 C371.4225,34.27 371.9475,33.955 372.5775,33.955 C373.7325,33.955 374.3275,34.725 374.3275,36.195 Z M392.9125,36.37 C392.9125,37.49 391.7225,38.085 389.3775,38.085 C386.7175,38.085 384.7575,36.895 383.4975,34.48 L382.4475,34.48 C381.5375,34.48 380.6625,34.305 379.7525,33.92 C378.5625,33.43 378.0025,32.8 378.0025,32.03 C378.0025,31.05 378.4575,30.56 379.3675,30.56 C379.5775,30.56 379.9275,30.735 380.4175,31.085 C380.9075,31.435 381.3625,31.61 381.8525,31.61 L382.6575,31.61 C382.5525,31.015 382.5175,30.525 382.5175,30.175 C382.5175,28.495 382.9375,26.92 383.7775,25.45 C384.7575,23.735 385.9825,22.86 387.4875,22.86 C388.3625,22.86 389.2025,23.28 390.0425,24.12 C390.8825,24.96 391.3025,25.905 391.3025,26.885 C391.3025,29.475 389.5525,31.715 386.0525,33.605 C386.8925,34.62 387.8025,35.11 388.8525,35.11 C389.1325,35.11 389.5875,35.075 390.1825,35.005 C390.7775,34.935 391.2325,34.865 391.5125,34.865 C391.8625,34.865 392.2125,35.04 392.4925,35.32 C392.7725,35.67 392.9125,36.02 392.9125,36.37 Z M388.5375,27.025 C388.5375,26.745 388.3975,26.5 388.1875,26.22 C387.9075,26.01 387.6275,25.87 387.3475,25.87 C386.7175,25.87 386.2275,26.395 385.8775,27.445 C385.5275,28.32 385.3875,29.23 385.3875,30.175 L385.3875,30.805 C387.4875,29.44 388.5375,28.18 388.5375,27.025 Z M409.5725,25.835 C409.5725,26.325 409.3275,26.78 408.8725,27.165 C407.8225,28.075 406.3525,29.3 404.4625,30.77 C405.1275,31.89 405.7225,32.905 406.2125,33.885 C406.8425,35.215 407.1925,36.02 407.1925,36.3 C407.1925,36.65 407.0175,37 406.7025,37.28 C406.3875,37.56 406.0725,37.7 405.7575,37.7 C405.0925,37.7 404.6025,37.385 404.3225,36.79 C403.6925,35.39 402.9575,34.025 402.1525,32.625 C400.2625,34.165 398.6875,35.565 397.4275,36.895 C397.0075,37.315 396.5875,37.525 396.2375,37.525 C395.2575,37.525 394.7675,37 394.7675,36.02 C394.7675,35.46 395.3275,34.62 396.4825,33.535 C397.3575,32.695 398.6875,31.54 400.5075,30.07 C400.2975,29.755 399.9825,29.37 399.6325,28.915 C399.3525,28.845 399.1425,28.705 398.9675,28.495 C398.6175,28.215 398.1975,27.655 397.6375,26.815 C396.9725,25.87 396.6575,25.24 396.6575,24.96 C396.6575,23.875 397.1825,23.315 398.3025,23.315 C398.7225,23.315 399.3875,23.84 400.2625,24.89 C401.1375,25.94 401.9775,27.06 402.8175,28.25 C403.7625,27.48 405.0925,26.465 406.8075,25.135 C407.4375,24.68 407.8225,24.435 408.0325,24.435 C408.4175,24.435 408.7675,24.575 409.0825,24.855 C409.3975,25.135 409.5725,25.45 409.5725,25.835 Z M425.1475,28.88 C425.1475,29.02 425.0775,29.265 424.9375,29.65 C424.4475,31.12 424.2375,32.52 424.2375,33.92 C424.2375,34.34 424.3075,34.97 424.4825,35.775 C424.6225,36.615 424.7275,37.035 424.7275,37.14 C424.7275,37.49 424.5525,37.84 424.2725,38.12 C423.9575,38.33 423.6075,38.47 423.2575,38.47 C422.2425,38.47 421.6475,37.105 421.4725,34.445 C419.5125,36.405 417.7625,37.385 416.1875,37.385 C415.1725,37.385 414.2975,36.965 413.5625,36.09 C412.7925,35.25 412.4425,34.305 412.4425,33.22 C412.4425,31.19 413.6325,29.02 416.0475,26.78 C418.3575,24.61 420.4575,23.49 422.3825,23.49 C422.8375,23.49 423.2925,23.7 423.7475,24.05 C424.1675,24.4 424.4125,24.82 424.4125,25.24 C424.4125,25.415 424.3775,25.59 424.3425,25.73 C424.5525,26.36 424.6925,27.06 424.6925,27.865 C424.9725,28.215 425.1475,28.565 425.1475,28.88 Z M421.9625,27.865 C421.9625,27.025 421.7525,26.57 421.3325,26.57 C420.6675,26.57 419.5125,27.375 417.9025,28.915 C416.1175,30.63 415.2425,32.03 415.2425,33.15 C415.2425,34.025 415.5925,34.445 416.3275,34.445 C417.3775,34.445 418.6025,33.675 419.9325,32.065 C421.2625,30.455 421.9625,29.055 421.9625,27.865 Z M452.7975,35.53 C452.7975,36.65 452.1675,37.175 450.9075,37.175 C449.4375,37.175 448.4225,34.76 447.8625,29.93 C446.4275,31.225 444.9925,32.975 443.5225,35.145 C442.8225,36.23 442.1575,36.755 441.5275,36.755 C440.8975,36.755 440.3375,36.335 439.9175,35.495 C439.0775,33.955 438.5875,31.715 438.3775,28.81 C435.1925,30.98 433.1275,33.64 432.2175,36.79 C431.9375,37.77 431.4125,38.26 430.6775,38.26 C429.5925,38.26 429.0675,37.28 429.0675,35.32 C429.0675,34.27 429.3125,32.52 429.8725,30 C430.3975,27.55 430.6775,25.975 430.6775,25.205 C430.6775,24.54 430.5025,23.84 430.1525,23.14 C430.1875,22.58 430.4325,22.125 430.8525,21.775 C431.2375,21.425 431.6575,21.25 432.1125,21.25 C433.1275,21.25 433.6525,22.37 433.6525,24.54 C433.6525,25.45 433.3025,27.375 432.6375,30.385 C436.7675,26.5 439.2525,24.54 440.1625,24.54 C440.7225,24.54 441.1075,24.785 441.2825,25.205 C441.3875,25.485 441.4575,26.115 441.4575,27.025 C441.4575,29.685 441.6325,31.575 442.0175,32.625 C445.3075,28.215 447.8275,25.975 449.6125,25.975 C450.3825,25.975 450.7675,26.395 450.8025,27.235 C450.9425,30.805 451.4325,33.255 452.2725,34.515 C452.6225,35.075 452.7975,35.425 452.7975,35.53 Z M468.3375,24.89 C468.3375,28.74 465.5375,31.68 459.9725,33.71 C460.0775,35.11 460.1475,36.545 460.1475,38.015 C460.1475,39.625 459.9725,41.27 459.6225,42.88 C459.3075,44.315 458.7825,45.05 458.0475,45.05 C457.6625,45.05 457.3125,44.875 457.0325,44.595 C456.7525,44.28 456.6125,43.93 456.6125,43.545 C456.6125,43.44 456.7175,42.915 456.9625,41.97 C457.1725,40.99 457.3125,39.415 457.3125,37.175 C457.3125,36.055 457.2775,35.215 457.2075,34.655 C456.2275,34.585 455.7725,34.095 455.7725,33.185 C455.7725,32.45 456.2275,31.925 457.2075,31.575 C457.1725,31.4 457.1725,31.12 457.1725,30.77 C457.1725,28.04 457.5925,25.59 458.4325,23.455 C459.6575,20.375 461.3725,18.835 463.5775,18.835 C465.1175,18.835 466.3425,19.465 467.1825,20.69 C467.9525,21.81 468.3375,23.21 468.3375,24.89 Z M465.5375,24.295 C465.5375,23.63 465.3625,23.035 465.0475,22.545 C464.6625,22.055 464.1725,21.775 463.5775,21.775 C462.5975,21.775 461.7225,22.825 460.9875,24.89 C460.3225,26.78 460.0075,28.705 460.0075,30.595 C463.6825,29.265 465.5375,27.165 465.5375,24.295 Z M478.6625,13.34 C478.6625,14.005 478.2775,14.495 477.5775,14.845 L477.3325,15.195 C476.2825,19.22 475.7575,23.245 475.7575,27.27 C475.7575,28.95 475.9325,31.96 476.2825,36.23 C476.2825,36.37 476.2825,36.58 476.3525,36.895 C476.3875,37.175 476.4225,37.385 476.4225,37.49 C476.4225,37.665 476.2825,37.84 476.0725,38.015 C475.8275,38.225 475.6175,38.33 475.4425,38.33 C474.7425,38.33 474.1475,37.805 473.6575,36.79 C473.1325,35.775 472.8875,34.69 472.8875,33.5 C472.8875,32.415 472.9925,31.645 473.2375,31.225 C473.0975,29.125 473.0275,27.48 473.0275,26.29 C473.0275,21.67 473.6925,17.19 475.0575,12.85 C475.4425,11.59 475.8625,10.925 476.3175,10.925 C476.7375,10.925 477.2275,11.24 477.7875,11.8 C478.3475,12.43 478.6625,12.92 478.6625,13.34 Z M495.0425,36.37 C495.0425,37.49 493.8525,38.085 491.5075,38.085 C488.8475,38.085 486.8875,36.895 485.6275,34.48 L484.5775,34.48 C483.6675,34.48 482.7925,34.305 481.8825,33.92 C480.6925,33.43 480.1325,32.8 480.1325,32.03 C480.1325,31.05 480.5875,30.56 481.4975,30.56 C481.7075,30.56 482.0575,30.735 482.5475,31.085 C483.0375,31.435 483.4925,31.61 483.9825,31.61 L484.7875,31.61 C484.6825,31.015 484.6475,30.525 484.6475,30.175 C484.6475,28.495 485.0675,26.92 485.9075,25.45 C486.8875,23.735 488.1125,22.86 489.6175,22.86 C490.4925,22.86 491.3325,23.28 492.1725,24.12 C493.0125,24.96 493.4325,25.905 493.4325,26.885 C493.4325,29.475 491.6825,31.715 488.1825,33.605 C489.0225,34.62 489.9325,35.11 490.9825,35.11 C491.2625,35.11 491.7175,35.075 492.3125,35.005 C492.9075,34.935 493.3625,34.865 493.6425,34.865 C493.9925,34.865 494.3425,35.04 494.6225,35.32 C494.9025,35.67 495.0425,36.02 495.0425,36.37 Z M490.6675,27.025 C490.6675,26.745 490.5275,26.5 490.3175,26.22 C490.0375,26.01 489.7575,25.87 489.4775,25.87 C488.8475,25.87 488.3575,26.395 488.0075,27.445 C487.6575,28.32 487.5175,29.23 487.5175,30.175 L487.5175,30.805 C489.6175,29.44 490.6675,28.18 490.6675,27.025 Z M514.8175,10.995 C514.8175,11.52 514.6425,12.01 514.2925,12.43 C511.6325,15.825 508.6925,20.865 505.5075,27.585 C504.2475,30.385 502.3225,34.585 499.7675,40.255 C499.4175,40.955 498.9275,41.305 498.2975,41.305 C497.3525,41.305 496.8975,40.745 496.8975,39.66 C496.8975,39.135 497.2125,38.4 497.8775,37.42 L502.6025,27.13 C505.4375,20.97 508.1675,16 510.7925,12.185 C511.4925,10.4 512.3675,9.49 513.4175,9.49 C514.3275,9.49 514.8175,10.015 514.8175,10.995 Z M532.1075,28.845 C532.1075,31.015 530.6025,33.185 527.6625,35.39 C524.8975,37.455 522.4475,38.505 520.3475,38.505 C519.0525,38.505 518.2825,37.945 518.0375,36.825 C518.1075,36.195 518.4225,35.74 518.9825,35.39 C518.8425,34.13 518.8075,32.765 518.8075,31.26 C518.8075,29.055 518.9475,26.395 519.2275,23.315 C519.6475,19.325 520.2075,16.07 520.9075,13.55 C521.3625,11.8 521.9225,10.925 522.6225,10.925 C523.6025,10.925 524.1275,11.555 524.1275,12.815 C524.1275,13.725 523.8825,15.125 523.3925,17.015 C523.2875,17.365 523.0075,17.68 522.5875,17.925 C522.1675,21.005 521.8525,24.68 521.5725,28.95 C523.8825,26.15 526.0875,24.715 528.1525,24.715 C529.2375,24.715 530.1825,25.135 530.9525,25.94 C531.7225,26.71 532.1075,27.69 532.1075,28.845 Z M529.3775,28.915 C529.3775,28.18 528.8875,27.795 527.9775,27.795 C527.4175,27.795 526.6125,28.25 525.5975,29.125 C524.5475,30 523.6375,30.945 522.9375,31.995 C522.1325,33.115 521.7475,33.92 521.7475,34.375 L521.7475,35.285 C522.6925,35.005 523.5325,34.655 524.2675,34.165 C527.6625,32.17 529.3775,30.42 529.3775,28.915 Z M546.4225,29.3 C546.4225,31.68 545.8275,33.64 544.7075,35.25 C543.5525,36.86 542.1175,37.63 540.4375,37.63 C538.9675,37.63 537.7425,37.035 536.7625,35.915 C535.7825,34.76 535.3275,33.29 535.3275,31.505 C535.3275,30 535.6425,28.565 536.3425,27.235 C537.0425,25.765 538.0225,24.715 539.2125,24.12 C539.4925,24.015 539.8775,23.805 540.3675,23.525 C540.7875,23.245 541.1025,23.07 541.3825,23.07 C541.4525,23.07 541.7325,23.14 542.2225,23.28 C543.4475,23.7 544.4625,24.47 545.2675,25.555 C546.0375,26.675 546.4225,27.935 546.4225,29.3 Z M543.6575,29.825 C543.6575,28.355 543.3075,27.375 542.6425,26.955 C542.0825,26.955 541.6275,26.85 541.2775,26.64 C540.2975,26.64 539.4925,27.235 538.8625,28.355 C538.3025,29.335 538.0575,30.385 538.0575,31.505 C538.0575,32.345 538.2675,33.08 538.7225,33.71 C539.1425,34.375 539.7025,34.69 540.4025,34.69 C541.2425,34.69 541.9775,34.165 542.6775,33.115 C543.3075,32.1 543.6575,31.015 543.6575,29.825 Z M561.1225,29.3 C561.1225,31.68 560.5275,33.64 559.4075,35.25 C558.2525,36.86 556.8175,37.63 555.1375,37.63 C553.6675,37.63 552.4425,37.035 551.4625,35.915 C550.4825,34.76 550.0275,33.29 550.0275,31.505 C550.0275,30 550.3425,28.565 551.0425,27.235 C551.7425,25.765 552.7225,24.715 553.9125,24.12 C554.1925,24.015 554.5775,23.805 555.0675,23.525 C555.4875,23.245 555.8025,23.07 556.0825,23.07 C556.1525,23.07 556.4325,23.14 556.9225,23.28 C558.1475,23.7 559.1625,24.47 559.9675,25.555 C560.7375,26.675 561.1225,27.935 561.1225,29.3 Z M558.3575,29.825 C558.3575,28.355 558.0075,27.375 557.3425,26.955 C556.7825,26.955 556.3275,26.85 555.9775,26.64 C554.9975,26.64 554.1925,27.235 553.5625,28.355 C553.0025,29.335 552.7575,30.385 552.7575,31.505 C552.7575,32.345 552.9675,33.08 553.4225,33.71 C553.8425,34.375 554.4025,34.69 555.1025,34.69 C555.9425,34.69 556.6775,34.165 557.3775,33.115 C558.0075,32.1 558.3575,31.015 558.3575,29.825 Z M579.0775,22.125 C579.0775,23.21 577.7125,24.33 574.9825,25.52 C573.0925,26.36 571.2725,26.955 569.4525,27.34 C570.5375,28.6 572.7075,30.77 575.9275,33.885 C577.0475,34.97 577.6075,35.67 577.6075,36.02 C577.6075,37.035 577.0475,37.56 575.9975,37.56 C575.6125,37.56 574.7725,36.93 573.5125,35.635 C572.3225,34.48 570.4675,32.52 567.8775,29.755 C567.8075,31.085 567.8075,32.17 567.8075,33.08 C567.8075,33.395 567.8075,33.85 567.8425,34.41 C567.8775,34.97 567.9125,35.355 567.9125,35.53 C567.9125,35.95 567.7375,36.3 567.4575,36.58 C567.1775,36.86 566.8625,37 566.4425,37 C565.2875,37 564.7275,35.985 564.7275,33.955 C564.7275,33.815 564.7625,33.57 564.9025,33.255 C565.0075,32.975 565.0775,32.8 565.0775,32.66 C565.0775,32.52 565.0425,32.1 565.0075,31.4 C564.9725,30.735 564.9725,30.315 564.9725,30.105 C564.9725,29.37 565.0775,27.55 565.3575,24.68 C565.6375,21.53 565.8825,19.045 566.1625,17.225 C566.2675,16.525 566.4425,15.65 566.6525,14.6 C566.7225,14.04 566.8275,13.2 567.0025,12.15 C567.1425,11.345 567.5975,10.925 568.3675,10.925 C569.2775,10.925 569.7675,11.38 569.7675,12.255 C569.7675,12.465 569.5925,13.62 569.2775,15.685 C568.7525,18.87 568.3675,21.845 568.1575,24.645 C571.9375,23.7 574.7725,22.545 576.5925,21.145 C576.9775,20.865 577.2575,20.69 577.4325,20.69 C578.5175,20.69 579.0775,21.18 579.0775,22.125 Z M591.7475,24.295 C591.7475,24.715 591.6075,25.03 591.3625,25.24 C591.0825,25.52 590.7675,25.625 590.4175,25.625 C590.2425,25.625 589.9275,25.625 589.5075,25.555 C589.0875,25.555 588.7725,25.52 588.5625,25.52 C587.6525,25.52 587.1975,25.87 587.1975,26.535 C587.1975,26.955 587.6175,28.25 588.4925,30.42 C589.3325,32.625 589.7875,34.27 589.7875,35.32 C589.7875,36.335 589.3675,37.14 588.5625,37.805 C587.6525,38.47 586.4275,38.82 584.8875,38.82 C582.3675,38.82 581.1425,38.295 581.1425,37.315 C581.1425,36.93 581.2475,36.545 581.5275,36.195 C581.7375,35.845 582.0175,35.635 582.3325,35.635 C582.4025,35.635 582.7875,35.705 583.4875,35.775 C584.1875,35.88 584.7825,35.915 585.2025,35.915 C586.3575,35.915 586.9525,35.53 586.9525,34.69 C586.9525,34.2 586.4975,32.87 585.6575,30.77 C584.8175,28.67 584.3975,27.095 584.3975,26.115 C584.3975,24.505 585.2025,23.385 586.8475,22.79 C587.1975,22.23 587.8625,21.915 588.9125,21.915 C590.5225,21.915 591.3975,22.44 591.5375,23.49 C591.6775,23.77 591.7475,24.05 591.7475,24.295 Z" id="GET-http://micronaut" fill="#4A4A4A"></path>
                </g>
                <g id="401" transform="translate(131.000000, 306.000000)">
                    <g id="LEFT-Arrow-Copy" transform="translate(327.500000, 55.500000) rotate(-180.000000) translate(-327.500000, -55.500000) translate(0.000000, 27.000000)">
                        <path d="M577.481745,23.1144804 C577.709204,23.9547523 578.043542,25.2945975 578.468315,26.6220858 C578.536827,26.8321537 578.978043,27.0492828 579.326083,27.1499036 C579.641238,27.241698 580.367463,27.2346369 580.392127,27.178148 C581.745921,23.9953536 583.9383,20.9043537 583.272365,17.4938385 C583.195632,17.1019471 582.214542,16.718882 581.537645,16.4540904 C580.608625,16.0869128 579.967354,16.3605307 579.383633,16.948368 C577.648914,18.6924616 578.251818,20.7084079 577.481745,23.1144804 M591.663694,24.9274199 C591.299211,25.8577208 591.074492,26.1313388 591.112859,26.3873039 C591.186852,26.9045301 591.156706,27.6035798 591.63903,27.8648408 C592.039139,28.0802045 593.414856,27.9601657 593.845111,27.6706603 C596.188215,26.1048596 598.407999,24.463152 600.583935,22.7984958 C601.263572,22.2777391 600.857982,21.8011144 600.041321,21.3668562 C596.264949,19.357971 593.527216,19.6986695 592.491317,22.3695335 C592.080246,23.4357608 591.792496,24.5214062 591.663694,24.9274199 M623.094182,29.4112234 C622.916051,29.1764415 622.836578,28.828682 622.546088,28.7210001 C620.731894,28.0378379 618.923182,27.3334924 616.993889,26.8162662 C616.462237,26.6732788 615.14681,27.0104467 614.850839,27.3582063 C612.992798,29.5648025 612.729712,32.0044153 612.806445,34.4599155 C612.814667,34.6699835 613.209295,34.9541931 613.532671,35.0583444 C613.883451,35.1677916 614.521982,35.227811 614.768624,35.1007111 C617.40496,33.7343867 620.044035,32.3610012 622.546088,30.8958213 C623.028411,30.613377 622.927013,29.9178579 623.094182,29.4112234 M601.934988,35.6320594 C601.934988,34.4334364 602.187111,33.4996048 600.737401,33.245405 C600.115314,33.1377231 599.076674,33.5507979 598.487473,33.9056186 C592.252896,37.6568321 587.396777,42.4160188 579.158914,44.7020525 C578.046282,45.0092107 577.717425,47.0410445 578.454613,47.7683386 C579.372671,48.6721604 580.666175,48.4532661 581.874723,48.1072718 C586.207412,46.8733432 590.501733,45.5829257 594.842643,44.3613541 C597.827018,43.5246128 599.726166,42.213012 600.293444,40.0752616 C600.72918,38.4406151 601.477329,36.8395089 601.934988,35.6320594 M254.157966,30.0926203 C247.498616,30.2250161 236.120171,30.4880423 224.741725,30.6716311 C202.848084,31.0246865 180.948962,31.2029795 159.063543,31.6937265 C128.866267,32.3715929 98.6826946,33.3018938 68.4909004,34.0644935 C47.9209079,34.5852502 27.3454344,35.0230389 6.77270145,35.4308179 C5.10923416,35.4625928 3.26215517,35.1501388 1.8014829,34.6435043 C0.875202933,34.3222239 0.0585418926,33.3530869 0.0037324268,32.6469761 C-0.0538175123,31.919682 0.560048504,30.8693422 1.43699996,30.4827465 C2.80175565,29.8807871 4.61594897,29.4730081 6.27667578,29.4112234 C22.8921653,28.8233862 39.5076549,28.2143656 56.1341063,27.8224741 C98.1483023,26.8321537 140.165239,25.8418333 182.193137,25.0704073 C210.644731,24.5478853 239.112767,24.3519396 267.575323,24.1030355 C287.284807,23.9282731 306.997031,23.8241218 326.709256,23.8417745 C367.443651,23.8788454 408.197229,23.6140538 448.915181,24.2371966 C482.170824,24.7455963 515.456613,25.4746557 548.61634,27.4888368 C553.406687,27.7783422 558.16963,28.2655586 562.954496,28.5974307 C566.010124,28.8110292 567.788691,27.7730464 567.890088,25.6388265 C568.084662,21.4074576 568.106586,17.1760887 568.265533,12.9447198 C568.30664,11.8272995 568.503954,10.7045833 568.797185,9.60305049 C569.106858,8.43443713 571.921324,7.11577523 573.771144,7.3329043 C575.89227,7.58180836 578.079168,7.84836518 580.035866,8.39913159 C589.257558,11.0011498 598.468289,13.6225862 607.574882,16.3852446 C619.446612,19.9899402 631.230647,23.7199704 643.022904,27.4376437 C644.97138,28.0519601 646.837643,28.8127945 648.599767,29.631883 C650.449587,30.4951034 650.518098,33.3266077 648.753234,34.2339601 C647.39944,34.9294792 645.979875,35.6267636 644.428767,36.1016231 C627.835201,41.199743 611.203269,46.2449046 594.598741,51.3236064 C590.646978,52.5310559 586.804835,53.8903191 582.811965,55.0306881 C580.433235,55.712085 577.887335,56.1798834 575.360618,56.6053151 C572.842123,57.025451 569.641251,55.8427155 569.257584,54.227487 C568.660161,51.734916 568.284716,49.2070393 568.117548,46.6862238 C567.912012,43.5934586 568.13125,40.4883364 567.933936,37.3938058 C567.857203,36.2216619 566.670578,35.2631165 564.697437,35.0954152 C556.889828,34.4334364 549.093182,33.5666854 541.247207,33.2559966 C521.143095,32.461622 501.003357,32.0591388 480.899245,31.2577031 C434.516734,29.4059276 388.079414,29.9107968 341.658537,29.7430955 C314.064712,29.6424747 286.470886,29.9478676 254.157966,30.0926203" id="Fill-61" fill="#000000"></path>
                        <rect id="Rectangle-3" fill="#FFFFFF" x="260" y="8" width="327" height="45"></rect>
                        <rect id="Rectangle-2" fill="#FFFFFF" x="569" y="0" width="86" height="57"></rect>
                        <path d="M605.831203,18.1144804 C605.969782,18.9547523 606.173478,20.2945975 606.432271,21.6220858 C606.474012,21.8321537 606.742824,22.0492828 606.954867,22.1499036 C607.146875,22.241698 607.589329,22.2346369 607.604355,22.178148 C608.429155,18.9953536 609.764864,15.9043537 609.359142,12.4938385 C609.312393,12.1019471 608.714663,11.718882 608.302263,11.4540904 C607.736257,11.0869128 607.345562,11.3605307 606.98993,11.948368 C605.93305,13.6924616 606.30037,15.7084079 605.831203,18.1144804 M614.471566,19.9274199 C614.249505,20.8577208 614.112595,21.1313388 614.135969,21.3873039 C614.18105,21.9045301 614.162684,22.6035798 614.456539,22.8648408 C614.700306,23.0802045 615.538463,22.9601657 615.800596,22.6706603 C617.228134,21.1048596 618.580539,19.463152 619.90623,17.7984958 C620.320299,17.2777391 620.073193,16.8011144 619.575642,16.3668562 C617.274884,14.357971 615.606918,14.6986695 614.975796,17.3695335 C614.725351,18.4357608 614.550039,19.5214062 614.471566,19.9274199 M633.620616,24.4112234 C633.512089,24.1764415 633.46367,23.828682 633.286688,23.7210001 C632.18139,23.0378379 631.07943,22.3334924 629.904007,21.8162662 C629.580098,21.6732788 628.778673,22.0104467 628.598352,22.3582063 C627.466339,24.5648025 627.306054,27.0044153 627.352804,29.4599155 C627.357813,29.6699835 627.59824,29.9541931 627.795257,30.0583444 C628.008971,30.1677916 628.397996,30.227811 628.548263,30.1007111 C630.154452,28.7343867 631.762311,27.3610012 633.286688,25.8958213 C633.580544,25.613377 633.518768,24.9178579 633.620616,24.4112234 M620.72936,30.6320594 C620.72936,29.4334364 620.882966,28.4996048 619.999729,28.245405 C619.620722,28.1377231 618.98793,28.5507979 618.628959,28.9056186 C614.830538,32.6568321 611.871944,37.4160188 606.853019,39.7020525 C606.175147,40.0092107 605.974791,42.0410445 606.423923,42.7683386 C606.983251,43.6721604 607.771319,43.4532661 608.507628,43.1072718 C611.147322,41.8733432 613.763641,40.5829257 616.408343,39.3613541 C618.226576,38.5246128 619.383634,37.213012 619.729248,35.0752616 C619.99472,33.4406151 620.450531,31.8395089 620.72936,30.6320594 M408.845938,25.0926203 C404.788724,25.2250161 397.856398,25.4880423 390.924071,25.6716311 C377.585353,26.0246865 364.243296,26.2029795 350.909587,26.6937265 C332.511874,27.3715929 314.122509,28.3018938 295.728134,29.0644935 C283.19585,29.5852502 270.660227,30.0230389 258.126274,30.4308179 C257.112805,30.4625928 255.987471,30.1501388 255.097555,29.6435043 C254.533218,29.3222239 254.035667,28.3530869 254.002274,27.6469761 C253.967212,26.919682 254.34121,25.8693422 254.875493,25.4827465 C255.706972,24.8807871 256.812271,24.4730081 257.82407,24.4112234 C267.94707,23.8233862 278.070069,23.2143656 288.199748,22.8224741 C313.79693,21.8321537 339.395781,20.8418333 365.001311,20.0704073 C382.335466,19.5478853 399.67964,19.3519396 417.020474,19.1030355 C429.028492,18.9282731 441.03818,18.8241218 453.047868,18.8417745 C477.86533,18.8788454 502.694479,18.6140538 527.501923,19.2371966 C547.76295,19.7455963 568.042343,20.4746557 588.244932,22.4888368 C591.163455,22.7783422 594.065281,23.2655586 596.980465,23.5974307 C598.842108,23.8110292 599.925702,22.7730464 599.987478,20.6388265 C600.106022,16.4074576 600.11938,12.1760887 600.216218,7.94471979 C600.241263,6.82729947 600.361477,5.70458332 600.540128,4.60305049 C600.728796,3.43443713 602.443512,2.11577523 603.570516,2.3329043 C604.862814,2.58180836 606.195183,2.84836518 607.387303,3.39913159 C613.005626,6.00114985 618.617271,8.62258615 624.16547,11.3852446 C631.398331,14.9899402 638.577763,18.7199704 645.762205,22.4376437 C646.949316,23.0519601 648.086337,23.8127945 649.159913,24.631883 C650.286917,25.4951034 650.328658,28.3266077 649.253413,29.2339601 C648.428613,29.9294792 647.563741,30.6267636 646.618728,31.1016231 C636.509085,36.199743 626.376067,41.2449046 616.259746,46.3236064 C613.852131,47.5310559 611.511302,48.8903191 609.078644,50.0306881 C607.6294,50.712085 606.078309,51.1798834 604.538905,51.6053151 C603.00451,52.025451 601.054375,50.8427155 600.820626,49.227487 C600.456646,46.734916 600.227906,44.2070393 600.126058,41.6862238 C600.000835,38.5934586 600.134406,35.4883364 600.014193,32.3938058 C599.967443,31.2216619 599.244491,30.2631165 598.042353,30.0954152 C593.285562,29.4334364 588.535449,28.5666854 583.755282,28.2559966 C571.506836,27.461622 559.236685,27.0591388 546.988239,26.2577031 C518.729659,24.4059276 490.437685,24.9107968 462.15573,24.7430955 C445.34417,24.6424747 428.53261,24.9478676 408.845938,25.0926203" id="Fill-61" fill="#000000"></path>
                    </g>
                    <path d="M210.1425,25.38 C210.1425,26.22 209.7575,26.78 209.0575,26.99 C208.7425,27.095 208.0425,27.13 206.9925,27.13 C205.9075,27.55 204.4375,28.005 202.5475,28.495 C202.4775,29.825 202.4425,30.805 202.4425,31.505 C202.4425,31.715 202.4425,32.03 202.4775,32.52 C202.5125,33.01 202.5475,33.325 202.5475,33.465 C202.8275,33.955 202.9675,34.41 202.9675,34.865 C202.9675,35.285 202.9675,35.985 203.0375,36.895 C203.1075,37.805 203.1775,38.26 203.1775,38.33 C203.0025,39.17 202.5825,39.625 201.9175,39.625 C201.2175,39.625 200.7625,39.205 200.4825,38.4 C199.9225,36.685 199.6775,34.48 199.6775,31.82 C199.6775,31.33 199.7125,30.42 199.7825,29.125 C198.3825,29.37 196.9825,29.475 195.6525,29.475 C194.1125,29.475 192.9225,29.125 192.0475,28.39 C191.0675,27.62 190.6125,26.535 190.6125,25.065 C190.6125,21.915 192.6775,18.205 196.8075,13.9 C198.0325,12.64 198.9075,12.01 199.4675,12.01 C199.8875,12.01 200.2375,12.15 200.5175,12.395 C200.7975,12.675 200.9725,13.025 200.9725,13.445 C200.9725,14.635 200.1325,15.545 198.5225,16.175 C196.8075,18.205 195.6525,19.64 195.0575,20.55 C193.9375,22.23 193.4125,23.77 193.4125,25.1 C193.4125,26.08 194.3925,26.535 196.3525,26.535 C197.2975,26.535 198.5575,26.395 200.0975,26.045 C200.6575,23.455 200.9725,21.985 201.0425,21.635 C201.4275,19.955 201.8475,18.52 202.3375,17.33 C202.5475,16.77 202.8975,16.49 203.3875,16.49 C204.2975,16.49 204.7875,16.945 204.7875,17.82 C204.7875,17.89 204.4375,19.115 203.7375,21.46 C203.5625,22.055 203.2825,23.385 202.8975,25.45 C203.6325,25.24 204.7175,24.89 206.1875,24.435 C207.2375,24.12 208.0775,23.945 208.7775,23.945 C209.1625,23.945 209.4775,24.085 209.7575,24.33 C210.0025,24.61 210.1425,24.96 210.1425,25.38 Z M229.4975,26.815 C229.4975,30.175 228.7275,32.905 227.1875,34.97 C225.6125,37.035 223.4775,38.085 220.7825,38.085 C218.1925,38.085 216.1975,37.105 214.8675,35.18 C213.6425,33.465 213.0475,31.085 213.0475,28.075 C213.0475,25.345 213.7125,22.965 215.0425,20.865 C216.3725,18.765 218.1225,17.295 220.3625,16.42 C220.4325,15.335 220.9925,14.775 222.0425,14.775 C224.2825,14.775 226.1025,16.175 227.5725,18.975 C228.8325,21.425 229.4975,24.015 229.4975,26.815 Z M226.8025,27.13 C226.8025,25.555 226.5575,23.98 226.0675,22.37 C225.5075,20.55 224.7725,19.15 223.7925,18.24 C223.4425,18.66 222.9875,18.835 222.4275,18.835 C220.7125,18.835 219.1725,19.815 217.8075,21.775 C216.4425,23.735 215.7775,25.8 215.7775,28.04 C215.7775,30.245 216.1975,31.995 217.0725,33.255 C217.9825,34.69 219.2775,35.39 221.0275,35.39 C222.4975,35.39 223.8275,34.585 225.0175,32.975 C226.2075,31.365 226.8025,29.405 226.8025,27.13 Z M246.8925,14.985 C246.8925,15.195 246.6475,15.755 246.2275,16.595 C244.6875,19.43 243.7775,24.19 243.4625,30.91 C243.9875,31.33 244.2675,31.855 244.2675,32.485 C244.2675,34.27 244.1625,35.495 243.9525,36.125 C243.7075,36.825 243.3575,37.14 242.8675,37.14 C241.6425,37.14 240.9775,36.65 240.8725,35.635 C240.8025,35.005 240.7675,33.85 240.7675,32.17 C240.7675,26.99 241.3975,22.265 242.6575,17.96 C242.1325,18.1 240.6625,18.73 238.2475,19.92 C237.1275,20.48 236.4625,20.76 236.3225,20.76 C235.4475,20.76 235.0275,20.305 235.0275,19.36 C235.0275,18.66 235.4825,18.1 236.4625,17.61 C237.4075,17.155 238.8775,16.455 240.8725,15.545 C241.3275,15.405 241.9925,15.125 242.8675,14.74 C244.3025,14.04 245.1775,13.655 245.4575,13.655 C245.8075,13.655 246.1225,13.795 246.4375,14.075 C246.7175,14.355 246.8925,14.67 246.8925,14.985 Z M283.5725,18.625 C283.5725,19.08 283.5025,19.605 283.4325,20.2 C283.4325,20.27 283.4325,21.005 283.4675,22.335 L283.4675,25.03 C283.4675,27.76 282.6275,30.49 280.9475,33.185 C279.0225,36.3 276.7475,37.84 274.1575,37.84 C271.4625,37.84 269.4325,36.615 268.0675,34.095 C266.9475,32.065 266.3875,29.44 266.3875,26.29 C266.3875,25.345 266.4575,23.91 266.5975,22.02 C266.7025,20.095 266.7725,18.66 266.7725,17.68 C266.7725,17.47 266.7375,17.085 266.7375,16.56 C266.6675,16.07 266.6675,15.72 266.6675,15.475 C266.6675,15.16 266.8075,14.88 267.1225,14.6 C267.3675,14.39 267.6475,14.25 267.9975,14.25 C269.1175,14.25 269.6775,15.195 269.6775,17.015 C269.6775,17.785 269.5725,19.5 269.4325,22.16 C269.2225,24.82 269.1175,26.43 269.1175,26.99 C269.1175,29.51 269.6425,31.505 270.7275,33.045 C271.6375,34.41 272.7575,35.075 274.0175,35.075 C276.1175,35.075 277.8325,33.71 279.1625,30.945 C280.2825,28.565 280.8775,25.94 280.8775,23.035 C280.8775,21.11 280.6325,18.66 280.1425,15.72 C280.0025,14.845 279.7925,13.69 279.5475,12.29 C279.6525,11.38 280.1425,10.89 281.0525,10.89 C281.6125,10.89 281.9975,11.205 282.2425,11.8 C283.1175,13.97 283.5725,16.245 283.5725,18.625 Z M300.3025,26.955 C300.3025,28.565 300.0225,31.855 299.4625,36.79 C299.3925,37.42 299.1125,37.77 298.6225,37.77 C298.0975,37.77 297.6775,37.56 297.3275,37.14 C296.9775,36.685 296.8025,36.195 296.8025,35.635 C296.8025,35.6 296.8725,34.935 297.0125,33.64 L297.5375,29.16 C294.6325,31.365 292.6025,33.43 291.4125,35.39 C291.1675,35.81 290.9575,36.265 290.7475,36.685 C290.3975,37.245 290.0475,37.56 289.6975,37.56 C288.2275,37.56 287.5275,35.495 287.5275,31.33 C287.5275,28.6 287.9125,25.835 288.6825,23 C288.8225,22.51 289.0675,22.23 289.4875,22.23 C290.0125,22.23 290.4675,22.44 290.8175,22.825 C291.1675,23.28 291.3425,23.77 291.3425,24.33 C291.1675,25.03 290.9925,25.8 290.8175,26.64 C290.4675,28.495 290.2925,30.28 290.2925,32.03 C292.7775,29.02 295.4375,26.71 298.2725,25.135 C298.7625,25.17 299.2175,25.345 299.6375,25.66 C300.0575,26.01 300.3025,26.43 300.3025,26.955 Z M316.5775,28.88 C316.5775,29.02 316.5075,29.265 316.3675,29.65 C315.8775,31.12 315.6675,32.52 315.6675,33.92 C315.6675,34.34 315.7375,34.97 315.9125,35.775 C316.0525,36.615 316.1575,37.035 316.1575,37.14 C316.1575,37.49 315.9825,37.84 315.7025,38.12 C315.3875,38.33 315.0375,38.47 314.6875,38.47 C313.6725,38.47 313.0775,37.105 312.9025,34.445 C310.9425,36.405 309.1925,37.385 307.6175,37.385 C306.6025,37.385 305.7275,36.965 304.9925,36.09 C304.2225,35.25 303.8725,34.305 303.8725,33.22 C303.8725,31.19 305.0625,29.02 307.4775,26.78 C309.7875,24.61 311.8875,23.49 313.8125,23.49 C314.2675,23.49 314.7225,23.7 315.1775,24.05 C315.5975,24.4 315.8425,24.82 315.8425,25.24 C315.8425,25.415 315.8075,25.59 315.7725,25.73 C315.9825,26.36 316.1225,27.06 316.1225,27.865 C316.4025,28.215 316.5775,28.565 316.5775,28.88 Z M313.3925,27.865 C313.3925,27.025 313.1825,26.57 312.7625,26.57 C312.0975,26.57 310.9425,27.375 309.3325,28.915 C307.5475,30.63 306.6725,32.03 306.6725,33.15 C306.6725,34.025 307.0225,34.445 307.7575,34.445 C308.8075,34.445 310.0325,33.675 311.3625,32.065 C312.6925,30.455 313.3925,29.055 313.3925,27.865 Z M334.8825,25.38 C334.8825,25.625 334.7775,25.975 334.6375,26.465 C334.3575,27.2 334.0775,28.565 333.7275,30.56 C333.4125,32.38 333.2725,33.535 333.2725,34.025 C333.2725,34.305 333.3075,34.655 333.3775,35.075 C333.4475,35.53 333.4825,35.81 333.4825,35.915 C333.4825,36.44 333.3425,36.895 333.0625,37.28 C332.7825,37.7 332.3975,37.91 331.9075,37.91 C331.4875,37.91 331.1025,37.77 330.7875,37.56 C330.4375,37.35 330.2625,37.035 330.2625,36.615 C330.2625,36.335 330.3325,36.09 330.5075,35.81 C330.5075,35.215 330.6475,33.78 330.9275,31.47 C327.4975,35.425 324.8725,37.385 323.0175,37.385 C322.1775,37.385 321.5125,37.175 320.9875,36.755 C320.4275,36.3 320.1475,35.67 320.1475,34.83 C320.1475,34.13 320.3575,32.73 320.8475,30.595 C321.3375,28.11 321.6175,26.605 321.6175,26.045 L321.6175,25.66 C321.5825,25.52 321.5825,25.38 321.5825,25.275 C321.5825,24.925 321.7225,24.575 322.0025,24.225 C322.2475,23.875 322.5275,23.7 322.8775,23.7 C323.8225,23.7 324.3125,24.47 324.3125,25.94 C324.3125,26.57 324.1025,27.935 323.6825,29.965 C323.2275,32.065 323.0175,33.36 323.0175,33.92 C323.0175,34.2 323.1575,34.34 323.4375,34.34 C325.0825,34.34 328.0925,31.12 332.5025,24.645 C332.8525,24.155 333.2025,23.91 333.6225,23.91 C334.4625,23.91 334.8825,24.4 334.8825,25.38 Z M349.7575,24.715 C349.7575,25.135 349.6175,25.52 349.3725,25.87 C349.0925,26.22 348.7775,26.395 348.4625,26.395 C347.9725,26.395 347.5175,26.255 347.1675,25.905 C346.9225,25.905 346.3275,25.905 345.3475,25.87 C344.3675,25.87 343.7375,25.835 343.3875,25.835 C342.7575,28.565 342.3725,30.245 342.2325,30.91 C341.8125,32.87 341.6025,34.655 341.5325,36.195 C341.8825,36.475 342.0575,36.86 342.0575,37.42 C342.0575,37.77 341.8825,38.085 341.5675,38.4 C341.2175,38.68 340.9025,38.82 340.5525,38.82 C339.3975,38.82 338.8375,37.84 338.8375,35.95 C338.8375,34.9 339.0475,33.22 339.5025,30.945 L340.5525,25.905 C339.4675,25.905 338.9425,25.415 338.9425,24.4 C338.9425,23.77 339.1525,23.35 339.5725,23.14 C339.8525,23 340.3775,22.895 341.2175,22.895 C342.1275,19.185 342.8975,16.315 343.5275,14.215 C343.7375,13.48 344.1575,13.095 344.7875,13.095 C345.6975,13.095 346.1875,13.62 346.2925,14.67 C346.0825,15.405 345.8025,16.245 345.4875,17.225 C345.0675,18.66 344.6125,20.515 344.1225,22.825 C344.3675,22.825 345.2425,22.86 346.7125,22.895 C348.7425,23 349.7575,23.595 349.7575,24.715 Z M364.5975,37.28 C364.5275,37.945 364.3175,38.295 363.8975,38.295 C362.4275,38.295 361.6575,36.65 361.5175,33.29 L361.3425,29.055 C358.1925,31.4 356.1625,33.395 355.2525,35.04 C355.0075,35.6 354.7625,36.16 354.4825,36.685 C354.0625,37.455 353.7475,37.84 353.4675,37.84 C352.9425,37.84 352.4875,37.63 352.1025,37.21 C351.7525,36.755 351.5775,36.265 351.5775,35.775 L351.5775,34.83 C351.5425,34.305 351.5425,33.92 351.5425,33.71 C351.5425,30.35 351.8225,27.06 352.4525,23.84 L354.4825,12.675 C354.6925,11.52 355.0775,10.925 355.6375,10.925 C356.0925,10.925 356.4775,11.17 356.7925,11.66 C357.1425,12.15 357.3175,12.64 357.3175,13.13 C357.3175,13.305 357.2125,13.865 357.0375,14.845 C356.8275,15.86 356.5125,17.365 356.1625,19.395 L355.1125,24.89 C354.9375,25.8 354.6575,27.865 354.2725,31.085 C355.0425,30.14 356.3725,28.915 358.3325,27.41 C360.3625,25.8 361.7275,24.995 362.3575,24.995 C362.8825,24.995 363.3025,25.24 363.6525,25.66 C364.0025,26.15 364.2125,26.675 364.2125,27.235 C364.2125,27.34 364.1425,27.83 364.0725,28.705 C364.0025,29.58 364.0025,30.14 364.0025,30.35 C364.0025,31.82 364.1075,33.36 364.3175,35.005 C364.3875,35.635 364.4925,36.37 364.5975,37.28 Z M379.2625,29.3 C379.2625,31.68 378.6675,33.64 377.5475,35.25 C376.3925,36.86 374.9575,37.63 373.2775,37.63 C371.8075,37.63 370.5825,37.035 369.6025,35.915 C368.6225,34.76 368.1675,33.29 368.1675,31.505 C368.1675,30 368.4825,28.565 369.1825,27.235 C369.8825,25.765 370.8625,24.715 372.0525,24.12 C372.3325,24.015 372.7175,23.805 373.2075,23.525 C373.6275,23.245 373.9425,23.07 374.2225,23.07 C374.2925,23.07 374.5725,23.14 375.0625,23.28 C376.2875,23.7 377.3025,24.47 378.1075,25.555 C378.8775,26.675 379.2625,27.935 379.2625,29.3 Z M376.4975,29.825 C376.4975,28.355 376.1475,27.375 375.4825,26.955 C374.9225,26.955 374.4675,26.85 374.1175,26.64 C373.1375,26.64 372.3325,27.235 371.7025,28.355 C371.1425,29.335 370.8975,30.385 370.8975,31.505 C370.8975,32.345 371.1075,33.08 371.5625,33.71 C371.9825,34.375 372.5425,34.69 373.2425,34.69 C374.0825,34.69 374.8175,34.165 375.5175,33.115 C376.1475,32.1 376.4975,31.015 376.4975,29.825 Z M395.8525,24.995 C395.8525,25.415 395.5025,25.835 394.8025,26.185 C394.1025,26.605 393.4725,26.78 392.9125,26.78 C392.8775,26.78 392.6675,26.71 392.2475,26.57 C389.4125,27.97 387.6625,30.805 387.0325,35.075 C386.8575,36.195 386.7175,36.93 386.6125,37.28 C386.4025,37.91 386.0525,38.225 385.6325,38.225 C385.2125,38.225 384.7925,37.98 384.4425,37.56 C384.0925,37.105 383.9525,36.615 383.9525,36.02 C383.9525,35.915 384.0225,35.46 384.2325,34.62 C384.4075,33.85 384.5125,33.01 384.5125,32.065 C384.5125,31.225 384.4075,30.105 384.2675,28.74 C383.6375,27.865 383.3225,26.64 383.3225,25.1 C383.3225,24.75 383.4275,24.4 383.6375,24.05 C383.8125,23.77 384.0575,23.595 384.3375,23.595 C385.0025,23.595 385.5275,23.98 385.9125,24.68 C386.1925,25.31 386.4375,26.36 386.6475,27.83 C388.7825,24.61 391.2325,23 393.9625,23 C394.4175,23 394.8375,23.21 395.2575,23.63 C395.6425,24.05 395.8525,24.505 395.8525,24.995 Z M403.9725,12.29 C403.9725,13.69 403.5875,14.39 402.8175,14.39 C402.7125,14.39 402.5025,14.355 402.2225,14.25 C401.2075,13.9 400.7175,12.99 400.7175,11.52 C400.7175,10.785 401.2075,10.26 402.1875,9.91 C403.3775,10.05 403.9725,10.82 403.9725,12.29 Z M402.3625,25.835 L401.7675,28.18 C401.0675,30.91 400.6825,33.29 400.6125,35.39 C401.0675,35.81 401.3125,36.335 401.3125,36.965 C401.3125,37.175 401.1725,37.35 400.9625,37.56 C400.7525,37.77 400.5425,37.875 400.3325,37.875 C398.7225,37.875 397.9525,36.44 397.9525,33.57 C397.9525,32.205 398.4075,29.545 399.3525,25.59 C399.2825,25.17 399.2475,24.89 399.2475,24.75 C399.2475,24.295 399.4925,23.91 400.0525,23.63 C401.5925,23.63 402.3625,24.365 402.3625,25.835 Z M422.6625,34.375 C422.6625,35.075 422.1725,35.6 421.1925,35.985 C420.2125,36.405 418.9175,36.755 417.3075,37.07 C415.6975,37.385 414.3675,37.56 413.3525,37.56 C412.0925,37.56 411.0425,37.315 410.1675,36.895 C409.0825,36.335 408.5575,35.565 408.5575,34.515 C408.5575,33.185 409.5025,31.645 411.3925,29.825 C411.9875,29.265 413.4925,28.04 415.8725,26.15 C415.1025,26.08 414.4375,26.01 413.9125,26.01 C412.6875,26.01 410.8325,26.255 408.3125,26.675 C407.6125,26.815 407.1575,26.885 407.0175,26.885 C406.1775,26.885 405.7575,26.43 405.7575,25.485 C405.7575,24.925 405.9325,24.54 406.2825,24.26 C406.4925,24.12 406.9125,23.98 407.6125,23.805 C409.8525,23.315 411.8825,23.07 413.7725,23.07 C415.5225,23.07 416.9575,23.28 418.0775,23.665 C419.1975,24.085 419.7575,24.715 419.7575,25.485 C419.7575,26.115 419.1975,26.92 418.0775,27.865 C416.8525,28.845 415.6275,29.79 414.3675,30.77 C412.3725,32.38 411.3925,33.43 411.3925,33.955 C411.3925,34.445 411.9175,34.655 412.9675,34.655 C413.8425,34.655 415.0325,34.55 416.5375,34.34 C418.2175,34.095 419.3375,33.815 419.9325,33.465 C420.6325,33.115 421.0525,32.905 421.2275,32.905 C422.1725,32.905 422.6625,33.395 422.6625,34.375 Z M439.0775,36.37 C439.0775,37.49 437.8875,38.085 435.5425,38.085 C432.8825,38.085 430.9225,36.895 429.6625,34.48 L428.6125,34.48 C427.7025,34.48 426.8275,34.305 425.9175,33.92 C424.7275,33.43 424.1675,32.8 424.1675,32.03 C424.1675,31.05 424.6225,30.56 425.5325,30.56 C425.7425,30.56 426.0925,30.735 426.5825,31.085 C427.0725,31.435 427.5275,31.61 428.0175,31.61 L428.8225,31.61 C428.7175,31.015 428.6825,30.525 428.6825,30.175 C428.6825,28.495 429.1025,26.92 429.9425,25.45 C430.9225,23.735 432.1475,22.86 433.6525,22.86 C434.5275,22.86 435.3675,23.28 436.2075,24.12 C437.0475,24.96 437.4675,25.905 437.4675,26.885 C437.4675,29.475 435.7175,31.715 432.2175,33.605 C433.0575,34.62 433.9675,35.11 435.0175,35.11 C435.2975,35.11 435.7525,35.075 436.3475,35.005 C436.9425,34.935 437.3975,34.865 437.6775,34.865 C438.0275,34.865 438.3775,35.04 438.6575,35.32 C438.9375,35.67 439.0775,36.02 439.0775,36.37 Z M434.7025,27.025 C434.7025,26.745 434.5625,26.5 434.3525,26.22 C434.0725,26.01 433.7925,25.87 433.5125,25.87 C432.8825,25.87 432.3925,26.395 432.0425,27.445 C431.6925,28.32 431.5525,29.23 431.5525,30.175 L431.5525,30.805 C433.6525,29.44 434.7025,28.18 434.7025,27.025 Z M454.6175,12.29 C454.6175,12.535 454.5125,13.27 454.3025,14.53 C453.9525,16.49 453.7425,17.995 453.7425,19.01 C453.7075,19.57 453.6725,19.99 453.6725,20.2 C453.5675,20.62 453.3925,20.97 453.1125,21.215 C452.9025,24.505 452.8325,27.13 452.8325,29.055 C452.8325,32.695 453.0425,35.705 453.4625,38.12 C453.6025,39.1 453.7075,39.66 453.7075,39.8 C453.7075,40.15 453.5675,40.465 453.2875,40.745 C452.9725,41.025 452.6575,41.165 452.3425,41.165 C451.6425,41.165 451.2225,40.675 451.0825,39.765 C450.9425,38.995 450.6975,37.07 450.3475,33.99 C449.8575,35.005 449.1225,35.95 448.0725,36.79 C446.9525,37.7 445.9025,38.155 444.9925,38.155 C443.7675,38.155 442.8225,37.77 442.1575,37 C441.4925,36.265 441.1775,35.25 441.1775,33.955 C441.1775,32.24 442.0175,30.21 443.6975,27.9 C445.3425,25.625 446.8825,24.47 448.3525,24.47 C448.8775,24.47 449.5075,24.82 450.2425,25.45 C450.6625,19.57 451.2575,15.055 452.0275,11.975 C452.1675,11.275 452.6225,10.925 453.3575,10.925 C454.1975,10.925 454.6175,11.38 454.6175,12.29 Z M449.4375,29.44 C449.0175,29.16 448.7025,28.53 448.4575,27.55 C448.3175,27.55 448.2125,27.515 448.2125,27.515 C447.6525,27.515 446.6025,28.565 445.0975,30.595 C444.1875,31.82 443.7675,32.905 443.7675,33.85 C443.7675,34.725 444.0825,35.145 444.7125,35.145 C445.4125,35.145 446.1825,34.76 446.9875,33.92 C447.6175,33.255 448.1775,32.485 448.5975,31.61 C448.8075,31.12 449.0875,30.385 449.4375,29.44 Z" id="401-Unauthorized" fill="#4A4A4A"></path>
                </g>
                <g id="Browser">
                    <path d="M54.6,57.32 C54.6,59.52 53.52,61.36 51.36,62.8 C49.96,63.76 47.92,64.64 45.24,65.44 C39.84,67.04 36.6,67.92 35.56,68.04 C35.08,68.04 34.72,67.88 34.44,67.56 C34.12,67.24 34,66.84 34,66.4 C34,65.72 34.24,65.2 34.76,64.88 C35.16,64.68 35.84,64.52 36.8,64.36 C36.8,63.72 36.8,61.16 36.84,56.68 L36.84,49.6 C36.84,49.04 36.84,47.68 36.92,45.48 C36.96,43.32 37,42.24 37,42.16 C35.96,42.28 35.4,42.32 35.32,42.32 C34.04,42.32 33.44,41.8 33.44,40.68 C33.44,39.96 33.64,39.52 34.04,39.28 C34.28,39.12 34.76,39 35.52,38.92 C39.52,38.6 42.76,38.4 45.24,38.4 C47.12,38.4 48.68,38.76 49.92,39.4 C51.48,40.28 52.28,41.6 52.28,43.36 C52.28,44.96 51.28,46.56 49.36,48.16 C48.16,49.2 46.2,50.44 43.48,51.92 C46.88,52.2 49.32,52.56 50.76,53 C53.32,53.88 54.6,55.32 54.6,57.32 Z M48.84,43.52 C48.84,42.32 47.52,41.72 44.96,41.72 C44.32,41.72 43.56,41.76 42.6,41.8 C41.32,41.88 40.56,41.92 40.28,41.92 C40.2,43.76 40.16,45.24 40.16,46.44 L40.16,50.12 C45.92,47.24 48.84,45.04 48.84,43.52 Z M51.24,57.84 C51.24,56.96 50.04,56.24 47.72,55.76 C46.52,55.56 43.96,55.28 40.04,54.92 L40.04,63.36 C47.48,61.36 51.24,59.52 51.24,57.84 Z M73.52,52.28 C73.52,52.76 73.12,53.24 72.32,53.64 C71.52,54.12 70.8,54.32 70.16,54.32 C70.12,54.32 69.88,54.24 69.4,54.08 C66.16,55.68 64.16,58.92 63.44,63.8 C63.24,65.08 63.08,65.92 62.96,66.32 C62.72,67.04 62.32,67.4 61.84,67.4 C61.36,67.4 60.88,67.12 60.48,66.64 C60.08,66.12 59.92,65.56 59.92,64.88 C59.92,64.76 60,64.24 60.24,63.28 C60.44,62.4 60.56,61.44 60.56,60.36 C60.56,59.4 60.44,58.12 60.28,56.56 C59.56,55.56 59.2,54.16 59.2,52.4 C59.2,52 59.32,51.6 59.56,51.2 C59.76,50.88 60.04,50.68 60.36,50.68 C61.12,50.68 61.72,51.12 62.16,51.92 C62.48,52.64 62.76,53.84 63,55.52 C65.44,51.84 68.24,50 71.36,50 C71.88,50 72.36,50.24 72.84,50.72 C73.28,51.2 73.52,51.72 73.52,52.28 Z M87.76,57.2 C87.76,59.92 87.08,62.16 85.8,64 C84.48,65.84 82.84,66.72 80.92,66.72 C79.24,66.72 77.84,66.04 76.72,64.76 C75.6,63.44 75.08,61.76 75.08,59.72 C75.08,58 75.44,56.36 76.24,54.84 C77.04,53.16 78.16,51.96 79.52,51.28 C79.84,51.16 80.28,50.92 80.84,50.6 C81.32,50.28 81.68,50.08 82,50.08 C82.08,50.08 82.4,50.16 82.96,50.32 C84.36,50.8 85.52,51.68 86.44,52.92 C87.32,54.2 87.76,55.64 87.76,57.2 Z M84.6,57.8 C84.6,56.12 84.2,55 83.44,54.52 C82.8,54.52 82.28,54.4 81.88,54.16 C80.76,54.16 79.84,54.84 79.12,56.12 C78.48,57.24 78.2,58.44 78.2,59.72 C78.2,60.68 78.44,61.52 78.96,62.24 C79.44,63 80.08,63.36 80.88,63.36 C81.84,63.36 82.68,62.76 83.48,61.56 C84.2,60.4 84.6,59.16 84.6,57.8 Z M117.92,54.16 C117.92,55.12 117.72,55.84 117.36,56.32 C116.92,59.12 116.12,61.52 114.96,63.56 C113.4,66.2 111.52,67.56 109.32,67.56 C106.72,67.56 104.84,65.48 103.64,61.32 C102.44,62.92 101.16,64.44 99.72,65.84 C97.92,67.52 96.56,68.4 95.68,68.4 C94.44,68.4 93.4,66.76 92.6,63.52 C91.84,60.8 91.48,58.16 91.48,55.64 C91.48,53.6 91.64,51.84 92.04,50.32 C92.28,49.4 92.8,48.92 93.64,48.92 C94.92,48.92 95.56,49.84 95.56,51.64 C95.56,51.88 95.4,52.48 95.12,53.44 C94.84,54.44 94.72,55.2 94.72,55.68 C94.72,59.32 95.2,62.2 96.2,64.32 C99.04,62.48 101.32,59.44 103.04,55.2 C103.4,54.32 103.88,53.88 104.52,53.88 C105.24,53.88 105.68,54.36 105.84,55.28 C106.64,61.24 107.76,64.2 109.2,64.2 C110.64,64.2 111.88,63 112.96,60.52 C113.92,58.28 114.44,55.92 114.44,53.36 C114.44,53.04 114.4,52.6 114.36,52.04 C114.28,51.48 114.24,51.16 114.24,51.08 C114.24,49.88 114.76,49.28 115.84,49.28 C117.2,49.28 117.92,50.92 117.92,54.16 Z M132.6,51.48 C132.6,51.96 132.44,52.32 132.16,52.56 C131.84,52.88 131.48,53 131.08,53 C130.88,53 130.52,53 130.04,52.92 C129.56,52.92 129.2,52.88 128.96,52.88 C127.92,52.88 127.4,53.28 127.4,54.04 C127.4,54.52 127.88,56 128.88,58.48 C129.84,61 130.36,62.88 130.36,64.08 C130.36,65.24 129.88,66.16 128.96,66.92 C127.92,67.68 126.52,68.08 124.76,68.08 C121.88,68.08 120.48,67.48 120.48,66.36 C120.48,65.92 120.6,65.48 120.92,65.08 C121.16,64.68 121.48,64.44 121.84,64.44 C121.92,64.44 122.36,64.52 123.16,64.6 C123.96,64.72 124.64,64.76 125.12,64.76 C126.44,64.76 127.12,64.32 127.12,63.36 C127.12,62.8 126.6,61.28 125.64,58.88 C124.68,56.48 124.2,54.68 124.2,53.56 C124.2,51.72 125.12,50.44 127,49.76 C127.4,49.12 128.16,48.76 129.36,48.76 C131.2,48.76 132.2,49.36 132.36,50.56 C132.52,50.88 132.6,51.2 132.6,51.48 Z M151.68,65.28 C151.68,66.56 150.32,67.24 147.64,67.24 C144.6,67.24 142.36,65.88 140.92,63.12 L139.72,63.12 C138.68,63.12 137.68,62.92 136.64,62.48 C135.28,61.92 134.64,61.2 134.64,60.32 C134.64,59.2 135.16,58.64 136.2,58.64 C136.44,58.64 136.84,58.84 137.4,59.24 C137.96,59.64 138.48,59.84 139.04,59.84 L139.96,59.84 C139.84,59.16 139.8,58.6 139.8,58.2 C139.8,56.28 140.28,54.48 141.24,52.8 C142.36,50.84 143.76,49.84 145.48,49.84 C146.48,49.84 147.44,50.32 148.4,51.28 C149.36,52.24 149.84,53.32 149.84,54.44 C149.84,57.4 147.84,59.96 143.84,62.12 C144.8,63.28 145.84,63.84 147.04,63.84 C147.36,63.84 147.88,63.8 148.56,63.72 C149.24,63.64 149.76,63.56 150.08,63.56 C150.48,63.56 150.88,63.76 151.2,64.08 C151.52,64.48 151.68,64.88 151.68,65.28 Z M146.68,54.6 C146.68,54.28 146.52,54 146.28,53.68 C145.96,53.44 145.64,53.28 145.32,53.28 C144.6,53.28 144.04,53.88 143.64,55.08 C143.24,56.08 143.08,57.12 143.08,58.2 L143.08,58.92 C145.48,57.36 146.68,55.92 146.68,54.6 Z M169.48,52.28 C169.48,52.76 169.08,53.24 168.28,53.64 C167.48,54.12 166.76,54.32 166.12,54.32 C166.08,54.32 165.84,54.24 165.36,54.08 C162.12,55.68 160.12,58.92 159.4,63.8 C159.2,65.08 159.04,65.92 158.92,66.32 C158.68,67.04 158.28,67.4 157.8,67.4 C157.32,67.4 156.84,67.12 156.44,66.64 C156.04,66.12 155.88,65.56 155.88,64.88 C155.88,64.76 155.96,64.24 156.2,63.28 C156.4,62.4 156.52,61.44 156.52,60.36 C156.52,59.4 156.4,58.12 156.24,56.56 C155.52,55.56 155.16,54.16 155.16,52.4 C155.16,52 155.28,51.6 155.52,51.2 C155.72,50.88 156,50.68 156.32,50.68 C157.08,50.68 157.68,51.12 158.12,51.92 C158.44,52.64 158.72,53.84 158.96,55.52 C161.4,51.84 164.2,50 167.32,50 C167.84,50 168.32,50.24 168.8,50.72 C169.24,51.2 169.48,51.72 169.48,52.28 Z" fill="#4A4A4A"></path>
                    <path d="M3.99642592,86.78934 C4.06242613,90.76434 3.25042359,94.76134 2.74842202,98.73434 C2.3284207,102.06034 2.56242144,102.58334 5.84843171,102.30834 C12.2964519,101.76934 18.724472,101.00134 25.1574921,100.28834 C35.5015244,99.14134 45.8205567,97.68534 56.1905891,96.85934 C73.8766444,95.45034 91.5796998,94.05734 109.302755,93.34534 C127.263811,92.62534 145.257868,92.57234 163.238924,92.55434 C173.342955,92.54534 183.449987,93.18234 193.554019,93.56334 C195.468025,93.63534 197.378031,93.86934 199.915039,94.08134 C199.915039,92.44334 200.044039,90.94434 199.895039,89.47334 C197.399031,64.80334 196.356027,40.07634 196.929029,15.28534 C197.003029,12.04834 197.27003,8.81434 197.462031,5.58034 C197.548031,4.08834 196.983029,3.55534 195.399024,3.68834 C182.578984,4.77134 169.768944,6.34534 156.925904,6.68434 C134.090833,7.28834 111.232761,7.48834 88.3926898,7.18334 C69.1856298,6.92534 49.9825697,5.87534 30.7955097,4.84334 C21.8764818,4.36334 12.9964541,3.10634 4.10342625,2.15534 C3.44842421,2.08534 2.83142228,1.64334 2.19642029,1.37334 C2.21642035,1.09534 2.23542041,0.817340003 2.25542048,0.538340003 C3.46342425,0.350340003 4.67342804,-0.0126599968 5.8784318,0.000340003172 C20.9264789,0.180340003 35.9775259,0.238340003 51.018573,0.678340003 C68.8386287,1.20034 86.6446844,2.18734 104.46474,2.74134 C121.437793,3.26934 138.419846,3.72434 155.400899,3.78434 C168.046939,3.82834 180.695978,3.19034 193.343018,2.85334 C193.96002,2.83734 194.575022,2.78034 195.194024,2.76634 C197.909032,2.71134 198.759035,3.39234 199.032036,6.20934 C199.309037,9.04834 199.522037,11.90434 199.558037,14.75534 C199.757038,31.73834 199.825038,48.72134 200.089039,65.70234 C200.208039,73.41434 200.675041,81.12034 200.974042,88.83034 C201.005042,89.67734 200.989042,90.52934 200.942042,91.37734 C200.772041,94.41434 200.26704,94.80634 197.27403,95.28034 C174.63096,98.86134 151.788888,99.05434 128.952817,99.44834 C106.029745,99.84534 83.1016733,100.22534 60.1896016,101.00634 C46.7025595,101.46534 33.2425174,102.72734 19.7654752,103.55334 C14.9164601,103.85034 10.0554449,104.01834 5.19642967,104.07734 C1.26441738,104.12134 -0.0265866609,102.90134 0.000413423502,98.99234 C0.104413749,83.40234 0.320414424,67.81234 0.48841495,52.22134 C0.646415444,37.47834 0.786415881,22.73534 0.959416422,7.99334 C0.976416476,6.47834 1.15441703,4.96534 1.25841736,3.45234 C1.60941845,3.46234 1.96041955,3.47234 2.31142065,3.48334 C2.89642248,31.25134 3.5434245,59.01934 3.99642592,86.78934 Z" id="Fill-131" fill="#1A1919"></path>
                </g>
                <g id="Micronaut-App" transform="translate(700.000000, 0.000000)">
                    <path d="M55.6025,50.695 C55.6025,51.045 55.4275,51.395 55.1475,51.745 C54.8325,52.025 54.4825,52.2 54.0975,52.2 C53.2925,52.2 52.4875,51.465 51.7175,50.065 C50.5275,47.965 49.5475,44.78 48.8475,40.58 C48.6375,39.425 48.2175,35.995 47.5525,30.255 C45.9425,34.315 44.7525,37.99 44.0175,41.21 C43.8075,42.19 43.3175,42.645 42.6175,42.645 C42.0925,42.645 41.4975,42.33 40.8675,41.63 C39.5725,40.3 38.3125,38.305 37.0875,35.575 C35.8975,33.055 35.0925,30.745 34.6725,28.645 C33.8675,31.62 33.3075,34.42 32.9925,37.045 C32.7125,39.32 32.5375,41.77 32.4675,44.36 C32.3975,45.76 31.9775,46.46 31.1375,46.46 C30.4375,46.46 29.8775,45.76 29.4925,44.36 C29.2125,43.31 29.1075,42.085 29.1075,40.755 C29.1075,40.055 29.2475,38.41 29.5275,35.785 C29.7375,33.825 29.8775,32.25 29.8775,30.99 C29.8775,30.745 29.8425,30.395 29.8425,29.905 C29.8075,29.485 29.8075,29.135 29.8075,28.855 C29.8075,27.945 30.2625,27.455 31.2075,27.455 C31.4875,27.455 31.8025,27.56 32.1525,27.77 C32.6425,26.335 33.1675,25.075 33.6925,23.955 C33.9375,23.43 34.3925,23.15 35.0575,23.15 C35.7575,23.15 36.2125,23.57 36.4225,24.375 C37.9625,30.78 39.7825,35.435 41.9175,38.34 C43.3175,33.335 44.9625,29.17 46.8525,25.81 C47.0975,25.355 47.4825,25.11 48.0425,25.11 C48.6725,25.11 49.1275,25.495 49.3725,26.23 C50.0725,28.33 50.5975,31.06 51.0175,34.49 C51.4375,38.06 51.7875,40.475 51.9975,41.7 C52.5225,44.64 53.1525,46.775 53.9225,48.035 C54.4125,48.245 54.8325,48.735 55.1475,49.47 C55.4275,50.205 55.6025,50.625 55.6025,50.695 Z M64.1425,23.29 C64.1425,24.69 63.7575,25.39 62.9875,25.39 C62.8825,25.39 62.6725,25.355 62.3925,25.25 C61.3775,24.9 60.8875,23.99 60.8875,22.52 C60.8875,21.785 61.3775,21.26 62.3575,20.91 C63.5475,21.05 64.1425,21.82 64.1425,23.29 Z M62.5325,36.835 L61.9375,39.18 C61.2375,41.91 60.8525,44.29 60.7825,46.39 C61.2375,46.81 61.4825,47.335 61.4825,47.965 C61.4825,48.175 61.3425,48.35 61.1325,48.56 C60.9225,48.77 60.7125,48.875 60.5025,48.875 C58.8925,48.875 58.1225,47.44 58.1225,44.57 C58.1225,43.205 58.5775,40.545 59.5225,36.59 C59.4525,36.17 59.4175,35.89 59.4175,35.75 C59.4175,35.295 59.6625,34.91 60.2225,34.63 C61.7625,34.63 62.5325,35.365 62.5325,36.835 Z M77.8275,44.78 C77.8275,45.48 77.2675,46.215 76.1825,47.055 C74.8525,48.105 73.4875,48.63 72.1575,48.63 C70.6875,48.63 69.4625,48.14 68.4825,47.195 C67.5025,46.215 67.0125,44.99 67.0125,43.45 C67.0125,41.28 67.6775,39.285 69.0425,37.465 C70.7225,35.19 72.6825,34.035 74.8875,34.035 C75.4125,34.035 75.9025,34.21 76.3575,34.525 C76.7775,34.875 76.9875,35.295 76.9875,35.855 C76.9875,36.275 76.7775,36.66 76.3925,37.08 C75.9375,37.5 75.4825,37.675 75.0275,37.675 C74.1525,37.675 73.5225,37.57 73.1025,37.325 C72.1575,37.955 71.3875,38.83 70.7575,39.88 C70.1275,40.93 69.8125,42.015 69.8125,43.1 C69.8125,44.85 70.4775,45.69 71.8775,45.69 C72.7525,45.69 73.4875,45.48 74.0825,45.025 C74.4325,44.675 74.8525,44.325 75.2725,43.975 C75.7625,43.52 76.1825,43.275 76.4625,43.275 C76.8125,43.275 77.1275,43.45 77.4075,43.73 C77.6875,44.08 77.8275,44.43 77.8275,44.78 Z M94.0325,35.995 C94.0325,36.415 93.6825,36.835 92.9825,37.185 C92.2825,37.605 91.6525,37.78 91.0925,37.78 C91.0575,37.78 90.8475,37.71 90.4275,37.57 C87.5925,38.97 85.8425,41.805 85.2125,46.075 C85.0375,47.195 84.8975,47.93 84.7925,48.28 C84.5825,48.91 84.2325,49.225 83.8125,49.225 C83.3925,49.225 82.9725,48.98 82.6225,48.56 C82.2725,48.105 82.1325,47.615 82.1325,47.02 C82.1325,46.915 82.2025,46.46 82.4125,45.62 C82.5875,44.85 82.6925,44.01 82.6925,43.065 C82.6925,42.225 82.5875,41.105 82.4475,39.74 C81.8175,38.865 81.5025,37.64 81.5025,36.1 C81.5025,35.75 81.6075,35.4 81.8175,35.05 C81.9925,34.77 82.2375,34.595 82.5175,34.595 C83.1825,34.595 83.7075,34.98 84.0925,35.68 C84.3725,36.31 84.6175,37.36 84.8275,38.83 C86.9625,35.61 89.4125,34 92.1425,34 C92.5975,34 93.0175,34.21 93.4375,34.63 C93.8225,35.05 94.0325,35.505 94.0325,35.995 Z M106.4925,40.3 C106.4925,42.68 105.8975,44.64 104.7775,46.25 C103.6225,47.86 102.1875,48.63 100.5075,48.63 C99.0375,48.63 97.8125,48.035 96.8325,46.915 C95.8525,45.76 95.3975,44.29 95.3975,42.505 C95.3975,41 95.7125,39.565 96.4125,38.235 C97.1125,36.765 98.0925,35.715 99.2825,35.12 C99.5625,35.015 99.9475,34.805 100.4375,34.525 C100.8575,34.245 101.1725,34.07 101.4525,34.07 C101.5225,34.07 101.8025,34.14 102.2925,34.28 C103.5175,34.7 104.5325,35.47 105.3375,36.555 C106.1075,37.675 106.4925,38.935 106.4925,40.3 Z M103.7275,40.825 C103.7275,39.355 103.3775,38.375 102.7125,37.955 C102.1525,37.955 101.6975,37.85 101.3475,37.64 C100.3675,37.64 99.5625,38.235 98.9325,39.355 C98.3725,40.335 98.1275,41.385 98.1275,42.505 C98.1275,43.345 98.3375,44.08 98.7925,44.71 C99.2125,45.375 99.7725,45.69 100.4725,45.69 C101.3125,45.69 102.0475,45.165 102.7475,44.115 C103.3775,43.1 103.7275,42.015 103.7275,40.825 Z M123.2225,37.955 C123.2225,39.565 122.9425,42.855 122.3825,47.79 C122.3125,48.42 122.0325,48.77 121.5425,48.77 C121.0175,48.77 120.5975,48.56 120.2475,48.14 C119.8975,47.685 119.7225,47.195 119.7225,46.635 C119.7225,46.6 119.7925,45.935 119.9325,44.64 L120.4575,40.16 C117.5525,42.365 115.5225,44.43 114.3325,46.39 C114.0875,46.81 113.8775,47.265 113.6675,47.685 C113.3175,48.245 112.9675,48.56 112.6175,48.56 C111.1475,48.56 110.4475,46.495 110.4475,42.33 C110.4475,39.6 110.8325,36.835 111.6025,34 C111.7425,33.51 111.9875,33.23 112.4075,33.23 C112.9325,33.23 113.3875,33.44 113.7375,33.825 C114.0875,34.28 114.2625,34.77 114.2625,35.33 C114.0875,36.03 113.9125,36.8 113.7375,37.64 C113.3875,39.495 113.2125,41.28 113.2125,43.03 C115.6975,40.02 118.3575,37.71 121.1925,36.135 C121.6825,36.17 122.1375,36.345 122.5575,36.66 C122.9775,37.01 123.2225,37.43 123.2225,37.955 Z M139.4975,39.88 C139.4975,40.02 139.4275,40.265 139.2875,40.65 C138.7975,42.12 138.5875,43.52 138.5875,44.92 C138.5875,45.34 138.6575,45.97 138.8325,46.775 C138.9725,47.615 139.0775,48.035 139.0775,48.14 C139.0775,48.49 138.9025,48.84 138.6225,49.12 C138.3075,49.33 137.9575,49.47 137.6075,49.47 C136.5925,49.47 135.9975,48.105 135.8225,45.445 C133.8625,47.405 132.1125,48.385 130.5375,48.385 C129.5225,48.385 128.6475,47.965 127.9125,47.09 C127.1425,46.25 126.7925,45.305 126.7925,44.22 C126.7925,42.19 127.9825,40.02 130.3975,37.78 C132.7075,35.61 134.8075,34.49 136.7325,34.49 C137.1875,34.49 137.6425,34.7 138.0975,35.05 C138.5175,35.4 138.7625,35.82 138.7625,36.24 C138.7625,36.415 138.7275,36.59 138.6925,36.73 C138.9025,37.36 139.0425,38.06 139.0425,38.865 C139.3225,39.215 139.4975,39.565 139.4975,39.88 Z M136.3125,38.865 C136.3125,38.025 136.1025,37.57 135.6825,37.57 C135.0175,37.57 133.8625,38.375 132.2525,39.915 C130.4675,41.63 129.5925,43.03 129.5925,44.15 C129.5925,45.025 129.9425,45.445 130.6775,45.445 C131.7275,45.445 132.9525,44.675 134.2825,43.065 C135.6125,41.455 136.3125,40.055 136.3125,38.865 Z M157.8025,36.38 C157.8025,36.625 157.6975,36.975 157.5575,37.465 C157.2775,38.2 156.9975,39.565 156.6475,41.56 C156.3325,43.38 156.1925,44.535 156.1925,45.025 C156.1925,45.305 156.2275,45.655 156.2975,46.075 C156.3675,46.53 156.4025,46.81 156.4025,46.915 C156.4025,47.44 156.2625,47.895 155.9825,48.28 C155.7025,48.7 155.3175,48.91 154.8275,48.91 C154.4075,48.91 154.0225,48.77 153.7075,48.56 C153.3575,48.35 153.1825,48.035 153.1825,47.615 C153.1825,47.335 153.2525,47.09 153.4275,46.81 C153.4275,46.215 153.5675,44.78 153.8475,42.47 C150.4175,46.425 147.7925,48.385 145.9375,48.385 C145.0975,48.385 144.4325,48.175 143.9075,47.755 C143.3475,47.3 143.0675,46.67 143.0675,45.83 C143.0675,45.13 143.2775,43.73 143.7675,41.595 C144.2575,39.11 144.5375,37.605 144.5375,37.045 L144.5375,36.66 C144.5025,36.52 144.5025,36.38 144.5025,36.275 C144.5025,35.925 144.6425,35.575 144.9225,35.225 C145.1675,34.875 145.4475,34.7 145.7975,34.7 C146.7425,34.7 147.2325,35.47 147.2325,36.94 C147.2325,37.57 147.0225,38.935 146.6025,40.965 C146.1475,43.065 145.9375,44.36 145.9375,44.92 C145.9375,45.2 146.0775,45.34 146.3575,45.34 C148.0025,45.34 151.0125,42.12 155.4225,35.645 C155.7725,35.155 156.1225,34.91 156.5425,34.91 C157.3825,34.91 157.8025,35.4 157.8025,36.38 Z M172.6775,35.715 C172.6775,36.135 172.5375,36.52 172.2925,36.87 C172.0125,37.22 171.6975,37.395 171.3825,37.395 C170.8925,37.395 170.4375,37.255 170.0875,36.905 C169.8425,36.905 169.2475,36.905 168.2675,36.87 C167.2875,36.87 166.6575,36.835 166.3075,36.835 C165.6775,39.565 165.2925,41.245 165.1525,41.91 C164.7325,43.87 164.5225,45.655 164.4525,47.195 C164.8025,47.475 164.9775,47.86 164.9775,48.42 C164.9775,48.77 164.8025,49.085 164.4875,49.4 C164.1375,49.68 163.8225,49.82 163.4725,49.82 C162.3175,49.82 161.7575,48.84 161.7575,46.95 C161.7575,45.9 161.9675,44.22 162.4225,41.945 L163.4725,36.905 C162.3875,36.905 161.8625,36.415 161.8625,35.4 C161.8625,34.77 162.0725,34.35 162.4925,34.14 C162.7725,34 163.2975,33.895 164.1375,33.895 C165.0475,30.185 165.8175,27.315 166.4475,25.215 C166.6575,24.48 167.0775,24.095 167.7075,24.095 C168.6175,24.095 169.1075,24.62 169.2125,25.67 C169.0025,26.405 168.7225,27.245 168.4075,28.225 C167.9875,29.66 167.5325,31.515 167.0425,33.825 C167.2875,33.825 168.1625,33.86 169.6325,33.895 C171.6625,34 172.6775,34.595 172.6775,35.715 Z M94.995,78.945 C94.995,79.785 94.47,80.205 93.455,80.205 C93.035,80.205 92.58,79.75 92.125,78.875 C91.705,78.07 91.495,77.44 91.495,76.95 C91.495,76.775 91.53,76.6 91.6,76.425 C91.425,75.725 91.18,74.78 90.83,73.59 C88.485,72.925 86.35,72.575 84.46,72.575 C83.375,72.575 81.73,72.68 79.56,72.89 C79.21,74.5 79.07,75.83 79.07,76.845 C79.07,77.23 79.105,77.65 79.175,78.07 C79.105,78.35 78.895,78.595 78.615,78.875 C78.335,79.12 78.055,79.26 77.81,79.26 C77.11,79.26 76.62,78.98 76.375,78.455 C76.235,78.105 76.165,77.58 76.165,76.775 C76.165,76.145 76.305,74.99 76.655,73.31 C75.22,73.555 74.31,73.66 73.925,73.66 C73.085,73.66 72.7,73.135 72.7,72.085 C72.7,71.28 73.12,70.825 73.995,70.685 C74.065,70.685 75.185,70.545 77.39,70.195 C78.615,65.435 80.47,60.115 82.92,54.235 C83.2,53.5 83.41,53.045 83.515,52.87 C83.83,52.38 84.215,52.1 84.67,52.1 C85.265,52.1 85.93,52.835 86.7,54.305 C90.025,60.955 92.72,68.62 94.75,77.265 C94.89,78 94.995,78.525 94.995,78.945 Z M89.85,70.125 C88.205,64.875 86.49,60.535 84.67,57.175 C83.06,60.85 81.625,65.05 80.365,69.81 C82.08,69.6 83.515,69.495 84.67,69.495 C85.93,69.495 87.68,69.705 89.85,70.125 Z M110.535,65.89 C110.535,69.74 107.735,72.68 102.17,74.71 C102.275,76.11 102.345,77.545 102.345,79.015 C102.345,80.625 102.17,82.27 101.82,83.88 C101.505,85.315 100.98,86.05 100.245,86.05 C99.86,86.05 99.51,85.875 99.23,85.595 C98.95,85.28 98.81,84.93 98.81,84.545 C98.81,84.44 98.915,83.915 99.16,82.97 C99.37,81.99 99.51,80.415 99.51,78.175 C99.51,77.055 99.475,76.215 99.405,75.655 C98.425,75.585 97.97,75.095 97.97,74.185 C97.97,73.45 98.425,72.925 99.405,72.575 C99.37,72.4 99.37,72.12 99.37,71.77 C99.37,69.04 99.79,66.59 100.63,64.455 C101.855,61.375 103.57,59.835 105.775,59.835 C107.315,59.835 108.54,60.465 109.38,61.69 C110.15,62.81 110.535,64.21 110.535,65.89 Z M107.735,65.295 C107.735,64.63 107.56,64.035 107.245,63.545 C106.86,63.055 106.37,62.775 105.775,62.775 C104.795,62.775 103.92,63.825 103.185,65.89 C102.52,67.78 102.205,69.705 102.205,71.595 C105.88,70.265 107.735,68.165 107.735,65.295 Z M126.67,65.89 C126.67,69.74 123.87,72.68 118.305,74.71 C118.41,76.11 118.48,77.545 118.48,79.015 C118.48,80.625 118.305,82.27 117.955,83.88 C117.64,85.315 117.115,86.05 116.38,86.05 C115.995,86.05 115.645,85.875 115.365,85.595 C115.085,85.28 114.945,84.93 114.945,84.545 C114.945,84.44 115.05,83.915 115.295,82.97 C115.505,81.99 115.645,80.415 115.645,78.175 C115.645,77.055 115.61,76.215 115.54,75.655 C114.56,75.585 114.105,75.095 114.105,74.185 C114.105,73.45 114.56,72.925 115.54,72.575 C115.505,72.4 115.505,72.12 115.505,71.77 C115.505,69.04 115.925,66.59 116.765,64.455 C117.99,61.375 119.705,59.835 121.91,59.835 C123.45,59.835 124.675,60.465 125.515,61.69 C126.285,62.81 126.67,64.21 126.67,65.89 Z M123.87,65.295 C123.87,64.63 123.695,64.035 123.38,63.545 C122.995,63.055 122.505,62.775 121.91,62.775 C120.93,62.775 120.055,63.825 119.32,65.89 C118.655,67.78 118.34,69.705 118.34,71.595 C122.015,70.265 123.87,68.165 123.87,65.295 Z" fill="#4A4A4A"></path>
                    <path d="M3.99642592,86.78934 C4.06242613,90.76434 3.25042359,94.76134 2.74842202,98.73434 C2.3284207,102.06034 2.56242144,102.58334 5.84843171,102.30834 C12.2964519,101.76934 18.724472,101.00134 25.1574921,100.28834 C35.5015244,99.14134 45.8205567,97.68534 56.1905891,96.85934 C73.8766444,95.45034 91.5796998,94.05734 109.302755,93.34534 C127.263811,92.62534 145.257868,92.57234 163.238924,92.55434 C173.342955,92.54534 183.449987,93.18234 193.554019,93.56334 C195.468025,93.63534 197.378031,93.86934 199.915039,94.08134 C199.915039,92.44334 200.044039,90.94434 199.895039,89.47334 C197.399031,64.80334 196.356027,40.07634 196.929029,15.28534 C197.003029,12.04834 197.27003,8.81434 197.462031,5.58034 C197.548031,4.08834 196.983029,3.55534 195.399024,3.68834 C182.578984,4.77134 169.768944,6.34534 156.925904,6.68434 C134.090833,7.28834 111.232761,7.48834 88.3926898,7.18334 C69.1856298,6.92534 49.9825697,5.87534 30.7955097,4.84334 C21.8764818,4.36334 12.9964541,3.10634 4.10342625,2.15534 C3.44842421,2.08534 2.83142228,1.64334 2.19642029,1.37334 C2.21642035,1.09534 2.23542041,0.817340003 2.25542048,0.538340003 C3.46342425,0.350340003 4.67342804,-0.0126599968 5.8784318,0.000340003172 C20.9264789,0.180340003 35.9775259,0.238340003 51.018573,0.678340003 C68.8386287,1.20034 86.6446844,2.18734 104.46474,2.74134 C121.437793,3.26934 138.419846,3.72434 155.400899,3.78434 C168.046939,3.82834 180.695978,3.19034 193.343018,2.85334 C193.96002,2.83734 194.575022,2.78034 195.194024,2.76634 C197.909032,2.71134 198.759035,3.39234 199.032036,6.20934 C199.309037,9.04834 199.522037,11.90434 199.558037,14.75534 C199.757038,31.73834 199.825038,48.72134 200.089039,65.70234 C200.208039,73.41434 200.675041,81.12034 200.974042,88.83034 C201.005042,89.67734 200.989042,90.52934 200.942042,91.37734 C200.772041,94.41434 200.26704,94.80634 197.27403,95.28034 C174.63096,98.86134 151.788888,99.05434 128.952817,99.44834 C106.029745,99.84534 83.1016733,100.22534 60.1896016,101.00634 C46.7025595,101.46534 33.2425174,102.72734 19.7654752,103.55334 C14.9164601,103.85034 10.0554449,104.01834 5.19642967,104.07734 C1.26441738,104.12134 -0.0265866609,102.90134 0.000413423502,98.99234 C0.104413749,83.40234 0.320414424,67.81234 0.48841495,52.22134 C0.646415444,37.47834 0.786415881,22.73534 0.959416422,7.99334 C0.976416476,6.47834 1.15441703,4.96534 1.25841736,3.45234 C1.60941845,3.46234 1.96041955,3.47234 2.31142065,3.48334 C2.89642248,31.25134 3.5434245,59.01934 3.99642592,86.78934 Z" id="Fill-131" fill="#1A1919"></path>
                </g>
                <g id="Vertical-wavy-line-test" transform="translate(793.000000, 107.000000)" stroke="#000000" stroke-width="10">
                    <path d="M10,0 C10,30 0,45 0,75 C0,105 10,120 10,150 C10,180 0,195 0,225 C0,255 10,270 10,300" id="Shape"></path>
                </g>
                <g id="Vertical-wavy-line-test" transform="translate(96.000000, 107.000000)" stroke="#000000" stroke-width="10">
                    <path d="M10,0 C10,30 0,45 0,75 C0,105 10,120 10,150 C10,180 0,195 0,225 C0,255 10,270 10,300" id="Shape"></path>
                </g>
            </g>
        </g>
    </g>
</svg>