<?xml version="1.0" encoding="UTF-8"?>
<svg width="1188px" height="1400px" viewBox="0 0 1188 1400" version="1.1" xmlns="http://www.w3.org/2000/svg" xmlns:xlink="http://www.w3.org/1999/xlink">
    <!-- Generator: Sketch 50.2 (55047) - http://www.bohemiancoding.com/sketch -->
    <title>sesssion_based_auth</title>
    <desc>Created with Sketch.</desc>
    <defs></defs>
    <g id="Page-1" stroke="none" stroke-width="1" fill="none" fill-rule="evenodd">
        <g id="Session-Based-Authentication" transform="translate(-25.000000, -34.000000)">
            <g id="sesssion_based_auth" transform="translate(25.000000, 34.000000)">
                <g id="Vertical-wavy-line-test" transform="translate(793.000000, 107.000000)" stroke="#000000" stroke-width="10">
                    <path d="M10,0 C10,30 0,45 0,75 C0,105 10,120 10,150 C10,180 0,195 0,225 C0,255 10,270 10,300" id="Shape"></path>
                </g>
                <g id="Vertical-wavy-line-test" transform="translate(793.000000, 407.000000)" stroke="#000000" stroke-width="10">
                    <path d="M10,0 C10,30 0,45 0,75 C0,105 10,120 10,150 C10,180 0,195 0,225 C0,255 10,270 10,300" id="Shape"></path>
                </g>
                <g id="Vertical-wavy-line-test" transform="translate(793.000000, 697.000000)" stroke="#000000" stroke-width="10">
                    <path d="M10,0 C10,30 0,45 0,75 C0,105 10,120 10,150 C10,180 0,195 0,225 C0,255 10,270 10,300" id="Shape"></path>
                </g>
                <g id="Vertical-wavy-line-test" transform="translate(793.000000, 997.000000)" stroke="#000000" stroke-width="10">
                    <path d="M10,0 C10,38 0,57 0,95 C0,133 10,152 10,190 C10,228 0,247 0,285 C0,323 10,342 10,380" id="Shape"></path>
                </g>
                <g id="Vertical-wavy-line-test" transform="translate(1083.000000, 697.000000)" stroke="#000000" stroke-width="10">
                    <path d="M10,0 C10,30 0,45 0,75 C0,105 10,120 10,150 C10,180 0,195 0,225 C0,255 10,270 10,300" id="Shape"></path>
                </g>
                <g id="Vertical-wavy-line-test" transform="translate(1083.000000, 997.000000)" stroke="#000000" stroke-width="10">
                    <path d="M10,0 C10,30 0,45 0,75 C0,105 10,120 10,150 C10,180 0,195 0,225 C0,255 10,270 10,300" id="Shape"></path>
                </g>
                <g id="Vertical-wavy-line-test" transform="translate(1083.000000, 166.000000)" stroke="#000000" stroke-width="10">
                    <path d="M10,0 C10,24.1 0,36.15 0,60.25 C0,84.35 10,96.4 10,120.5 C10,144.6 0,156.65 0,180.75 C0,204.85 10,216.9 10,241" id="Shape"></path>
                </g>
                <g id="Vertical-wavy-line-test" transform="translate(1083.000000, 407.000000)" stroke="#000000" stroke-width="10">
                    <path d="M10,0 C10,30 0,45 0,75 C0,105 10,120 10,150 C10,180 0,195 0,225 C0,255 10,270 10,300" id="Shape"></path>
                </g>
                <g id="Vertical-wavy-line-test" transform="translate(96.000000, 107.000000)" stroke="#000000" stroke-width="10">
                    <path d="M10,0 C10,30 0,45 0,75 C0,105 10,120 10,150 C10,180 0,195 0,225 C0,255 10,270 10,300" id="Shape"></path>
                </g>
                <g id="Vertical-wavy-line-test" transform="translate(96.000000, 407.000000)" stroke="#000000" stroke-width="10">
                    <path d="M10,0 C10,30 0,45 0,75 C0,105 10,120 10,150 C10,180 0,195 0,225 C0,255 10,270 10,300" id="Shape"></path>
                </g>
                <g id="Vertical-wavy-line-test" transform="translate(96.000000, 707.000000)" stroke="#000000" stroke-width="10">
                    <path d="M10,0 C10,30 0,45 0,75 C0,105 10,120 10,150 C10,180 0,195 0,225 C0,255 10,270 10,300" id="Shape"></path>
                </g>
                <g id="Vertical-wavy-line-test" transform="translate(96.000000, 1007.000000)" stroke="#000000" stroke-width="10">
                    <path d="M10,0 C10,37 0,55.5 0,92.5 C0,129.5 10,148 10,185 C10,222 0,240.5 0,277.5 C0,314.5 10,333 10,370" id="Shape"></path>
                </g>
                <g id="200" transform="translate(131.000000, 1316.000000)">
                    <g id="LEFT-Arrow-Copy" transform="translate(327.500000, 55.500000) rotate(-180.000000) translate(-327.500000, -55.500000) translate(0.000000, 27.000000)">
                        <path d="M577.481745,23.1144804 C577.709204,23.9547523 578.043542,25.2945975 578.468315,26.6220858 C578.536827,26.8321537 578.978043,27.0492828 579.326083,27.1499036 C579.641238,27.241698 580.367463,27.2346369 580.392127,27.178148 C581.745921,23.9953536 583.9383,20.9043537 583.272365,17.4938385 C583.195632,17.1019471 582.214542,16.718882 581.537645,16.4540904 C580.608625,16.0869128 579.967354,16.3605307 579.383633,16.948368 C577.648914,18.6924616 578.251818,20.7084079 577.481745,23.1144804 M591.663694,24.9274199 C591.299211,25.8577208 591.074492,26.1313388 591.112859,26.3873039 C591.186852,26.9045301 591.156706,27.6035798 591.63903,27.8648408 C592.039139,28.0802045 593.414856,27.9601657 593.845111,27.6706603 C596.188215,26.1048596 598.407999,24.463152 600.583935,22.7984958 C601.263572,22.2777391 600.857982,21.8011144 600.041321,21.3668562 C596.264949,19.357971 593.527216,19.6986695 592.491317,22.3695335 C592.080246,23.4357608 591.792496,24.5214062 591.663694,24.9274199 M623.094182,29.4112234 C622.916051,29.1764415 622.836578,28.828682 622.546088,28.7210001 C620.731894,28.0378379 618.923182,27.3334924 616.993889,26.8162662 C616.462237,26.6732788 615.14681,27.0104467 614.850839,27.3582063 C612.992798,29.5648025 612.729712,32.0044153 612.806445,34.4599155 C612.814667,34.6699835 613.209295,34.9541931 613.532671,35.0583444 C613.883451,35.1677916 614.521982,35.227811 614.768624,35.1007111 C617.40496,33.7343867 620.044035,32.3610012 622.546088,30.8958213 C623.028411,30.613377 622.927013,29.9178579 623.094182,29.4112234 M601.934988,35.6320594 C601.934988,34.4334364 602.187111,33.4996048 600.737401,33.245405 C600.115314,33.1377231 599.076674,33.5507979 598.487473,33.9056186 C592.252896,37.6568321 587.396777,42.4160188 579.158914,44.7020525 C578.046282,45.0092107 577.717425,47.0410445 578.454613,47.7683386 C579.372671,48.6721604 580.666175,48.4532661 581.874723,48.1072718 C586.207412,46.8733432 590.501733,45.5829257 594.842643,44.3613541 C597.827018,43.5246128 599.726166,42.213012 600.293444,40.0752616 C600.72918,38.4406151 601.477329,36.8395089 601.934988,35.6320594 M254.157966,30.0926203 C247.498616,30.2250161 236.120171,30.4880423 224.741725,30.6716311 C202.848084,31.0246865 180.948962,31.2029795 159.063543,31.6937265 C128.866267,32.3715929 98.6826946,33.3018938 68.4909004,34.0644935 C47.9209079,34.5852502 27.3454344,35.0230389 6.77270145,35.4308179 C5.10923416,35.4625928 3.26215517,35.1501388 1.8014829,34.6435043 C0.875202933,34.3222239 0.0585418926,33.3530869 0.0037324268,32.6469761 C-0.0538175123,31.919682 0.560048504,30.8693422 1.43699996,30.4827465 C2.80175565,29.8807871 4.61594897,29.4730081 6.27667578,29.4112234 C22.8921653,28.8233862 39.5076549,28.2143656 56.1341063,27.8224741 C98.1483023,26.8321537 140.165239,25.8418333 182.193137,25.0704073 C210.644731,24.5478853 239.112767,24.3519396 267.575323,24.1030355 C287.284807,23.9282731 306.997031,23.8241218 326.709256,23.8417745 C367.443651,23.8788454 408.197229,23.6140538 448.915181,24.2371966 C482.170824,24.7455963 515.456613,25.4746557 548.61634,27.4888368 C553.406687,27.7783422 558.16963,28.2655586 562.954496,28.5974307 C566.010124,28.8110292 567.788691,27.7730464 567.890088,25.6388265 C568.084662,21.4074576 568.106586,17.1760887 568.265533,12.9447198 C568.30664,11.8272995 568.503954,10.7045833 568.797185,9.60305049 C569.106858,8.43443713 571.921324,7.11577523 573.771144,7.3329043 C575.89227,7.58180836 578.079168,7.84836518 580.035866,8.39913159 C589.257558,11.0011498 598.468289,13.6225862 607.574882,16.3852446 C619.446612,19.9899402 631.230647,23.7199704 643.022904,27.4376437 C644.97138,28.0519601 646.837643,28.8127945 648.599767,29.631883 C650.449587,30.4951034 650.518098,33.3266077 648.753234,34.2339601 C647.39944,34.9294792 645.979875,35.6267636 644.428767,36.1016231 C627.835201,41.199743 611.203269,46.2449046 594.598741,51.3236064 C590.646978,52.5310559 586.804835,53.8903191 582.811965,55.0306881 C580.433235,55.712085 577.887335,56.1798834 575.360618,56.6053151 C572.842123,57.025451 569.641251,55.8427155 569.257584,54.227487 C568.660161,51.734916 568.284716,49.2070393 568.117548,46.6862238 C567.912012,43.5934586 568.13125,40.4883364 567.933936,37.3938058 C567.857203,36.2216619 566.670578,35.2631165 564.697437,35.0954152 C556.889828,34.4334364 549.093182,33.5666854 541.247207,33.2559966 C521.143095,32.461622 501.003357,32.0591388 480.899245,31.2577031 C434.516734,29.4059276 388.079414,29.9107968 341.658537,29.7430955 C314.064712,29.6424747 286.470886,29.9478676 254.157966,30.0926203" id="Fill-61" fill="#000000"></path>
                        <rect id="Rectangle-3" fill="#FFFFFF" x="260" y="8" width="327" height="45"></rect>
                        <rect id="Rectangle-2" fill="#FFFFFF" x="569" y="0" width="86" height="57"></rect>
                        <path d="M605.831203,18.1144804 C605.969782,18.9547523 606.173478,20.2945975 606.432271,21.6220858 C606.474012,21.8321537 606.742824,22.0492828 606.954867,22.1499036 C607.146875,22.241698 607.589329,22.2346369 607.604355,22.178148 C608.429155,18.9953536 609.764864,15.9043537 609.359142,12.4938385 C609.312393,12.1019471 608.714663,11.718882 608.302263,11.4540904 C607.736257,11.0869128 607.345562,11.3605307 606.98993,11.948368 C605.93305,13.6924616 606.30037,15.7084079 605.831203,18.1144804 M614.471566,19.9274199 C614.249505,20.8577208 614.112595,21.1313388 614.135969,21.3873039 C614.18105,21.9045301 614.162684,22.6035798 614.456539,22.8648408 C614.700306,23.0802045 615.538463,22.9601657 615.800596,22.6706603 C617.228134,21.1048596 618.580539,19.463152 619.90623,17.7984958 C620.320299,17.2777391 620.073193,16.8011144 619.575642,16.3668562 C617.274884,14.357971 615.606918,14.6986695 614.975796,17.3695335 C614.725351,18.4357608 614.550039,19.5214062 614.471566,19.9274199 M633.620616,24.4112234 C633.512089,24.1764415 633.46367,23.828682 633.286688,23.7210001 C632.18139,23.0378379 631.07943,22.3334924 629.904007,21.8162662 C629.580098,21.6732788 628.778673,22.0104467 628.598352,22.3582063 C627.466339,24.5648025 627.306054,27.0044153 627.352804,29.4599155 C627.357813,29.6699835 627.59824,29.9541931 627.795257,30.0583444 C628.008971,30.1677916 628.397996,30.227811 628.548263,30.1007111 C630.154452,28.7343867 631.762311,27.3610012 633.286688,25.8958213 C633.580544,25.613377 633.518768,24.9178579 633.620616,24.4112234 M620.72936,30.6320594 C620.72936,29.4334364 620.882966,28.4996048 619.999729,28.245405 C619.620722,28.1377231 618.98793,28.5507979 618.628959,28.9056186 C614.830538,32.6568321 611.871944,37.4160188 606.853019,39.7020525 C606.175147,40.0092107 605.974791,42.0410445 606.423923,42.7683386 C606.983251,43.6721604 607.771319,43.4532661 608.507628,43.1072718 C611.147322,41.8733432 613.763641,40.5829257 616.408343,39.3613541 C618.226576,38.5246128 619.383634,37.213012 619.729248,35.0752616 C619.99472,33.4406151 620.450531,31.8395089 620.72936,30.6320594 M408.845938,25.0926203 C404.788724,25.2250161 397.856398,25.4880423 390.924071,25.6716311 C377.585353,26.0246865 364.243296,26.2029795 350.909587,26.6937265 C332.511874,27.3715929 314.122509,28.3018938 295.728134,29.0644935 C283.19585,29.5852502 270.660227,30.0230389 258.126274,30.4308179 C257.112805,30.4625928 255.987471,30.1501388 255.097555,29.6435043 C254.533218,29.3222239 254.035667,28.3530869 254.002274,27.6469761 C253.967212,26.919682 254.34121,25.8693422 254.875493,25.4827465 C255.706972,24.8807871 256.812271,24.4730081 257.82407,24.4112234 C267.94707,23.8233862 278.070069,23.2143656 288.199748,22.8224741 C313.79693,21.8321537 339.395781,20.8418333 365.001311,20.0704073 C382.335466,19.5478853 399.67964,19.3519396 417.020474,19.1030355 C429.028492,18.9282731 441.03818,18.8241218 453.047868,18.8417745 C477.86533,18.8788454 502.694479,18.6140538 527.501923,19.2371966 C547.76295,19.7455963 568.042343,20.4746557 588.244932,22.4888368 C591.163455,22.7783422 594.065281,23.2655586 596.980465,23.5974307 C598.842108,23.8110292 599.925702,22.7730464 599.987478,20.6388265 C600.106022,16.4074576 600.11938,12.1760887 600.216218,7.94471979 C600.241263,6.82729947 600.361477,5.70458332 600.540128,4.60305049 C600.728796,3.43443713 602.443512,2.11577523 603.570516,2.3329043 C604.862814,2.58180836 606.195183,2.84836518 607.387303,3.39913159 C613.005626,6.00114985 618.617271,8.62258615 624.16547,11.3852446 C631.398331,14.9899402 638.577763,18.7199704 645.762205,22.4376437 C646.949316,23.0519601 648.086337,23.8127945 649.159913,24.631883 C650.286917,25.4951034 650.328658,28.3266077 649.253413,29.2339601 C648.428613,29.9294792 647.563741,30.6267636 646.618728,31.1016231 C636.509085,36.199743 626.376067,41.2449046 616.259746,46.3236064 C613.852131,47.5310559 611.511302,48.8903191 609.078644,50.0306881 C607.6294,50.712085 606.078309,51.1798834 604.538905,51.6053151 C603.00451,52.025451 601.054375,50.8427155 600.820626,49.227487 C600.456646,46.734916 600.227906,44.2070393 600.126058,41.6862238 C600.000835,38.5934586 600.134406,35.4883364 600.014193,32.3938058 C599.967443,31.2216619 599.244491,30.2631165 598.042353,30.0954152 C593.285562,29.4334364 588.535449,28.5666854 583.755282,28.2559966 C571.506836,27.461622 559.236685,27.0591388 546.988239,26.2577031 C518.729659,24.4059276 490.437685,24.9107968 462.15573,24.7430955 C445.34417,24.6424747 428.53261,24.9478676 408.845938,25.0926203" id="Fill-61" fill="#000000"></path>
                    </g>
                    <text id="200-OK" font-family="HanziPenTC-W5, HanziPen TC" font-size="35" font-weight="bold" fill="#4A4A4A">
                        <tspan x="262.3975" y="37">200 OK</tspan>
                    </text>
                </g>
                <g id="Security-Rules" transform="translate(829.000000, 1180.000000)">
                    <rect id="Rectangle-4" fill="#FFFFFF" x="214" y="0" width="95" height="172"></rect>
                    <text id="Authentication-Providers" font-family="HanziPenTC-W5, HanziPen TC" font-size="35" font-weight="bold" fill="#4A4A4A">
                        <tspan x="181.3625" y="48">Validate </tspan>
                        <tspan x="127.1475" y="97">requested route </tspan>
                        <tspan x="124.435" y="146">and user against </tspan>
                        <tspan x="139.1" y="195">Security Rules</tspan>
                    </text>
                    <path d="M38.4624857,89.0933014 C35.4804857,88.5813014 32.6484857,89.1213014 29.7884857,89.4613014 C22.8554857,90.2853014 16.5154857,92.8593014 10.3024857,95.8433014 C9.73348571,96.1163014 9.19848571,96.4873014 8.71048571,96.8863014 C8.49948571,97.0593014 8.42648571,97.4173014 8.34148571,97.7053014 C8.32748571,97.7523014 8.57548571,97.9283014 8.72048571,97.9603014 C9.96448571,98.2353014 11.2074857,98.5203014 12.4604857,98.7463014 C14.6604857,99.1453014 16.8734857,99.4773014 19.0694857,99.8943014 C19.8474857,100.041301 20.6074857,100.315301 21.3464857,100.604301 C22.3984857,101.015301 22.9164857,102.088301 22.5024857,102.864301 C22.1154857,103.591301 21.3414857,104.017301 20.5034857,103.820301 C14.4254857,102.388301 8.23348571,101.693301 2.04948571,100.946301 C0.619485711,100.773301 -0.195514289,99.6053014 0.120485711,98.1853014 C1.26548571,93.0393014 2.35548571,87.8743014 4.15048571,82.9043014 C4.47048571,82.0223014 4.95148571,81.1713014 5.50748571,80.4153014 C5.72848571,80.1153014 6.35148571,80.0183014 6.79748571,80.0003014 C7.29648571,79.9813014 8.06248571,80.8653014 8.00348571,81.3223014 C7.90148571,82.1043014 7.79548571,82.8943014 7.58548571,83.6513014 C6.77348571,86.5723014 5.90648571,89.4813014 5.09848571,92.4053014 C5.02948571,92.6543014 5.15348571,93.0823014 5.34348571,93.2413014 C5.51748571,93.3873014 5.97248571,93.3943014 6.18448571,93.2663014 C9.47948571,91.2773014 13.0224857,89.8033014 16.5424857,88.2913014 C22.3374857,85.8053014 28.4394857,84.6753014 34.7134857,84.4203014 C39.8534857,84.2113014 44.9394857,84.7883014 49.9594857,85.8193014 C55.4734857,86.9503014 60.6094857,89.1973014 65.6654857,91.5993014 C74.5024857,95.7973014 81.6274857,102.136301 87.8494857,109.571301 C89.9094857,112.032301 91.5604857,114.781301 93.0664857,117.602301 C94.4184857,120.138301 95.6294857,122.751301 96.8744857,125.344301 C98.5614857,128.858301 99.0264857,132.702301 99.6634857,136.468301 C100.900486,143.792301 100.926486,151.181301 98.9054857,158.349301 C97.0374857,164.978301 94.3074857,171.341301 89.9014857,176.741301 C87.0734857,180.206301 83.6304857,183.109301 80.1924857,185.988301 C73.7574857,191.375301 66.1974857,194.419301 58.1104857,195.864301 C49.2374857,197.450301 40.3394857,196.936301 31.4674857,194.961301 C20.1974857,192.453301 10.7384857,186.803301 2.24148571,179.260301 C1.53148571,178.629301 0.916485711,177.883301 0.310485711,177.148301 C-0.191514289,176.539301 -0.0585142888,175.532301 0.520485711,174.969301 C1.09148571,174.412301 2.14448571,174.188301 2.72548571,174.573301 C3.38648571,175.012301 4.00548571,175.515301 4.63048571,176.005301 C7.39648571,178.175301 10.1084857,180.415301 12.9314857,182.509301 C17.7314857,186.069301 23.0394857,188.567301 28.8334857,190.118301 C32.8574857,191.196301 36.9004857,192.228301 41.0234857,192.649301 C51.9014857,193.761301 62.4124857,192.398301 72.1674857,187.111301 C73.9824857,186.127301 75.7224857,184.937301 77.3054857,183.613301 C80.2444857,181.154301 83.1284857,178.614301 85.8754857,175.943301 C88.3054857,173.578301 89.9034857,170.590301 91.3394857,167.542301 C91.9514857,166.241301 92.3974857,164.862301 93.0354857,163.576301 C96.5814857,156.440301 97.0344857,148.830301 96.3214857,141.104301 C96.0144857,137.775301 95.2354857,134.485301 94.5734857,131.196301 C94.3234857,129.953301 93.9234857,128.705301 93.3734857,127.565301 C91.8464857,124.400301 90.2714857,121.254301 88.5934857,118.166301 C86.2794857,113.909301 82.9834857,110.432301 79.6324857,106.976301 C71.7084857,98.8043014 61.8554857,94.0623014 51.1754857,90.8373014 C47.0374857,89.5893014 42.6774857,89.3873014 38.4624857,89.0933014" id="Fill-57" fill="#000000" transform="translate(50.260903, 138.400213) scale(-1, 1) rotate(180.000000) translate(-50.260903, -138.400213) "></path>
                </g>
                <g id="FOUND-ID=42" transform="translate(672.000000, 1066.000000)">
                    <text id="SET-ID=A42-{-User-Principal}" font-family="HanziPenTC-W5, HanziPen TC" font-size="35" font-weight="bold" fill="#4A4A4A">
                        <tspan x="147.9" y="37">FOUND User…</tspan>
                    </text>
                    <path d="M373.98087,59.242042 C374.071849,59.7865515 374.205577,60.6547925 374.375478,61.515026 C374.402881,61.6511534 374.579359,61.7918565 374.718568,61.8570604 C374.844623,61.9165446 375.135098,61.9119689 375.144963,61.8753632 C375.686453,59.8128618 376.56336,57.8098447 376.296999,55.5997767 C376.266308,55.3458247 375.873892,55.0975925 375.603147,54.9260033 C375.231558,54.6880664 374.975063,54.8653752 374.741586,55.246303 C374.047734,56.3765035 374.288883,57.6828687 373.98087,59.242042 M379.653359,60.4168556 C379.507574,61.0197054 379.417691,61.1970142 379.433036,61.3628837 C379.462632,61.6980544 379.450575,62.1510498 379.643494,62.320351 C379.803529,62.4599102 380.353788,62.3821231 380.525881,62.194519 C381.463075,61.1798553 382.350943,60.1160026 383.221273,59.037279 C383.493114,58.6998203 383.330886,58.3909599 383.004238,58.1095537 C381.493767,56.8077642 380.39873,57.0285422 379.984391,58.7593046 C379.819971,59.4502368 379.704878,60.1537523 379.653359,60.4168556 M392.224911,63.3224316 C392.153662,63.1702892 392.121874,62.9449355 392.005684,62.8751559 C391.280044,62.4324559 390.556596,61.9760288 389.784918,61.6408581 C389.572268,61.5481999 389.046125,61.7666901 388.927742,61.9920438 C388.184564,63.4219533 388.079335,65.0028612 388.110027,66.5940644 C388.113315,66.7301918 388.271158,66.9143641 388.400502,66.9818558 C388.540807,67.0527793 388.796206,67.0916729 388.894858,67.0093101 C389.949338,66.1239102 391.004915,65.2339345 392.005684,64.2844747 C392.198604,64.1014462 392.158047,63.6507388 392.224911,63.3224316 M383.761666,67.3536323 C383.761666,66.5769055 383.862511,65.9717678 383.282656,65.8070422 C383.033834,65.7372626 382.6184,66.0049417 382.382731,66.2348711 C379.889028,68.6657172 377.94668,71.7497459 374.651704,73.2311321 C374.206673,73.4301755 374.075137,74.7468361 374.369997,75.2181342 C374.737202,75.8038251 375.254577,75.6619781 375.737972,75.4377683 C377.470958,74.6381629 379.188599,73.8019519 380.924874,73.010354 C382.118563,72.4681324 382.878183,71.6181942 383.105083,70.2328979 C383.279368,69.173621 383.578612,68.1360787 383.761666,67.3536323 M244.657981,63.7639876 C241.994377,63.8497822 237.443232,64.0202274 232.892087,64.1391959 C224.135079,64.3679814 215.375879,64.483518 206.622159,64.8015299 C194.543868,65.2407981 182.471057,65.8436479 170.394957,66.3378246 C162.167382,66.6752832 153.937614,66.9589773 145.708942,67.2232245 C145.043589,67.2438152 144.304795,67.0413401 143.720556,66.7130328 C143.350063,66.504838 143.023416,65.8768218 143.001493,65.4192508 C142.978474,64.9479526 143.224008,64.2673157 143.574771,64.0167956 C144.120645,63.6267163 144.846285,63.362469 145.510542,63.3224316 C152.156397,62.9415037 158.802253,62.5468487 165.452493,62.2928968 C182.257311,61.6511534 199.063225,61.0094101 215.873523,60.5095137 C227.253578,60.1709112 238.640209,60.0439352 250.024649,59.8826414 C257.908039,59.7693926 265.792525,59.7019009 273.677011,59.7133401 C289.969934,59.7373626 306.270531,59.5657735 322.556878,59.9695799 C335.858454,60.2990311 349.172088,60.7714731 362.435299,62.0766945 C364.35134,62.2642986 366.256419,62.5800226 368.170268,62.795081 C369.392456,62.9334962 370.103847,62.2608668 370.144404,60.8778584 C370.222229,58.135864 370.230998,55.3938697 370.294574,52.6518753 C370.311016,51.9277692 370.389938,51.2002313 370.507224,50.4864205 C370.631087,49.7291404 371.756816,48.8746266 372.496706,49.0153297 C373.345113,49.1766234 374.219827,49.3493565 375.002466,49.7062619 C378.690954,51.3924111 382.375058,53.0911435 386.017509,54.8813902 C390.765957,57.2172902 395.47933,59.6344091 400.195991,62.0435206 C400.975342,62.4416074 401.721809,62.9346401 402.426622,63.4654225 C403.166512,64.0248031 403.193916,65.8596629 402.488006,66.4476417 C401.946516,66.8983491 401.378719,67.3502005 400.758308,67.657917 C394.121221,70.9615798 387.468789,74.2309247 380.827318,77.5220043 C379.246694,78.3044508 377.709915,79.185275 376.112849,79.9242522 C375.161405,80.3658082 374.143098,80.668949 373.132463,80.9446356 C372.125117,81.2168903 370.844833,80.4504589 370.691374,79.4037651 C370.452417,77.7885394 370.302247,76.1504352 370.235383,74.5169066 C370.153173,72.5127456 370.240864,70.500577 370.161942,68.495272 C370.13125,67.7357041 369.656625,67.1145514 368.867409,67.0058783 C365.744525,66.5769055 362.626026,66.015237 359.487797,65.8139058 C351.446564,65.2991384 343.391081,65.0383229 335.349848,64.5189798 C316.797794,63.3189998 298.223817,63.6461631 279.656417,63.53749 C268.619452,63.4722861 257.582487,63.6701856 244.657981,63.7639876" id="Fill-61" fill="#000000" transform="translate(273.000000, 65.000000) scale(-1, 1) translate(-273.000000, -65.000000) "></path>
                </g>
                <g id="GET-ID=42" transform="translate(672.000000, 966.000000)">
                    <text id="SET-ID=A42-{-User-Principal}" font-family="HanziPenTC-W5, HanziPen TC" font-size="35" font-weight="bold" fill="#4A4A4A">
                        <tspan x="173.1875" y="37">GET ID=42</tspan>
                    </text>
                    <path d="M373.98087,51.242042 C374.071849,51.7865515 374.205577,52.6547925 374.375478,53.515026 C374.402881,53.6511534 374.579359,53.7918565 374.718568,53.8570604 C374.844623,53.9165446 375.135098,53.9119689 375.144963,53.8753632 C375.686453,51.8128618 376.56336,49.8098447 376.296999,47.5997767 C376.266308,47.3458247 375.873892,47.0975925 375.603147,46.9260033 C375.231558,46.6880664 374.975063,46.8653752 374.741586,47.246303 C374.047734,48.3765035 374.288883,49.6828687 373.98087,51.242042 M379.653359,52.4168556 C379.507574,53.0197054 379.417691,53.1970142 379.433036,53.3628837 C379.462632,53.6980544 379.450575,54.1510498 379.643494,54.320351 C379.803529,54.4599102 380.353788,54.3821231 380.525881,54.194519 C381.463075,53.1798553 382.350943,52.1160026 383.221273,51.037279 C383.493114,50.6998203 383.330886,50.3909599 383.004238,50.1095537 C381.493767,48.8077642 380.39873,49.0285422 379.984391,50.7593046 C379.819971,51.4502368 379.704878,52.1537523 379.653359,52.4168556 M392.224911,55.3224316 C392.153662,55.1702892 392.121874,54.9449355 392.005684,54.8751559 C391.280044,54.4324559 390.556596,53.9760288 389.784918,53.6408581 C389.572268,53.5481999 389.046125,53.7666901 388.927742,53.9920438 C388.184564,55.4219533 388.079335,57.0028612 388.110027,58.5940644 C388.113315,58.7301918 388.271158,58.9143641 388.400502,58.9818558 C388.540807,59.0527793 388.796206,59.0916729 388.894858,59.0093101 C389.949338,58.1239102 391.004915,57.2339345 392.005684,56.2844747 C392.198604,56.1014462 392.158047,55.6507388 392.224911,55.3224316 M383.761666,59.3536323 C383.761666,58.5769055 383.862511,57.9717678 383.282656,57.8070422 C383.033834,57.7372626 382.6184,58.0049417 382.382731,58.2348711 C379.889028,60.6657172 377.94668,63.7497459 374.651704,65.2311321 C374.206673,65.4301755 374.075137,66.7468361 374.369997,67.2181342 C374.737202,67.8038251 375.254577,67.6619781 375.737972,67.4377683 C377.470958,66.6381629 379.188599,65.8019519 380.924874,65.010354 C382.118563,64.4681324 382.878183,63.6181942 383.105083,62.2328979 C383.279368,61.173621 383.578612,60.1360787 383.761666,59.3536323 M244.657981,55.7639876 C241.994377,55.8497822 237.443232,56.0202274 232.892087,56.1391959 C224.135079,56.3679814 215.375879,56.483518 206.622159,56.8015299 C194.543868,57.2407981 182.471057,57.8436479 170.394957,58.3378246 C162.167382,58.6752832 153.937614,58.9589773 145.708942,59.2232245 C145.043589,59.2438152 144.304795,59.0413401 143.720556,58.7130328 C143.350063,58.504838 143.023416,57.8768218 143.001493,57.4192508 C142.978474,56.9479526 143.224008,56.2673157 143.574771,56.0167956 C144.120645,55.6267163 144.846285,55.362469 145.510542,55.3224316 C152.156397,54.9415037 158.802253,54.5468487 165.452493,54.2928968 C182.257311,53.6511534 199.063225,53.0094101 215.873523,52.5095137 C227.253578,52.1709112 238.640209,52.0439352 250.024649,51.8826414 C257.908039,51.7693926 265.792525,51.7019009 273.677011,51.7133401 C289.969934,51.7373626 306.270531,51.5657735 322.556878,51.9695799 C335.858454,52.2990311 349.172088,52.7714731 362.435299,54.0766945 C364.35134,54.2642986 366.256419,54.5800226 368.170268,54.795081 C369.392456,54.9334962 370.103847,54.2608668 370.144404,52.8778584 C370.222229,50.135864 370.230998,47.3938697 370.294574,44.6518753 C370.311016,43.9277692 370.389938,43.2002313 370.507224,42.4864205 C370.631087,41.7291404 371.756816,40.8746266 372.496706,41.0153297 C373.345113,41.1766234 374.219827,41.3493565 375.002466,41.7062619 C378.690954,43.3924111 382.375058,45.0911435 386.017509,46.8813902 C390.765957,49.2172902 395.47933,51.6344091 400.195991,54.0435206 C400.975342,54.4416074 401.721809,54.9346401 402.426622,55.4654225 C403.166512,56.0248031 403.193916,57.8596629 402.488006,58.4476417 C401.946516,58.8983491 401.378719,59.3502005 400.758308,59.657917 C394.121221,62.9615798 387.468789,66.2309247 380.827318,69.5220043 C379.246694,70.3044508 377.709915,71.185275 376.112849,71.9242522 C375.161405,72.3658082 374.143098,72.668949 373.132463,72.9446356 C372.125117,73.2168903 370.844833,72.4504589 370.691374,71.4037651 C370.452417,69.7885394 370.302247,68.1504352 370.235383,66.5169066 C370.153173,64.5127456 370.240864,62.500577 370.161942,60.495272 C370.13125,59.7357041 369.656625,59.1145514 368.867409,59.0058783 C365.744525,58.5769055 362.626026,58.015237 359.487797,57.8139058 C351.446564,57.2991384 343.391081,57.0383229 335.349848,56.5189798 C316.797794,55.3189998 298.223817,55.6461631 279.656417,55.53749 C268.619452,55.4722861 257.582487,55.6701856 244.657981,55.7639876" id="Fill-61" fill="#000000"></path>
                </g>
                <g id="GET-with-Cookie" transform="translate(122.000000, 907.000000)">
                    <g id="LEFT-Arrow" transform="translate(9.000000, 36.000000)">
                        <path d="M577.481745,23.1144804 C577.709204,23.9547523 578.043542,25.2945975 578.468315,26.6220858 C578.536827,26.8321537 578.978043,27.0492828 579.326083,27.1499036 C579.641238,27.241698 580.367463,27.2346369 580.392127,27.178148 C581.745921,23.9953536 583.9383,20.9043537 583.272365,17.4938385 C583.195632,17.1019471 582.214542,16.718882 581.537645,16.4540904 C580.608625,16.0869128 579.967354,16.3605307 579.383633,16.948368 C577.648914,18.6924616 578.251818,20.7084079 577.481745,23.1144804 M591.663694,24.9274199 C591.299211,25.8577208 591.074492,26.1313388 591.112859,26.3873039 C591.186852,26.9045301 591.156706,27.6035798 591.63903,27.8648408 C592.039139,28.0802045 593.414856,27.9601657 593.845111,27.6706603 C596.188215,26.1048596 598.407999,24.463152 600.583935,22.7984958 C601.263572,22.2777391 600.857982,21.8011144 600.041321,21.3668562 C596.264949,19.357971 593.527216,19.6986695 592.491317,22.3695335 C592.080246,23.4357608 591.792496,24.5214062 591.663694,24.9274199 M623.094182,29.4112234 C622.916051,29.1764415 622.836578,28.828682 622.546088,28.7210001 C620.731894,28.0378379 618.923182,27.3334924 616.993889,26.8162662 C616.462237,26.6732788 615.14681,27.0104467 614.850839,27.3582063 C612.992798,29.5648025 612.729712,32.0044153 612.806445,34.4599155 C612.814667,34.6699835 613.209295,34.9541931 613.532671,35.0583444 C613.883451,35.1677916 614.521982,35.227811 614.768624,35.1007111 C617.40496,33.7343867 620.044035,32.3610012 622.546088,30.8958213 C623.028411,30.613377 622.927013,29.9178579 623.094182,29.4112234 M601.934988,35.6320594 C601.934988,34.4334364 602.187111,33.4996048 600.737401,33.245405 C600.115314,33.1377231 599.076674,33.5507979 598.487473,33.9056186 C592.252896,37.6568321 587.396777,42.4160188 579.158914,44.7020525 C578.046282,45.0092107 577.717425,47.0410445 578.454613,47.7683386 C579.372671,48.6721604 580.666175,48.4532661 581.874723,48.1072718 C586.207412,46.8733432 590.501733,45.5829257 594.842643,44.3613541 C597.827018,43.5246128 599.726166,42.213012 600.293444,40.0752616 C600.72918,38.4406151 601.477329,36.8395089 601.934988,35.6320594 M254.157966,30.0926203 C247.498616,30.2250161 236.120171,30.4880423 224.741725,30.6716311 C202.848084,31.0246865 180.948962,31.2029795 159.063543,31.6937265 C128.866267,32.3715929 98.6826946,33.3018938 68.4909004,34.0644935 C47.9209079,34.5852502 27.3454344,35.0230389 6.77270145,35.4308179 C5.10923416,35.4625928 3.26215517,35.1501388 1.8014829,34.6435043 C0.875202933,34.3222239 0.0585418926,33.3530869 0.0037324268,32.6469761 C-0.0538175123,31.919682 0.560048504,30.8693422 1.43699996,30.4827465 C2.80175565,29.8807871 4.61594897,29.4730081 6.27667578,29.4112234 C22.8921653,28.8233862 39.5076549,28.2143656 56.1341063,27.8224741 C98.1483023,26.8321537 140.165239,25.8418333 182.193137,25.0704073 C210.644731,24.5478853 239.112767,24.3519396 267.575323,24.1030355 C287.284807,23.9282731 306.997031,23.8241218 326.709256,23.8417745 C367.443651,23.8788454 408.197229,23.6140538 448.915181,24.2371966 C482.170824,24.7455963 515.456613,25.4746557 548.61634,27.4888368 C553.406687,27.7783422 558.16963,28.2655586 562.954496,28.5974307 C566.010124,28.8110292 567.788691,27.7730464 567.890088,25.6388265 C568.084662,21.4074576 568.106586,17.1760887 568.265533,12.9447198 C568.30664,11.8272995 568.503954,10.7045833 568.797185,9.60305049 C569.106858,8.43443713 571.921324,7.11577523 573.771144,7.3329043 C575.89227,7.58180836 578.079168,7.84836518 580.035866,8.39913159 C589.257558,11.0011498 598.468289,13.6225862 607.574882,16.3852446 C619.446612,19.9899402 631.230647,23.7199704 643.022904,27.4376437 C644.97138,28.0519601 646.837643,28.8127945 648.599767,29.631883 C650.449587,30.4951034 650.518098,33.3266077 648.753234,34.2339601 C647.39944,34.9294792 645.979875,35.6267636 644.428767,36.1016231 C627.835201,41.199743 611.203269,46.2449046 594.598741,51.3236064 C590.646978,52.5310559 586.804835,53.8903191 582.811965,55.0306881 C580.433235,55.712085 577.887335,56.1798834 575.360618,56.6053151 C572.842123,57.025451 569.641251,55.8427155 569.257584,54.227487 C568.660161,51.734916 568.284716,49.2070393 568.117548,46.6862238 C567.912012,43.5934586 568.13125,40.4883364 567.933936,37.3938058 C567.857203,36.2216619 566.670578,35.2631165 564.697437,35.0954152 C556.889828,34.4334364 549.093182,33.5666854 541.247207,33.2559966 C521.143095,32.461622 501.003357,32.0591388 480.899245,31.2577031 C434.516734,29.4059276 388.079414,29.9107968 341.658537,29.7430955 C314.064712,29.6424747 286.470886,29.9478676 254.157966,30.0926203" id="Fill-61" fill="#000000"></path>
                        <rect id="Rectangle-3" fill="#FFFFFF" x="260" y="8" width="327" height="45"></rect>
                        <rect id="Rectangle-2" fill="#FFFFFF" x="569" y="0" width="86" height="57"></rect>
                        <path d="M605.831203,18.1144804 C605.969782,18.9547523 606.173478,20.2945975 606.432271,21.6220858 C606.474012,21.8321537 606.742824,22.0492828 606.954867,22.1499036 C607.146875,22.241698 607.589329,22.2346369 607.604355,22.178148 C608.429155,18.9953536 609.764864,15.9043537 609.359142,12.4938385 C609.312393,12.1019471 608.714663,11.718882 608.302263,11.4540904 C607.736257,11.0869128 607.345562,11.3605307 606.98993,11.948368 C605.93305,13.6924616 606.30037,15.7084079 605.831203,18.1144804 M614.471566,19.9274199 C614.249505,20.8577208 614.112595,21.1313388 614.135969,21.3873039 C614.18105,21.9045301 614.162684,22.6035798 614.456539,22.8648408 C614.700306,23.0802045 615.538463,22.9601657 615.800596,22.6706603 C617.228134,21.1048596 618.580539,19.463152 619.90623,17.7984958 C620.320299,17.2777391 620.073193,16.8011144 619.575642,16.3668562 C617.274884,14.357971 615.606918,14.6986695 614.975796,17.3695335 C614.725351,18.4357608 614.550039,19.5214062 614.471566,19.9274199 M633.620616,24.4112234 C633.512089,24.1764415 633.46367,23.828682 633.286688,23.7210001 C632.18139,23.0378379 631.07943,22.3334924 629.904007,21.8162662 C629.580098,21.6732788 628.778673,22.0104467 628.598352,22.3582063 C627.466339,24.5648025 627.306054,27.0044153 627.352804,29.4599155 C627.357813,29.6699835 627.59824,29.9541931 627.795257,30.0583444 C628.008971,30.1677916 628.397996,30.227811 628.548263,30.1007111 C630.154452,28.7343867 631.762311,27.3610012 633.286688,25.8958213 C633.580544,25.613377 633.518768,24.9178579 633.620616,24.4112234 M620.72936,30.6320594 C620.72936,29.4334364 620.882966,28.4996048 619.999729,28.245405 C619.620722,28.1377231 618.98793,28.5507979 618.628959,28.9056186 C614.830538,32.6568321 611.871944,37.4160188 606.853019,39.7020525 C606.175147,40.0092107 605.974791,42.0410445 606.423923,42.7683386 C606.983251,43.6721604 607.771319,43.4532661 608.507628,43.1072718 C611.147322,41.8733432 613.763641,40.5829257 616.408343,39.3613541 C618.226576,38.5246128 619.383634,37.213012 619.729248,35.0752616 C619.99472,33.4406151 620.450531,31.8395089 620.72936,30.6320594 M408.845938,25.0926203 C404.788724,25.2250161 397.856398,25.4880423 390.924071,25.6716311 C377.585353,26.0246865 364.243296,26.2029795 350.909587,26.6937265 C332.511874,27.3715929 314.122509,28.3018938 295.728134,29.0644935 C283.19585,29.5852502 270.660227,30.0230389 258.126274,30.4308179 C257.112805,30.4625928 255.987471,30.1501388 255.097555,29.6435043 C254.533218,29.3222239 254.035667,28.3530869 254.002274,27.6469761 C253.967212,26.919682 254.34121,25.8693422 254.875493,25.4827465 C255.706972,24.8807871 256.812271,24.4730081 257.82407,24.4112234 C267.94707,23.8233862 278.070069,23.2143656 288.199748,22.8224741 C313.79693,21.8321537 339.395781,20.8418333 365.001311,20.0704073 C382.335466,19.5478853 399.67964,19.3519396 417.020474,19.1030355 C429.028492,18.9282731 441.03818,18.8241218 453.047868,18.8417745 C477.86533,18.8788454 502.694479,18.6140538 527.501923,19.2371966 C547.76295,19.7455963 568.042343,20.4746557 588.244932,22.4888368 C591.163455,22.7783422 594.065281,23.2655586 596.980465,23.5974307 C598.842108,23.8110292 599.925702,22.7730464 599.987478,20.6388265 C600.106022,16.4074576 600.11938,12.1760887 600.216218,7.94471979 C600.241263,6.82729947 600.361477,5.70458332 600.540128,4.60305049 C600.728796,3.43443713 602.443512,2.11577523 603.570516,2.3329043 C604.862814,2.58180836 606.195183,2.84836518 607.387303,3.39913159 C613.005626,6.00114985 618.617271,8.62258615 624.16547,11.3852446 C631.398331,14.9899402 638.577763,18.7199704 645.762205,22.4376437 C646.949316,23.0519601 648.086337,23.8127945 649.159913,24.631883 C650.286917,25.4951034 650.328658,28.3266077 649.253413,29.2339601 C648.428613,29.9294792 647.563741,30.6267636 646.618728,31.1016231 C636.509085,36.199743 626.376067,41.2449046 616.259746,46.3236064 C613.852131,47.5310559 611.511302,48.8903191 609.078644,50.0306881 C607.6294,50.712085 606.078309,51.1798834 604.538905,51.6053151 C603.00451,52.025451 601.054375,50.8427155 600.820626,49.227487 C600.456646,46.734916 600.227906,44.2070393 600.126058,41.6862238 C600.000835,38.5934586 600.134406,35.4883364 600.014193,32.3938058 C599.967443,31.2216619 599.244491,30.2631165 598.042353,30.0954152 C593.285562,29.4334364 588.535449,28.5666854 583.755282,28.2559966 C571.506836,27.461622 559.236685,27.0591388 546.988239,26.2577031 C518.729659,24.4059276 490.437685,24.9107968 462.15573,24.7430955 C445.34417,24.6424747 428.53261,24.9478676 408.845938,25.0926203" id="Fill-61" fill="#000000"></path>
                    </g>
                    <text id="GET-http://micronaut" font-family="HanziPenTC-W5, HanziPen TC" font-size="35" font-weight="bold" fill="#4A4A4A">
                        <tspan x="25.2375" y="37">GET  http://micronaut.example/books</tspan>
                    </text>
                    <text id="Cookie:-SessionID=A4" font-family="HanziPenTC-W5, HanziPen TC" font-size="35" font-weight="bold" fill="#4A4A4A">
                        <tspan x="155.3275" y="112">Cookie: SessionID=A42</tspan>
                    </text>
                </g>
                <g id="SET-Cookie" transform="translate(121.000000, 706.000000)">
                    <g id="LEFT-Arrow-Copy" transform="translate(327.500000, 55.500000) rotate(-180.000000) translate(-327.500000, -55.500000) translate(0.000000, 27.000000)">
                        <path d="M577.481745,23.1144804 C577.709204,23.9547523 578.043542,25.2945975 578.468315,26.6220858 C578.536827,26.8321537 578.978043,27.0492828 579.326083,27.1499036 C579.641238,27.241698 580.367463,27.2346369 580.392127,27.178148 C581.745921,23.9953536 583.9383,20.9043537 583.272365,17.4938385 C583.195632,17.1019471 582.214542,16.718882 581.537645,16.4540904 C580.608625,16.0869128 579.967354,16.3605307 579.383633,16.948368 C577.648914,18.6924616 578.251818,20.7084079 577.481745,23.1144804 M591.663694,24.9274199 C591.299211,25.8577208 591.074492,26.1313388 591.112859,26.3873039 C591.186852,26.9045301 591.156706,27.6035798 591.63903,27.8648408 C592.039139,28.0802045 593.414856,27.9601657 593.845111,27.6706603 C596.188215,26.1048596 598.407999,24.463152 600.583935,22.7984958 C601.263572,22.2777391 600.857982,21.8011144 600.041321,21.3668562 C596.264949,19.357971 593.527216,19.6986695 592.491317,22.3695335 C592.080246,23.4357608 591.792496,24.5214062 591.663694,24.9274199 M623.094182,29.4112234 C622.916051,29.1764415 622.836578,28.828682 622.546088,28.7210001 C620.731894,28.0378379 618.923182,27.3334924 616.993889,26.8162662 C616.462237,26.6732788 615.14681,27.0104467 614.850839,27.3582063 C612.992798,29.5648025 612.729712,32.0044153 612.806445,34.4599155 C612.814667,34.6699835 613.209295,34.9541931 613.532671,35.0583444 C613.883451,35.1677916 614.521982,35.227811 614.768624,35.1007111 C617.40496,33.7343867 620.044035,32.3610012 622.546088,30.8958213 C623.028411,30.613377 622.927013,29.9178579 623.094182,29.4112234 M601.934988,35.6320594 C601.934988,34.4334364 602.187111,33.4996048 600.737401,33.245405 C600.115314,33.1377231 599.076674,33.5507979 598.487473,33.9056186 C592.252896,37.6568321 587.396777,42.4160188 579.158914,44.7020525 C578.046282,45.0092107 577.717425,47.0410445 578.454613,47.7683386 C579.372671,48.6721604 580.666175,48.4532661 581.874723,48.1072718 C586.207412,46.8733432 590.501733,45.5829257 594.842643,44.3613541 C597.827018,43.5246128 599.726166,42.213012 600.293444,40.0752616 C600.72918,38.4406151 601.477329,36.8395089 601.934988,35.6320594 M254.157966,30.0926203 C247.498616,30.2250161 236.120171,30.4880423 224.741725,30.6716311 C202.848084,31.0246865 180.948962,31.2029795 159.063543,31.6937265 C128.866267,32.3715929 98.6826946,33.3018938 68.4909004,34.0644935 C47.9209079,34.5852502 27.3454344,35.0230389 6.77270145,35.4308179 C5.10923416,35.4625928 3.26215517,35.1501388 1.8014829,34.6435043 C0.875202933,34.3222239 0.0585418926,33.3530869 0.0037324268,32.6469761 C-0.0538175123,31.919682 0.560048504,30.8693422 1.43699996,30.4827465 C2.80175565,29.8807871 4.61594897,29.4730081 6.27667578,29.4112234 C22.8921653,28.8233862 39.5076549,28.2143656 56.1341063,27.8224741 C98.1483023,26.8321537 140.165239,25.8418333 182.193137,25.0704073 C210.644731,24.5478853 239.112767,24.3519396 267.575323,24.1030355 C287.284807,23.9282731 306.997031,23.8241218 326.709256,23.8417745 C367.443651,23.8788454 408.197229,23.6140538 448.915181,24.2371966 C482.170824,24.7455963 515.456613,25.4746557 548.61634,27.4888368 C553.406687,27.7783422 558.16963,28.2655586 562.954496,28.5974307 C566.010124,28.8110292 567.788691,27.7730464 567.890088,25.6388265 C568.084662,21.4074576 568.106586,17.1760887 568.265533,12.9447198 C568.30664,11.8272995 568.503954,10.7045833 568.797185,9.60305049 C569.106858,8.43443713 571.921324,7.11577523 573.771144,7.3329043 C575.89227,7.58180836 578.079168,7.84836518 580.035866,8.39913159 C589.257558,11.0011498 598.468289,13.6225862 607.574882,16.3852446 C619.446612,19.9899402 631.230647,23.7199704 643.022904,27.4376437 C644.97138,28.0519601 646.837643,28.8127945 648.599767,29.631883 C650.449587,30.4951034 650.518098,33.3266077 648.753234,34.2339601 C647.39944,34.9294792 645.979875,35.6267636 644.428767,36.1016231 C627.835201,41.199743 611.203269,46.2449046 594.598741,51.3236064 C590.646978,52.5310559 586.804835,53.8903191 582.811965,55.0306881 C580.433235,55.712085 577.887335,56.1798834 575.360618,56.6053151 C572.842123,57.025451 569.641251,55.8427155 569.257584,54.227487 C568.660161,51.734916 568.284716,49.2070393 568.117548,46.6862238 C567.912012,43.5934586 568.13125,40.4883364 567.933936,37.3938058 C567.857203,36.2216619 566.670578,35.2631165 564.697437,35.0954152 C556.889828,34.4334364 549.093182,33.5666854 541.247207,33.2559966 C521.143095,32.461622 501.003357,32.0591388 480.899245,31.2577031 C434.516734,29.4059276 388.079414,29.9107968 341.658537,29.7430955 C314.064712,29.6424747 286.470886,29.9478676 254.157966,30.0926203" id="Fill-61" fill="#000000"></path>
                        <rect id="Rectangle-3" fill="#FFFFFF" x="260" y="8" width="327" height="45"></rect>
                        <rect id="Rectangle-2" fill="#FFFFFF" x="569" y="0" width="86" height="57"></rect>
                        <path d="M605.831203,18.1144804 C605.969782,18.9547523 606.173478,20.2945975 606.432271,21.6220858 C606.474012,21.8321537 606.742824,22.0492828 606.954867,22.1499036 C607.146875,22.241698 607.589329,22.2346369 607.604355,22.178148 C608.429155,18.9953536 609.764864,15.9043537 609.359142,12.4938385 C609.312393,12.1019471 608.714663,11.718882 608.302263,11.4540904 C607.736257,11.0869128 607.345562,11.3605307 606.98993,11.948368 C605.93305,13.6924616 606.30037,15.7084079 605.831203,18.1144804 M614.471566,19.9274199 C614.249505,20.8577208 614.112595,21.1313388 614.135969,21.3873039 C614.18105,21.9045301 614.162684,22.6035798 614.456539,22.8648408 C614.700306,23.0802045 615.538463,22.9601657 615.800596,22.6706603 C617.228134,21.1048596 618.580539,19.463152 619.90623,17.7984958 C620.320299,17.2777391 620.073193,16.8011144 619.575642,16.3668562 C617.274884,14.357971 615.606918,14.6986695 614.975796,17.3695335 C614.725351,18.4357608 614.550039,19.5214062 614.471566,19.9274199 M633.620616,24.4112234 C633.512089,24.1764415 633.46367,23.828682 633.286688,23.7210001 C632.18139,23.0378379 631.07943,22.3334924 629.904007,21.8162662 C629.580098,21.6732788 628.778673,22.0104467 628.598352,22.3582063 C627.466339,24.5648025 627.306054,27.0044153 627.352804,29.4599155 C627.357813,29.6699835 627.59824,29.9541931 627.795257,30.0583444 C628.008971,30.1677916 628.397996,30.227811 628.548263,30.1007111 C630.154452,28.7343867 631.762311,27.3610012 633.286688,25.8958213 C633.580544,25.613377 633.518768,24.9178579 633.620616,24.4112234 M620.72936,30.6320594 C620.72936,29.4334364 620.882966,28.4996048 619.999729,28.245405 C619.620722,28.1377231 618.98793,28.5507979 618.628959,28.9056186 C614.830538,32.6568321 611.871944,37.4160188 606.853019,39.7020525 C606.175147,40.0092107 605.974791,42.0410445 606.423923,42.7683386 C606.983251,43.6721604 607.771319,43.4532661 608.507628,43.1072718 C611.147322,41.8733432 613.763641,40.5829257 616.408343,39.3613541 C618.226576,38.5246128 619.383634,37.213012 619.729248,35.0752616 C619.99472,33.4406151 620.450531,31.8395089 620.72936,30.6320594 M408.845938,25.0926203 C404.788724,25.2250161 397.856398,25.4880423 390.924071,25.6716311 C377.585353,26.0246865 364.243296,26.2029795 350.909587,26.6937265 C332.511874,27.3715929 314.122509,28.3018938 295.728134,29.0644935 C283.19585,29.5852502 270.660227,30.0230389 258.126274,30.4308179 C257.112805,30.4625928 255.987471,30.1501388 255.097555,29.6435043 C254.533218,29.3222239 254.035667,28.3530869 254.002274,27.6469761 C253.967212,26.919682 254.34121,25.8693422 254.875493,25.4827465 C255.706972,24.8807871 256.812271,24.4730081 257.82407,24.4112234 C267.94707,23.8233862 278.070069,23.2143656 288.199748,22.8224741 C313.79693,21.8321537 339.395781,20.8418333 365.001311,20.0704073 C382.335466,19.5478853 399.67964,19.3519396 417.020474,19.1030355 C429.028492,18.9282731 441.03818,18.8241218 453.047868,18.8417745 C477.86533,18.8788454 502.694479,18.6140538 527.501923,19.2371966 C547.76295,19.7455963 568.042343,20.4746557 588.244932,22.4888368 C591.163455,22.7783422 594.065281,23.2655586 596.980465,23.5974307 C598.842108,23.8110292 599.925702,22.7730464 599.987478,20.6388265 C600.106022,16.4074576 600.11938,12.1760887 600.216218,7.94471979 C600.241263,6.82729947 600.361477,5.70458332 600.540128,4.60305049 C600.728796,3.43443713 602.443512,2.11577523 603.570516,2.3329043 C604.862814,2.58180836 606.195183,2.84836518 607.387303,3.39913159 C613.005626,6.00114985 618.617271,8.62258615 624.16547,11.3852446 C631.398331,14.9899402 638.577763,18.7199704 645.762205,22.4376437 C646.949316,23.0519601 648.086337,23.8127945 649.159913,24.631883 C650.286917,25.4951034 650.328658,28.3266077 649.253413,29.2339601 C648.428613,29.9294792 647.563741,30.6267636 646.618728,31.1016231 C636.509085,36.199743 626.376067,41.2449046 616.259746,46.3236064 C613.852131,47.5310559 611.511302,48.8903191 609.078644,50.0306881 C607.6294,50.712085 606.078309,51.1798834 604.538905,51.6053151 C603.00451,52.025451 601.054375,50.8427155 600.820626,49.227487 C600.456646,46.734916 600.227906,44.2070393 600.126058,41.6862238 C600.000835,38.5934586 600.134406,35.4883364 600.014193,32.3938058 C599.967443,31.2216619 599.244491,30.2631165 598.042353,30.0954152 C593.285562,29.4334364 588.535449,28.5666854 583.755282,28.2559966 C571.506836,27.461622 559.236685,27.0591388 546.988239,26.2577031 C518.729659,24.4059276 490.437685,24.9107968 462.15573,24.7430955 C445.34417,24.6424747 428.53261,24.9478676 408.845938,25.0926203" id="Fill-61" fill="#000000"></path>
                    </g>
                    <text id="200-OK" font-family="HanziPenTC-W5, HanziPen TC" font-size="35" font-weight="bold" fill="#4A4A4A">
                        <tspan x="262.3975" y="37">200 OK</tspan>
                    </text>
                    <text id="Set-Cookie:-SessionI" font-family="HanziPenTC-W5, HanziPen TC" font-size="35" font-weight="bold" fill="#4A4A4A">
                        <tspan x="126.615" y="107">Set-Cookie: SessionID=A42</tspan>
                    </text>
                </g>
                <g id="SET-ID=42" transform="translate(662.000000, 586.000000)">
                    <text id="SET-ID=A42-{-User-Principal}" font-family="HanziPenTC-W5, HanziPen TC" font-size="35" font-weight="bold" fill="#4A4A4A">
                        <tspan x="230.0275" y="37">SET</tspan>
                    </text>
                    <path d="M373.98087,51.242042 C374.071849,51.7865515 374.205577,52.6547925 374.375478,53.515026 C374.402881,53.6511534 374.579359,53.7918565 374.718568,53.8570604 C374.844623,53.9165446 375.135098,53.9119689 375.144963,53.8753632 C375.686453,51.8128618 376.56336,49.8098447 376.296999,47.5997767 C376.266308,47.3458247 375.873892,47.0975925 375.603147,46.9260033 C375.231558,46.6880664 374.975063,46.8653752 374.741586,47.246303 C374.047734,48.3765035 374.288883,49.6828687 373.98087,51.242042 M379.653359,52.4168556 C379.507574,53.0197054 379.417691,53.1970142 379.433036,53.3628837 C379.462632,53.6980544 379.450575,54.1510498 379.643494,54.320351 C379.803529,54.4599102 380.353788,54.3821231 380.525881,54.194519 C381.463075,53.1798553 382.350943,52.1160026 383.221273,51.037279 C383.493114,50.6998203 383.330886,50.3909599 383.004238,50.1095537 C381.493767,48.8077642 380.39873,49.0285422 379.984391,50.7593046 C379.819971,51.4502368 379.704878,52.1537523 379.653359,52.4168556 M392.224911,55.3224316 C392.153662,55.1702892 392.121874,54.9449355 392.005684,54.8751559 C391.280044,54.4324559 390.556596,53.9760288 389.784918,53.6408581 C389.572268,53.5481999 389.046125,53.7666901 388.927742,53.9920438 C388.184564,55.4219533 388.079335,57.0028612 388.110027,58.5940644 C388.113315,58.7301918 388.271158,58.9143641 388.400502,58.9818558 C388.540807,59.0527793 388.796206,59.0916729 388.894858,59.0093101 C389.949338,58.1239102 391.004915,57.2339345 392.005684,56.2844747 C392.198604,56.1014462 392.158047,55.6507388 392.224911,55.3224316 M383.761666,59.3536323 C383.761666,58.5769055 383.862511,57.9717678 383.282656,57.8070422 C383.033834,57.7372626 382.6184,58.0049417 382.382731,58.2348711 C379.889028,60.6657172 377.94668,63.7497459 374.651704,65.2311321 C374.206673,65.4301755 374.075137,66.7468361 374.369997,67.2181342 C374.737202,67.8038251 375.254577,67.6619781 375.737972,67.4377683 C377.470958,66.6381629 379.188599,65.8019519 380.924874,65.010354 C382.118563,64.4681324 382.878183,63.6181942 383.105083,62.2328979 C383.279368,61.173621 383.578612,60.1360787 383.761666,59.3536323 M244.657981,55.7639876 C241.994377,55.8497822 237.443232,56.0202274 232.892087,56.1391959 C224.135079,56.3679814 215.375879,56.483518 206.622159,56.8015299 C194.543868,57.2407981 182.471057,57.8436479 170.394957,58.3378246 C162.167382,58.6752832 153.937614,58.9589773 145.708942,59.2232245 C145.043589,59.2438152 144.304795,59.0413401 143.720556,58.7130328 C143.350063,58.504838 143.023416,57.8768218 143.001493,57.4192508 C142.978474,56.9479526 143.224008,56.2673157 143.574771,56.0167956 C144.120645,55.6267163 144.846285,55.362469 145.510542,55.3224316 C152.156397,54.9415037 158.802253,54.5468487 165.452493,54.2928968 C182.257311,53.6511534 199.063225,53.0094101 215.873523,52.5095137 C227.253578,52.1709112 238.640209,52.0439352 250.024649,51.8826414 C257.908039,51.7693926 265.792525,51.7019009 273.677011,51.7133401 C289.969934,51.7373626 306.270531,51.5657735 322.556878,51.9695799 C335.858454,52.2990311 349.172088,52.7714731 362.435299,54.0766945 C364.35134,54.2642986 366.256419,54.5800226 368.170268,54.795081 C369.392456,54.9334962 370.103847,54.2608668 370.144404,52.8778584 C370.222229,50.135864 370.230998,47.3938697 370.294574,44.6518753 C370.311016,43.9277692 370.389938,43.2002313 370.507224,42.4864205 C370.631087,41.7291404 371.756816,40.8746266 372.496706,41.0153297 C373.345113,41.1766234 374.219827,41.3493565 375.002466,41.7062619 C378.690954,43.3924111 382.375058,45.0911435 386.017509,46.8813902 C390.765957,49.2172902 395.47933,51.6344091 400.195991,54.0435206 C400.975342,54.4416074 401.721809,54.9346401 402.426622,55.4654225 C403.166512,56.0248031 403.193916,57.8596629 402.488006,58.4476417 C401.946516,58.8983491 401.378719,59.3502005 400.758308,59.657917 C394.121221,62.9615798 387.468789,66.2309247 380.827318,69.5220043 C379.246694,70.3044508 377.709915,71.185275 376.112849,71.9242522 C375.161405,72.3658082 374.143098,72.668949 373.132463,72.9446356 C372.125117,73.2168903 370.844833,72.4504589 370.691374,71.4037651 C370.452417,69.7885394 370.302247,68.1504352 370.235383,66.5169066 C370.153173,64.5127456 370.240864,62.500577 370.161942,60.495272 C370.13125,59.7357041 369.656625,59.1145514 368.867409,59.0058783 C365.744525,58.5769055 362.626026,58.015237 359.487797,57.8139058 C351.446564,57.2991384 343.391081,57.0383229 335.349848,56.5189798 C316.797794,55.3189998 298.223817,55.6461631 279.656417,55.53749 C268.619452,55.4722861 257.582487,55.6701856 244.657981,55.7639876" id="Fill-61" fill="#000000"></path>
                    <text id="SET-ID=A42-{-User-Principal}-Copy" font-family="HanziPenTC-W5, HanziPen TC" font-size="35" font-weight="bold" fill="#4A4A4A">
                        <tspan x="151.82" y="108">ID=A42 {User…}</tspan>
                    </text>
                </g>
                <g id="POST-Login" transform="translate(122.000000, 407.000000)">
                    <g id="LEFT-Arrow" transform="translate(9.000000, 36.000000)">
                        <path d="M577.481745,23.1144804 C577.709204,23.9547523 578.043542,25.2945975 578.468315,26.6220858 C578.536827,26.8321537 578.978043,27.0492828 579.326083,27.1499036 C579.641238,27.241698 580.367463,27.2346369 580.392127,27.178148 C581.745921,23.9953536 583.9383,20.9043537 583.272365,17.4938385 C583.195632,17.1019471 582.214542,16.718882 581.537645,16.4540904 C580.608625,16.0869128 579.967354,16.3605307 579.383633,16.948368 C577.648914,18.6924616 578.251818,20.7084079 577.481745,23.1144804 M591.663694,24.9274199 C591.299211,25.8577208 591.074492,26.1313388 591.112859,26.3873039 C591.186852,26.9045301 591.156706,27.6035798 591.63903,27.8648408 C592.039139,28.0802045 593.414856,27.9601657 593.845111,27.6706603 C596.188215,26.1048596 598.407999,24.463152 600.583935,22.7984958 C601.263572,22.2777391 600.857982,21.8011144 600.041321,21.3668562 C596.264949,19.357971 593.527216,19.6986695 592.491317,22.3695335 C592.080246,23.4357608 591.792496,24.5214062 591.663694,24.9274199 M623.094182,29.4112234 C622.916051,29.1764415 622.836578,28.828682 622.546088,28.7210001 C620.731894,28.0378379 618.923182,27.3334924 616.993889,26.8162662 C616.462237,26.6732788 615.14681,27.0104467 614.850839,27.3582063 C612.992798,29.5648025 612.729712,32.0044153 612.806445,34.4599155 C612.814667,34.6699835 613.209295,34.9541931 613.532671,35.0583444 C613.883451,35.1677916 614.521982,35.227811 614.768624,35.1007111 C617.40496,33.7343867 620.044035,32.3610012 622.546088,30.8958213 C623.028411,30.613377 622.927013,29.9178579 623.094182,29.4112234 M601.934988,35.6320594 C601.934988,34.4334364 602.187111,33.4996048 600.737401,33.245405 C600.115314,33.1377231 599.076674,33.5507979 598.487473,33.9056186 C592.252896,37.6568321 587.396777,42.4160188 579.158914,44.7020525 C578.046282,45.0092107 577.717425,47.0410445 578.454613,47.7683386 C579.372671,48.6721604 580.666175,48.4532661 581.874723,48.1072718 C586.207412,46.8733432 590.501733,45.5829257 594.842643,44.3613541 C597.827018,43.5246128 599.726166,42.213012 600.293444,40.0752616 C600.72918,38.4406151 601.477329,36.8395089 601.934988,35.6320594 M254.157966,30.0926203 C247.498616,30.2250161 236.120171,30.4880423 224.741725,30.6716311 C202.848084,31.0246865 180.948962,31.2029795 159.063543,31.6937265 C128.866267,32.3715929 98.6826946,33.3018938 68.4909004,34.0644935 C47.9209079,34.5852502 27.3454344,35.0230389 6.77270145,35.4308179 C5.10923416,35.4625928 3.26215517,35.1501388 1.8014829,34.6435043 C0.875202933,34.3222239 0.0585418926,33.3530869 0.0037324268,32.6469761 C-0.0538175123,31.919682 0.560048504,30.8693422 1.43699996,30.4827465 C2.80175565,29.8807871 4.61594897,29.4730081 6.27667578,29.4112234 C22.8921653,28.8233862 39.5076549,28.2143656 56.1341063,27.8224741 C98.1483023,26.8321537 140.165239,25.8418333 182.193137,25.0704073 C210.644731,24.5478853 239.112767,24.3519396 267.575323,24.1030355 C287.284807,23.9282731 306.997031,23.8241218 326.709256,23.8417745 C367.443651,23.8788454 408.197229,23.6140538 448.915181,24.2371966 C482.170824,24.7455963 515.456613,25.4746557 548.61634,27.4888368 C553.406687,27.7783422 558.16963,28.2655586 562.954496,28.5974307 C566.010124,28.8110292 567.788691,27.7730464 567.890088,25.6388265 C568.084662,21.4074576 568.106586,17.1760887 568.265533,12.9447198 C568.30664,11.8272995 568.503954,10.7045833 568.797185,9.60305049 C569.106858,8.43443713 571.921324,7.11577523 573.771144,7.3329043 C575.89227,7.58180836 578.079168,7.84836518 580.035866,8.39913159 C589.257558,11.0011498 598.468289,13.6225862 607.574882,16.3852446 C619.446612,19.9899402 631.230647,23.7199704 643.022904,27.4376437 C644.97138,28.0519601 646.837643,28.8127945 648.599767,29.631883 C650.449587,30.4951034 650.518098,33.3266077 648.753234,34.2339601 C647.39944,34.9294792 645.979875,35.6267636 644.428767,36.1016231 C627.835201,41.199743 611.203269,46.2449046 594.598741,51.3236064 C590.646978,52.5310559 586.804835,53.8903191 582.811965,55.0306881 C580.433235,55.712085 577.887335,56.1798834 575.360618,56.6053151 C572.842123,57.025451 569.641251,55.8427155 569.257584,54.227487 C568.660161,51.734916 568.284716,49.2070393 568.117548,46.6862238 C567.912012,43.5934586 568.13125,40.4883364 567.933936,37.3938058 C567.857203,36.2216619 566.670578,35.2631165 564.697437,35.0954152 C556.889828,34.4334364 549.093182,33.5666854 541.247207,33.2559966 C521.143095,32.461622 501.003357,32.0591388 480.899245,31.2577031 C434.516734,29.4059276 388.079414,29.9107968 341.658537,29.7430955 C314.064712,29.6424747 286.470886,29.9478676 254.157966,30.0926203" id="Fill-61" fill="#000000"></path>
                        <rect id="Rectangle-3" fill="#FFFFFF" x="260" y="8" width="327" height="45"></rect>
                        <rect id="Rectangle-2" fill="#FFFFFF" x="569" y="0" width="86" height="57"></rect>
                        <path d="M605.831203,18.1144804 C605.969782,18.9547523 606.173478,20.2945975 606.432271,21.6220858 C606.474012,21.8321537 606.742824,22.0492828 606.954867,22.1499036 C607.146875,22.241698 607.589329,22.2346369 607.604355,22.178148 C608.429155,18.9953536 609.764864,15.9043537 609.359142,12.4938385 C609.312393,12.1019471 608.714663,11.718882 608.302263,11.4540904 C607.736257,11.0869128 607.345562,11.3605307 606.98993,11.948368 C605.93305,13.6924616 606.30037,15.7084079 605.831203,18.1144804 M614.471566,19.9274199 C614.249505,20.8577208 614.112595,21.1313388 614.135969,21.3873039 C614.18105,21.9045301 614.162684,22.6035798 614.456539,22.8648408 C614.700306,23.0802045 615.538463,22.9601657 615.800596,22.6706603 C617.228134,21.1048596 618.580539,19.463152 619.90623,17.7984958 C620.320299,17.2777391 620.073193,16.8011144 619.575642,16.3668562 C617.274884,14.357971 615.606918,14.6986695 614.975796,17.3695335 C614.725351,18.4357608 614.550039,19.5214062 614.471566,19.9274199 M633.620616,24.4112234 C633.512089,24.1764415 633.46367,23.828682 633.286688,23.7210001 C632.18139,23.0378379 631.07943,22.3334924 629.904007,21.8162662 C629.580098,21.6732788 628.778673,22.0104467 628.598352,22.3582063 C627.466339,24.5648025 627.306054,27.0044153 627.352804,29.4599155 C627.357813,29.6699835 627.59824,29.9541931 627.795257,30.0583444 C628.008971,30.1677916 628.397996,30.227811 628.548263,30.1007111 C630.154452,28.7343867 631.762311,27.3610012 633.286688,25.8958213 C633.580544,25.613377 633.518768,24.9178579 633.620616,24.4112234 M620.72936,30.6320594 C620.72936,29.4334364 620.882966,28.4996048 619.999729,28.245405 C619.620722,28.1377231 618.98793,28.5507979 618.628959,28.9056186 C614.830538,32.6568321 611.871944,37.4160188 606.853019,39.7020525 C606.175147,40.0092107 605.974791,42.0410445 606.423923,42.7683386 C606.983251,43.6721604 607.771319,43.4532661 608.507628,43.1072718 C611.147322,41.8733432 613.763641,40.5829257 616.408343,39.3613541 C618.226576,38.5246128 619.383634,37.213012 619.729248,35.0752616 C619.99472,33.4406151 620.450531,31.8395089 620.72936,30.6320594 M408.845938,25.0926203 C404.788724,25.2250161 397.856398,25.4880423 390.924071,25.6716311 C377.585353,26.0246865 364.243296,26.2029795 350.909587,26.6937265 C332.511874,27.3715929 314.122509,28.3018938 295.728134,29.0644935 C283.19585,29.5852502 270.660227,30.0230389 258.126274,30.4308179 C257.112805,30.4625928 255.987471,30.1501388 255.097555,29.6435043 C254.533218,29.3222239 254.035667,28.3530869 254.002274,27.6469761 C253.967212,26.919682 254.34121,25.8693422 254.875493,25.4827465 C255.706972,24.8807871 256.812271,24.4730081 257.82407,24.4112234 C267.94707,23.8233862 278.070069,23.2143656 288.199748,22.8224741 C313.79693,21.8321537 339.395781,20.8418333 365.001311,20.0704073 C382.335466,19.5478853 399.67964,19.3519396 417.020474,19.1030355 C429.028492,18.9282731 441.03818,18.8241218 453.047868,18.8417745 C477.86533,18.8788454 502.694479,18.6140538 527.501923,19.2371966 C547.76295,19.7455963 568.042343,20.4746557 588.244932,22.4888368 C591.163455,22.7783422 594.065281,23.2655586 596.980465,23.5974307 C598.842108,23.8110292 599.925702,22.7730464 599.987478,20.6388265 C600.106022,16.4074576 600.11938,12.1760887 600.216218,7.94471979 C600.241263,6.82729947 600.361477,5.70458332 600.540128,4.60305049 C600.728796,3.43443713 602.443512,2.11577523 603.570516,2.3329043 C604.862814,2.58180836 606.195183,2.84836518 607.387303,3.39913159 C613.005626,6.00114985 618.617271,8.62258615 624.16547,11.3852446 C631.398331,14.9899402 638.577763,18.7199704 645.762205,22.4376437 C646.949316,23.0519601 648.086337,23.8127945 649.159913,24.631883 C650.286917,25.4951034 650.328658,28.3266077 649.253413,29.2339601 C648.428613,29.9294792 647.563741,30.6267636 646.618728,31.1016231 C636.509085,36.199743 626.376067,41.2449046 616.259746,46.3236064 C613.852131,47.5310559 611.511302,48.8903191 609.078644,50.0306881 C607.6294,50.712085 606.078309,51.1798834 604.538905,51.6053151 C603.00451,52.025451 601.054375,50.8427155 600.820626,49.227487 C600.456646,46.734916 600.227906,44.2070393 600.126058,41.6862238 C600.000835,38.5934586 600.134406,35.4883364 600.014193,32.3938058 C599.967443,31.2216619 599.244491,30.2631165 598.042353,30.0954152 C593.285562,29.4334364 588.535449,28.5666854 583.755282,28.2559966 C571.506836,27.461622 559.236685,27.0591388 546.988239,26.2577031 C518.729659,24.4059276 490.437685,24.9107968 462.15573,24.7430955 C445.34417,24.6424747 428.53261,24.9478676 408.845938,25.0926203" id="Fill-61" fill="#000000"></path>
                    </g>
                    <text id="POST-http://micronau" font-family="HanziPenTC-W5, HanziPen TC" font-size="35" font-weight="bold" fill="#4A4A4A">
                        <tspan x="22.455" y="37">POST  http://micronaut.example/login</tspan>
                    </text>
                </g>
                <g id="401" transform="translate(131.000000, 260.000000)">
                    <g id="LEFT-Arrow-Copy" transform="translate(327.500000, 51.500000) rotate(-180.000000) translate(-327.500000, -51.500000) translate(0.000000, 23.000000)">
                        <path d="M577.481745,23.1144804 C577.709204,23.9547523 578.043542,25.2945975 578.468315,26.6220858 C578.536827,26.8321537 578.978043,27.0492828 579.326083,27.1499036 C579.641238,27.241698 580.367463,27.2346369 580.392127,27.178148 C581.745921,23.9953536 583.9383,20.9043537 583.272365,17.4938385 C583.195632,17.1019471 582.214542,16.718882 581.537645,16.4540904 C580.608625,16.0869128 579.967354,16.3605307 579.383633,16.948368 C577.648914,18.6924616 578.251818,20.7084079 577.481745,23.1144804 M591.663694,24.9274199 C591.299211,25.8577208 591.074492,26.1313388 591.112859,26.3873039 C591.186852,26.9045301 591.156706,27.6035798 591.63903,27.8648408 C592.039139,28.0802045 593.414856,27.9601657 593.845111,27.6706603 C596.188215,26.1048596 598.407999,24.463152 600.583935,22.7984958 C601.263572,22.2777391 600.857982,21.8011144 600.041321,21.3668562 C596.264949,19.357971 593.527216,19.6986695 592.491317,22.3695335 C592.080246,23.4357608 591.792496,24.5214062 591.663694,24.9274199 M623.094182,29.4112234 C622.916051,29.1764415 622.836578,28.828682 622.546088,28.7210001 C620.731894,28.0378379 618.923182,27.3334924 616.993889,26.8162662 C616.462237,26.6732788 615.14681,27.0104467 614.850839,27.3582063 C612.992798,29.5648025 612.729712,32.0044153 612.806445,34.4599155 C612.814667,34.6699835 613.209295,34.9541931 613.532671,35.0583444 C613.883451,35.1677916 614.521982,35.227811 614.768624,35.1007111 C617.40496,33.7343867 620.044035,32.3610012 622.546088,30.8958213 C623.028411,30.613377 622.927013,29.9178579 623.094182,29.4112234 M601.934988,35.6320594 C601.934988,34.4334364 602.187111,33.4996048 600.737401,33.245405 C600.115314,33.1377231 599.076674,33.5507979 598.487473,33.9056186 C592.252896,37.6568321 587.396777,42.4160188 579.158914,44.7020525 C578.046282,45.0092107 577.717425,47.0410445 578.454613,47.7683386 C579.372671,48.6721604 580.666175,48.4532661 581.874723,48.1072718 C586.207412,46.8733432 590.501733,45.5829257 594.842643,44.3613541 C597.827018,43.5246128 599.726166,42.213012 600.293444,40.0752616 C600.72918,38.4406151 601.477329,36.8395089 601.934988,35.6320594 M254.157966,30.0926203 C247.498616,30.2250161 236.120171,30.4880423 224.741725,30.6716311 C202.848084,31.0246865 180.948962,31.2029795 159.063543,31.6937265 C128.866267,32.3715929 98.6826946,33.3018938 68.4909004,34.0644935 C47.9209079,34.5852502 27.3454344,35.0230389 6.77270145,35.4308179 C5.10923416,35.4625928 3.26215517,35.1501388 1.8014829,34.6435043 C0.875202933,34.3222239 0.0585418926,33.3530869 0.0037324268,32.6469761 C-0.0538175123,31.919682 0.560048504,30.8693422 1.43699996,30.4827465 C2.80175565,29.8807871 4.61594897,29.4730081 6.27667578,29.4112234 C22.8921653,28.8233862 39.5076549,28.2143656 56.1341063,27.8224741 C98.1483023,26.8321537 140.165239,25.8418333 182.193137,25.0704073 C210.644731,24.5478853 239.112767,24.3519396 267.575323,24.1030355 C287.284807,23.9282731 306.997031,23.8241218 326.709256,23.8417745 C367.443651,23.8788454 408.197229,23.6140538 448.915181,24.2371966 C482.170824,24.7455963 515.456613,25.4746557 548.61634,27.4888368 C553.406687,27.7783422 558.16963,28.2655586 562.954496,28.5974307 C566.010124,28.8110292 567.788691,27.7730464 567.890088,25.6388265 C568.084662,21.4074576 568.106586,17.1760887 568.265533,12.9447198 C568.30664,11.8272995 568.503954,10.7045833 568.797185,9.60305049 C569.106858,8.43443713 571.921324,7.11577523 573.771144,7.3329043 C575.89227,7.58180836 578.079168,7.84836518 580.035866,8.39913159 C589.257558,11.0011498 598.468289,13.6225862 607.574882,16.3852446 C619.446612,19.9899402 631.230647,23.7199704 643.022904,27.4376437 C644.97138,28.0519601 646.837643,28.8127945 648.599767,29.631883 C650.449587,30.4951034 650.518098,33.3266077 648.753234,34.2339601 C647.39944,34.9294792 645.979875,35.6267636 644.428767,36.1016231 C627.835201,41.199743 611.203269,46.2449046 594.598741,51.3236064 C590.646978,52.5310559 586.804835,53.8903191 582.811965,55.0306881 C580.433235,55.712085 577.887335,56.1798834 575.360618,56.6053151 C572.842123,57.025451 569.641251,55.8427155 569.257584,54.227487 C568.660161,51.734916 568.284716,49.2070393 568.117548,46.6862238 C567.912012,43.5934586 568.13125,40.4883364 567.933936,37.3938058 C567.857203,36.2216619 566.670578,35.2631165 564.697437,35.0954152 C556.889828,34.4334364 549.093182,33.5666854 541.247207,33.2559966 C521.143095,32.461622 501.003357,32.0591388 480.899245,31.2577031 C434.516734,29.4059276 388.079414,29.9107968 341.658537,29.7430955 C314.064712,29.6424747 286.470886,29.9478676 254.157966,30.0926203" id="Fill-61" fill="#000000"></path>
                        <rect id="Rectangle-3" fill="#FFFFFF" x="260" y="8" width="327" height="45"></rect>
                        <rect id="Rectangle-2" fill="#FFFFFF" x="569" y="0" width="86" height="57"></rect>
                        <path d="M605.831203,18.1144804 C605.969782,18.9547523 606.173478,20.2945975 606.432271,21.6220858 C606.474012,21.8321537 606.742824,22.0492828 606.954867,22.1499036 C607.146875,22.241698 607.589329,22.2346369 607.604355,22.178148 C608.429155,18.9953536 609.764864,15.9043537 609.359142,12.4938385 C609.312393,12.1019471 608.714663,11.718882 608.302263,11.4540904 C607.736257,11.0869128 607.345562,11.3605307 606.98993,11.948368 C605.93305,13.6924616 606.30037,15.7084079 605.831203,18.1144804 M614.471566,19.9274199 C614.249505,20.8577208 614.112595,21.1313388 614.135969,21.3873039 C614.18105,21.9045301 614.162684,22.6035798 614.456539,22.8648408 C614.700306,23.0802045 615.538463,22.9601657 615.800596,22.6706603 C617.228134,21.1048596 618.580539,19.463152 619.90623,17.7984958 C620.320299,17.2777391 620.073193,16.8011144 619.575642,16.3668562 C617.274884,14.357971 615.606918,14.6986695 614.975796,17.3695335 C614.725351,18.4357608 614.550039,19.5214062 614.471566,19.9274199 M633.620616,24.4112234 C633.512089,24.1764415 633.46367,23.828682 633.286688,23.7210001 C632.18139,23.0378379 631.07943,22.3334924 629.904007,21.8162662 C629.580098,21.6732788 628.778673,22.0104467 628.598352,22.3582063 C627.466339,24.5648025 627.306054,27.0044153 627.352804,29.4599155 C627.357813,29.6699835 627.59824,29.9541931 627.795257,30.0583444 C628.008971,30.1677916 628.397996,30.227811 628.548263,30.1007111 C630.154452,28.7343867 631.762311,27.3610012 633.286688,25.8958213 C633.580544,25.613377 633.518768,24.9178579 633.620616,24.4112234 M620.72936,30.6320594 C620.72936,29.4334364 620.882966,28.4996048 619.999729,28.245405 C619.620722,28.1377231 618.98793,28.5507979 618.628959,28.9056186 C614.830538,32.6568321 611.871944,37.4160188 606.853019,39.7020525 C606.175147,40.0092107 605.974791,42.0410445 606.423923,42.7683386 C606.983251,43.6721604 607.771319,43.4532661 608.507628,43.1072718 C611.147322,41.8733432 613.763641,40.5829257 616.408343,39.3613541 C618.226576,38.5246128 619.383634,37.213012 619.729248,35.0752616 C619.99472,33.4406151 620.450531,31.8395089 620.72936,30.6320594 M408.845938,25.0926203 C404.788724,25.2250161 397.856398,25.4880423 390.924071,25.6716311 C377.585353,26.0246865 364.243296,26.2029795 350.909587,26.6937265 C332.511874,27.3715929 314.122509,28.3018938 295.728134,29.0644935 C283.19585,29.5852502 270.660227,30.0230389 258.126274,30.4308179 C257.112805,30.4625928 255.987471,30.1501388 255.097555,29.6435043 C254.533218,29.3222239 254.035667,28.3530869 254.002274,27.6469761 C253.967212,26.919682 254.34121,25.8693422 254.875493,25.4827465 C255.706972,24.8807871 256.812271,24.4730081 257.82407,24.4112234 C267.94707,23.8233862 278.070069,23.2143656 288.199748,22.8224741 C313.79693,21.8321537 339.395781,20.8418333 365.001311,20.0704073 C382.335466,19.5478853 399.67964,19.3519396 417.020474,19.1030355 C429.028492,18.9282731 441.03818,18.8241218 453.047868,18.8417745 C477.86533,18.8788454 502.694479,18.6140538 527.501923,19.2371966 C547.76295,19.7455963 568.042343,20.4746557 588.244932,22.4888368 C591.163455,22.7783422 594.065281,23.2655586 596.980465,23.5974307 C598.842108,23.8110292 599.925702,22.7730464 599.987478,20.6388265 C600.106022,16.4074576 600.11938,12.1760887 600.216218,7.94471979 C600.241263,6.82729947 600.361477,5.70458332 600.540128,4.60305049 C600.728796,3.43443713 602.443512,2.11577523 603.570516,2.3329043 C604.862814,2.58180836 606.195183,2.84836518 607.387303,3.39913159 C613.005626,6.00114985 618.617271,8.62258615 624.16547,11.3852446 C631.398331,14.9899402 638.577763,18.7199704 645.762205,22.4376437 C646.949316,23.0519601 648.086337,23.8127945 649.159913,24.631883 C650.286917,25.4951034 650.328658,28.3266077 649.253413,29.2339601 C648.428613,29.9294792 647.563741,30.6267636 646.618728,31.1016231 C636.509085,36.199743 626.376067,41.2449046 616.259746,46.3236064 C613.852131,47.5310559 611.511302,48.8903191 609.078644,50.0306881 C607.6294,50.712085 606.078309,51.1798834 604.538905,51.6053151 C603.00451,52.025451 601.054375,50.8427155 600.820626,49.227487 C600.456646,46.734916 600.227906,44.2070393 600.126058,41.6862238 C600.000835,38.5934586 600.134406,35.4883364 600.014193,32.3938058 C599.967443,31.2216619 599.244491,30.2631165 598.042353,30.0954152 C593.285562,29.4334364 588.535449,28.5666854 583.755282,28.2559966 C571.506836,27.461622 559.236685,27.0591388 546.988239,26.2577031 C518.729659,24.4059276 490.437685,24.9107968 462.15573,24.7430955 C445.34417,24.6424747 428.53261,24.9478676 408.845938,25.0926203" id="Fill-61" fill="#000000"></path>
                    </g>
                    <text id="303-Redirect-to-unau" font-family="HanziPenTC-W5, HanziPen TC" font-size="33" font-weight="bold" fill="#4A4A4A">
                        <tspan x="81.3045" y="35">303 Redirect to unauthorizedTargetUrl</tspan>
                    </text>
                </g>
                <g id="GET" transform="translate(122.000000, 177.000000)">
                    <g id="LEFT-Arrow" transform="translate(9.000000, 36.000000)">
                        <path d="M577.481745,23.1144804 C577.709204,23.9547523 578.043542,25.2945975 578.468315,26.6220858 C578.536827,26.8321537 578.978043,27.0492828 579.326083,27.1499036 C579.641238,27.241698 580.367463,27.2346369 580.392127,27.178148 C581.745921,23.9953536 583.9383,20.9043537 583.272365,17.4938385 C583.195632,17.1019471 582.214542,16.718882 581.537645,16.4540904 C580.608625,16.0869128 579.967354,16.3605307 579.383633,16.948368 C577.648914,18.6924616 578.251818,20.7084079 577.481745,23.1144804 M591.663694,24.9274199 C591.299211,25.8577208 591.074492,26.1313388 591.112859,26.3873039 C591.186852,26.9045301 591.156706,27.6035798 591.63903,27.8648408 C592.039139,28.0802045 593.414856,27.9601657 593.845111,27.6706603 C596.188215,26.1048596 598.407999,24.463152 600.583935,22.7984958 C601.263572,22.2777391 600.857982,21.8011144 600.041321,21.3668562 C596.264949,19.357971 593.527216,19.6986695 592.491317,22.3695335 C592.080246,23.4357608 591.792496,24.5214062 591.663694,24.9274199 M623.094182,29.4112234 C622.916051,29.1764415 622.836578,28.828682 622.546088,28.7210001 C620.731894,28.0378379 618.923182,27.3334924 616.993889,26.8162662 C616.462237,26.6732788 615.14681,27.0104467 614.850839,27.3582063 C612.992798,29.5648025 612.729712,32.0044153 612.806445,34.4599155 C612.814667,34.6699835 613.209295,34.9541931 613.532671,35.0583444 C613.883451,35.1677916 614.521982,35.227811 614.768624,35.1007111 C617.40496,33.7343867 620.044035,32.3610012 622.546088,30.8958213 C623.028411,30.613377 622.927013,29.9178579 623.094182,29.4112234 M601.934988,35.6320594 C601.934988,34.4334364 602.187111,33.4996048 600.737401,33.245405 C600.115314,33.1377231 599.076674,33.5507979 598.487473,33.9056186 C592.252896,37.6568321 587.396777,42.4160188 579.158914,44.7020525 C578.046282,45.0092107 577.717425,47.0410445 578.454613,47.7683386 C579.372671,48.6721604 580.666175,48.4532661 581.874723,48.1072718 C586.207412,46.8733432 590.501733,45.5829257 594.842643,44.3613541 C597.827018,43.5246128 599.726166,42.213012 600.293444,40.0752616 C600.72918,38.4406151 601.477329,36.8395089 601.934988,35.6320594 M254.157966,30.0926203 C247.498616,30.2250161 236.120171,30.4880423 224.741725,30.6716311 C202.848084,31.0246865 180.948962,31.2029795 159.063543,31.6937265 C128.866267,32.3715929 98.6826946,33.3018938 68.4909004,34.0644935 C47.9209079,34.5852502 27.3454344,35.0230389 6.77270145,35.4308179 C5.10923416,35.4625928 3.26215517,35.1501388 1.8014829,34.6435043 C0.875202933,34.3222239 0.0585418926,33.3530869 0.0037324268,32.6469761 C-0.0538175123,31.919682 0.560048504,30.8693422 1.43699996,30.4827465 C2.80175565,29.8807871 4.61594897,29.4730081 6.27667578,29.4112234 C22.8921653,28.8233862 39.5076549,28.2143656 56.1341063,27.8224741 C98.1483023,26.8321537 140.165239,25.8418333 182.193137,25.0704073 C210.644731,24.5478853 239.112767,24.3519396 267.575323,24.1030355 C287.284807,23.9282731 306.997031,23.8241218 326.709256,23.8417745 C367.443651,23.8788454 408.197229,23.6140538 448.915181,24.2371966 C482.170824,24.7455963 515.456613,25.4746557 548.61634,27.4888368 C553.406687,27.7783422 558.16963,28.2655586 562.954496,28.5974307 C566.010124,28.8110292 567.788691,27.7730464 567.890088,25.6388265 C568.084662,21.4074576 568.106586,17.1760887 568.265533,12.9447198 C568.30664,11.8272995 568.503954,10.7045833 568.797185,9.60305049 C569.106858,8.43443713 571.921324,7.11577523 573.771144,7.3329043 C575.89227,7.58180836 578.079168,7.84836518 580.035866,8.39913159 C589.257558,11.0011498 598.468289,13.6225862 607.574882,16.3852446 C619.446612,19.9899402 631.230647,23.7199704 643.022904,27.4376437 C644.97138,28.0519601 646.837643,28.8127945 648.599767,29.631883 C650.449587,30.4951034 650.518098,33.3266077 648.753234,34.2339601 C647.39944,34.9294792 645.979875,35.6267636 644.428767,36.1016231 C627.835201,41.199743 611.203269,46.2449046 594.598741,51.3236064 C590.646978,52.5310559 586.804835,53.8903191 582.811965,55.0306881 C580.433235,55.712085 577.887335,56.1798834 575.360618,56.6053151 C572.842123,57.025451 569.641251,55.8427155 569.257584,54.227487 C568.660161,51.734916 568.284716,49.2070393 568.117548,46.6862238 C567.912012,43.5934586 568.13125,40.4883364 567.933936,37.3938058 C567.857203,36.2216619 566.670578,35.2631165 564.697437,35.0954152 C556.889828,34.4334364 549.093182,33.5666854 541.247207,33.2559966 C521.143095,32.461622 501.003357,32.0591388 480.899245,31.2577031 C434.516734,29.4059276 388.079414,29.9107968 341.658537,29.7430955 C314.064712,29.6424747 286.470886,29.9478676 254.157966,30.0926203" id="Fill-61" fill="#000000"></path>
                        <rect id="Rectangle-3" fill="#FFFFFF" x="260" y="8" width="327" height="45"></rect>
                        <rect id="Rectangle-2" fill="#FFFFFF" x="569" y="0" width="86" height="57"></rect>
                        <path d="M605.831203,18.1144804 C605.969782,18.9547523 606.173478,20.2945975 606.432271,21.6220858 C606.474012,21.8321537 606.742824,22.0492828 606.954867,22.1499036 C607.146875,22.241698 607.589329,22.2346369 607.604355,22.178148 C608.429155,18.9953536 609.764864,15.9043537 609.359142,12.4938385 C609.312393,12.1019471 608.714663,11.718882 608.302263,11.4540904 C607.736257,11.0869128 607.345562,11.3605307 606.98993,11.948368 C605.93305,13.6924616 606.30037,15.7084079 605.831203,18.1144804 M614.471566,19.9274199 C614.249505,20.8577208 614.112595,21.1313388 614.135969,21.3873039 C614.18105,21.9045301 614.162684,22.6035798 614.456539,22.8648408 C614.700306,23.0802045 615.538463,22.9601657 615.800596,22.6706603 C617.228134,21.1048596 618.580539,19.463152 619.90623,17.7984958 C620.320299,17.2777391 620.073193,16.8011144 619.575642,16.3668562 C617.274884,14.357971 615.606918,14.6986695 614.975796,17.3695335 C614.725351,18.4357608 614.550039,19.5214062 614.471566,19.9274199 M633.620616,24.4112234 C633.512089,24.1764415 633.46367,23.828682 633.286688,23.7210001 C632.18139,23.0378379 631.07943,22.3334924 629.904007,21.8162662 C629.580098,21.6732788 628.778673,22.0104467 628.598352,22.3582063 C627.466339,24.5648025 627.306054,27.0044153 627.352804,29.4599155 C627.357813,29.6699835 627.59824,29.9541931 627.795257,30.0583444 C628.008971,30.1677916 628.397996,30.227811 628.548263,30.1007111 C630.154452,28.7343867 631.762311,27.3610012 633.286688,25.8958213 C633.580544,25.613377 633.518768,24.9178579 633.620616,24.4112234 M620.72936,30.6320594 C620.72936,29.4334364 620.882966,28.4996048 619.999729,28.245405 C619.620722,28.1377231 618.98793,28.5507979 618.628959,28.9056186 C614.830538,32.6568321 611.871944,37.4160188 606.853019,39.7020525 C606.175147,40.0092107 605.974791,42.0410445 606.423923,42.7683386 C606.983251,43.6721604 607.771319,43.4532661 608.507628,43.1072718 C611.147322,41.8733432 613.763641,40.5829257 616.408343,39.3613541 C618.226576,38.5246128 619.383634,37.213012 619.729248,35.0752616 C619.99472,33.4406151 620.450531,31.8395089 620.72936,30.6320594 M408.845938,25.0926203 C404.788724,25.2250161 397.856398,25.4880423 390.924071,25.6716311 C377.585353,26.0246865 364.243296,26.2029795 350.909587,26.6937265 C332.511874,27.3715929 314.122509,28.3018938 295.728134,29.0644935 C283.19585,29.5852502 270.660227,30.0230389 258.126274,30.4308179 C257.112805,30.4625928 255.987471,30.1501388 255.097555,29.6435043 C254.533218,29.3222239 254.035667,28.3530869 254.002274,27.6469761 C253.967212,26.919682 254.34121,25.8693422 254.875493,25.4827465 C255.706972,24.8807871 256.812271,24.4730081 257.82407,24.4112234 C267.94707,23.8233862 278.070069,23.2143656 288.199748,22.8224741 C313.79693,21.8321537 339.395781,20.8418333 365.001311,20.0704073 C382.335466,19.5478853 399.67964,19.3519396 417.020474,19.1030355 C429.028492,18.9282731 441.03818,18.8241218 453.047868,18.8417745 C477.86533,18.8788454 502.694479,18.6140538 527.501923,19.2371966 C547.76295,19.7455963 568.042343,20.4746557 588.244932,22.4888368 C591.163455,22.7783422 594.065281,23.2655586 596.980465,23.5974307 C598.842108,23.8110292 599.925702,22.7730464 599.987478,20.6388265 C600.106022,16.4074576 600.11938,12.1760887 600.216218,7.94471979 C600.241263,6.82729947 600.361477,5.70458332 600.540128,4.60305049 C600.728796,3.43443713 602.443512,2.11577523 603.570516,2.3329043 C604.862814,2.58180836 606.195183,2.84836518 607.387303,3.39913159 C613.005626,6.00114985 618.617271,8.62258615 624.16547,11.3852446 C631.398331,14.9899402 638.577763,18.7199704 645.762205,22.4376437 C646.949316,23.0519601 648.086337,23.8127945 649.159913,24.631883 C650.286917,25.4951034 650.328658,28.3266077 649.253413,29.2339601 C648.428613,29.9294792 647.563741,30.6267636 646.618728,31.1016231 C636.509085,36.199743 626.376067,41.2449046 616.259746,46.3236064 C613.852131,47.5310559 611.511302,48.8903191 609.078644,50.0306881 C607.6294,50.712085 606.078309,51.1798834 604.538905,51.6053151 C603.00451,52.025451 601.054375,50.8427155 600.820626,49.227487 C600.456646,46.734916 600.227906,44.2070393 600.126058,41.6862238 C600.000835,38.5934586 600.134406,35.4883364 600.014193,32.3938058 C599.967443,31.2216619 599.244491,30.2631165 598.042353,30.0954152 C593.285562,29.4334364 588.535449,28.5666854 583.755282,28.2559966 C571.506836,27.461622 559.236685,27.0591388 546.988239,26.2577031 C518.729659,24.4059276 490.437685,24.9107968 462.15573,24.7430955 C445.34417,24.6424747 428.53261,24.9478676 408.845938,25.0926203" id="Fill-61" fill="#000000"></path>
                    </g>
                    <text id="GET-http://micronaut" font-family="HanziPenTC-W5, HanziPen TC" font-size="35" font-weight="bold" fill="#4A4A4A">
                        <tspan x="25.2375" y="37">GET  http://micronaut.example/books</tspan>
                    </text>
                </g>
                <g id="Browser">
                    <text font-family="HanziPenTC-W5, HanziPen TC" font-size="40" font-weight="bold" fill="#4A4A4A">
                        <tspan x="32.24" y="66">Browser</tspan>
                    </text>
                    <path d="M3.99642592,86.78934 C4.06242613,90.76434 3.25042359,94.76134 2.74842202,98.73434 C2.3284207,102.06034 2.56242144,102.58334 5.84843171,102.30834 C12.2964519,101.76934 18.724472,101.00134 25.1574921,100.28834 C35.5015244,99.14134 45.8205567,97.68534 56.1905891,96.85934 C73.8766444,95.45034 91.5796998,94.05734 109.302755,93.34534 C127.263811,92.62534 145.257868,92.57234 163.238924,92.55434 C173.342955,92.54534 183.449987,93.18234 193.554019,93.56334 C195.468025,93.63534 197.378031,93.86934 199.915039,94.08134 C199.915039,92.44334 200.044039,90.94434 199.895039,89.47334 C197.399031,64.80334 196.356027,40.07634 196.929029,15.28534 C197.003029,12.04834 197.27003,8.81434 197.462031,5.58034 C197.548031,4.08834 196.983029,3.55534 195.399024,3.68834 C182.578984,4.77134 169.768944,6.34534 156.925904,6.68434 C134.090833,7.28834 111.232761,7.48834 88.3926898,7.18334 C69.1856298,6.92534 49.9825697,5.87534 30.7955097,4.84334 C21.8764818,4.36334 12.9964541,3.10634 4.10342625,2.15534 C3.44842421,2.08534 2.83142228,1.64334 2.19642029,1.37334 C2.21642035,1.09534 2.23542041,0.817340003 2.25542048,0.538340003 C3.46342425,0.350340003 4.67342804,-0.0126599968 5.8784318,0.000340003172 C20.9264789,0.180340003 35.9775259,0.238340003 51.018573,0.678340003 C68.8386287,1.20034 86.6446844,2.18734 104.46474,2.74134 C121.437793,3.26934 138.419846,3.72434 155.400899,3.78434 C168.046939,3.82834 180.695978,3.19034 193.343018,2.85334 C193.96002,2.83734 194.575022,2.78034 195.194024,2.76634 C197.909032,2.71134 198.759035,3.39234 199.032036,6.20934 C199.309037,9.04834 199.522037,11.90434 199.558037,14.75534 C199.757038,31.73834 199.825038,48.72134 200.089039,65.70234 C200.208039,73.41434 200.675041,81.12034 200.974042,88.83034 C201.005042,89.67734 200.989042,90.52934 200.942042,91.37734 C200.772041,94.41434 200.26704,94.80634 197.27403,95.28034 C174.63096,98.86134 151.788888,99.05434 128.952817,99.44834 C106.029745,99.84534 83.1016733,100.22534 60.1896016,101.00634 C46.7025595,101.46534 33.2425174,102.72734 19.7654752,103.55334 C14.9164601,103.85034 10.0554449,104.01834 5.19642967,104.07734 C1.26441738,104.12134 -0.0265866609,102.90134 0.000413423502,98.99234 C0.104413749,83.40234 0.320414424,67.81234 0.48841495,52.22134 C0.646415444,37.47834 0.786415881,22.73534 0.959416422,7.99334 C0.976416476,6.47834 1.15441703,4.96534 1.25841736,3.45234 C1.60941845,3.46234 1.96041955,3.47234 2.31142065,3.48334 C2.89642248,31.25134 3.5434245,59.01934 3.99642592,86.78934 Z" id="Fill-131" fill="#1A1919"></path>
                </g>
                <g id="Micronaut-App" transform="translate(700.000000, 0.000000)">
                    <text font-family="HanziPenTC-W5, HanziPen TC" font-size="35" font-weight="bold" line-spacing="30" fill="#4A4A4A">
                        <tspan x="24.6625" y="52.135">Micronaut </tspan>
                        <tspan x="68.99" y="82.135">App</tspan>
                    </text>
                    <path d="M3.99642592,86.78934 C4.06242613,90.76434 3.25042359,94.76134 2.74842202,98.73434 C2.3284207,102.06034 2.56242144,102.58334 5.84843171,102.30834 C12.2964519,101.76934 18.724472,101.00134 25.1574921,100.28834 C35.5015244,99.14134 45.8205567,97.68534 56.1905891,96.85934 C73.8766444,95.45034 91.5796998,94.05734 109.302755,93.34534 C127.263811,92.62534 145.257868,92.57234 163.238924,92.55434 C173.342955,92.54534 183.449987,93.18234 193.554019,93.56334 C195.468025,93.63534 197.378031,93.86934 199.915039,94.08134 C199.915039,92.44334 200.044039,90.94434 199.895039,89.47334 C197.399031,64.80334 196.356027,40.07634 196.929029,15.28534 C197.003029,12.04834 197.27003,8.81434 197.462031,5.58034 C197.548031,4.08834 196.983029,3.55534 195.399024,3.68834 C182.578984,4.77134 169.768944,6.34534 156.925904,6.68434 C134.090833,7.28834 111.232761,7.48834 88.3926898,7.18334 C69.1856298,6.92534 49.9825697,5.87534 30.7955097,4.84334 C21.8764818,4.36334 12.9964541,3.10634 4.10342625,2.15534 C3.44842421,2.08534 2.83142228,1.64334 2.19642029,1.37334 C2.21642035,1.09534 2.23542041,0.817340003 2.25542048,0.538340003 C3.46342425,0.350340003 4.67342804,-0.0126599968 5.8784318,0.000340003172 C20.9264789,0.180340003 35.9775259,0.238340003 51.018573,0.678340003 C68.8386287,1.20034 86.6446844,2.18734 104.46474,2.74134 C121.437793,3.26934 138.419846,3.72434 155.400899,3.78434 C168.046939,3.82834 180.695978,3.19034 193.343018,2.85334 C193.96002,2.83734 194.575022,2.78034 195.194024,2.76634 C197.909032,2.71134 198.759035,3.39234 199.032036,6.20934 C199.309037,9.04834 199.522037,11.90434 199.558037,14.75534 C199.757038,31.73834 199.825038,48.72134 200.089039,65.70234 C200.208039,73.41434 200.675041,81.12034 200.974042,88.83034 C201.005042,89.67734 200.989042,90.52934 200.942042,91.37734 C200.772041,94.41434 200.26704,94.80634 197.27403,95.28034 C174.63096,98.86134 151.788888,99.05434 128.952817,99.44834 C106.029745,99.84534 83.1016733,100.22534 60.1896016,101.00634 C46.7025595,101.46534 33.2425174,102.72734 19.7654752,103.55334 C14.9164601,103.85034 10.0554449,104.01834 5.19642967,104.07734 C1.26441738,104.12134 -0.0265866609,102.90134 0.000413423502,98.99234 C0.104413749,83.40234 0.320414424,67.81234 0.48841495,52.22134 C0.646415444,37.47834 0.786415881,22.73534 0.959416422,7.99334 C0.976416476,6.47834 1.15441703,4.96534 1.25841736,3.45234 C1.60941845,3.46234 1.96041955,3.47234 2.31142065,3.48334 C2.89642248,31.25134 3.5434245,59.01934 3.99642592,86.78934 Z" id="Fill-131" fill="#1A1919"></path>
                </g>
                <g id="Browser"></g>
                <g id="Authentication-Providers" transform="translate(829.000000, 380.000000)">
                    <rect id="Rectangle-4" fill="#FFFFFF" x="214" y="0" width="95" height="172"></rect>
                    <text font-family="HanziPenTC-W5, HanziPen TC" font-size="35" font-weight="bold" fill="#4A4A4A">
                        <tspan x="49.7825" y="48">Authenticate against </tspan>
                        <tspan x="97.995" y="97">authentication </tspan>
                        <tspan x="135.27" y="146">providers</tspan>
                    </text>
                    <path d="M38.4624857,89.0933014 C35.4804857,88.5813014 32.6484857,89.1213014 29.7884857,89.4613014 C22.8554857,90.2853014 16.5154857,92.8593014 10.3024857,95.8433014 C9.73348571,96.1163014 9.19848571,96.4873014 8.71048571,96.8863014 C8.49948571,97.0593014 8.42648571,97.4173014 8.34148571,97.7053014 C8.32748571,97.7523014 8.57548571,97.9283014 8.72048571,97.9603014 C9.96448571,98.2353014 11.2074857,98.5203014 12.4604857,98.7463014 C14.6604857,99.1453014 16.8734857,99.4773014 19.0694857,99.8943014 C19.8474857,100.041301 20.6074857,100.315301 21.3464857,100.604301 C22.3984857,101.015301 22.9164857,102.088301 22.5024857,102.864301 C22.1154857,103.591301 21.3414857,104.017301 20.5034857,103.820301 C14.4254857,102.388301 8.23348571,101.693301 2.04948571,100.946301 C0.619485711,100.773301 -0.195514289,99.6053014 0.120485711,98.1853014 C1.26548571,93.0393014 2.35548571,87.8743014 4.15048571,82.9043014 C4.47048571,82.0223014 4.95148571,81.1713014 5.50748571,80.4153014 C5.72848571,80.1153014 6.35148571,80.0183014 6.79748571,80.0003014 C7.29648571,79.9813014 8.06248571,80.8653014 8.00348571,81.3223014 C7.90148571,82.1043014 7.79548571,82.8943014 7.58548571,83.6513014 C6.77348571,86.5723014 5.90648571,89.4813014 5.09848571,92.4053014 C5.02948571,92.6543014 5.15348571,93.0823014 5.34348571,93.2413014 C5.51748571,93.3873014 5.97248571,93.3943014 6.18448571,93.2663014 C9.47948571,91.2773014 13.0224857,89.8033014 16.5424857,88.2913014 C22.3374857,85.8053014 28.4394857,84.6753014 34.7134857,84.4203014 C39.8534857,84.2113014 44.9394857,84.7883014 49.9594857,85.8193014 C55.4734857,86.9503014 60.6094857,89.1973014 65.6654857,91.5993014 C74.5024857,95.7973014 81.6274857,102.136301 87.8494857,109.571301 C89.9094857,112.032301 91.5604857,114.781301 93.0664857,117.602301 C94.4184857,120.138301 95.6294857,122.751301 96.8744857,125.344301 C98.5614857,128.858301 99.0264857,132.702301 99.6634857,136.468301 C100.900486,143.792301 100.926486,151.181301 98.9054857,158.349301 C97.0374857,164.978301 94.3074857,171.341301 89.9014857,176.741301 C87.0734857,180.206301 83.6304857,183.109301 80.1924857,185.988301 C73.7574857,191.375301 66.1974857,194.419301 58.1104857,195.864301 C49.2374857,197.450301 40.3394857,196.936301 31.4674857,194.961301 C20.1974857,192.453301 10.7384857,186.803301 2.24148571,179.260301 C1.53148571,178.629301 0.916485711,177.883301 0.310485711,177.148301 C-0.191514289,176.539301 -0.0585142888,175.532301 0.520485711,174.969301 C1.09148571,174.412301 2.14448571,174.188301 2.72548571,174.573301 C3.38648571,175.012301 4.00548571,175.515301 4.63048571,176.005301 C7.39648571,178.175301 10.1084857,180.415301 12.9314857,182.509301 C17.7314857,186.069301 23.0394857,188.567301 28.8334857,190.118301 C32.8574857,191.196301 36.9004857,192.228301 41.0234857,192.649301 C51.9014857,193.761301 62.4124857,192.398301 72.1674857,187.111301 C73.9824857,186.127301 75.7224857,184.937301 77.3054857,183.613301 C80.2444857,181.154301 83.1284857,178.614301 85.8754857,175.943301 C88.3054857,173.578301 89.9034857,170.590301 91.3394857,167.542301 C91.9514857,166.241301 92.3974857,164.862301 93.0354857,163.576301 C96.5814857,156.440301 97.0344857,148.830301 96.3214857,141.104301 C96.0144857,137.775301 95.2354857,134.485301 94.5734857,131.196301 C94.3234857,129.953301 93.9234857,128.705301 93.3734857,127.565301 C91.8464857,124.400301 90.2714857,121.254301 88.5934857,118.166301 C86.2794857,113.909301 82.9834857,110.432301 79.6324857,106.976301 C71.7084857,98.8043014 61.8554857,94.0623014 51.1754857,90.8373014 C47.0374857,89.5893014 42.6774857,89.3873014 38.4624857,89.0933014" id="Fill-57" fill="#000000" transform="translate(50.260903, 138.400213) scale(-1, 1) rotate(180.000000) translate(-50.260903, -138.400213) "></path>
                </g>
                <g id="Session" transform="translate(1018.000000, 6.000000)">
                    <text font-family="HanziPenTC-W5, HanziPen TC" font-size="35" font-weight="bold" line-spacing="30" fill="#4A4A4A">
                        <tspan x="19" y="151">Session</tspan>
                    </text>
                    <g id="g4898" fill-rule="nonzero">
                        <path d="M41.3938,59.61468 L19.2134,59.61468 C17.1728,59.61468 15.5167,57.95115 15.5167,55.91795 L15.5167,18.95062 C15.5167,16.91002 17.1728,15.25389 19.2134,15.25389 L41.3938,15.25389 C43.4344,15.25389 45.0905,16.91002 45.0905,18.95062 L45.0905,55.91795 C45.0905,57.95115 43.4344,59.61468 41.3938,59.61468 Z M22.9101,52.22121 L37.6971,52.22121 L37.6971,22.64735 L22.9101,22.64735 L22.9101,52.22121 Z" id="path7148" fill="#FF4444"></path>
                        <path d="M79.2586,59.61468 L57.0782,59.61468 C55.0376,59.61468 53.3815,57.95115 53.3815,55.91795 L53.3815,18.95062 C53.3815,16.91002 55.0376,15.25389 57.0782,15.25389 L79.2586,15.25389 C81.2992,15.25389 82.9553,16.91002 82.9553,18.95062 L82.9553,55.91795 C82.9553,57.95115 81.2992,59.61468 79.2586,59.61468 Z M60.7749,52.22121 L75.5619,52.22121 L75.5619,22.64735 L60.7749,22.64735 L60.7749,52.22121 Z" id="path7150" fill="#FF4444"></path>
                        <path d="M117.1235,59.61468 L94.9431,59.61468 C92.9099,59.61468 91.2464,57.95115 91.2464,55.91795 L91.2464,18.95062 C91.2464,16.91002 92.9099,15.25389 94.9431,15.25389 L117.1235,15.25389 C119.1567,15.25389 120.8203,16.91002 120.8203,18.95062 L120.8203,55.91795 C120.8203,57.95115 119.1567,59.61468 117.1235,59.61468 Z M98.6399,52.22121 L113.4268,52.22121 L113.4268,22.64735 L98.6399,22.64735 L98.6399,52.22121 Z" id="path7152" fill="#FF4444"></path>
                        <path d="M132.4966,74.40161 L3.8404,74.40161 C1.7998,74.40161 0.1436,72.73808 0.1436,70.70488 L0.1436,4.16369 C0.1436,2.12309 1.7998,0.46696 3.8404,0.46696 L132.4966,0.46696 C134.5298,0.46696 136.1933,2.12309 136.1933,4.16369 L136.1933,70.70488 C136.1933,72.73808 134.5298,74.40161 132.4966,74.40161 Z M7.5371,67.00814 L128.7999,67.00814 L128.7999,7.86042 L7.5371,7.86042 L7.5371,67.00814 Z" id="path7144" fill="#333333"></path>
                        <path d="M125.1031,96.58201 L11.2338,96.58201 C9.1932,96.58201 7.5371,94.91848 7.5371,92.88527 L7.5371,70.70488 C7.5371,68.67167 9.1932,67.00814 11.2338,67.00814 L125.1031,67.00814 C127.1363,67.00814 128.7999,68.67167 128.7999,70.70488 L128.7999,92.88527 C128.7999,94.91848 127.1363,96.58201 125.1031,96.58201 Z M14.9306,89.18854 L121.4064,89.18854 L121.4064,74.40161 L14.9306,74.40161 L14.9306,89.18854 Z" id="path7146" fill="#333333"></path>
                        <path d="M37.5319,92.88527 C35.4913,92.88527 33.8352,91.22174 33.8352,89.18854 L33.8352,81.79507 C33.8352,79.76187 35.4913,78.09834 37.5319,78.09834 C39.5725,78.09834 41.2286,79.76187 41.2286,81.79507 L41.2286,89.18854 C41.2286,91.22174 39.5725,92.88527 37.5319,92.88527 Z" id="path7158" fill="#333333"></path>
                        <path d="M52.8502,92.88527 C50.8096,92.88527 49.1535,91.22174 49.1535,89.18854 L49.1535,81.79507 C49.1535,79.76187 50.8096,78.09834 52.8502,78.09834 C54.8908,78.09834 56.5469,79.76187 56.5469,81.79507 L56.5469,89.18854 C56.5469,91.22174 54.8908,92.88527 52.8502,92.88527 Z" id="path7160" fill="#333333"></path>
                        <path d="M68.1686,92.88527 C66.128,92.88527 64.4719,91.22174 64.4719,89.18854 L64.4719,81.79507 C64.4719,79.76187 66.128,78.09834 68.1686,78.09834 C70.2092,78.09834 71.8654,79.76187 71.8654,81.79507 L71.8654,89.18854 C71.8654,91.22174 70.2092,92.88527 68.1686,92.88527 Z" id="path7162" fill="#333333"></path>
                        <path d="M83.4872,92.88527 C81.4466,92.88527 79.7904,91.22174 79.7904,89.18854 L79.7904,81.79507 C79.7904,79.76187 81.4466,78.09834 83.4872,78.09834 C85.5278,78.09834 87.1839,79.76187 87.1839,81.79507 L87.1839,89.18854 C87.1839,91.22174 85.5278,92.88527 83.4872,92.88527 Z" id="path7164" fill="#333333"></path>
                        <path d="M98.8056,92.88527 C96.7724,92.88527 95.1089,91.22174 95.1089,89.18854 L95.1089,81.79507 C95.1089,79.76187 96.7724,78.09834 98.8056,78.09834 C100.8388,78.09834 102.5023,79.76187 102.5023,81.79507 L102.5023,89.18854 C102.5023,91.22174 100.8388,92.88527 98.8056,92.88527 Z" id="path7166" fill="#333333"></path>
                        <path d="M22.2136,92.88527 C20.1729,92.88527 18.5168,91.22174 18.5168,89.18854 L18.5168,81.79507 C18.5168,79.76187 20.1729,78.09834 22.2136,78.09834 C24.2542,78.09834 25.9102,79.76187 25.9102,81.79507 L25.9102,89.18854 C25.9102,91.22174 24.2542,92.88527 22.2136,92.88527 Z" id="path7156" fill="#333333"></path>
                        <path d="M114.1239,92.88527 C112.0907,92.88527 110.4272,91.22174 110.4272,89.18854 L110.4272,81.79507 C110.4272,79.76187 112.0907,78.09834 114.1239,78.09834 C116.1571,78.09834 117.8207,79.76187 117.8207,81.79507 L117.8207,89.18854 C117.8207,91.22174 116.157,92.88527 114.1239,92.88527 Z" id="path7168" fill="#333333"></path>
                    </g>
                </g>
            </g>
        </g>
    </g>
</svg>