<?xml version="1.0" encoding="UTF-8"?>
<svg width="1315px" height="298px" viewBox="0 0 1315 298" version="1.1" xmlns="http://www.w3.org/2000/svg" xmlns:xlink="http://www.w3.org/1999/xlink">
    <!-- Generator: Sketch 50.2 (55047) - http://www.bohemiancoding.com/sketch -->
    <title>micronaut-logo-white</title>
    <desc>Created with Sketch.</desc>
    <defs></defs>
    <g id="Page-1" stroke="none" stroke-width="1" fill="none" fill-rule="evenodd">
        <g id="micronaut-logo-white" fill="#FFFFFF" fill-rule="nonzero">
            <g id="Group-2" transform="translate(360.000000, 120.000000)">
                <polygon id="Shape" points="59.2074627 66.8208955 59.2074627 12.3776119 58.8313433 12.3776119 39.4925373 66.8208955 29.5880597 66.8208955 10.5313433 12.3776119 10.1552239 12.3776119 10.1552239 66.8208955 0 66.8208955 0 1 16.1731343 1 34.6656716 53.2179104 35.1671642 53.2179104 53.2835821 1 70.2089552 1 70.2089552 66.8208955"></polygon>
                <polygon id="Shape" points="134 66.8208955 134 1 145.001493 1 145.001493 66.8208955"></polygon>
                <path d="M250.224462,66.578013 C246.266333,68.2678318 241.989216,69.080484 237.687149,68.9601025 C233.232344,69.031689 228.815288,68.1333048 224.742373,66.3272667 C221.010657,64.6727977 217.700158,62.1979582 215.057298,59.0869682 C212.385108,55.8657411 210.353139,52.1635152 209.070731,48.1795055 C207.65511,43.7533765 206.956732,39.1292684 207.002074,34.4824906 C206.95922,29.8105151 207.67913,25.1628611 209.133417,20.7227891 C210.497769,16.7062834 212.626449,12.9917363 215.402074,9.78398312 C218.069399,6.71489606 221.374753,4.26529732 225.087149,2.60637118 C229.097014,0.813754521 233.452259,-0.0744158093 237.843865,0.0048786392 C241.959022,-0.0558421852 246.053228,0.601776308 249.942373,1.94816222 C253.426463,3.11547608 256.547722,5.1675153 259.000581,7.9033861 L252.167746,13.5451771 C250.430926,11.6263676 248.289896,10.1169416 245.899089,9.12577416 C243.485526,8.16684248 240.911088,7.67748648 238.314014,7.68398312 C235.277523,7.60522627 232.276662,8.352733 229.631925,9.84666968 C227.189243,11.2815764 225.125724,13.2806103 223.614014,15.6765204 C221.936552,18.2813969 220.717449,21.1542411 220.009537,24.1705503 C219.177955,27.5655072 218.767405,31.049913 218.787149,34.5451771 C218.767129,38.0197855 219.17772,41.4834867 220.009537,44.8571174 C220.729358,47.8499295 221.947878,50.7002068 223.614014,53.2884607 C225.205094,55.6987825 227.355863,57.688244 229.882671,59.0869682 C232.55408,60.5678462 235.574237,61.3039419 238.627447,61.2183115 C241.404745,61.2838152 244.153704,60.6477816 246.619984,59.3690577 C248.778685,58.2634655 250.679799,56.7148053 252.199089,54.8242816 L258.781178,60.3093563 C256.426267,63.0045124 253.504189,65.1452289 250.224462,66.578013 Z" id="Shape"></path>
                <path d="M353.480597,66.8220158 L338.81194,37.453359 L328.78209,37.453359 L328.78209,66.8220158 L318,66.8220158 L318,1.00112023 L340.441791,1.00112023 C343.478024,0.978296102 346.506831,1.30431349 349.468657,1.97276202 C352.10427,2.55947524 354.610894,3.6216039 356.865672,5.10709038 C358.98253,6.52170266 360.716203,8.43843374 361.91194,10.6861949 C363.19304,13.2515678 363.817668,16.094702 363.729851,18.9608217 C363.789357,21.3504216 363.32952,23.7244681 362.38209,25.9190307 C361.550171,27.8220213 360.358144,29.5462034 358.871642,30.9966426 C357.474178,32.3467318 355.86476,33.4585004 354.107463,34.2876874 C352.511218,35.060978 350.811541,35.5993848 349.061194,35.8861949 L365.328358,66.8220158 L353.480597,66.8220158 Z M352.728358,19.2742546 C352.795641,17.3751207 352.386166,15.4893816 351.537313,13.7891799 C350.771095,12.4145304 349.698606,11.234793 348.402985,10.3414187 C347.031662,9.44651466 345.498312,8.82891522 343.889552,8.52350829 C342.1978,8.17735711 340.476036,7.99888153 338.749254,7.99067247 L328.844776,7.99067247 L328.844776,30.8085829 L339,30.8085829 C342.593739,30.9419447 346.124011,29.8352762 348.998507,27.6742546 C351.477945,25.6047661 352.855957,22.5013448 352.728358,19.2742546 Z" id="Shape"></path>
                <path d="M484.462009,34.3590655 C484.512438,39.1373634 483.825248,43.8948314 482.424696,48.4635432 C481.215734,52.45295 479.223125,56.1611211 476.563502,59.3710058 C473.994731,62.3940067 470.781853,64.8036649 467.160516,66.4232446 C459.210616,69.8097542 450.22385,69.8097542 442.273949,66.4232446 C438.648793,64.8101607 435.434569,62.3994924 432.870964,59.3710058 C430.211341,56.1611211 428.218732,52.45295 427.00977,48.4635432 C425.62032,43.8930604 424.943718,39.1357041 425.0038,34.3590655 C424.943614,29.5972033 425.598675,24.8532881 426.947084,20.2859312 C428.122182,16.3174127 430.071628,12.6209226 432.682905,9.40981181 C435.23996,6.39766475 438.457827,4.01644328 442.08589,2.45160285 C446.050758,0.777777491 450.319938,-0.0547126719 454.623203,0.00682673366 C458.929113,-0.0849075765 463.204541,0.748800837 467.160516,2.45160285 C470.770563,4.04759081 473.981926,6.42399935 476.563502,9.40981181 C479.227232,12.6051699 481.220548,16.3039969 482.424696,20.2859312 C483.820599,24.8449384 484.50772,29.5913614 484.462009,34.3590655 Z M472.833651,34.3590655 C472.84277,30.8266126 472.453747,27.3043844 471.673949,23.8590655 C471.00001,20.8523552 469.846447,17.9737397 468.257531,15.3336924 C466.843693,13.0128296 464.912918,11.0498751 462.61574,9.59787151 C460.272049,8.18807802 457.577017,7.47085177 454.842606,7.52921479 C452.058824,7.47168239 449.313686,8.18780541 446.912755,9.59787151 C444.596314,11.0467454 442.644437,13.0093473 441.208278,15.3336924 C439.627137,17.9707297 438.493878,20.8515369 437.854546,23.8590655 C436.392123,30.7826841 436.392123,37.935447 437.854546,44.8590655 C438.488888,47.8779448 439.622352,50.7698678 441.208278,53.415782 C442.644437,55.7401271 444.596314,57.7027289 446.912755,59.1516029 C449.313686,60.561669 452.058824,61.277792 454.842606,61.2202596 C457.577017,61.2786226 460.272049,60.5613963 462.61574,59.1516029 C464.912918,57.6995993 466.843693,55.7366447 468.257531,53.415782 C469.851536,50.7670449 471.005326,47.8772772 471.673949,44.8590655 C472.456929,41.4142815 472.845991,37.891691 472.833651,34.3590655 Z" id="Shape"></path>
                <polygon id="Shape" points="588.367164 66.8208955 551.914925 3.44477612 551.695522 3.44477612 551.695522 66.8208955 549 66.8208955 549 1 553.38806 1 589.714925 64.2820896 589.965672 64.2820896 589.965672 1.03134328 592.629851 1.03134328 592.629851 66.8522388"></polygon>
                <path d="M691.680597,48.0149254 L661.214925,48.0149254 L654.632836,66.8208955 L652,66.8208955 L674.379104,1 L679.01791,1 L700.644776,66.8208955 L697.949254,66.8208955 L691.680597,48.0149254 Z M661.841791,46.1656716 L691.053731,46.1656716 L676.855224,2.28507463 L676.385075,2.28507463 L661.841791,46.1656716 Z" id="Shape"></path>
                <path d="M801.411288,52.7164179 C800.77253,55.6498846 799.523016,58.4159028 797.744124,60.8343284 C795.952386,63.1864609 793.589688,65.0420963 790.879945,66.2253731 C787.521487,67.6404262 783.897184,68.3139691 780.254571,68.2 C776.570712,68.3222175 772.903808,67.6487045 769.503825,66.2253731 C766.789004,65.0506089 764.424317,63.1934122 762.639646,60.8343284 C760.881386,58.4115187 759.653229,55.6454937 759.035168,52.7164179 C758.327359,49.3993959 757.980564,46.01552 758.00084,42.6238806 L758.00084,1 L760.696362,1 L760.696362,41.7462687 C760.692359,44.7165268 760.922927,47.6824629 761.385915,50.6164179 C761.776586,53.410435 762.702448,56.1028861 764.11278,58.5462687 C765.539998,60.952725 767.585429,62.9332217 770.036661,64.2820896 C773.204348,65.8571647 776.720369,66.601353 780.254571,66.4447761 C783.745315,66.6048379 787.219144,65.8712343 790.347109,64.3134328 C792.799336,62.9995565 794.863664,61.0649239 796.333676,58.7029851 C797.784825,56.2815492 798.743465,53.5973576 799.154571,50.8044776 C799.596488,47.8053757 799.816489,44.7777516 799.81278,41.7462687 L799.81278,1 L802.508303,1 L802.508303,42.7179104 C802.533859,46.0821258 802.165684,49.4377773 801.411288,52.7164179 Z" id="Shape"></path>
                <polygon id="Shape" points="876.808955 2.84925373 876.808955 66.7895522 874.113433 66.7895522 874.113433 2.84925373 857 2.84925373 857 1 893.922388 1 893.922388 2.84925373"></polygon>
            </g>
            <path d="M202.731343,152.91791 C205.022507,153.533914 207.459135,152.709045 208.904963,150.827963 C210.350791,148.94688 210.521066,146.380059 209.336385,144.324476 C208.151703,142.268894 205.845385,141.129392 203.492929,141.437352 C201.140472,141.745312 199.205189,143.440081 198.589552,145.731343 C197.749039,148.859547 199.603275,152.076896 202.731343,152.91791 Z" id="Shape"></path>
            <path d="M197.58209,125.537313 C199.873352,124.921677 201.568121,122.986393 201.876081,120.633937 C202.184041,118.28148 201.044539,115.975162 198.988957,114.790481 C196.933374,113.605799 194.366553,113.776075 192.48547,115.221903 C190.604387,116.667731 189.779519,119.104359 190.395522,121.395522 C191.236537,124.523591 194.453886,126.377827 197.58209,125.537313 Z" id="Shape"></path>
            <path d="M171.074627,96.1641791 C168.788273,98.4564195 168.791454,102.167615 171.081734,104.455933 C173.372014,106.744251 177.08321,106.744251 179.37349,104.455933 C181.66377,102.167615 181.666951,98.4564195 179.380597,96.1641791 C178.28014,95.0608887 176.785898,94.4408279 175.227612,94.4408279 C173.669326,94.4408279 172.175084,95.0608887 171.074627,96.1641791 Z" id="Shape"></path>
            <path d="M149,88.1044776 C146.708837,87.488474 144.272208,88.3133427 142.82638,90.1944252 C141.380552,92.0755078 141.210277,94.6423292 142.394958,96.6979118 C143.57964,98.7534944 145.885958,99.8929958 148.238414,99.585036 C150.590871,99.2770761 152.526155,97.5823069 153.141791,95.2910448 C153.969131,92.1645788 152.119961,88.9560197 149,88.1044776 Z" id="Shape"></path>
            <path d="M121.529851,107.716418 C123.821113,107.100781 125.515882,105.165498 125.823842,102.813041 C126.131802,100.460585 124.9923,98.1542669 122.936718,96.9695854 C120.881135,95.7849038 118.314314,95.955179 116.433231,97.401007 C114.552149,98.8468351 113.72728,101.283463 114.343284,103.574627 C115.184298,106.702695 118.401647,108.556931 121.529851,107.716418 Z" id="Shape"></path>
            <path d="M96.2985075,118.753731 C94.0121534,121.045972 94.0153342,124.757167 96.3056142,127.045485 C98.5958941,129.333803 102.307091,129.333803 104.597371,127.045485 C106.887651,124.757167 106.890832,121.045972 104.604478,118.753731 C103.506975,117.644901 102.011627,117.021005 100.451493,117.021005 C98.8913586,117.021005 97.3960101,117.644901 96.2985075,118.753731 Z" id="Shape"></path>
            <path d="M95.4477612,145.059701 C93.1565978,144.443698 90.7199694,145.268567 89.2741414,147.149649 C87.8283133,149.030732 87.6580381,151.597553 88.8427197,153.653136 C90.0274013,155.708718 92.3337192,156.84822 94.6861756,156.54026 C97.038632,156.2323 98.9739158,154.537531 99.5895522,152.246269 C100.416892,149.119803 98.5677222,145.911244 95.4477612,145.059701 Z" id="Shape"></path>
            <path d="M100.664179,172.440299 C98.372917,173.055935 96.6781478,174.991219 96.3701879,177.343675 C96.062228,179.696132 97.2017294,182.002449 99.2573121,183.187131 C101.312895,184.371813 103.879716,184.201537 105.760799,182.755709 C107.641881,181.309881 108.46675,178.873253 107.850746,176.58209 C107.452172,175.076611 106.469119,173.792525 105.119818,173.014891 C103.770518,172.237257 102.166619,172.03042 100.664179,172.440299 Z" id="Shape"></path>
            <path d="M127.171642,201.813433 C128.852649,200.137169 129.357531,197.61294 128.450609,195.419054 C127.543687,193.225167 125.403802,191.794248 123.029851,191.794248 C120.655899,191.794248 118.516014,193.225167 117.609092,195.419054 C116.70217,197.61294 117.207052,200.137169 118.88806,201.813433 C119.981718,202.92093 121.473368,203.544293 123.029851,203.544293 C124.586334,203.544293 126.077983,202.92093 127.171642,201.813433 Z" id="Shape"></path>
            <path d="M149.358209,209.873134 C151.653856,210.486062 154.092503,209.653524 155.53408,207.764733 C156.975657,205.875942 157.135362,203.304054 155.938533,201.251427 C154.741703,199.198801 152.424789,198.07096 150.070949,198.395171 C147.717109,198.719382 145.791376,200.431593 145.19403,202.731343 C144.396517,205.849992 146.251301,209.031045 149.358209,209.873134 Z" id="Shape"></path>
            <path d="M176.716418,190.261194 C174.425156,190.87683 172.730387,192.812114 172.422427,195.164571 C172.114467,197.517027 173.253968,199.823345 175.309551,201.008027 C177.365133,202.192708 179.931955,202.022433 181.813037,200.576605 C183.69412,199.130777 184.518989,196.694149 183.902985,194.402985 C183.051443,191.283024 179.842884,189.433855 176.716418,190.261194 Z" id="Shape"></path>
            <path d="M201.970149,179.246269 C204.256503,176.954028 204.253323,173.242833 201.963043,170.954515 C199.672763,168.666197 195.961566,168.666197 193.671286,170.954515 C191.381006,173.242833 191.377825,176.954028 193.664179,179.246269 C195.961186,181.531732 199.673142,181.531732 201.970149,179.246269 Z" id="Shape"></path>
            <path d="M233.91791,142.552239 C231.232788,141.83203 228.378222,142.800284 226.685381,145.005476 C224.992539,147.210667 224.794826,150.218486 226.18444,152.626297 C227.574055,155.034108 230.277313,156.367696 233.033607,156.005168 C235.789901,155.64264 238.056381,153.655398 238.776119,150.970149 C239.758747,147.304097 237.583791,143.535508 233.91791,142.552239 Z" id="Shape"></path>
            <path d="M222.880597,114.298507 C225.565845,113.578769 227.553088,111.312289 227.915616,108.555995 C228.278143,105.799701 226.944556,103.096443 224.536745,101.706828 C222.128934,100.317214 219.121115,100.514927 216.915923,102.207769 C214.710732,103.90061 213.742478,106.755176 214.462687,109.440299 C215.445956,113.106179 219.214545,115.281135 222.880597,114.298507 Z" id="Shape"></path>
            <path d="M185.940299,82.0597015 C187.905594,84.0264777 190.862257,84.615463 193.431207,83.5519359 C196.000157,82.4884088 197.675303,79.9818871 197.675303,77.2014925 C197.675303,74.421098 196.000157,71.9145763 193.431207,70.8510492 C190.862257,69.787522 187.905594,70.3765074 185.940299,72.3432836 C183.258613,75.0269901 183.258613,79.375995 185.940299,82.0597015 Z" id="Shape"></path>
            <path d="M147.544776,72.6119403 C150.229898,73.3321492 153.084464,72.3638951 154.777306,70.1587034 C156.470148,67.9535118 156.667861,64.9456932 155.278246,62.5378821 C153.888632,60.1300709 151.185373,58.7964836 148.429079,59.1590111 C145.672785,59.5215386 143.406306,61.5087815 142.686567,64.1940299 C141.703939,67.8600821 143.878896,71.6286706 147.544776,72.6119403 Z" id="Shape"></path>
            <path d="M106.014925,70.3507463 C103.329677,71.070485 101.342434,73.3369645 100.979907,76.0932584 C100.617379,78.8495524 101.950966,81.5528112 104.358778,82.9424256 C106.766589,84.33204 109.774407,84.1343266 111.979599,82.4414851 C114.184791,80.7486436 115.153045,77.8940775 114.432836,75.2089552 C113.439022,71.5511828 109.679232,69.3813041 106.014925,70.3507463 Z" id="Shape"></path>
            <path d="M72.4776119,112.171642 C74.4429071,114.138418 77.3995708,114.727403 79.9685208,113.663876 C82.5374707,112.600349 84.2126164,110.093827 84.2126164,107.313433 C84.2126164,104.533038 82.5374707,102.026517 79.9685208,100.962989 C77.3995708,99.8994623 74.4429071,100.488448 72.4776119,102.455224 C69.7959264,105.13893 69.7959264,109.487935 72.4776119,112.171642 Z" id="Shape"></path>
            <path d="M64.3283582,155.425373 C67.0134805,156.145582 69.8680465,155.177328 71.5608881,152.972136 C73.2537296,150.766945 73.4514429,147.759126 72.0618285,145.351315 C70.6722141,142.943504 67.9689554,141.609916 65.2126614,141.972444 C62.4563674,142.334971 60.189888,144.322214 59.4701493,147.007463 C58.5007071,150.67177 60.6705858,154.43156 64.3283582,155.425373 Z" id="Shape"></path>
            <path d="M75.3656716,183.679104 C72.6804233,184.398843 70.6931804,186.665323 70.3306529,189.421617 C69.9681254,192.177911 71.3017127,194.881169 73.7095239,196.270784 C76.117335,197.660398 79.1251536,197.462685 81.3303452,195.769843 C83.5355368,194.077002 84.5037909,191.222436 83.7835821,188.537313 C82.8003124,184.871433 79.0317239,182.696477 75.3656716,183.679104 Z" id="Shape"></path>
            <path d="M112.30597,215.91791 C109.619118,213.241401 105.27211,213.246989 102.592148,215.930399 C99.9121866,218.613808 99.9121866,222.960819 102.592148,225.644228 C105.27211,228.327638 109.619118,228.333226 112.30597,225.656716 C113.60067,224.367 114.328446,222.614775 114.328446,220.787313 C114.328446,218.959852 113.60067,217.207627 112.30597,215.91791 Z" id="Shape"></path>
            <path d="M150.701493,225.365672 C148.01637,224.645463 145.161804,225.613717 143.468963,227.818909 C141.776121,230.0241 141.578408,233.031919 142.968022,235.43973 C144.357637,237.847541 147.060895,239.181128 149.817189,238.818601 C152.573483,238.456073 154.839963,236.46883 155.559701,233.783582 C156.542329,230.11753 154.367373,226.348941 150.701493,225.365672 Z" id="Shape"></path>
            <path d="M192.253731,227.626866 C195.913829,226.633479 198.077603,222.863202 197.088877,219.201842 C196.100152,215.540482 192.332633,213.37191 188.670017,214.355973 C185.007401,215.340036 182.834034,219.104791 183.813433,222.768657 C184.806982,226.437564 188.582166,228.610549 192.253731,227.626866 Z" id="Shape"></path>
            <path d="M225.791045,185.80597 C223.82575,183.839194 220.869086,183.250209 218.300136,184.313736 C215.731186,185.377263 214.05604,187.883785 214.05604,190.664179 C214.05604,193.444574 215.731186,195.951095 218.300136,197.014622 C220.869086,198.07815 223.82575,197.489164 225.791045,195.522388 C228.46045,192.833609 228.46045,188.494749 225.791045,185.80597 Z" id="Shape"></path>
            <path d="M258.253731,170.358209 C261.758475,171.33491 265.505786,170.094109 267.735054,167.218777 C269.964321,164.343444 270.232393,160.405162 268.413319,157.254266 C266.594245,154.103371 263.049637,152.366223 259.44487,152.858993 C255.840102,153.351763 252.891761,155.976494 251.985075,159.5 C250.769869,164.222455 253.556423,169.049164 258.253731,170.358209 Z" id="Shape"></path>
            <path d="M260.58209,101.985075 C259.672672,98.4608013 256.720668,95.8375288 253.113943,95.3485725 C249.507218,94.8596161 245.963336,96.6022546 244.148431,99.757197 C242.333526,102.912139 242.608676,106.851706 244.844521,109.723733 C247.080366,112.59576 250.832081,113.828854 254.335821,112.843284 C259.024089,111.524516 261.798959,106.700818 260.58209,101.985075 Z" id="Shape"></path>
            <path d="M222.208955,52.7313433 C219.662106,50.1330374 215.796366,49.3339061 212.428044,50.7094192 C209.059721,52.0849323 206.858422,55.361644 206.858422,59 C206.858422,62.638356 209.059721,65.9150677 212.428044,67.2905808 C215.796366,68.6660939 219.662106,67.8669626 222.208955,65.2686567 C225.622175,61.786476 225.622175,56.213524 222.208955,52.7313433 Z" id="Shape"></path>
            <path d="M159.634328,46.1268657 C163.133786,47.1478969 166.902907,45.9457969 169.165022,43.0872058 C171.427138,40.2286146 171.730729,36.2841053 169.932692,33.1130218 C168.134655,29.9419383 164.593876,28.1772268 160.979391,28.6507287 C157.364906,29.1242305 154.398163,31.741435 153.477612,35.2686567 C152.253841,39.9577089 154.982186,44.7695173 159.634328,46.1268657 Z" id="Shape"></path>
            <path d="M106.798507,54.6343284 C110.322781,53.724911 112.946053,50.7729065 113.43501,47.1661817 C113.923966,43.5594568 112.181328,40.0155747 109.026385,38.2006696 C105.871443,36.3857646 101.931876,36.6609146 99.0598493,38.8967595 C96.1878222,41.1326045 94.9547281,44.8843198 95.9402985,48.3880597 C96.5484903,50.6583811 98.0354522,52.5931938 100.072779,53.7651818 C102.110106,54.9371699 104.530178,55.2499088 106.798507,54.6343284 Z" id="Shape"></path>
            <path d="M65.2910448,75.9253731 C62.7467501,73.3205764 58.878597,72.5156543 55.5064307,73.8892978 C52.1342645,75.2629412 49.9295587,78.541627 49.9295587,82.1828358 C49.9295587,85.8240446 52.1342645,89.1027304 55.5064307,90.4763739 C58.878597,91.8500173 62.7467501,91.0450953 65.2910448,88.4402985 C66.9576437,86.7844491 67.8948382,84.5321739 67.8948382,82.1828358 C67.8948382,79.8334978 66.9576437,77.5812225 65.2910448,75.9253731 Z" id="Shape"></path>
            <path d="M39.9925373,127.619403 C36.4877939,126.642702 32.7404824,127.883503 30.5112149,130.758835 C28.2819474,133.634168 28.0138761,137.57245 29.8329497,140.723346 C31.6520233,143.874241 35.1966316,145.611389 38.8013991,145.118619 C42.4061666,144.625848 45.354508,142.001117 46.261194,138.477612 C47.4763997,133.755157 44.6898459,128.928448 39.9925373,127.619403 Z" id="Shape"></path>
            <path d="M43.9328358,185.044776 C40.4093303,185.951462 37.7845993,188.899804 37.2918292,192.504571 C36.7990591,196.109339 38.5362068,199.653947 41.6871022,201.47302 C44.8379976,203.292094 48.77628,203.024023 51.6516125,200.794755 C54.5269451,198.565488 55.7677457,194.818176 54.7910448,191.313433 C53.4820001,186.616124 48.6552908,183.82957 43.9328358,185.044776 Z" id="Shape"></path>
            <path d="M88.5522388,232.820896 C86.0053896,230.22259 82.1396499,229.423458 78.7713271,230.798971 C75.4030044,232.174485 73.2017059,235.451196 73.2017059,239.089552 C73.2017059,242.727908 75.4030044,246.00462 78.7713271,247.380133 C82.1396499,248.755646 86.0053896,247.956515 88.5522388,245.358209 C91.9654586,241.876028 91.9654586,236.303076 88.5522388,232.820896 Z" id="Shape"></path>
            <path d="M138.61194,251.850746 C135.107197,250.874045 131.359885,252.114846 129.130618,254.990179 C126.90135,257.865511 126.633279,261.803793 128.452353,264.954689 C130.271426,268.105584 133.816035,269.842732 137.420802,269.349962 C141.02557,268.857192 143.973911,266.232461 144.880597,262.708955 C146.095803,257.9865 143.309249,253.159791 138.61194,251.850746 Z" id="Shape"></path>
            <path d="M191.537313,243.343284 C188.01304,244.252701 185.389768,247.204705 184.900811,250.81143 C184.411855,254.418155 186.154493,257.962037 189.309436,259.776942 C192.464378,261.591847 196.403945,261.316697 199.275972,259.080852 C202.147999,256.845007 203.381093,253.093292 202.395522,249.589552 C201.076755,244.901284 196.253057,242.126415 191.537313,243.343284 Z" id="Shape"></path>
            <path d="M245.492537,222.074627 C248.090843,219.527778 248.889974,215.662038 247.514461,212.293715 C246.138948,208.925392 242.862237,206.724094 239.223881,206.724094 C235.585525,206.724094 232.308813,208.925392 230.9333,212.293715 C229.557787,215.662038 230.356918,219.527778 232.955224,222.074627 C236.437405,225.487847 242.010357,225.487847 245.492537,222.074627 Z" id="Shape"></path>
            <path d="M289.88806,176.022388 C284.382134,174.561031 278.733366,177.836897 277.267208,183.341546 C275.801049,188.846195 279.071989,194.497818 284.575357,195.968776 C290.078725,197.439735 295.733198,194.173725 297.208955,188.671642 C297.919288,186.023299 297.546587,183.20115 296.173101,180.828002 C294.799616,178.454855 292.538252,176.72579 289.88806,176.022388 Z" id="Shape"></path>
            <path d="M289.88806,121.977612 C293.932612,120.902184 296.930522,117.495438 297.482956,113.346973 C298.03539,109.198508 296.033467,105.125955 292.411291,103.029581 C288.789115,100.933206 284.260589,101.22619 280.938739,103.771825 C277.616889,106.317459 276.156425,110.61402 277.238806,114.656716 C277.942208,117.306908 279.671272,119.568273 282.04442,120.941758 C284.417568,122.315244 287.239717,122.687945 289.88806,121.977612 Z" id="Shape"></path>
            <path d="M243.029851,55.2164179 C247.063827,59.2374415 253.592621,59.2304423 257.617967,55.2007787 C261.643313,51.171115 261.643313,44.6423178 257.617967,40.6126542 C253.592621,36.5829905 247.063827,36.5759913 243.029851,40.5970149 C241.087124,42.5335038 239.995185,45.1636931 239.995185,47.9067164 C239.995185,50.6497397 241.087124,53.2799291 243.029851,55.2164179 Z" id="Shape"></path>
            <path d="M183.455224,20.8731343 C188.960069,22.346557 194.617347,19.0796426 196.092751,13.575328 C197.568156,8.07101329 194.303278,2.41255959 188.799495,0.93517424 C183.295711,-0.542211114 177.636083,2.72062954 176.156716,8.2238806 C175.445617,10.8691727 175.815261,13.6886441 177.184223,16.0612322 C178.553186,18.4338203 180.809165,20.1648924 183.455224,20.8731343 Z" id="Shape"></path>
            <path d="M114.813433,20.8731343 C120.310122,19.3831737 123.561122,13.7224896 122.078017,8.22394711 C120.594911,2.72540459 114.938286,-0.532652005 109.437898,0.943595943 C103.93751,2.41984389 100.672403,8.07240277 102.141791,13.5746269 C102.849765,16.225683 104.584283,18.4856864 106.962042,19.8552081 C109.3398,21.2247299 112.165044,21.5910203 114.813433,20.8731343 Z" id="Shape"></path>
            <path d="M40.7313433,55.2164179 C43.688588,58.1769827 48.1383289,59.0640378 52.0047739,57.4637744 C55.8712189,55.863511 58.392535,52.0912403 58.392535,47.9067164 C58.392535,43.7221925 55.8712189,39.9499219 52.0047739,38.3496584 C48.1383289,36.749395 43.688588,37.6364501 40.7313433,40.5970149 C36.6975093,44.6353777 36.6975093,51.1780552 40.7313433,55.2164179 Z" id="Shape"></path>
            <path d="M13.7089552,101.985075 C9.66625831,100.902694 5.36969817,102.363157 2.8240634,105.685008 C0.278428636,109.006858 -0.0145550463,113.535383 2.08181947,117.15756 C4.17819399,120.779736 8.25074685,122.781659 12.399212,122.229225 C16.5476771,121.676791 19.9544228,118.67888 21.0298507,114.634328 C21.7401836,111.985986 21.3674823,109.163836 19.9939969,106.790689 C18.6205115,104.417541 16.3591472,102.688476 13.7089552,101.985075 Z" id="Shape"></path>
            <path d="M8.35820896,176.022388 C2.8549579,177.501754 -0.407882755,183.161383 1.0695026,188.665166 C2.54688795,194.168949 8.20534165,197.433827 13.7096563,195.958423 C19.213971,194.483019 22.4808853,188.825741 21.0074627,183.320896 C20.3045168,180.671527 18.5743978,178.411697 16.200221,177.041818 C13.8260442,175.671939 11.0037158,175.305048 8.35820896,176.022388 Z" id="Shape"></path>
            <path d="M55.3507463,242.783582 C51.3200305,238.753454 44.7854746,238.753772 40.7551507,242.784292 C36.7248269,246.814812 36.7248269,253.349368 40.7551507,257.379887 C44.7854746,261.410407 51.3200305,261.410725 55.3507463,257.380597 C57.2866153,255.44501 58.3741989,252.819622 58.3741989,250.08209 C58.3741989,247.344557 57.2866153,244.719169 55.3507463,242.783582 Z" id="Shape"></path>
            <path d="M114.791045,277.104478 C109.285119,275.64312 103.636351,278.918987 102.170193,284.423636 C100.704034,289.928285 103.974974,295.579908 109.478342,297.050866 C114.98171,298.521824 120.636183,295.255815 122.11194,289.753731 C122.822273,287.105389 122.449572,284.283239 121.076086,281.910092 C119.702601,279.536944 117.441237,277.807879 114.791045,277.104478 Z" id="Shape"></path>
            <path d="M183.455224,277.104478 C177.951973,278.583844 174.689132,284.243473 176.166518,289.747256 C177.643903,295.251039 183.302357,298.515917 188.806671,297.040513 C194.310986,295.565109 197.5779,289.90783 196.104478,284.402985 C195.396236,281.756927 193.665164,279.500947 191.292575,278.131984 C188.919987,276.763022 186.100516,276.393379 183.455224,277.104478 Z" id="Shape"></path>
            <path d="M257.514925,242.761194 C253.480949,238.74017 246.952155,238.74717 242.926809,242.776833 C238.901463,246.806497 238.901463,253.335294 242.926809,257.364958 C246.952155,261.394621 253.480949,261.401621 257.514925,257.380597 C259.463184,255.447056 260.55895,252.815762 260.55895,250.070896 C260.55895,247.326029 259.463184,244.694735 257.514925,242.761194 Z" id="Shape"></path>
            <path d="M179.940299,155.156716 C177.522388,157.574627 175.283582,159.947761 172.865672,162.164179 C171.041578,163.824221 169.11219,165.36474 167.089552,166.776119 C164.234151,168.720009 160.595601,169.106552 157.395522,167.80597 C154.918625,167.001528 153.130016,164.837748 152.80597,162.253731 C149.313433,165.074627 146.089552,168.365672 141.253731,168.567164 C140.850746,170.425373 140.447761,172.350746 140.044776,174.276119 C139.817374,175.107087 139.645354,175.952227 139.529851,176.80597 C139.529851,178.037313 138.858209,178.529851 137.649254,178.776119 C134.671642,179.380597 128.246269,181.014925 127.798507,181.014925 C131.358209,164.201493 134.895522,147.432836 138.455224,130.843284 L149.246269,130.843284 C148.686567,133.552239 143.671642,157.440299 143.626866,157.708955 C143.335821,160.552239 145.149254,162.186567 147.925373,161.402985 C149.507508,160.784611 151.010578,159.980469 152.402985,159.007463 C152.626866,158.873134 152.69403,158.447761 152.761194,158.134328 C154.664179,149.179104 156.522388,140.335821 158.402985,131.447761 C158.457307,131.217616 158.532236,130.992829 158.626866,130.776119 L169.373134,130.776119 C168.791045,133.529851 165.141791,151.104478 163.865672,157.238806 C163.820427,157.730304 163.820427,158.22492 163.865672,158.716418 C163.769079,160.02395 164.696092,161.185155 165.992537,161.380597 C167.190293,161.754052 168.489787,161.607859 169.574627,160.977612 C170.741867,160.305718 171.863688,159.557838 172.932836,158.738806 C174.092963,157.88353 175.185726,156.940461 176.201493,155.91791 C177.229692,155.029436 178.646569,154.74097 179.940299,155.156716 Z" id="Shape"></path>
            <g id="Group-Copy" transform="translate(1280.000000, 111.000000)">
                <path d="M13.815385,1.8 L7.446154,1.8 L7.446154,21.7692308 L6.369231,21.7692308 L6.369231,1.8 L0,1.8 L0,0.784615385 L14,0.784615385 L13.815385,1.8 Z M34.953846,21.7692308 L33.907692,21.7692308 L32.769231,11.3076923 C32.256408,6.44612954 31.938462,3.25641785 31.815385,1.73846154 L25.969231,19.2153846 L24.953846,19.2153846 L18.984615,1.73846154 C18.923077,2.62051723 18.707694,4.80511077 18.338462,8.29230769 L18.061538,11.0615385 L17.015385,21.7692308 L15.969231,21.7692308 L18.123077,0.784615385 L19.723077,0.784615385 L25.476923,17.9230769 L31.107692,0.784615385 L32.738462,0.784615385 L34.953846,21.7692308 Z" id="TM"></path>
            </g>
        </g>
    </g>
</svg>